M48
METRIC,LZ,000.000
;FILE_FORMAT=3:3
;TYPE=PLATED
;Layer: PTH_Through
;EasyEDA v6.5.22, 2023-03-10 14:55:56
;f9066f1d320f41b494732b54a9093742,f9ecfe7abe46434aadffdc01d2bfd918,10
;Gerber Generator version 0.2
;Holesize 1 = 0.600 mm
T01C0.600
;Holesize 2 = 0.915 mm
T02C0.915
;Holesize 3 = 1.000 mm
T03C1.000
;Holesize 4 = 1.001 mm
T04C1.001
;Holesize 5 = 1.016 mm
T05C1.016
;Holesize 6 = 1.270 mm
T06C1.270
;Holesize 7 = 1.701 mm
T07C1.701
%
G05
G90
T01
X006965Y042011G85X006065Y042011
X006965Y057811G85X006065Y057811
X006965Y024485G85X006065Y024485
X006965Y040285G85X006065Y040285
T02
X036671Y033767
X036671Y031227
X036671Y028687
X036671Y026147
X076671Y033767
X076671Y031227
X076671Y028687
X076671Y026147
X027940Y066040
X030480Y066040
X033020Y066040
X035560Y066040
X038100Y066040
X040640Y066040
X043180Y066040
X045720Y066040
X048260Y066040
X050800Y066040
X053340Y066040
X055880Y066040
X058420Y066040
X060960Y066040
X063500Y066040
X066040Y066040
X068580Y066040
X071120Y066040
X073660Y066040
X073660Y091440
X071120Y091440
X068580Y091440
X066040Y091440
X063500Y091440
X060960Y091440
X058420Y091440
X055880Y091440
X053340Y091440
X050800Y091440
X048260Y091440
X045720Y091440
X043180Y091440
X040640Y091440
X038100Y091440
X035560Y091440
X033020Y091440
X030480Y091440
X027940Y091440
X020155Y045466
X017615Y046736
X020155Y048006
X017615Y049276
X020155Y050546
X017615Y051816
X020155Y053086
X017615Y054356
X020155Y027940
X017615Y029210
X020155Y030480
X017615Y031750
X020155Y033020
X017615Y034290
X020155Y035560
X017615Y036830
X052451Y052578
X052451Y055118
X052451Y043688
X052451Y041148
X071501Y055118
X071501Y052578
X071501Y043688
X071501Y041148
X027813Y033020
X027813Y043180
T03
X033147Y054356G85X033147Y054356
X033147Y051816G85X033147Y051816
X033147Y049276G85X033147Y049276
X033147Y046736G85X033147Y046736
X033147Y044196G85X033147Y044196
X033147Y041656G85X033147Y041656
T04
X025654Y021336
X023114Y021336
X077851Y046228
X077851Y043688
X027559Y048133
X025019Y048133
X031877Y021336
X029337Y021336
T05
X030480Y095377
X033020Y095377
X035560Y095377
X027940Y095377
X038100Y095377
X040640Y095377
X043180Y095377
X045720Y095377
X048260Y095377
X050800Y095377
X053340Y095377
X055880Y095377
X058420Y095377
X060960Y095377
X063500Y095377
X066040Y095377
X068580Y095377
X071120Y095377
X073660Y095377
X030480Y061976
X033020Y061976
X035560Y061976
X027940Y061976
X038100Y061976
X040640Y061976
X043180Y061976
X045720Y061976
X048260Y061976
X050800Y061976
X053340Y061976
X055880Y061976
X058420Y061976
X060960Y061976
X063500Y061976
X066040Y061976
X068580Y061976
X071120Y061976
X073660Y061976
T06
X008255Y081661
X008255Y076581
X008255Y091948
X008255Y086868
T07
X008255Y061301
X008255Y066301
X008255Y071301
M30
