M48
METRIC,LZ,000.000
;FILE_FORMAT=3:3
;TYPE=PLATED
;Layer: PTH_Through
;EasyEDA v6.5.48, 2025-03-13 20:33:32
;94a380b5bd244f86828ecfb0a5ad460b,f9ecfe7abe46434aadffdc01d2bfd918,10
;Gerber Generator version 0.2
;Holesize 1 = 0.306 mm
T01C0.306
;Holesize 2 = 0.600 mm
T02C0.600
;Holesize 3 = 0.915 mm
T03C0.915
;Holesize 4 = 1.000 mm
T04C1.000
;Holesize 5 = 1.001 mm
T05C1.001
;Holesize 6 = 1.270 mm
T06C1.270
;Holesize 7 = 1.701 mm
T07C1.701
%
G05
G90
T01
X068263Y023943
X016040Y026709
X059052Y022070
X024699Y074020
X041005Y027936
X044931Y025099
X046699Y018468
X068263Y021082
X076842Y031157
X034674Y067545
X034674Y060158
X018520Y060158
X018520Y068467
X012566Y068467
X052474Y038931
X077849Y038931
X024689Y070477
X025713Y082654
X028907Y069745
X028741Y094260
X027164Y064152
X031650Y064152
X041570Y056575
X020400Y056575
X019469Y067590
X020479Y069831
X020479Y079625
X017377Y059090
X030112Y043617
X025747Y072282
X025747Y065024
X022465Y057446
X024720Y035052
X032082Y037216
T02
X006965Y042011G85X006065Y042011
X006965Y057811G85X006065Y057811
X006965Y024612G85X006065Y024612
X006965Y040412G85X006065Y040412
X003657Y092095G85X003657Y092995
X019457Y092095G85X019457Y092995
T03
X029718Y070866
X032258Y070866
X034798Y070866
X037338Y070866
X039878Y070866
X042418Y070866
X044958Y070866
X047498Y070866
X050038Y070866
X052578Y070866
X055118Y070866
X057658Y070866
X060198Y070866
X062738Y070866
X065278Y070866
X067818Y070866
X070358Y070866
X072898Y070866
X075438Y070866
X075438Y096266
X072898Y096266
X070358Y096266
X067818Y096266
X065278Y096266
X062738Y096266
X060198Y096266
X057658Y096266
X055118Y096266
X052578Y096266
X050038Y096266
X047498Y096266
X044958Y096266
X042418Y096266
X039878Y096266
X037338Y096266
X034798Y096266
X032258Y096266
X029718Y096266
X020155Y045466
X017615Y046736
X020155Y048006
X017615Y049276
X020155Y050546
X017615Y051816
X020155Y053086
X017615Y054356
X020155Y028067
X017615Y029337
X020155Y030607
X017615Y031877
X020155Y033147
X017615Y034417
X020155Y035687
X017615Y036957
X028829Y043434
X026289Y043434
X037719Y043434
X040259Y043434
X026289Y062484
X028829Y062484
X037719Y062484
X040259Y062484
X007112Y078905
X008382Y081445
X009652Y078905
X010922Y081445
X012192Y078905
X013462Y081445
X014732Y078905
X016002Y081445
X021844Y072771
X021844Y062611
T04
X037862Y036020
X039862Y036020
X037862Y034020
X039862Y034020
X037862Y032020
X039862Y032020
X037862Y030020
X039862Y030020
T05
X027305Y035052
X027305Y032512
X016383Y064897
X016383Y062357
X030988Y035052
X030988Y032512
X016383Y073533
X016383Y070993
T06
X027940Y024130
X033020Y024130
T07
X007303Y062190
X007303Y067190
X007303Y072190
M30
