M48
METRIC,LZ,000.000
;FILE_FORMAT=3:3
;TYPE=PLATED
;Layer: PTH_Through_Via
;EasyEDA v6.5.48, 2025-03-13 20:33:32
;94a380b5bd244f86828ecfb0a5ad460b,f9ecfe7abe46434aadffdc01d2bfd918,10
;Gerber Generator version 0.2
;Holesize 1 = 0.306 mm
T01C0.306
%
G05
G90
T01
X068263Y023943
X016040Y026709
X059052Y022070
X024699Y074020
X041005Y027936
X044931Y025099
X046699Y018468
X068263Y021082
X076842Y031157
X034674Y067545
X034674Y060158
X018520Y060158
X018520Y068467
X012566Y068467
X052474Y038931
X077849Y038931
X024689Y070477
X025713Y082654
X028907Y069745
X028741Y094260
X027164Y064152
X031650Y064152
X041570Y056575
X020400Y056575
X019469Y067590
X020479Y069831
X020479Y079625
X017377Y059090
X030112Y043617
X025747Y072282
X025747Y065024
X022465Y057446
X024720Y035052
X032082Y037216
M30
