M48
METRIC,LZ,000.000
;FILE_FORMAT=3:3
;TYPE=PLATED
;Layer: PTH_Through
;EasyEDA v6.5.22, 2023-04-05 22:42:55
;57731fc057a342d4b2a8a82ce43b0460,f9ecfe7abe46434aadffdc01d2bfd918,10
;Gerber Generator version 0.2
;Holesize 1 = 0.600 mm
T01C0.600
;Holesize 2 = 0.915 mm
T02C0.915
;Holesize 3 = 1.000 mm
T03C1.000
;Holesize 4 = 1.001 mm
T04C1.001
;Holesize 5 = 1.270 mm
T05C1.270
;Holesize 6 = 1.701 mm
T06C1.701
%
G05
G90
T01
X006965Y042011G85X006065Y042011
X006965Y057811G85X006065Y057811
X006965Y024485G85X006065Y024485
X006965Y040285G85X006065Y040285
X003022Y092095G85X003022Y092995
X018822Y092095G85X018822Y092995
T02
X036925Y031100
X036925Y028560
X036925Y026020
X036925Y023480
X076925Y031100
X076925Y028560
X076925Y026020
X076925Y023480
X028448Y070866
X030988Y070866
X033528Y070866
X036068Y070866
X038608Y070866
X041148Y070866
X043688Y070866
X046228Y070866
X048768Y070866
X051308Y070866
X053848Y070866
X056388Y070866
X058928Y070866
X061468Y070866
X064008Y070866
X066548Y070866
X069088Y070866
X071628Y070866
X074168Y070866
X074168Y096266
X071628Y096266
X069088Y096266
X066548Y096266
X064008Y096266
X061468Y096266
X058928Y096266
X056388Y096266
X053848Y096266
X051308Y096266
X048768Y096266
X046228Y096266
X043688Y096266
X041148Y096266
X038608Y096266
X036068Y096266
X033528Y096266
X030988Y096266
X028448Y096266
X020155Y045466
X017615Y046736
X020155Y048006
X017615Y049276
X020155Y050546
X017615Y051816
X020155Y053086
X017615Y054356
X020155Y027940
X017615Y029210
X020155Y030480
X017615Y031750
X020155Y033020
X017615Y034290
X020155Y035560
X017615Y036830
X049784Y064389
X049784Y066929
X049784Y055499
X049784Y052959
X068834Y066929
X068834Y064389
X068834Y055499
X068834Y052959
X031115Y036195
X031115Y046355
X036925Y047102
X036925Y044562
X036925Y042022
X036925Y039482
X076925Y047102
X076925Y044562
X076925Y042022
X076925Y039482
X006477Y078905
X007747Y081445
X009017Y078905
X010287Y081445
X011557Y078905
X012827Y081445
X014097Y078905
X015367Y081445
T03
X041783Y065659G85X041783Y065659
X039243Y065659G85X039243Y065659
X036703Y065659G85X036703Y065659
X034163Y065659G85X034163Y065659
X031623Y065659G85X031623Y065659
X029083Y065659G85X029083Y065659
T04
X026289Y032512
X026289Y029972
X075565Y061087
X075565Y058547
X027940Y047879
X025400Y047879
X031496Y032512
X031496Y029972
X017653Y074041
X017653Y071501
T05
X026289Y023876
X031369Y023876
T06
X007303Y062190
X007303Y067190
X007303Y072190
M30
