M48
METRIC,LZ,000.000
;FILE_FORMAT=3:3
;TYPE=PLATED
;Layer: PTH_Through
;EasyEDA v6.5.22, 2023-01-11 09:16:23
;b7ba764f11704334a16948ce3b62396a,f9ecfe7abe46434aadffdc01d2bfd918,10
;Gerber Generator version 0.2
;Holesize 1 = 0.600 mm
T01C0.600
;Holesize 2 = 0.915 mm
T02C0.915
;Holesize 3 = 1.001 mm
T03C1.001
;Holesize 4 = 1.016 mm
T04C1.016
;Holesize 5 = 1.270 mm
T05C1.270
%
G05
G90
T01
X011918Y042519G85X011018Y042519
X011918Y058319G85X011018Y058319
X011918Y023088G85X011018Y023088
X011918Y038888G85X011018Y038888
T02
X036671Y033767
X036671Y031227
X036671Y028687
X036671Y026147
X076671Y033767
X076671Y031227
X076671Y028687
X076671Y026147
X027940Y066040
X030480Y066040
X033020Y066040
X035560Y066040
X038100Y066040
X040640Y066040
X043180Y066040
X045720Y066040
X048260Y066040
X050800Y066040
X053340Y066040
X055880Y066040
X058420Y066040
X060960Y066040
X063500Y066040
X066040Y066040
X068580Y066040
X071120Y066040
X073660Y066040
X073660Y091440
X071120Y091440
X068580Y091440
X066040Y091440
X063500Y091440
X060960Y091440
X058420Y091440
X055880Y091440
X053340Y091440
X050800Y091440
X048260Y091440
X045720Y091440
X043180Y091440
X040640Y091440
X038100Y091440
X035560Y091440
X033020Y091440
X030480Y091440
X027940Y091440
X025108Y045974
X022568Y047244
X025108Y048514
X022568Y049784
X025108Y051054
X022568Y052324
X025108Y053594
X022568Y054864
X025108Y026543
X022568Y027813
X025108Y029083
X022568Y030353
X025108Y031623
X022568Y032893
X025108Y034163
X022568Y035433
X052451Y052578
X052451Y055118
X052451Y043688
X052451Y041148
X071501Y055118
X071501Y052578
X071501Y043688
X071501Y041148
T03
X030988Y031623
X030988Y029083
X078359Y046228
X078359Y043688
T04
X030480Y095377
X033020Y095377
X035560Y095377
X027940Y095377
X038100Y095377
X040640Y095377
X043180Y095377
X045720Y095377
X048260Y095377
X050800Y095377
X053340Y095377
X055880Y095377
X058420Y095377
X060960Y095377
X063500Y095377
X066040Y095377
X068580Y095377
X071120Y095377
X073660Y095377
X030480Y061976
X033020Y061976
X035560Y061976
X027940Y061976
X038100Y061976
X040640Y061976
X043180Y061976
X045720Y061976
X048260Y061976
X050800Y061976
X053340Y061976
X055880Y061976
X058420Y061976
X060960Y061976
X063500Y061976
X066040Y061976
X068580Y061976
X071120Y061976
X073660Y061976
T05
X008382Y076073
X008382Y070993
X008382Y088900
X008382Y083820
M30
