M48
METRIC,LZ,000.000
;FILE_FORMAT=3:3
;TYPE=PLATED
;Layer: PTH_Through
;EasyEDA v6.5.22, 2023-04-24 20:58:47
;13ecd297d484426e822b8d46814ac5cb,f9ecfe7abe46434aadffdc01d2bfd918,10
;Gerber Generator version 0.2
;Holesize 1 = 0.600 mm
T01C0.600
;Holesize 2 = 0.915 mm
T02C0.915
;Holesize 3 = 1.001 mm
T03C1.001
;Holesize 4 = 1.270 mm
T04C1.270
;Holesize 5 = 1.701 mm
T05C1.701
%
G05
G90
T01
X006965Y042011G85X006065Y042011
X006965Y057811G85X006065Y057811
X006965Y024485G85X006065Y024485
X006965Y040285G85X006065Y040285
X003657Y092095G85X003657Y092995
X019457Y092095G85X019457Y092995
T02
X029718Y070866
X032258Y070866
X034798Y070866
X037338Y070866
X039878Y070866
X042418Y070866
X044958Y070866
X047498Y070866
X050038Y070866
X052578Y070866
X055118Y070866
X057658Y070866
X060198Y070866
X062738Y070866
X065278Y070866
X067818Y070866
X070358Y070866
X072898Y070866
X075438Y070866
X075438Y096266
X072898Y096266
X070358Y096266
X067818Y096266
X065278Y096266
X062738Y096266
X060198Y096266
X057658Y096266
X055118Y096266
X052578Y096266
X050038Y096266
X047498Y096266
X044958Y096266
X042418Y096266
X039878Y096266
X037338Y096266
X034798Y096266
X032258Y096266
X029718Y096266
X020155Y045466
X017615Y046736
X020155Y048006
X017615Y049276
X020155Y050546
X017615Y051816
X020155Y053086
X017615Y054356
X020155Y027940
X017615Y029210
X020155Y030480
X017615Y031750
X020155Y033020
X017615Y034290
X020155Y035560
X017615Y036830
X028829Y043434
X026289Y043434
X037719Y043434
X040259Y043434
X026289Y062484
X028829Y062484
X037719Y062484
X040259Y062484
X007112Y078905
X008382Y081445
X009652Y078905
X010922Y081445
X012192Y078905
X013462Y081445
X014732Y078905
X016002Y081445
T03
X027305Y035052
X027305Y032512
X016383Y064897
X016383Y062357
X032766Y035052
X032766Y032512
X016383Y073533
X016383Y070993
T04
X027940Y024130
X033020Y024130
T05
X007303Y062190
X007303Y067190
X007303Y072190
M30
