G04 Layer: BottomLayer*
G04 EasyEDA v6.5.22, 2023-04-05 22:42:55*
G04 57731fc057a342d4b2a8a82ce43b0460,f9ecfe7abe46434aadffdc01d2bfd918,10*
G04 Gerber Generator version 0.2*
G04 Scale: 100 percent, Rotated: No, Reflected: No *
G04 Dimensions in millimeters *
G04 leading zeros omitted , absolute positions ,4 integer and 5 decimal *
%FSLAX45Y45*%
%MOMM*%

%ADD10C,0.7000*%
%ADD11C,1.8000*%
%ADD12C,1.5240*%
%ADD13C,2.5400*%
%ADD14R,1.9304X1.9304*%
%ADD15R,1.5240X1.5240*%
%ADD16O,1.9999959999999999X1.1999976*%
%ADD17C,1.8001*%
%ADD18C,3.0000*%
%ADD19O,1.1999976X1.9999959999999999*%
%ADD20C,0.6100*%

%LPD*%
D10*
X3692499Y2348001D02*
G01*
X3845813Y2501315D01*
X3845813Y3794887D01*
X3692499Y3948201D01*
X4178300Y6565900D02*
G01*
X4178300Y4434001D01*
X3692499Y3948201D01*
X730300Y7219010D02*
G01*
X730300Y7167067D01*
X1268298Y6629069D01*
X1761489Y3175000D02*
G01*
X1619021Y3317468D01*
X1619021Y4331639D01*
X1897227Y4609845D01*
X1897227Y4728362D01*
X1761489Y4864100D01*
X1761489Y4927600D01*
X2908300Y6565900D02*
G01*
X2331465Y5989065D01*
X2331465Y5913678D01*
X3162300Y6565900D02*
G01*
X3162300Y5151018D01*
X4978400Y6438900D02*
G01*
X5112638Y6304661D01*
X5112638Y2192273D01*
X4978400Y6692900D02*
G01*
X4978400Y6438900D01*
X3098800Y9626600D02*
G01*
X2607741Y9135541D01*
X2607741Y6720839D01*
X7692491Y2856001D02*
G01*
X7844434Y3007944D01*
X7844434Y6693585D01*
X7692491Y2602001D02*
G01*
X7692491Y2856001D01*
X5130800Y9626600D02*
G01*
X7556906Y7200493D01*
X7556906Y6693585D01*
X1761489Y5435600D02*
G01*
X1907743Y5435600D01*
X1907743Y5435600D02*
G01*
X1927072Y5454929D01*
X2401061Y5454929D01*
X2943402Y4912588D01*
X2943402Y4160926D01*
X3327145Y3777183D01*
X3327145Y2640939D01*
X7692491Y2348001D02*
G01*
X7941436Y2596946D01*
X7941436Y6599580D01*
X7840014Y6854774D02*
G01*
X8050961Y6643827D01*
X8050961Y3110001D01*
X2015490Y4800600D02*
G01*
X2628900Y4187189D01*
X2628900Y3251200D01*
X7416800Y7086600D02*
G01*
X7416800Y6414973D01*
X7556500Y6275273D01*
X7556500Y6108700D02*
G01*
X7556500Y6275273D01*
X5892800Y9626600D02*
G01*
X7705547Y7813852D01*
X7705547Y5424195D01*
X7536611Y5255260D01*
X7536611Y4612081D01*
X7692491Y4456201D01*
X7692491Y4202201D02*
G01*
X7692491Y4456201D01*
X4978400Y5295900D02*
G01*
X4978400Y3417519D01*
X3764381Y2203500D01*
X2812999Y2203500D01*
X2628900Y2387600D01*
X4978400Y5549900D02*
G01*
X4978400Y5295900D01*
X1765300Y7150100D02*
G01*
X1931873Y7150100D01*
X2844800Y9626600D02*
G01*
X1931873Y8713673D01*
X1931873Y7150100D01*
X6883400Y6438900D02*
G01*
X6883400Y6692900D01*
X3692499Y4710201D02*
G01*
X3692499Y6334099D01*
X3924300Y6565900D01*
X7692491Y3948201D02*
G01*
X6400800Y5239893D01*
X6400800Y7086600D01*
X3416300Y6565900D02*
G01*
X3143884Y6838314D01*
X2902000Y6838314D01*
X2702686Y7037628D01*
X2702686Y8976487D01*
X3352800Y9626600D01*
X2628900Y2997200D02*
G01*
X2462326Y2997200D01*
X2015490Y3048000D02*
G01*
X2411526Y3048000D01*
X2462326Y2997200D01*
X302209Y9254489D02*
G01*
X302209Y6130391D01*
X651510Y5781090D01*
X1282700Y8144484D02*
G01*
X1421739Y8283524D01*
X1631162Y8283524D01*
X1765300Y8149386D01*
X1765300Y7404100D01*
X1409700Y7890484D02*
G01*
X1409700Y6741617D01*
X2244318Y5906998D01*
X2244318Y5877560D01*
X3665677Y4456201D01*
X3692499Y4456201D01*
X1409700Y7890484D02*
G01*
X1355191Y7890484D01*
X1225321Y8020354D01*
X1104061Y8020354D01*
X1089279Y8005571D01*
X977112Y8005571D01*
X838200Y8144484D01*
X774700Y8144484D01*
X647700Y7890484D02*
G01*
X1096721Y7441463D01*
X1096721Y6931304D01*
X2157171Y5870854D01*
X2157171Y5841441D01*
X3280435Y4718177D01*
X3280435Y4614265D01*
X3692499Y4202201D01*
X6883400Y5295900D02*
G01*
X6883400Y5549900D01*
D11*
G01*
X3692499Y3110001D03*
G01*
X3692499Y2856001D03*
G01*
X3692499Y2602001D03*
G01*
X3692499Y2348001D03*
G01*
X7692491Y3110001D03*
G01*
X7692491Y2856001D03*
G01*
X7692491Y2602001D03*
G01*
X7692491Y2348001D03*
D12*
G01*
X2844800Y7086600D03*
G01*
X3098800Y7086600D03*
G01*
X3352800Y7086600D03*
G01*
X3606800Y7086600D03*
G01*
X3860800Y7086600D03*
G01*
X4114800Y7086600D03*
G01*
X4368800Y7086600D03*
G01*
X4622800Y7086600D03*
G01*
X4876800Y7086600D03*
G01*
X5130800Y7086600D03*
G01*
X5384800Y7086600D03*
G01*
X5638800Y7086600D03*
G01*
X5892800Y7086600D03*
G01*
X6146800Y7086600D03*
G01*
X6400800Y7086600D03*
G01*
X6654800Y7086600D03*
G01*
X6908800Y7086600D03*
G01*
X7162800Y7086600D03*
G01*
X7416800Y7086600D03*
G01*
X7416800Y9626600D03*
G01*
X7162800Y9626600D03*
G01*
X6908800Y9626600D03*
G01*
X6654800Y9626600D03*
G01*
X6400800Y9626600D03*
G01*
X6146800Y9626600D03*
G01*
X5892800Y9626600D03*
G01*
X5638800Y9626600D03*
G01*
X5384800Y9626600D03*
G01*
X5130800Y9626600D03*
G01*
X4876800Y9626600D03*
G01*
X4622800Y9626600D03*
G01*
X4368800Y9626600D03*
G01*
X4114800Y9626600D03*
G01*
X3860800Y9626600D03*
G01*
X3606800Y9626600D03*
G01*
X3352800Y9626600D03*
G01*
X3098800Y9626600D03*
G01*
X2844800Y9626600D03*
D13*
G01*
X2628900Y2387600D03*
G01*
X3136900Y2387600D03*
D14*
G01*
X2628900Y3251200D03*
G01*
X2628900Y2997200D03*
D12*
G01*
X2015490Y4546600D03*
G01*
X1761489Y4673600D03*
G01*
X2015490Y4800600D03*
G01*
X1761489Y4927600D03*
G01*
X2015490Y5054600D03*
G01*
X1761489Y5181600D03*
G01*
X2015490Y5308600D03*
D15*
G01*
X1761489Y5435600D03*
D16*
G01*
X651510Y4201109D03*
G01*
X651510Y5781090D03*
D12*
G01*
X2015490Y2794000D03*
G01*
X1761489Y2921000D03*
G01*
X2015490Y3048000D03*
G01*
X1761489Y3175000D03*
G01*
X2015490Y3302000D03*
G01*
X1761489Y3429000D03*
G01*
X2015490Y3556000D03*
D15*
G01*
X1761489Y3683000D03*
D16*
G01*
X651510Y2448509D03*
G01*
X651510Y4028490D03*
D12*
G01*
X4978400Y6438900D03*
G01*
X4978400Y6692900D03*
G01*
X4978400Y5549900D03*
G01*
X4978400Y5295900D03*
G01*
X6883400Y6692900D03*
G01*
X6883400Y6438900D03*
G01*
X6883400Y5549900D03*
G01*
X6883400Y5295900D03*
D14*
G01*
X7556500Y6108700D03*
G01*
X7556500Y5854700D03*
G01*
X2794000Y4787900D03*
G01*
X2540000Y4787900D03*
G01*
X3149600Y3251200D03*
G01*
X3149600Y2997200D03*
D12*
G01*
X3111500Y3619500D03*
G01*
X3111500Y4635500D03*
D17*
G01*
X4178300Y6565900D03*
G01*
X3924300Y6565900D03*
G01*
X3670300Y6565900D03*
G01*
X3416300Y6565900D03*
G01*
X3162300Y6565900D03*
G01*
X2908300Y6565900D03*
D18*
G01*
X730300Y6219012D03*
G01*
X730300Y6719011D03*
G01*
X730300Y7219010D03*
D14*
G01*
X1765300Y7404100D03*
G01*
X1765300Y7150100D03*
D11*
G01*
X3692499Y4710201D03*
G01*
X3692499Y4456201D03*
G01*
X3692499Y4202201D03*
G01*
X3692499Y3948201D03*
G01*
X7692491Y4710201D03*
G01*
X7692491Y4456201D03*
G01*
X7692491Y4202201D03*
G01*
X7692491Y3948201D03*
D12*
G01*
X647700Y7890484D03*
G01*
X774700Y8144484D03*
G01*
X901700Y7890484D03*
G01*
X1028700Y8144484D03*
G01*
X1155700Y7890484D03*
G01*
X1282700Y8144484D03*
G01*
X1409700Y7890484D03*
D15*
G01*
X1536700Y8144510D03*
D19*
G01*
X302209Y9254489D03*
G01*
X1882190Y9254489D03*
D20*
G01*
X1268298Y6629069D03*
G01*
X2331465Y5913678D03*
G01*
X3162300Y5151018D03*
G01*
X5112638Y2192273D03*
G01*
X2607741Y6720839D03*
G01*
X7844434Y6693585D03*
G01*
X7556906Y6693585D03*
G01*
X3327145Y2640939D03*
G01*
X7941436Y6599580D03*
G01*
X8050961Y3110001D03*
G01*
X7840014Y6854774D03*
M02*
