G04 Layer: TopSilkscreenLayer*
G04 EasyEDA v6.5.22, 2023-03-10 14:55:56*
G04 f9066f1d320f41b494732b54a9093742,f9ecfe7abe46434aadffdc01d2bfd918,10*
G04 Gerber Generator version 0.2*
G04 Scale: 100 percent, Rotated: No, Reflected: No *
G04 Dimensions in millimeters *
G04 leading zeros omitted , absolute positions ,4 integer and 5 decimal *
%FSLAX45Y45*%
%MOMM*%

%ADD10C,0.1524*%
%ADD11C,0.2032*%
%ADD12C,0.1500*%
%ADD13C,0.2050*%
%ADD14C,0.2540*%
%ADD15C,0.2997*%
%ADD16C,0.1270*%
%ADD17C,0.0145*%

%LPD*%
G36*
X5527802Y5459984D02*
G01*
X5521960Y5459780D01*
X5516321Y5459120D01*
X5510885Y5458053D01*
X5505653Y5456580D01*
X5500624Y5454650D01*
X5495848Y5452364D01*
X5491276Y5449722D01*
X5487009Y5446623D01*
X5482996Y5443220D01*
X5479237Y5439410D01*
X5475833Y5435244D01*
X5472684Y5430723D01*
X5469890Y5425897D01*
X5467400Y5420715D01*
X5465267Y5415178D01*
X5463489Y5409387D01*
X5462066Y5403240D01*
X5461050Y5396788D01*
X5460441Y5390032D01*
X5460238Y5383022D01*
X5460441Y5375910D01*
X5461050Y5369153D01*
X5462016Y5362651D01*
X5463387Y5356504D01*
X5465114Y5350662D01*
X5467197Y5345125D01*
X5469636Y5339943D01*
X5472379Y5335066D01*
X5475427Y5330596D01*
X5478830Y5326430D01*
X5482488Y5322671D01*
X5486400Y5319268D01*
X5490616Y5316220D01*
X5495086Y5313578D01*
X5499760Y5311292D01*
X5504738Y5309412D01*
X5509869Y5307990D01*
X5515254Y5306923D01*
X5520791Y5306263D01*
X5526532Y5306060D01*
X5533796Y5306364D01*
X5540654Y5307330D01*
X5547156Y5308854D01*
X5553151Y5310835D01*
X5558688Y5313324D01*
X5563717Y5316220D01*
X5568137Y5319522D01*
X5571998Y5323078D01*
X5571998Y5384800D01*
X5523992Y5384800D01*
X5523992Y5370830D01*
X5556504Y5370830D01*
X5556504Y5330190D01*
X5551068Y5326278D01*
X5544159Y5323281D01*
X5536336Y5321452D01*
X5528056Y5320792D01*
X5522163Y5321096D01*
X5516626Y5321909D01*
X5511393Y5323281D01*
X5506567Y5325160D01*
X5502046Y5327548D01*
X5497880Y5330444D01*
X5494121Y5333796D01*
X5490667Y5337657D01*
X5487670Y5341924D01*
X5484977Y5346649D01*
X5482742Y5351780D01*
X5480862Y5357317D01*
X5479389Y5363260D01*
X5478373Y5369560D01*
X5477713Y5376265D01*
X5477510Y5383276D01*
X5477764Y5390286D01*
X5478424Y5396941D01*
X5479542Y5403240D01*
X5481066Y5409133D01*
X5483047Y5414670D01*
X5485384Y5419750D01*
X5488127Y5424424D01*
X5491276Y5428640D01*
X5494731Y5432450D01*
X5498541Y5435752D01*
X5502706Y5438597D01*
X5507177Y5440984D01*
X5512003Y5442813D01*
X5517083Y5444185D01*
X5522417Y5444998D01*
X5528056Y5445252D01*
X5538673Y5444134D01*
X5547512Y5441086D01*
X5554776Y5436565D01*
X5560822Y5431028D01*
X5570220Y5441950D01*
X5566765Y5445201D01*
X5562854Y5448401D01*
X5558434Y5451449D01*
X5553506Y5454192D01*
X5547969Y5456529D01*
X5541873Y5458358D01*
X5535168Y5459577D01*
G37*
G36*
X5608066Y5457444D02*
G01*
X5608066Y5308600D01*
X5623814Y5308600D01*
X5623763Y5395925D01*
X5623102Y5413044D01*
X5621782Y5435346D01*
X5622798Y5435346D01*
X5639054Y5404866D01*
X5694934Y5308600D01*
X5712460Y5308600D01*
X5712460Y5457444D01*
X5696458Y5457444D01*
X5696508Y5371185D01*
X5697575Y5347716D01*
X5698744Y5330444D01*
X5697728Y5330444D01*
X5681472Y5360924D01*
X5625338Y5457444D01*
G37*
G36*
X5753862Y5457444D02*
G01*
X5753862Y5443474D01*
X5789168Y5443474D01*
X5795721Y5443220D01*
X5801817Y5442458D01*
X5807506Y5441188D01*
X5812739Y5439460D01*
X5817565Y5437225D01*
X5821984Y5434533D01*
X5825947Y5431383D01*
X5829503Y5427776D01*
X5832602Y5423712D01*
X5835294Y5419242D01*
X5837580Y5414314D01*
X5839460Y5408980D01*
X5840882Y5403189D01*
X5841949Y5397042D01*
X5842558Y5390489D01*
X5842762Y5383530D01*
X5842558Y5376621D01*
X5841949Y5370017D01*
X5840882Y5363819D01*
X5839460Y5357977D01*
X5837580Y5352542D01*
X5835294Y5347512D01*
X5832602Y5342890D01*
X5829503Y5338724D01*
X5825947Y5334965D01*
X5821984Y5331714D01*
X5817565Y5328869D01*
X5812739Y5326583D01*
X5807506Y5324703D01*
X5801817Y5323382D01*
X5795721Y5322570D01*
X5789168Y5322316D01*
X5770880Y5322316D01*
X5770880Y5443474D01*
X5753862Y5443474D01*
X5753862Y5308600D01*
X5791200Y5308600D01*
X5797804Y5308803D01*
X5804052Y5309412D01*
X5809996Y5310479D01*
X5815634Y5311902D01*
X5820918Y5313730D01*
X5825896Y5315966D01*
X5830519Y5318556D01*
X5834837Y5321503D01*
X5838850Y5324856D01*
X5842457Y5328564D01*
X5845759Y5332577D01*
X5848756Y5336946D01*
X5851398Y5341670D01*
X5853684Y5346750D01*
X5855614Y5352084D01*
X5857189Y5357774D01*
X5858408Y5363768D01*
X5859322Y5370068D01*
X5859830Y5376672D01*
X5860034Y5383530D01*
X5859830Y5390388D01*
X5859322Y5396941D01*
X5858408Y5403240D01*
X5857189Y5409184D01*
X5855563Y5414772D01*
X5853633Y5420106D01*
X5851347Y5425084D01*
X5848705Y5429758D01*
X5845708Y5434025D01*
X5842406Y5438038D01*
X5838698Y5441645D01*
X5834684Y5444896D01*
X5830316Y5447792D01*
X5825642Y5450332D01*
X5820613Y5452465D01*
X5815228Y5454243D01*
X5809538Y5455615D01*
X5803493Y5456631D01*
X5797143Y5457240D01*
X5790438Y5457444D01*
G37*
G36*
X5585968Y4304284D02*
G01*
X5579262Y4303877D01*
X5573014Y4302709D01*
X5567222Y4300829D01*
X5561787Y4298289D01*
X5556656Y4295140D01*
X5551728Y4291431D01*
X5547055Y4287164D01*
X5542534Y4282440D01*
X5552440Y4273296D01*
X5555691Y4276902D01*
X5559196Y4280204D01*
X5562854Y4283202D01*
X5566765Y4285792D01*
X5570829Y4287875D01*
X5575046Y4289501D01*
X5579414Y4290466D01*
X5583936Y4290822D01*
X5590692Y4290212D01*
X5596534Y4288485D01*
X5601411Y4285742D01*
X5605424Y4282033D01*
X5608472Y4277512D01*
X5610656Y4272280D01*
X5611977Y4266438D01*
X5612384Y4260088D01*
X5612231Y4256227D01*
X5611723Y4252264D01*
X5610910Y4248200D01*
X5609793Y4244086D01*
X5608320Y4239869D01*
X5604357Y4231182D01*
X5598972Y4222089D01*
X5592216Y4212488D01*
X5584037Y4202430D01*
X5574334Y4191863D01*
X5563158Y4180687D01*
X5543550Y4162806D01*
X5543550Y4152900D01*
X5635752Y4152900D01*
X5635752Y4167124D01*
X5587187Y4167022D01*
X5568696Y4165854D01*
X5579211Y4176014D01*
X5588863Y4186021D01*
X5597652Y4195775D01*
X5605475Y4205376D01*
X5612282Y4214876D01*
X5618022Y4224223D01*
X5622544Y4233468D01*
X5624372Y4238091D01*
X5625896Y4242663D01*
X5627065Y4247235D01*
X5627928Y4251756D01*
X5628487Y4256328D01*
X5628640Y4260850D01*
X5628284Y4267250D01*
X5627319Y4273245D01*
X5625693Y4278782D01*
X5623458Y4283862D01*
X5620613Y4288434D01*
X5617210Y4292447D01*
X5613247Y4295952D01*
X5608777Y4298899D01*
X5603798Y4301236D01*
X5598312Y4302912D01*
X5592368Y4303928D01*
G37*
G36*
X5712968Y4301744D02*
G01*
X5651467Y4207510D01*
X5667502Y4207510D01*
X5703570Y4260850D01*
X5709615Y4271670D01*
X5715254Y4282440D01*
X5716270Y4282440D01*
X5715457Y4269130D01*
X5715000Y4256024D01*
X5715000Y4207510D01*
X5651467Y4207510D01*
X5649976Y4205224D01*
X5649976Y4194301D01*
X5715000Y4194301D01*
X5715000Y4152900D01*
X5730748Y4152900D01*
X5730748Y4194301D01*
X5751068Y4194301D01*
X5751068Y4207510D01*
X5730748Y4207510D01*
X5730748Y4301744D01*
G37*
G36*
X5757926Y4301744D02*
G01*
X5805678Y4152900D01*
X5824982Y4152900D01*
X5872480Y4301744D01*
X5855462Y4301744D01*
X5816092Y4170426D01*
X5815330Y4170426D01*
X5807760Y4194911D01*
X5800598Y4219448D01*
X5775706Y4301744D01*
G37*
G36*
X5471922Y4278376D02*
G01*
X5471922Y4233926D01*
X5430520Y4233926D01*
X5430520Y4221480D01*
X5471922Y4221480D01*
X5471922Y4176776D01*
X5485384Y4176776D01*
X5485384Y4221480D01*
X5526786Y4221480D01*
X5526786Y4233926D01*
X5485384Y4233926D01*
X5485384Y4278376D01*
G37*
G36*
X6826758Y4314444D02*
G01*
X6822186Y4245356D01*
X6831330Y4239514D01*
X6837375Y4243374D01*
X6843217Y4246168D01*
X6849414Y4247845D01*
X6856475Y4248404D01*
X6863384Y4247794D01*
X6869633Y4246016D01*
X6875068Y4243070D01*
X6879691Y4239056D01*
X6883450Y4234027D01*
X6886194Y4228033D01*
X6887921Y4221124D01*
X6888480Y4213352D01*
X6887819Y4205376D01*
X6885838Y4198213D01*
X6882790Y4191965D01*
X6878777Y4186682D01*
X6873900Y4182465D01*
X6868312Y4179366D01*
X6862216Y4177436D01*
X6855714Y4176776D01*
X6849364Y4177131D01*
X6843572Y4178198D01*
X6838340Y4179824D01*
X6833616Y4181906D01*
X6829298Y4184446D01*
X6825335Y4187291D01*
X6821728Y4190339D01*
X6818375Y4193540D01*
X6810248Y4182618D01*
X6814159Y4178909D01*
X6818477Y4175404D01*
X6823303Y4172051D01*
X6828688Y4169105D01*
X6834631Y4166615D01*
X6841337Y4164736D01*
X6848754Y4163517D01*
X6856984Y4163060D01*
X6863080Y4163415D01*
X6869074Y4164584D01*
X6874865Y4166412D01*
X6880402Y4169003D01*
X6885533Y4172305D01*
X6890207Y4176268D01*
X6894423Y4180941D01*
X6898030Y4186224D01*
X6900976Y4192219D01*
X6903161Y4198823D01*
X6904532Y4206036D01*
X6904990Y4213860D01*
X6904583Y4221683D01*
X6903415Y4228744D01*
X6901484Y4235094D01*
X6898944Y4240733D01*
X6895744Y4245660D01*
X6891985Y4249877D01*
X6887718Y4253433D01*
X6882993Y4256328D01*
X6877862Y4258564D01*
X6872376Y4260138D01*
X6866585Y4261053D01*
X6860540Y4261358D01*
X6853936Y4260900D01*
X6848043Y4259630D01*
X6842607Y4257598D01*
X6837425Y4255008D01*
X6841490Y4300220D01*
X6897878Y4300220D01*
X6897878Y4314444D01*
G37*
G36*
X6916420Y4314444D02*
G01*
X6964172Y4165600D01*
X6983475Y4165600D01*
X7030974Y4314444D01*
X7013956Y4314444D01*
X6974586Y4183126D01*
X6973824Y4183126D01*
X6966254Y4207611D01*
X6959092Y4232148D01*
X6934200Y4314444D01*
G37*
G36*
X6741922Y4291076D02*
G01*
X6741922Y4246626D01*
X6700520Y4246626D01*
X6700520Y4234180D01*
X6741922Y4234180D01*
X6741922Y4189476D01*
X6755384Y4189476D01*
X6755384Y4234180D01*
X6796786Y4234180D01*
X6796786Y4246626D01*
X6755384Y4246626D01*
X6755384Y4291076D01*
G37*
G36*
X6708902Y5459984D02*
G01*
X6703059Y5459780D01*
X6697421Y5459120D01*
X6691985Y5458053D01*
X6686753Y5456580D01*
X6681724Y5454650D01*
X6676948Y5452364D01*
X6672376Y5449722D01*
X6668109Y5446623D01*
X6664096Y5443220D01*
X6660337Y5439410D01*
X6656933Y5435244D01*
X6653784Y5430723D01*
X6650990Y5425897D01*
X6648500Y5420715D01*
X6646367Y5415178D01*
X6644589Y5409387D01*
X6643166Y5403240D01*
X6642150Y5396788D01*
X6641541Y5390032D01*
X6641338Y5383022D01*
X6641541Y5375910D01*
X6642150Y5369153D01*
X6643116Y5362651D01*
X6644487Y5356504D01*
X6646214Y5350662D01*
X6648297Y5345125D01*
X6650736Y5339943D01*
X6653479Y5335066D01*
X6656527Y5330596D01*
X6659930Y5326430D01*
X6663588Y5322671D01*
X6667500Y5319268D01*
X6671716Y5316220D01*
X6676186Y5313578D01*
X6680860Y5311292D01*
X6685838Y5309412D01*
X6690969Y5307990D01*
X6696354Y5306923D01*
X6701891Y5306263D01*
X6707631Y5306060D01*
X6714896Y5306364D01*
X6721754Y5307330D01*
X6728256Y5308854D01*
X6734251Y5310835D01*
X6739788Y5313324D01*
X6744817Y5316220D01*
X6749237Y5319522D01*
X6753098Y5323078D01*
X6753098Y5384800D01*
X6705092Y5384800D01*
X6705092Y5370830D01*
X6737603Y5370830D01*
X6737603Y5330190D01*
X6732168Y5326278D01*
X6725259Y5323281D01*
X6717436Y5321452D01*
X6709156Y5320792D01*
X6703263Y5321096D01*
X6697725Y5321909D01*
X6692493Y5323281D01*
X6687667Y5325160D01*
X6683146Y5327548D01*
X6678980Y5330444D01*
X6675221Y5333796D01*
X6671767Y5337657D01*
X6668770Y5341924D01*
X6666077Y5346649D01*
X6663842Y5351780D01*
X6661962Y5357317D01*
X6660489Y5363260D01*
X6659473Y5369560D01*
X6658813Y5376265D01*
X6658609Y5383276D01*
X6658864Y5390286D01*
X6659524Y5396941D01*
X6660642Y5403240D01*
X6662166Y5409133D01*
X6664147Y5414670D01*
X6666484Y5419750D01*
X6669227Y5424424D01*
X6672376Y5428640D01*
X6675831Y5432450D01*
X6679641Y5435752D01*
X6683806Y5438597D01*
X6688277Y5440984D01*
X6693103Y5442813D01*
X6698183Y5444185D01*
X6703517Y5444998D01*
X6709156Y5445252D01*
X6719773Y5444134D01*
X6728612Y5441086D01*
X6735876Y5436565D01*
X6741922Y5431028D01*
X6751320Y5441950D01*
X6747865Y5445201D01*
X6743953Y5448401D01*
X6739534Y5451449D01*
X6734606Y5454192D01*
X6729069Y5456529D01*
X6722973Y5458358D01*
X6716268Y5459577D01*
G37*
G36*
X6789166Y5457444D02*
G01*
X6789166Y5308600D01*
X6804914Y5308600D01*
X6804863Y5395925D01*
X6804202Y5413044D01*
X6802881Y5435346D01*
X6803898Y5435346D01*
X6820153Y5404866D01*
X6876034Y5308600D01*
X6893559Y5308600D01*
X6893559Y5457444D01*
X6877558Y5457444D01*
X6877608Y5371185D01*
X6878675Y5347716D01*
X6879844Y5330444D01*
X6878828Y5330444D01*
X6862572Y5360924D01*
X6806438Y5457444D01*
G37*
G36*
X6934962Y5457444D02*
G01*
X6934962Y5443474D01*
X6970268Y5443474D01*
X6976821Y5443220D01*
X6982917Y5442458D01*
X6988606Y5441188D01*
X6993839Y5439460D01*
X6998665Y5437225D01*
X7003084Y5434533D01*
X7007047Y5431383D01*
X7010603Y5427776D01*
X7013702Y5423712D01*
X7016394Y5419242D01*
X7018680Y5414314D01*
X7020559Y5408980D01*
X7021982Y5403189D01*
X7023049Y5397042D01*
X7023658Y5390489D01*
X7023862Y5383530D01*
X7023658Y5376621D01*
X7023049Y5370017D01*
X7021982Y5363819D01*
X7020559Y5357977D01*
X7018680Y5352542D01*
X7016394Y5347512D01*
X7013702Y5342890D01*
X7010603Y5338724D01*
X7007047Y5334965D01*
X7003084Y5331714D01*
X6998665Y5328869D01*
X6993839Y5326583D01*
X6988606Y5324703D01*
X6982917Y5323382D01*
X6976821Y5322570D01*
X6970268Y5322316D01*
X6951980Y5322316D01*
X6951980Y5443474D01*
X6934962Y5443474D01*
X6934962Y5308600D01*
X6972300Y5308600D01*
X6978903Y5308803D01*
X6985152Y5309412D01*
X6991096Y5310479D01*
X6996734Y5311902D01*
X7002018Y5313730D01*
X7006996Y5315966D01*
X7011619Y5318556D01*
X7015937Y5321503D01*
X7019950Y5324856D01*
X7023557Y5328564D01*
X7026859Y5332577D01*
X7029856Y5336946D01*
X7032498Y5341670D01*
X7034784Y5346750D01*
X7036714Y5352084D01*
X7038289Y5357774D01*
X7039508Y5363768D01*
X7040422Y5370068D01*
X7040930Y5376672D01*
X7041134Y5383530D01*
X7040930Y5390388D01*
X7040422Y5396941D01*
X7039508Y5403240D01*
X7038289Y5409184D01*
X7036663Y5414772D01*
X7034733Y5420106D01*
X7032447Y5425084D01*
X7029805Y5429758D01*
X7026808Y5434025D01*
X7023506Y5438038D01*
X7019798Y5441645D01*
X7015784Y5444896D01*
X7011416Y5447792D01*
X7006742Y5450332D01*
X7001713Y5452465D01*
X6996328Y5454243D01*
X6990638Y5455615D01*
X6984593Y5456631D01*
X6978243Y5457240D01*
X6971538Y5457444D01*
G37*
D10*
X4330700Y3899915D02*
G01*
X4330700Y3790950D01*
X4330700Y3899915D02*
G01*
X4372356Y3790950D01*
X4413758Y3899915D02*
G01*
X4372356Y3790950D01*
X4413758Y3899915D02*
G01*
X4413758Y3790950D01*
X4448047Y3879087D02*
G01*
X4458461Y3884421D01*
X4474209Y3899915D01*
X4474209Y3790950D01*
D11*
X3822700Y2661665D02*
G01*
X3859022Y2566162D01*
X3895343Y2661665D02*
G01*
X3859022Y2566162D01*
X3993641Y2638805D02*
G01*
X3989070Y2647950D01*
X3979925Y2657094D01*
X3970781Y2661665D01*
X3952747Y2661665D01*
X3943604Y2657094D01*
X3934459Y2647950D01*
X3929888Y2638805D01*
X3925315Y2625344D01*
X3925315Y2602484D01*
X3929888Y2588768D01*
X3934459Y2579878D01*
X3943604Y2570734D01*
X3952747Y2566162D01*
X3970781Y2566162D01*
X3979925Y2570734D01*
X3989070Y2579878D01*
X3993641Y2588768D01*
X4091686Y2638805D02*
G01*
X4087368Y2647950D01*
X4078224Y2657094D01*
X4069079Y2661665D01*
X4050791Y2661665D01*
X4041902Y2657094D01*
X4032758Y2647950D01*
X4028186Y2638805D01*
X4023613Y2625344D01*
X4023613Y2602484D01*
X4028186Y2588768D01*
X4032758Y2579878D01*
X4041902Y2570734D01*
X4050791Y2566162D01*
X4069079Y2566162D01*
X4078224Y2570734D01*
X4087368Y2579878D01*
X4091686Y2588768D01*
X3822700Y2904489D02*
G01*
X3822700Y2808986D01*
X3822700Y2904489D02*
G01*
X3863593Y2904489D01*
X3877309Y2899918D01*
X3881881Y2895345D01*
X3886454Y2886202D01*
X3886454Y2877057D01*
X3881881Y2868168D01*
X3877309Y2863595D01*
X3863593Y2859023D01*
X3822700Y2859023D02*
G01*
X3863593Y2859023D01*
X3877309Y2854452D01*
X3881881Y2849879D01*
X3886454Y2840736D01*
X3886454Y2827273D01*
X3881881Y2818129D01*
X3877309Y2813557D01*
X3863593Y2808986D01*
X3822700Y2808986D01*
X3859022Y3158489D02*
G01*
X3822700Y3062986D01*
X3859022Y3158489D02*
G01*
X3895343Y3062986D01*
X3836415Y3094736D02*
G01*
X3881881Y3094736D01*
X3903472Y3389629D02*
G01*
X3899154Y3398773D01*
X3890009Y3407918D01*
X3880865Y3412489D01*
X3862577Y3412489D01*
X3853688Y3407918D01*
X3844543Y3398773D01*
X3839972Y3389629D01*
X3835400Y3376168D01*
X3835400Y3353307D01*
X3839972Y3339592D01*
X3844543Y3330702D01*
X3853688Y3321557D01*
X3862577Y3316986D01*
X3880865Y3316986D01*
X3890009Y3321557D01*
X3899154Y3330702D01*
X3903472Y3339592D01*
X3903472Y3353307D01*
X3880865Y3353307D02*
G01*
X3903472Y3353307D01*
X3933697Y3412489D02*
G01*
X3933697Y3316986D01*
X3933697Y3412489D02*
G01*
X3997197Y3316986D01*
X3997197Y3412489D02*
G01*
X3997197Y3316986D01*
X4027170Y3412489D02*
G01*
X4027170Y3316986D01*
X4027170Y3412489D02*
G01*
X4058920Y3412489D01*
X4072636Y3407918D01*
X4081779Y3398773D01*
X4086352Y3389629D01*
X4090924Y3376168D01*
X4090924Y3353307D01*
X4086352Y3339592D01*
X4081779Y3330702D01*
X4072636Y3321557D01*
X4058920Y3316986D01*
X4027170Y3316986D01*
X7353300Y3417823D02*
G01*
X7353300Y3322320D01*
X7353300Y3417823D02*
G01*
X7385050Y3417823D01*
X7398765Y3413252D01*
X7407909Y3404107D01*
X7412481Y3394963D01*
X7417054Y3381502D01*
X7417054Y3358642D01*
X7412481Y3344926D01*
X7407909Y3336036D01*
X7398765Y3326892D01*
X7385050Y3322320D01*
X7353300Y3322320D01*
X7447025Y3417823D02*
G01*
X7447025Y3322320D01*
X7340600Y3163823D02*
G01*
X7340600Y3068320D01*
X7340600Y3163823D02*
G01*
X7372350Y3163823D01*
X7386065Y3159252D01*
X7395209Y3150107D01*
X7399781Y3140963D01*
X7404354Y3127502D01*
X7404354Y3104642D01*
X7399781Y3090926D01*
X7395209Y3082036D01*
X7386065Y3072892D01*
X7372350Y3068320D01*
X7340600Y3068320D01*
X7434325Y3163823D02*
G01*
X7434325Y3068320D01*
X7434325Y3163823D02*
G01*
X7493254Y3163823D01*
X7434325Y3118357D02*
G01*
X7470647Y3118357D01*
X7434325Y3068320D02*
G01*
X7493254Y3068320D01*
X7340600Y2909823D02*
G01*
X7340600Y2814320D01*
X7340600Y2909823D02*
G01*
X7381493Y2909823D01*
X7395209Y2905252D01*
X7399781Y2900679D01*
X7404354Y2891536D01*
X7404354Y2882392D01*
X7399781Y2873502D01*
X7395209Y2868929D01*
X7381493Y2864357D01*
X7340600Y2864357D01*
X7372350Y2864357D02*
G01*
X7404354Y2814320D01*
X7434325Y2909823D02*
G01*
X7434325Y2814320D01*
X7434325Y2909823D02*
G01*
X7493254Y2909823D01*
X7434325Y2864357D02*
G01*
X7470647Y2864357D01*
X7434325Y2814320D02*
G01*
X7493254Y2814320D01*
X7340600Y2667000D02*
G01*
X7340600Y2571495D01*
X7340600Y2667000D02*
G01*
X7381493Y2667000D01*
X7395209Y2662428D01*
X7399781Y2657855D01*
X7404354Y2648712D01*
X7404354Y2639568D01*
X7399781Y2630678D01*
X7395209Y2626105D01*
X7381493Y2621534D01*
X7340600Y2621534D01*
X7372350Y2621534D02*
G01*
X7404354Y2571495D01*
X7461504Y2667000D02*
G01*
X7452359Y2662428D01*
X7443215Y2653284D01*
X7438897Y2644139D01*
X7434325Y2630678D01*
X7434325Y2607818D01*
X7438897Y2594102D01*
X7443215Y2585212D01*
X7452359Y2576068D01*
X7461504Y2571495D01*
X7479791Y2571495D01*
X7488681Y2576068D01*
X7497825Y2585212D01*
X7502397Y2594102D01*
X7506970Y2607818D01*
X7506970Y2630678D01*
X7502397Y2644139D01*
X7497825Y2653284D01*
X7488681Y2662428D01*
X7479791Y2667000D01*
X7461504Y2667000D01*
D10*
X1878584Y7848600D02*
G01*
X1956561Y7848600D01*
X1972056Y7853679D01*
X1982470Y7864094D01*
X1987550Y7879842D01*
X1987550Y7890255D01*
X1982470Y7905750D01*
X1972056Y7916163D01*
X1956561Y7921244D01*
X1878584Y7921244D01*
X1899412Y7955534D02*
G01*
X1894078Y7965947D01*
X1878584Y7981695D01*
X1987550Y7981695D01*
D12*
X5005750Y6930928D02*
G01*
X4965618Y6826026D01*
X5005750Y6930928D02*
G01*
X5045628Y6826026D01*
X4980604Y6860824D02*
G01*
X5030642Y6860824D01*
X5148752Y6930928D02*
G01*
X5078648Y6826026D01*
X5078648Y6930928D02*
G01*
X5148752Y6930928D01*
X5078648Y6826026D02*
G01*
X5148752Y6826026D01*
X5181772Y6930928D02*
G01*
X5181772Y6826026D01*
X5181772Y6930928D02*
G01*
X5216824Y6930928D01*
X5231810Y6925848D01*
X5241716Y6915942D01*
X5246796Y6905782D01*
X5251622Y6890796D01*
X5251622Y6865904D01*
X5246796Y6850918D01*
X5241716Y6841012D01*
X5231810Y6830852D01*
X5216824Y6826026D01*
X5181772Y6826026D01*
X5284642Y6865904D02*
G01*
X5344586Y6865904D01*
X5344586Y6875810D01*
X5339760Y6885970D01*
X5334680Y6890796D01*
X5324774Y6895876D01*
X5309788Y6895876D01*
X5299628Y6890796D01*
X5289722Y6880890D01*
X5284642Y6865904D01*
X5284642Y6855998D01*
X5289722Y6841012D01*
X5299628Y6830852D01*
X5309788Y6826026D01*
X5324774Y6826026D01*
X5334680Y6830852D01*
X5344586Y6841012D01*
X5377606Y6930928D02*
G01*
X5377606Y6826026D01*
X5410626Y6930928D02*
G01*
X5415706Y6925848D01*
X5420786Y6930928D01*
X5415706Y6936008D01*
X5410626Y6930928D01*
X5415706Y6895876D02*
G01*
X5415706Y6826026D01*
X5453806Y6895876D02*
G01*
X5483778Y6826026D01*
X5513750Y6895876D02*
G01*
X5483778Y6826026D01*
X5546770Y6865904D02*
G01*
X5606714Y6865904D01*
X5606714Y6875810D01*
X5601634Y6885970D01*
X5596808Y6890796D01*
X5586648Y6895876D01*
X5571662Y6895876D01*
X5561756Y6890796D01*
X5551596Y6880890D01*
X5546770Y6865904D01*
X5546770Y6855998D01*
X5551596Y6841012D01*
X5561756Y6830852D01*
X5571662Y6826026D01*
X5586648Y6826026D01*
X5596808Y6830852D01*
X5606714Y6841012D01*
X5639734Y6895876D02*
G01*
X5639734Y6826026D01*
X5639734Y6865904D02*
G01*
X5644814Y6880890D01*
X5654720Y6890796D01*
X5664626Y6895876D01*
X5679612Y6895876D01*
X5717712Y6895876D02*
G01*
X5747684Y6826026D01*
X5777656Y6895876D02*
G01*
X5747684Y6826026D01*
X5737778Y6805960D01*
X5727618Y6795800D01*
X5717712Y6790974D01*
X5712632Y6790974D01*
X5887638Y6930928D02*
G01*
X5887638Y6826026D01*
X5887638Y6930928D02*
G01*
X5952662Y6930928D01*
X5887638Y6880890D02*
G01*
X5927770Y6880890D01*
X5887638Y6826026D02*
G01*
X5952662Y6826026D01*
X6055786Y6915942D02*
G01*
X6045626Y6925848D01*
X6030640Y6930928D01*
X6010828Y6930928D01*
X5995588Y6925848D01*
X5985682Y6915942D01*
X5985682Y6905782D01*
X5990762Y6895876D01*
X5995588Y6890796D01*
X6005748Y6885970D01*
X6035720Y6875810D01*
X6045626Y6870984D01*
X6050706Y6865904D01*
X6055786Y6855998D01*
X6055786Y6841012D01*
X6045626Y6830852D01*
X6030640Y6826026D01*
X6010828Y6826026D01*
X5995588Y6830852D01*
X5985682Y6841012D01*
X6088806Y6930928D02*
G01*
X6088806Y6826026D01*
X6088806Y6930928D02*
G01*
X6133764Y6930928D01*
X6148750Y6925848D01*
X6153830Y6921022D01*
X6158656Y6910862D01*
X6158656Y6895876D01*
X6153830Y6885970D01*
X6148750Y6880890D01*
X6133764Y6875810D01*
X6088806Y6875810D01*
X6201582Y6930928D02*
G01*
X6256700Y6930928D01*
X6226728Y6890796D01*
X6241714Y6890796D01*
X6251620Y6885970D01*
X6256700Y6880890D01*
X6261780Y6865904D01*
X6261780Y6855998D01*
X6256700Y6841012D01*
X6246794Y6830852D01*
X6231808Y6826026D01*
X6216822Y6826026D01*
X6201582Y6830852D01*
X6196756Y6835932D01*
X6191676Y6845838D01*
X6299626Y6905782D02*
G01*
X6299626Y6910862D01*
X6304706Y6921022D01*
X6309786Y6925848D01*
X6319692Y6930928D01*
X6339758Y6930928D01*
X6349664Y6925848D01*
X6354744Y6921022D01*
X6359824Y6910862D01*
X6359824Y6900956D01*
X6354744Y6890796D01*
X6344584Y6875810D01*
X6294800Y6826026D01*
X6364650Y6826026D01*
X6474632Y6930928D02*
G01*
X6474632Y6826026D01*
X6474632Y6930928D02*
G01*
X6544736Y6826026D01*
X6544736Y6930928D02*
G01*
X6544736Y6826026D01*
X6602648Y6895876D02*
G01*
X6592742Y6890796D01*
X6582582Y6880890D01*
X6577756Y6865904D01*
X6577756Y6855998D01*
X6582582Y6841012D01*
X6592742Y6830852D01*
X6602648Y6826026D01*
X6617634Y6826026D01*
X6627794Y6830852D01*
X6637700Y6841012D01*
X6642780Y6855998D01*
X6642780Y6865904D01*
X6637700Y6880890D01*
X6627794Y6890796D01*
X6617634Y6895876D01*
X6602648Y6895876D01*
X6735744Y6930928D02*
G01*
X6735744Y6826026D01*
X6735744Y6880890D02*
G01*
X6725584Y6890796D01*
X6715678Y6895876D01*
X6700692Y6895876D01*
X6690786Y6890796D01*
X6680626Y6880890D01*
X6675800Y6865904D01*
X6675800Y6855998D01*
X6680626Y6841012D01*
X6690786Y6830852D01*
X6700692Y6826026D01*
X6715678Y6826026D01*
X6725584Y6830852D01*
X6735744Y6841012D01*
X6768764Y6865904D02*
G01*
X6828708Y6865904D01*
X6828708Y6875810D01*
X6823628Y6885970D01*
X6818802Y6890796D01*
X6808642Y6895876D01*
X6793656Y6895876D01*
X6783750Y6890796D01*
X6773590Y6880890D01*
X6768764Y6865904D01*
X6768764Y6855998D01*
X6773590Y6841012D01*
X6783750Y6830852D01*
X6793656Y6826026D01*
X6808642Y6826026D01*
X6818802Y6830852D01*
X6828708Y6841012D01*
X6861728Y6930928D02*
G01*
X6861728Y6826026D01*
X6861728Y6930928D02*
G01*
X6901606Y6826026D01*
X6941738Y6930928D02*
G01*
X6901606Y6826026D01*
X6941738Y6930928D02*
G01*
X6941738Y6826026D01*
X7049688Y6905782D02*
G01*
X7044608Y6915942D01*
X7034702Y6925848D01*
X7024796Y6930928D01*
X7004730Y6930928D01*
X6994824Y6925848D01*
X6984664Y6915942D01*
X6979584Y6905782D01*
X6974758Y6890796D01*
X6974758Y6865904D01*
X6979584Y6850918D01*
X6984664Y6841012D01*
X6994824Y6830852D01*
X7004730Y6826026D01*
X7024796Y6826026D01*
X7034702Y6830852D01*
X7044608Y6841012D01*
X7049688Y6850918D01*
X7082708Y6930928D02*
G01*
X7082708Y6855998D01*
X7087788Y6841012D01*
X7097694Y6830852D01*
X7112680Y6826026D01*
X7122586Y6826026D01*
X7137826Y6830852D01*
X7147732Y6841012D01*
X7152812Y6855998D01*
X7152812Y6930928D01*
D10*
X1410715Y8001000D02*
G01*
X1301750Y7928355D01*
X1410715Y7928355D02*
G01*
X1301750Y8001000D01*
X1389887Y7894065D02*
G01*
X1395221Y7883652D01*
X1410715Y7867904D01*
X1301750Y7867904D01*
X1398015Y8991600D02*
G01*
X1289050Y8918955D01*
X1398015Y8918955D02*
G01*
X1289050Y8991600D01*
X1372107Y8879331D02*
G01*
X1377187Y8879331D01*
X1387602Y8874252D01*
X1392936Y8868918D01*
X1398015Y8858504D01*
X1398015Y8837929D01*
X1392936Y8827515D01*
X1387602Y8822181D01*
X1377187Y8817102D01*
X1366773Y8817102D01*
X1356360Y8822181D01*
X1340865Y8832595D01*
X1289050Y8884665D01*
X1289050Y8811768D01*
X2426970Y2452115D02*
G01*
X2426970Y2369057D01*
X2421636Y2353310D01*
X2416556Y2348229D01*
X2406141Y2343150D01*
X2395727Y2343150D01*
X2385313Y2348229D01*
X2379979Y2353310D01*
X2374900Y2369057D01*
X2374900Y2379471D01*
X2461259Y2452115D02*
G01*
X2461259Y2343150D01*
X2461259Y2452115D02*
G01*
X2507995Y2452115D01*
X2523490Y2447036D01*
X2528570Y2441702D01*
X2533904Y2431287D01*
X2533904Y2415794D01*
X2528570Y2405379D01*
X2523490Y2400300D01*
X2507995Y2394965D01*
X2461259Y2394965D01*
X2568193Y2431287D02*
G01*
X2578608Y2436621D01*
X2594102Y2452115D01*
X2594102Y2343150D01*
X2288286Y1908555D02*
G01*
X2288286Y1910842D01*
X2290572Y1915413D01*
X2292858Y1917700D01*
X2297429Y1919986D01*
X2306827Y1919986D01*
X2311400Y1917700D01*
X2313686Y1915413D01*
X2315972Y1910842D01*
X2315972Y1906270D01*
X2313686Y1901444D01*
X2309113Y1894586D01*
X2286000Y1871471D01*
X2318258Y1871471D01*
X2540000Y1910842D02*
G01*
X2544572Y1913128D01*
X2551429Y1919986D01*
X2551429Y1871471D01*
X4459477Y9817608D02*
G01*
X4454143Y9828021D01*
X4443729Y9838436D01*
X4433570Y9843515D01*
X4412741Y9843515D01*
X4402327Y9838436D01*
X4391913Y9828021D01*
X4386579Y9817608D01*
X4381500Y9801860D01*
X4381500Y9775952D01*
X4386579Y9760458D01*
X4391913Y9750044D01*
X4402327Y9739629D01*
X4412741Y9734550D01*
X4433570Y9734550D01*
X4443729Y9739629D01*
X4454143Y9750044D01*
X4459477Y9760458D01*
X4525009Y9843515D02*
G01*
X4514595Y9838436D01*
X4504181Y9828021D01*
X4498847Y9817608D01*
X4493768Y9801860D01*
X4493768Y9775952D01*
X4498847Y9760458D01*
X4504181Y9750044D01*
X4514595Y9739629D01*
X4525009Y9734550D01*
X4545584Y9734550D01*
X4555997Y9739629D01*
X4566411Y9750044D01*
X4571745Y9760458D01*
X4576825Y9775952D01*
X4576825Y9801860D01*
X4571745Y9817608D01*
X4566411Y9828021D01*
X4555997Y9838436D01*
X4545584Y9843515D01*
X4525009Y9843515D01*
X4611115Y9843515D02*
G01*
X4611115Y9734550D01*
X4611115Y9843515D02*
G01*
X4683759Y9734550D01*
X4683759Y9843515D02*
G01*
X4683759Y9734550D01*
X4718050Y9843515D02*
G01*
X4718050Y9734550D01*
X4718050Y9843515D02*
G01*
X4790947Y9734550D01*
X4790947Y9843515D02*
G01*
X4790947Y9734550D01*
X4825238Y9822687D02*
G01*
X4835652Y9828021D01*
X4851145Y9843515D01*
X4851145Y9734550D01*
X4459477Y5944107D02*
G01*
X4454143Y5954521D01*
X4443729Y5964936D01*
X4433570Y5970015D01*
X4412741Y5970015D01*
X4402327Y5964936D01*
X4391913Y5954521D01*
X4386579Y5944107D01*
X4381500Y5928360D01*
X4381500Y5902452D01*
X4386579Y5886957D01*
X4391913Y5876544D01*
X4402327Y5866129D01*
X4412741Y5861050D01*
X4433570Y5861050D01*
X4443729Y5866129D01*
X4454143Y5876544D01*
X4459477Y5886957D01*
X4525009Y5970015D02*
G01*
X4514595Y5964936D01*
X4504181Y5954521D01*
X4498847Y5944107D01*
X4493768Y5928360D01*
X4493768Y5902452D01*
X4498847Y5886957D01*
X4504181Y5876544D01*
X4514595Y5866129D01*
X4525009Y5861050D01*
X4545584Y5861050D01*
X4555997Y5866129D01*
X4566411Y5876544D01*
X4571745Y5886957D01*
X4576825Y5902452D01*
X4576825Y5928360D01*
X4571745Y5944107D01*
X4566411Y5954521D01*
X4555997Y5964936D01*
X4545584Y5970015D01*
X4525009Y5970015D01*
X4611115Y5970015D02*
G01*
X4611115Y5861050D01*
X4611115Y5970015D02*
G01*
X4683759Y5861050D01*
X4683759Y5970015D02*
G01*
X4683759Y5861050D01*
X4718050Y5970015D02*
G01*
X4718050Y5861050D01*
X4718050Y5970015D02*
G01*
X4790947Y5861050D01*
X4790947Y5970015D02*
G01*
X4790947Y5861050D01*
X4830318Y5944107D02*
G01*
X4830318Y5949187D01*
X4835652Y5959602D01*
X4840731Y5964936D01*
X4851145Y5970015D01*
X4871974Y5970015D01*
X4882388Y5964936D01*
X4887468Y5959602D01*
X4892802Y5949187D01*
X4892802Y5938773D01*
X4887468Y5928360D01*
X4877054Y5912865D01*
X4825238Y5861050D01*
X4897881Y5861050D01*
X2337828Y4432300D02*
G01*
X2228862Y4432300D01*
X2337828Y4432300D02*
G01*
X2337828Y4385563D01*
X2332748Y4370070D01*
X2327414Y4364736D01*
X2317000Y4359655D01*
X2306586Y4359655D01*
X2296172Y4364736D01*
X2291092Y4370070D01*
X2286012Y4385563D01*
X2286012Y4432300D01*
X2286012Y4395978D02*
G01*
X2228862Y4359655D01*
X2337828Y4273295D02*
G01*
X2254770Y4273295D01*
X2239022Y4278629D01*
X2233942Y4283710D01*
X2228862Y4294123D01*
X2228862Y4304537D01*
X2233942Y4314952D01*
X2239022Y4320031D01*
X2254770Y4325365D01*
X2265184Y4325365D01*
X2317000Y4239005D02*
G01*
X2322334Y4228592D01*
X2337828Y4213097D01*
X2228862Y4213097D01*
X2350528Y2717800D02*
G01*
X2241562Y2717800D01*
X2350528Y2717800D02*
G01*
X2350528Y2671063D01*
X2345448Y2655570D01*
X2340114Y2650236D01*
X2329700Y2645155D01*
X2319286Y2645155D01*
X2308872Y2650236D01*
X2303792Y2655570D01*
X2298712Y2671063D01*
X2298712Y2717800D01*
X2298712Y2681478D02*
G01*
X2241562Y2645155D01*
X2350528Y2558795D02*
G01*
X2267470Y2558795D01*
X2251722Y2564129D01*
X2246642Y2569210D01*
X2241562Y2579623D01*
X2241562Y2590037D01*
X2246642Y2600452D01*
X2251722Y2605531D01*
X2267470Y2610865D01*
X2277884Y2610865D01*
X2324620Y2519426D02*
G01*
X2329700Y2519426D01*
X2340114Y2514092D01*
X2345448Y2509012D01*
X2350528Y2498597D01*
X2350528Y2477770D01*
X2345448Y2467355D01*
X2340114Y2462276D01*
X2329700Y2456942D01*
X2319286Y2456942D01*
X2308872Y2462276D01*
X2293378Y2472689D01*
X2241562Y2524505D01*
X2241562Y2451862D01*
X6083300Y5843015D02*
G01*
X6083300Y5765037D01*
X6088379Y5749544D01*
X6098793Y5739129D01*
X6114541Y5734050D01*
X6124956Y5734050D01*
X6140450Y5739129D01*
X6150863Y5749544D01*
X6155943Y5765037D01*
X6155943Y5843015D01*
X6252718Y5843015D02*
G01*
X6200647Y5843015D01*
X6195568Y5796279D01*
X6200647Y5801360D01*
X6216395Y5806694D01*
X6231890Y5806694D01*
X6247384Y5801360D01*
X6257797Y5791200D01*
X6263131Y5775452D01*
X6263131Y5765037D01*
X6257797Y5749544D01*
X6247384Y5739129D01*
X6231890Y5734050D01*
X6216395Y5734050D01*
X6200647Y5739129D01*
X6195568Y5744210D01*
X6190234Y5754623D01*
X7466584Y4408170D02*
G01*
X7549641Y4408170D01*
X7565390Y4402836D01*
X7570470Y4397755D01*
X7575550Y4387342D01*
X7575550Y4376928D01*
X7570470Y4366513D01*
X7565390Y4361179D01*
X7549641Y4356100D01*
X7539227Y4356100D01*
X7466584Y4442460D02*
G01*
X7575550Y4442460D01*
X7466584Y4442460D02*
G01*
X7466584Y4489195D01*
X7471663Y4504689D01*
X7476997Y4509770D01*
X7487411Y4515104D01*
X7502906Y4515104D01*
X7513320Y4509770D01*
X7518400Y4504689D01*
X7523734Y4489195D01*
X7523734Y4442460D01*
X7492491Y4554473D02*
G01*
X7487411Y4554473D01*
X7476997Y4559807D01*
X7471663Y4564887D01*
X7466584Y4575302D01*
X7466584Y4596129D01*
X7471663Y4606544D01*
X7476997Y4611623D01*
X7487411Y4616957D01*
X7497825Y4616957D01*
X7508240Y4611623D01*
X7523734Y4601210D01*
X7575550Y4549394D01*
X7575550Y4622037D01*
X7997443Y4345686D02*
G01*
X7995158Y4345686D01*
X7990586Y4347971D01*
X7988300Y4350257D01*
X7986013Y4354829D01*
X7986013Y4364228D01*
X7988300Y4368800D01*
X7990586Y4371086D01*
X7995158Y4373371D01*
X7999729Y4373371D01*
X8004556Y4371086D01*
X8011413Y4366513D01*
X8034527Y4343400D01*
X8034527Y4375657D01*
X7995158Y4597400D02*
G01*
X7992872Y4601971D01*
X7986013Y4608829D01*
X8034527Y4608829D01*
X2680970Y5081015D02*
G01*
X2680970Y4997957D01*
X2675636Y4982210D01*
X2670556Y4977129D01*
X2660141Y4972050D01*
X2649727Y4972050D01*
X2639313Y4977129D01*
X2633979Y4982210D01*
X2628900Y4997957D01*
X2628900Y5008371D01*
X2715259Y5081015D02*
G01*
X2715259Y4972050D01*
X2715259Y5081015D02*
G01*
X2761995Y5081015D01*
X2777490Y5075936D01*
X2782570Y5070602D01*
X2787904Y5060187D01*
X2787904Y5044694D01*
X2782570Y5034279D01*
X2777490Y5029200D01*
X2761995Y5023865D01*
X2715259Y5023865D01*
X2832608Y5081015D02*
G01*
X2889758Y5081015D01*
X2858515Y5039360D01*
X2874009Y5039360D01*
X2884424Y5034279D01*
X2889758Y5029200D01*
X2894838Y5013452D01*
X2894838Y5003037D01*
X2889758Y4987544D01*
X2879343Y4977129D01*
X2863850Y4972050D01*
X2848102Y4972050D01*
X2832608Y4977129D01*
X2827274Y4982210D01*
X2822193Y4992623D01*
X2478786Y4600955D02*
G01*
X2478786Y4603242D01*
X2481072Y4607813D01*
X2483358Y4610100D01*
X2487929Y4612386D01*
X2497327Y4612386D01*
X2501900Y4610100D01*
X2504186Y4607813D01*
X2506472Y4603242D01*
X2506472Y4598670D01*
X2504186Y4593844D01*
X2499613Y4586986D01*
X2476500Y4563871D01*
X2508758Y4563871D01*
X2730500Y4603242D02*
G01*
X2735072Y4605528D01*
X2741929Y4612386D01*
X2741929Y4563871D01*
X3112770Y2401315D02*
G01*
X3112770Y2318257D01*
X3107436Y2302510D01*
X3102356Y2297429D01*
X3091941Y2292350D01*
X3081527Y2292350D01*
X3071113Y2297429D01*
X3065779Y2302510D01*
X3060700Y2318257D01*
X3060700Y2328671D01*
X3147059Y2401315D02*
G01*
X3147059Y2292350D01*
X3147059Y2401315D02*
G01*
X3193795Y2401315D01*
X3209290Y2396236D01*
X3214370Y2390902D01*
X3219704Y2380487D01*
X3219704Y2364994D01*
X3214370Y2354579D01*
X3209290Y2349500D01*
X3193795Y2344165D01*
X3147059Y2344165D01*
X3305809Y2401315D02*
G01*
X3253993Y2328671D01*
X3331972Y2328671D01*
X3305809Y2401315D02*
G01*
X3305809Y2292350D01*
X2910586Y1921255D02*
G01*
X2910586Y1923542D01*
X2912872Y1928113D01*
X2915158Y1930400D01*
X2919729Y1932686D01*
X2929127Y1932686D01*
X2933700Y1930400D01*
X2935986Y1928113D01*
X2938272Y1923542D01*
X2938272Y1918970D01*
X2935986Y1914144D01*
X2931413Y1907286D01*
X2908300Y1884171D01*
X2940558Y1884171D01*
X3162300Y1923542D02*
G01*
X3166872Y1925828D01*
X3173729Y1932686D01*
X3173729Y1884171D01*
X2513584Y3810000D02*
G01*
X2622550Y3810000D01*
X2513584Y3810000D02*
G01*
X2513584Y3856736D01*
X2518663Y3872229D01*
X2523997Y3877563D01*
X2534411Y3882644D01*
X2544825Y3882644D01*
X2555240Y3877563D01*
X2560320Y3872229D01*
X2565400Y3856736D01*
X2565400Y3810000D01*
X2565400Y3846321D02*
G01*
X2622550Y3882644D01*
X2534411Y3916934D02*
G01*
X2529077Y3927347D01*
X2513584Y3943095D01*
X2622550Y3943095D01*
X3898900Y5779515D02*
G01*
X3898900Y5701537D01*
X3903979Y5686044D01*
X3914393Y5675629D01*
X3930141Y5670550D01*
X3940556Y5670550D01*
X3956050Y5675629D01*
X3966463Y5686044D01*
X3971543Y5701537D01*
X3971543Y5779515D01*
X4011168Y5753607D02*
G01*
X4011168Y5758687D01*
X4016247Y5769102D01*
X4021581Y5774436D01*
X4031995Y5779515D01*
X4052570Y5779515D01*
X4062984Y5774436D01*
X4068318Y5769102D01*
X4073397Y5758687D01*
X4073397Y5748273D01*
X4068318Y5737860D01*
X4057904Y5722365D01*
X4005834Y5670550D01*
X4078731Y5670550D01*
D13*
X3509772Y5205729D02*
G01*
X3505454Y5214873D01*
X3496309Y5224018D01*
X3487165Y5228589D01*
X3468877Y5228589D01*
X3459988Y5224018D01*
X3450843Y5214873D01*
X3446272Y5205729D01*
X3441700Y5192268D01*
X3441700Y5169407D01*
X3446272Y5155692D01*
X3450843Y5146802D01*
X3459988Y5137657D01*
X3468877Y5133086D01*
X3487165Y5133086D01*
X3496309Y5137657D01*
X3505454Y5146802D01*
X3509772Y5155692D01*
X3509772Y5169407D01*
X3487165Y5169407D02*
G01*
X3509772Y5169407D01*
X3539997Y5228589D02*
G01*
X3539997Y5133086D01*
X3539997Y5228589D02*
G01*
X3603497Y5133086D01*
X3603497Y5228589D02*
G01*
X3603497Y5133086D01*
X3633470Y5228589D02*
G01*
X3633470Y5133086D01*
X3633470Y5228589D02*
G01*
X3665220Y5228589D01*
X3678936Y5224018D01*
X3688079Y5214873D01*
X3692652Y5205729D01*
X3697224Y5192268D01*
X3697224Y5169407D01*
X3692652Y5155692D01*
X3688079Y5146802D01*
X3678936Y5137657D01*
X3665220Y5133086D01*
X3633470Y5133086D01*
X3450843Y5469889D02*
G01*
X3500881Y5469889D01*
X3473450Y5433568D01*
X3487165Y5433568D01*
X3496309Y5428995D01*
X3500881Y5424423D01*
X3505454Y5410707D01*
X3505454Y5401563D01*
X3500881Y5388102D01*
X3491738Y5378957D01*
X3478022Y5374386D01*
X3464306Y5374386D01*
X3450843Y5378957D01*
X3446272Y5383529D01*
X3441700Y5392673D01*
X3535425Y5469889D02*
G01*
X3571747Y5374386D01*
X3608070Y5469889D02*
G01*
X3571747Y5374386D01*
X3647186Y5469889D02*
G01*
X3697224Y5469889D01*
X3669791Y5433568D01*
X3683508Y5433568D01*
X3692652Y5428995D01*
X3697224Y5424423D01*
X3701795Y5410707D01*
X3701795Y5401563D01*
X3697224Y5388102D01*
X3688079Y5378957D01*
X3674363Y5374386D01*
X3660902Y5374386D01*
X3647186Y5378957D01*
X3642613Y5383529D01*
X3638041Y5392673D01*
X4438726Y4485716D02*
G01*
X4429836Y4481398D01*
X4420692Y4472254D01*
X4416120Y4463110D01*
X4416120Y4444822D01*
X4420692Y4435932D01*
X4429836Y4426788D01*
X4438726Y4422216D01*
X4452442Y4417644D01*
X4475302Y4417644D01*
X4488764Y4422216D01*
X4497908Y4426788D01*
X4507052Y4435932D01*
X4511624Y4444822D01*
X4511624Y4463110D01*
X4507052Y4472254D01*
X4497908Y4481398D01*
X4488764Y4485716D01*
X4416120Y4561154D02*
G01*
X4488764Y4561154D01*
X4502480Y4556836D01*
X4507052Y4552264D01*
X4511624Y4543120D01*
X4511624Y4533976D01*
X4507052Y4524832D01*
X4502480Y4520260D01*
X4488764Y4515942D01*
X4479620Y4515942D01*
X4416120Y4591380D02*
G01*
X4511624Y4591380D01*
X4416120Y4591380D02*
G01*
X4511624Y4627702D01*
X4416120Y4664024D02*
G01*
X4511624Y4627702D01*
X4416120Y4664024D02*
G01*
X4511624Y4664024D01*
X4438726Y4762068D02*
G01*
X4429836Y4757750D01*
X4420692Y4748606D01*
X4416120Y4739462D01*
X4416120Y4721174D01*
X4420692Y4712284D01*
X4429836Y4703140D01*
X4438726Y4698568D01*
X4452442Y4693996D01*
X4475302Y4693996D01*
X4488764Y4698568D01*
X4497908Y4703140D01*
X4507052Y4712284D01*
X4511624Y4721174D01*
X4511624Y4739462D01*
X4507052Y4748606D01*
X4497908Y4757750D01*
X4488764Y4762068D01*
X4416120Y4792294D02*
G01*
X4484192Y4792294D01*
X4497908Y4796612D01*
X4507052Y4805756D01*
X4511624Y4819472D01*
X4511624Y4828616D01*
X4507052Y4842078D01*
X4497908Y4851222D01*
X4484192Y4855794D01*
X4416120Y4855794D01*
X3522472Y4939029D02*
G01*
X3518154Y4948173D01*
X3509009Y4957318D01*
X3499865Y4961889D01*
X3481577Y4961889D01*
X3472688Y4957318D01*
X3463543Y4948173D01*
X3458972Y4939029D01*
X3454400Y4925568D01*
X3454400Y4902707D01*
X3458972Y4888992D01*
X3463543Y4880102D01*
X3472688Y4870957D01*
X3481577Y4866386D01*
X3499865Y4866386D01*
X3509009Y4870957D01*
X3518154Y4880102D01*
X3522472Y4888992D01*
X3584447Y4961889D02*
G01*
X3584447Y4866386D01*
X3552697Y4961889D02*
G01*
X3616197Y4961889D01*
X3646170Y4961889D02*
G01*
X3709924Y4866386D01*
X3709924Y4961889D02*
G01*
X3646170Y4866386D01*
X3509772Y4697729D02*
G01*
X3505454Y4706873D01*
X3496309Y4716018D01*
X3487165Y4720589D01*
X3468877Y4720589D01*
X3459988Y4716018D01*
X3450843Y4706873D01*
X3446272Y4697729D01*
X3441700Y4684268D01*
X3441700Y4661407D01*
X3446272Y4647692D01*
X3450843Y4638802D01*
X3459988Y4629657D01*
X3468877Y4625086D01*
X3487165Y4625086D01*
X3496309Y4629657D01*
X3505454Y4638802D01*
X3509772Y4647692D01*
X3539997Y4720589D02*
G01*
X3539997Y4625086D01*
X3539997Y4720589D02*
G01*
X3580891Y4720589D01*
X3594354Y4716018D01*
X3598925Y4711445D01*
X3603497Y4702302D01*
X3603497Y4693157D01*
X3598925Y4684268D01*
X3594354Y4679695D01*
X3580891Y4675123D01*
X3539997Y4675123D01*
X3571747Y4675123D02*
G01*
X3603497Y4625086D01*
X3633470Y4720589D02*
G01*
X3697224Y4625086D01*
X3697224Y4720589D02*
G01*
X3633470Y4625086D01*
X3509772Y4456429D02*
G01*
X3505454Y4465573D01*
X3496309Y4474718D01*
X3487165Y4479289D01*
X3468877Y4479289D01*
X3459988Y4474718D01*
X3450843Y4465573D01*
X3446272Y4456429D01*
X3441700Y4442968D01*
X3441700Y4420107D01*
X3446272Y4406392D01*
X3450843Y4397502D01*
X3459988Y4388357D01*
X3468877Y4383786D01*
X3487165Y4383786D01*
X3496309Y4388357D01*
X3505454Y4397502D01*
X3509772Y4406392D01*
X3576320Y4479289D02*
G01*
X3539997Y4383786D01*
X3576320Y4479289D02*
G01*
X3612641Y4383786D01*
X3553459Y4415536D02*
G01*
X3598925Y4415536D01*
X3642613Y4479289D02*
G01*
X3642613Y4383786D01*
X3642613Y4479289D02*
G01*
X3706368Y4383786D01*
X3706368Y4479289D02*
G01*
X3706368Y4383786D01*
X3736340Y4479289D02*
G01*
X3736340Y4383786D01*
X3799840Y4479289D02*
G01*
X3799840Y4383786D01*
X3736340Y4433823D02*
G01*
X3799840Y4433823D01*
X3509772Y4189729D02*
G01*
X3505454Y4198873D01*
X3496309Y4208018D01*
X3487165Y4212589D01*
X3468877Y4212589D01*
X3459988Y4208018D01*
X3450843Y4198873D01*
X3446272Y4189729D01*
X3441700Y4176268D01*
X3441700Y4153407D01*
X3446272Y4139692D01*
X3450843Y4130802D01*
X3459988Y4121657D01*
X3468877Y4117086D01*
X3487165Y4117086D01*
X3496309Y4121657D01*
X3505454Y4130802D01*
X3509772Y4139692D01*
X3576320Y4212589D02*
G01*
X3539997Y4117086D01*
X3576320Y4212589D02*
G01*
X3612641Y4117086D01*
X3553459Y4148836D02*
G01*
X3598925Y4148836D01*
X3642613Y4212589D02*
G01*
X3642613Y4117086D01*
X3642613Y4212589D02*
G01*
X3706368Y4117086D01*
X3706368Y4212589D02*
G01*
X3706368Y4117086D01*
X3736340Y4212589D02*
G01*
X3736340Y4117086D01*
X3736340Y4117086D02*
G01*
X3790695Y4117086D01*
D10*
X1417015Y6591300D02*
G01*
X1339037Y6591300D01*
X1323543Y6586220D01*
X1313129Y6575805D01*
X1308049Y6560058D01*
X1308049Y6549644D01*
X1313129Y6534150D01*
X1323543Y6523736D01*
X1339037Y6518655D01*
X1417015Y6518655D01*
X1417015Y6432295D02*
G01*
X1344371Y6484365D01*
X1344371Y6406387D01*
X1417015Y6432295D02*
G01*
X1308049Y6432295D01*
D14*
X3467100Y3695700D02*
G01*
X7867098Y3695700D01*
X7867098Y2295700D01*
X3467100Y2295700D01*
X3467100Y3695700D01*
X7729999Y6474000D02*
G01*
X2430000Y6474000D01*
X2430000Y9273999D02*
G01*
X7729999Y9273999D01*
X7829999Y9173997D02*
G01*
X7829999Y6574000D01*
X7742872Y7140242D02*
G01*
X7742872Y7394242D01*
X7387272Y7394242D01*
X7387272Y7140242D01*
X7742872Y7140242D01*
X7742872Y7191042D01*
X7793672Y7191042D01*
X7793672Y7343442D01*
X7742872Y7343442D01*
X7892729Y7526327D02*
G01*
X7392357Y7526327D01*
X7392357Y8267999D01*
X7892729Y8267999D01*
X7829229Y7528862D02*
G01*
X7829229Y8265462D01*
X7392357Y7566962D02*
G01*
X7392357Y7526327D01*
X7547300Y7526327D01*
X7392357Y8217199D02*
G01*
X7392357Y8267999D01*
X7557457Y8267999D01*
X7796215Y7526327D02*
G01*
X7887657Y7526327D01*
X7796215Y8267999D02*
G01*
X7887657Y8267999D01*
X7897815Y7566962D02*
G01*
X7894330Y7551361D01*
X7894330Y7551361D02*
G01*
X7895272Y7526327D01*
X7892729Y8267999D02*
G01*
X7894330Y8242246D01*
X7894330Y8242246D02*
G01*
X7895272Y8229899D01*
X7932430Y7602161D02*
G01*
X7932430Y8191446D01*
X7952757Y7602161D02*
G01*
X7952757Y8191446D01*
X7914657Y7586929D02*
G01*
X7917200Y7586929D01*
X7917200Y7586929D02*
G01*
X7937515Y7586929D01*
X7914657Y8206686D02*
G01*
X7917200Y8206686D01*
X7917200Y8206686D02*
G01*
X7937515Y8206686D01*
X7895272Y7528862D02*
G01*
X7938457Y7503462D01*
X7941000Y7500927D02*
G01*
X7952757Y7520886D01*
X7952757Y7520886D02*
G01*
X7907030Y7548829D01*
X7895272Y8265462D02*
G01*
X7938457Y8290862D01*
X7941000Y8290862D02*
G01*
X7952757Y8272729D01*
X7952757Y8272729D02*
G01*
X7909572Y8244786D01*
X7387272Y7191042D02*
G01*
X7336472Y7191042D01*
X7336472Y7343442D01*
X7380457Y7343442D01*
X7387272Y8445799D02*
G01*
X7336472Y8445799D01*
X7336472Y8598199D01*
X7377915Y8598199D01*
X7742872Y8394999D02*
G01*
X7742872Y8648999D01*
X7387272Y8648999D01*
X7387272Y8394999D01*
X7742872Y8394999D01*
X7742872Y8445799D01*
X7793672Y8445799D01*
X7793672Y8598199D01*
X7742872Y8598199D01*
X2330000Y6574000D02*
G01*
X2330000Y9173997D01*
X3219503Y7111525D02*
G01*
X4743503Y7111525D01*
X4743503Y8635525D01*
X3219503Y8635525D01*
X3219503Y7111525D01*
X2366060Y8764557D02*
G01*
X4915969Y8764557D01*
X2366060Y6964456D02*
G01*
X3716068Y6964456D01*
X4915969Y6964456D01*
X4915969Y6964456D02*
G01*
X4915969Y8764557D01*
X2366060Y6964456D02*
G01*
X2366060Y8764557D01*
X2966011Y6964456D02*
G01*
X2966011Y8564402D01*
X2966011Y8764557D01*
D15*
X2914703Y8620287D02*
G01*
X2452418Y8620287D01*
X2452418Y8076725D01*
X2711503Y8076725D01*
X2711503Y7817645D01*
X2452418Y7817645D01*
X2452418Y7563645D01*
X2711503Y7563645D01*
X2711503Y7322345D01*
X2452418Y7322345D01*
X2452418Y7119145D01*
X2914703Y7119145D01*
X2922318Y8353587D02*
G01*
X2453695Y8353587D01*
D11*
X541020Y8412479D02*
G01*
X541020Y7411720D01*
X444500Y7785100D02*
G01*
X508000Y7785100D01*
X508000Y7531100D01*
X444500Y7531100D01*
X444500Y8293100D02*
G01*
X508000Y8293100D01*
X508000Y8039100D01*
X444500Y8039100D01*
X1219200Y8413750D02*
G01*
X1219200Y7410450D01*
X431800Y7410450D01*
X431800Y8413750D01*
X1219200Y8413750D01*
X1122679Y8491220D02*
G01*
X1122679Y8415020D01*
X1046479Y8415020D01*
X1046479Y8491220D01*
X1122679Y8491220D01*
X541020Y9441179D02*
G01*
X541020Y8440420D01*
X444500Y8813800D02*
G01*
X508000Y8813800D01*
X508000Y8559800D01*
X444500Y8559800D01*
X444500Y9321800D02*
G01*
X508000Y9321800D01*
X508000Y9067800D01*
X444500Y9067800D01*
X1219200Y9442450D02*
G01*
X1219200Y8439150D01*
X431800Y8439150D01*
X431800Y9442450D01*
X1219200Y9442450D01*
X1122679Y9519920D02*
G01*
X1122679Y9443720D01*
X1046479Y9443720D01*
X1046479Y9519920D01*
X1122679Y9519920D01*
D14*
X2184400Y2006600D02*
G01*
X2184400Y2260600D01*
X2692400Y2260600D01*
X2692400Y2006600D01*
X2184400Y2006600D01*
X3492500Y9664700D02*
G01*
X3619500Y9664700D01*
X3619500Y9664700D02*
G01*
X3683000Y9601200D01*
X3683000Y9474200D02*
G01*
X3619500Y9410700D01*
X3175000Y9601200D02*
G01*
X3238500Y9664700D01*
X3238500Y9664700D02*
G01*
X3365500Y9664700D01*
X3365500Y9664700D02*
G01*
X3429000Y9601200D01*
X3429000Y9474200D02*
G01*
X3365500Y9410700D01*
X3365500Y9410700D02*
G01*
X3238500Y9410700D01*
X3238500Y9410700D02*
G01*
X3175000Y9474200D01*
X3492500Y9664700D02*
G01*
X3429000Y9601200D01*
X3429000Y9474200D02*
G01*
X3492500Y9410700D01*
X3619500Y9410700D02*
G01*
X3492500Y9410700D01*
X2730500Y9664700D02*
G01*
X2857500Y9664700D01*
X2857500Y9664700D02*
G01*
X2921000Y9601200D01*
X2921000Y9474200D02*
G01*
X2857500Y9410700D01*
X2921000Y9601200D02*
G01*
X2984500Y9664700D01*
X2984500Y9664700D02*
G01*
X3111500Y9664700D01*
X3111500Y9664700D02*
G01*
X3175000Y9601200D01*
X3175000Y9474200D02*
G01*
X3111500Y9410700D01*
X3111500Y9410700D02*
G01*
X2984500Y9410700D01*
X2984500Y9410700D02*
G01*
X2921000Y9474200D01*
X2667000Y9601200D02*
G01*
X2667000Y9474200D01*
X2730500Y9664700D02*
G01*
X2667000Y9601200D01*
X2667000Y9474200D02*
G01*
X2730500Y9410700D01*
X2857500Y9410700D02*
G01*
X2730500Y9410700D01*
X4000500Y9664700D02*
G01*
X4127500Y9664700D01*
X4127500Y9664700D02*
G01*
X4191000Y9601200D01*
X4191000Y9474200D02*
G01*
X4127500Y9410700D01*
X3683000Y9601200D02*
G01*
X3746500Y9664700D01*
X3746500Y9664700D02*
G01*
X3873500Y9664700D01*
X3873500Y9664700D02*
G01*
X3937000Y9601200D01*
X3937000Y9474200D02*
G01*
X3873500Y9410700D01*
X3873500Y9410700D02*
G01*
X3746500Y9410700D01*
X3746500Y9410700D02*
G01*
X3683000Y9474200D01*
X4000500Y9664700D02*
G01*
X3937000Y9601200D01*
X3937000Y9474200D02*
G01*
X4000500Y9410700D01*
X4127500Y9410700D02*
G01*
X4000500Y9410700D01*
X4508500Y9664700D02*
G01*
X4635500Y9664700D01*
X4635500Y9664700D02*
G01*
X4699000Y9601200D01*
X4699000Y9474200D02*
G01*
X4635500Y9410700D01*
X4191000Y9601200D02*
G01*
X4254500Y9664700D01*
X4254500Y9664700D02*
G01*
X4381500Y9664700D01*
X4381500Y9664700D02*
G01*
X4445000Y9601200D01*
X4445000Y9474200D02*
G01*
X4381500Y9410700D01*
X4381500Y9410700D02*
G01*
X4254500Y9410700D01*
X4254500Y9410700D02*
G01*
X4191000Y9474200D01*
X4508500Y9664700D02*
G01*
X4445000Y9601200D01*
X4445000Y9474200D02*
G01*
X4508500Y9410700D01*
X4635500Y9410700D02*
G01*
X4508500Y9410700D01*
X5016500Y9664700D02*
G01*
X5143500Y9664700D01*
X5143500Y9664700D02*
G01*
X5207000Y9601200D01*
X5207000Y9474200D02*
G01*
X5143500Y9410700D01*
X4699000Y9601200D02*
G01*
X4762500Y9664700D01*
X4762500Y9664700D02*
G01*
X4889500Y9664700D01*
X4889500Y9664700D02*
G01*
X4953000Y9601200D01*
X4953000Y9474200D02*
G01*
X4889500Y9410700D01*
X4889500Y9410700D02*
G01*
X4762500Y9410700D01*
X4762500Y9410700D02*
G01*
X4699000Y9474200D01*
X5016500Y9664700D02*
G01*
X4953000Y9601200D01*
X4953000Y9474200D02*
G01*
X5016500Y9410700D01*
X5143500Y9410700D02*
G01*
X5016500Y9410700D01*
X5207000Y9601200D02*
G01*
X5207000Y9474200D01*
X5778500Y9664700D02*
G01*
X5905500Y9664700D01*
X5905500Y9664700D02*
G01*
X5969000Y9601200D01*
X5969000Y9474200D02*
G01*
X5905500Y9410700D01*
X5461000Y9601200D02*
G01*
X5524500Y9664700D01*
X5524500Y9664700D02*
G01*
X5651500Y9664700D01*
X5651500Y9664700D02*
G01*
X5715000Y9601200D01*
X5715000Y9474200D02*
G01*
X5651500Y9410700D01*
X5651500Y9410700D02*
G01*
X5524500Y9410700D01*
X5524500Y9410700D02*
G01*
X5461000Y9474200D01*
X5778500Y9664700D02*
G01*
X5715000Y9601200D01*
X5715000Y9474200D02*
G01*
X5778500Y9410700D01*
X5905500Y9410700D02*
G01*
X5778500Y9410700D01*
X5207000Y9601200D02*
G01*
X5270500Y9664700D01*
X5270500Y9664700D02*
G01*
X5397500Y9664700D01*
X5397500Y9664700D02*
G01*
X5461000Y9601200D01*
X5461000Y9474200D02*
G01*
X5397500Y9410700D01*
X5397500Y9410700D02*
G01*
X5270500Y9410700D01*
X5270500Y9410700D02*
G01*
X5207000Y9474200D01*
X6286500Y9664700D02*
G01*
X6413500Y9664700D01*
X6413500Y9664700D02*
G01*
X6477000Y9601200D01*
X6477000Y9474200D02*
G01*
X6413500Y9410700D01*
X5969000Y9601200D02*
G01*
X6032500Y9664700D01*
X6032500Y9664700D02*
G01*
X6159500Y9664700D01*
X6159500Y9664700D02*
G01*
X6223000Y9601200D01*
X6223000Y9474200D02*
G01*
X6159500Y9410700D01*
X6159500Y9410700D02*
G01*
X6032500Y9410700D01*
X6032500Y9410700D02*
G01*
X5969000Y9474200D01*
X6286500Y9664700D02*
G01*
X6223000Y9601200D01*
X6223000Y9474200D02*
G01*
X6286500Y9410700D01*
X6413500Y9410700D02*
G01*
X6286500Y9410700D01*
X6794500Y9664700D02*
G01*
X6921500Y9664700D01*
X6921500Y9664700D02*
G01*
X6985000Y9601200D01*
X6985000Y9474200D02*
G01*
X6921500Y9410700D01*
X6477000Y9601200D02*
G01*
X6540500Y9664700D01*
X6540500Y9664700D02*
G01*
X6667500Y9664700D01*
X6667500Y9664700D02*
G01*
X6731000Y9601200D01*
X6731000Y9474200D02*
G01*
X6667500Y9410700D01*
X6667500Y9410700D02*
G01*
X6540500Y9410700D01*
X6540500Y9410700D02*
G01*
X6477000Y9474200D01*
X6794500Y9664700D02*
G01*
X6731000Y9601200D01*
X6731000Y9474200D02*
G01*
X6794500Y9410700D01*
X6921500Y9410700D02*
G01*
X6794500Y9410700D01*
X7302500Y9664700D02*
G01*
X7429500Y9664700D01*
X7429500Y9664700D02*
G01*
X7493000Y9601200D01*
X7493000Y9474200D02*
G01*
X7429500Y9410700D01*
X6985000Y9601200D02*
G01*
X7048500Y9664700D01*
X7048500Y9664700D02*
G01*
X7175500Y9664700D01*
X7175500Y9664700D02*
G01*
X7239000Y9601200D01*
X7239000Y9474200D02*
G01*
X7175500Y9410700D01*
X7175500Y9410700D02*
G01*
X7048500Y9410700D01*
X7048500Y9410700D02*
G01*
X6985000Y9474200D01*
X7302500Y9664700D02*
G01*
X7239000Y9601200D01*
X7239000Y9474200D02*
G01*
X7302500Y9410700D01*
X7429500Y9410700D02*
G01*
X7302500Y9410700D01*
X7493000Y9601200D02*
G01*
X7493000Y9474200D01*
X3492500Y6324600D02*
G01*
X3619500Y6324600D01*
X3619500Y6324600D02*
G01*
X3683000Y6261100D01*
X3683000Y6134100D02*
G01*
X3619500Y6070600D01*
X3175000Y6261100D02*
G01*
X3238500Y6324600D01*
X3238500Y6324600D02*
G01*
X3365500Y6324600D01*
X3365500Y6324600D02*
G01*
X3429000Y6261100D01*
X3429000Y6134100D02*
G01*
X3365500Y6070600D01*
X3365500Y6070600D02*
G01*
X3238500Y6070600D01*
X3238500Y6070600D02*
G01*
X3175000Y6134100D01*
X3492500Y6324600D02*
G01*
X3429000Y6261100D01*
X3429000Y6134100D02*
G01*
X3492500Y6070600D01*
X3619500Y6070600D02*
G01*
X3492500Y6070600D01*
X2730500Y6324600D02*
G01*
X2857500Y6324600D01*
X2857500Y6324600D02*
G01*
X2921000Y6261100D01*
X2921000Y6134100D02*
G01*
X2857500Y6070600D01*
X2921000Y6261100D02*
G01*
X2984500Y6324600D01*
X2984500Y6324600D02*
G01*
X3111500Y6324600D01*
X3111500Y6324600D02*
G01*
X3175000Y6261100D01*
X3175000Y6134100D02*
G01*
X3111500Y6070600D01*
X3111500Y6070600D02*
G01*
X2984500Y6070600D01*
X2984500Y6070600D02*
G01*
X2921000Y6134100D01*
X2667000Y6261100D02*
G01*
X2667000Y6134100D01*
X2730500Y6324600D02*
G01*
X2667000Y6261100D01*
X2667000Y6134100D02*
G01*
X2730500Y6070600D01*
X2857500Y6070600D02*
G01*
X2730500Y6070600D01*
X4000500Y6324600D02*
G01*
X4127500Y6324600D01*
X4127500Y6324600D02*
G01*
X4191000Y6261100D01*
X4191000Y6134100D02*
G01*
X4127500Y6070600D01*
X3683000Y6261100D02*
G01*
X3746500Y6324600D01*
X3746500Y6324600D02*
G01*
X3873500Y6324600D01*
X3873500Y6324600D02*
G01*
X3937000Y6261100D01*
X3937000Y6134100D02*
G01*
X3873500Y6070600D01*
X3873500Y6070600D02*
G01*
X3746500Y6070600D01*
X3746500Y6070600D02*
G01*
X3683000Y6134100D01*
X4000500Y6324600D02*
G01*
X3937000Y6261100D01*
X3937000Y6134100D02*
G01*
X4000500Y6070600D01*
X4127500Y6070600D02*
G01*
X4000500Y6070600D01*
X4508500Y6324600D02*
G01*
X4635500Y6324600D01*
X4635500Y6324600D02*
G01*
X4699000Y6261100D01*
X4699000Y6134100D02*
G01*
X4635500Y6070600D01*
X4191000Y6261100D02*
G01*
X4254500Y6324600D01*
X4254500Y6324600D02*
G01*
X4381500Y6324600D01*
X4381500Y6324600D02*
G01*
X4445000Y6261100D01*
X4445000Y6134100D02*
G01*
X4381500Y6070600D01*
X4381500Y6070600D02*
G01*
X4254500Y6070600D01*
X4254500Y6070600D02*
G01*
X4191000Y6134100D01*
X4508500Y6324600D02*
G01*
X4445000Y6261100D01*
X4445000Y6134100D02*
G01*
X4508500Y6070600D01*
X4635500Y6070600D02*
G01*
X4508500Y6070600D01*
X5016500Y6324600D02*
G01*
X5143500Y6324600D01*
X5143500Y6324600D02*
G01*
X5207000Y6261100D01*
X5207000Y6134100D02*
G01*
X5143500Y6070600D01*
X4699000Y6261100D02*
G01*
X4762500Y6324600D01*
X4762500Y6324600D02*
G01*
X4889500Y6324600D01*
X4889500Y6324600D02*
G01*
X4953000Y6261100D01*
X4953000Y6134100D02*
G01*
X4889500Y6070600D01*
X4889500Y6070600D02*
G01*
X4762500Y6070600D01*
X4762500Y6070600D02*
G01*
X4699000Y6134100D01*
X5016500Y6324600D02*
G01*
X4953000Y6261100D01*
X4953000Y6134100D02*
G01*
X5016500Y6070600D01*
X5143500Y6070600D02*
G01*
X5016500Y6070600D01*
X5207000Y6261100D02*
G01*
X5207000Y6134100D01*
X5778500Y6324600D02*
G01*
X5905500Y6324600D01*
X5905500Y6324600D02*
G01*
X5969000Y6261100D01*
X5969000Y6134100D02*
G01*
X5905500Y6070600D01*
X5461000Y6261100D02*
G01*
X5524500Y6324600D01*
X5524500Y6324600D02*
G01*
X5651500Y6324600D01*
X5651500Y6324600D02*
G01*
X5715000Y6261100D01*
X5715000Y6134100D02*
G01*
X5651500Y6070600D01*
X5651500Y6070600D02*
G01*
X5524500Y6070600D01*
X5524500Y6070600D02*
G01*
X5461000Y6134100D01*
X5778500Y6324600D02*
G01*
X5715000Y6261100D01*
X5715000Y6134100D02*
G01*
X5778500Y6070600D01*
X5905500Y6070600D02*
G01*
X5778500Y6070600D01*
X5207000Y6261100D02*
G01*
X5270500Y6324600D01*
X5270500Y6324600D02*
G01*
X5397500Y6324600D01*
X5397500Y6324600D02*
G01*
X5461000Y6261100D01*
X5461000Y6134100D02*
G01*
X5397500Y6070600D01*
X5397500Y6070600D02*
G01*
X5270500Y6070600D01*
X5270500Y6070600D02*
G01*
X5207000Y6134100D01*
X6286500Y6324600D02*
G01*
X6413500Y6324600D01*
X6413500Y6324600D02*
G01*
X6477000Y6261100D01*
X6477000Y6134100D02*
G01*
X6413500Y6070600D01*
X5969000Y6261100D02*
G01*
X6032500Y6324600D01*
X6032500Y6324600D02*
G01*
X6159500Y6324600D01*
X6159500Y6324600D02*
G01*
X6223000Y6261100D01*
X6223000Y6134100D02*
G01*
X6159500Y6070600D01*
X6159500Y6070600D02*
G01*
X6032500Y6070600D01*
X6032500Y6070600D02*
G01*
X5969000Y6134100D01*
X6286500Y6324600D02*
G01*
X6223000Y6261100D01*
X6223000Y6134100D02*
G01*
X6286500Y6070600D01*
X6413500Y6070600D02*
G01*
X6286500Y6070600D01*
X6794500Y6324600D02*
G01*
X6921500Y6324600D01*
X6921500Y6324600D02*
G01*
X6985000Y6261100D01*
X6985000Y6134100D02*
G01*
X6921500Y6070600D01*
X6477000Y6261100D02*
G01*
X6540500Y6324600D01*
X6540500Y6324600D02*
G01*
X6667500Y6324600D01*
X6667500Y6324600D02*
G01*
X6731000Y6261100D01*
X6731000Y6134100D02*
G01*
X6667500Y6070600D01*
X6667500Y6070600D02*
G01*
X6540500Y6070600D01*
X6540500Y6070600D02*
G01*
X6477000Y6134100D01*
X6794500Y6324600D02*
G01*
X6731000Y6261100D01*
X6731000Y6134100D02*
G01*
X6794500Y6070600D01*
X6921500Y6070600D02*
G01*
X6794500Y6070600D01*
X7302500Y6324600D02*
G01*
X7429500Y6324600D01*
X7429500Y6324600D02*
G01*
X7493000Y6261100D01*
X7493000Y6134100D02*
G01*
X7429500Y6070600D01*
X6985000Y6261100D02*
G01*
X7048500Y6324600D01*
X7048500Y6324600D02*
G01*
X7175500Y6324600D01*
X7175500Y6324600D02*
G01*
X7239000Y6261100D01*
X7239000Y6134100D02*
G01*
X7175500Y6070600D01*
X7175500Y6070600D02*
G01*
X7048500Y6070600D01*
X7048500Y6070600D02*
G01*
X6985000Y6134100D01*
X7302500Y6324600D02*
G01*
X7239000Y6261100D01*
X7239000Y6134100D02*
G01*
X7302500Y6070600D01*
X7429500Y6070600D02*
G01*
X7302500Y6070600D01*
X7493000Y6261100D02*
G01*
X7493000Y6134100D01*
X508932Y4191099D02*
G01*
X11503Y4191099D01*
X2141501Y4191099D02*
G01*
X794077Y4191099D01*
X508929Y5791100D02*
G01*
X11503Y5791100D01*
X2141501Y5791100D02*
G01*
X794075Y5791100D01*
X11503Y4191099D02*
G01*
X11503Y5791100D01*
X2141501Y5791100D02*
G01*
X2141501Y4191099D01*
X508932Y2438499D02*
G01*
X11503Y2438499D01*
X2141501Y2438499D02*
G01*
X794077Y2438499D01*
X508929Y4038500D02*
G01*
X11503Y4038500D01*
X2141501Y4038500D02*
G01*
X794075Y4038500D01*
X11503Y2438499D02*
G01*
X11503Y4038500D01*
X2141501Y4038500D02*
G01*
X2141501Y2438499D01*
X7404100Y3987800D02*
G01*
X4991100Y3987800D01*
X4991100Y5638800D01*
X7404100Y5638800D01*
X7404100Y3987800D01*
D16*
X6896100Y4622800D02*
G01*
X6134100Y4622800D01*
X6134100Y5384800D01*
X6896100Y5384800D01*
X6896100Y4622800D01*
D14*
X7912100Y4241800D02*
G01*
X7658100Y4241800D01*
X7658100Y4749800D01*
X7912100Y4749800D01*
X7912100Y4241800D01*
X2374900Y4686300D02*
G01*
X2374900Y4940300D01*
X2882900Y4940300D01*
X2882900Y4686300D01*
X2374900Y4686300D01*
X2806700Y2006600D02*
G01*
X2806700Y2260600D01*
X3314700Y2260600D01*
X3314700Y2006600D01*
X2806700Y2006600D01*
X2654300Y3429000D02*
G01*
X2654300Y4191000D01*
X2946400Y4191000D01*
X2946400Y3429000D01*
X2654300Y3429000D01*
X3175000Y5638800D02*
G01*
X4625009Y5638800D01*
X4625009Y3998798D01*
X3175000Y3998798D01*
X3175000Y5638800D01*
X1225499Y7380099D02*
G01*
X1225499Y5880100D01*
X565099Y5880100D02*
G01*
X565099Y7380099D01*
X475498Y5880100D02*
G01*
X475498Y7380099D01*
X475498Y7380099D02*
G01*
X1225499Y7380102D01*
X475498Y5880100D02*
G01*
X1225499Y5880100D01*
G75*
G01*
X7895285Y7544100D02*
G02*
X7910779Y7588550I51434J6997D01*
G75*
G01*
X7915351Y7588550D02*
G03*
X7929829Y7603790I-531J15002D01*
G75*
G01*
X7935925Y7588550D02*
G03*
X7951419Y7603790I485J15003D01*
G75*
G01*
X7951419Y8193324D02*
G03*
X7935925Y8208564I-15009J236D01*
G75*
G01*
X7929829Y8193324D02*
G03*
X7915351Y8208564I-15009J238D01*
G75*
G01*
X7910779Y8208564D02*
G02*
X7895285Y8247680I26085J32959D01*
G75*
G01*
X7905445Y7550196D02*
G03*
X7895285Y7554260I-10531J-11596D01*
G75*
G01*
X7905953Y8247426D02*
G02*
X7895285Y8245140I-8409J13209D01*
G75*
G01*
X2329998Y9174002D02*
G02*
X2429998Y9274002I100000J0D01*
G75*
G01*
X7730000Y9274002D02*
G02*
X7830000Y9174002I0J-100000D01*
G75*
G01*
X7830000Y6574000D02*
G02*
X7730000Y6474000I-100000J0D01*
G75*
G01*
X2429998Y6474000D02*
G02*
X2329998Y6574000I0J100000D01*
G75*
G01
X7590485Y7254545D02*
G03X7590485Y7254545I-12700J0D01*
G75*
G01
X7565085Y7279945D02*
G03X7565085Y7279945I-12700J0D01*
G75*
G01
X7590485Y7267245D02*
G03X7590485Y7267245I-25400J0D01*
G75*
G01
X7615885Y7267245D02*
G03X7615885Y7267245I-50800J0D01*
G75*
G01
X7641285Y7267245D02*
G03X7641285Y7267245I-76200J0D01*
G75*
G01
X7590485Y8509305D02*
G03X7590485Y8509305I-12700J0D01*
G75*
G01
X7565085Y8534705D02*
G03X7565085Y8534705I-12700J0D01*
G75*
G01
X7590485Y8522005D02*
G03X7590485Y8522005I-25400J0D01*
G75*
G01
X7615885Y8522005D02*
G03X7615885Y8522005I-50800J0D01*
G75*
G01
X7641285Y8522005D02*
G03X7641285Y8522005I-76200J0D01*
G75*
G01
X7755001Y9073998D02*
G03X7755001Y9073998I-124993J0D01*
G75*
G01
X2654986Y9073998D02*
G03X2654986Y9073998I-124993J0D01*
G75*
G01
X2654986Y6674002D02*
G03X2654986Y6674002I-124993J0D01*
G75*
G01
X7755001Y6674002D02*
G03X7755001Y6674002I-124993J0D01*
D11*
G75*
G01
X1016000Y7658100D02*
G03X1016000Y7658100I-190500J0D01*
G75*
G01
X1016000Y8166100D02*
G03X1016000Y8166100I-190500J0D01*
G75*
G01
X1016000Y8686800D02*
G03X1016000Y8686800I-190500J0D01*
G75*
G01
X1016000Y9194800D02*
G03X1016000Y9194800I-190500J0D01*
D14*
G75*
G01
X2677008Y9664700D02*
G03X2677008Y9664700I-10008J0D01*
G75*
G01
X2677008Y6324600D02*
G03X2677008Y6324600I-10008J0D01*
G75*
G01
X1765325Y5575300D02*
G03X1765325Y5575300I-12700J0D01*
G75*
G01
X1765325Y3822700D02*
G03X1765325Y3822700I-12700J0D01*
M02*
