G04 Layer: BottomLayer*
G04 EasyEDA v6.5.22, 2023-01-11 09:16:23*
G04 b7ba764f11704334a16948ce3b62396a,f9ecfe7abe46434aadffdc01d2bfd918,10*
G04 Gerber Generator version 0.2*
G04 Scale: 100 percent, Rotated: No, Reflected: No *
G04 Dimensions in millimeters *
G04 leading zeros omitted , absolute positions ,4 integer and 5 decimal *
%FSLAX45Y45*%
%MOMM*%

%ADD10C,0.4000*%
%ADD11C,0.2540*%
%ADD12C,1.8000*%
%ADD13C,1.5240*%
%ADD14C,2.5400*%
%ADD15R,1.9304X1.9304*%
%ADD16C,1.8796*%
%ADD17R,1.5240X1.5240*%
%ADD18O,1.9999959999999999X1.1999976*%
%ADD19C,0.6100*%

%LPD*%
D10*
X3048000Y9537700D02*
G01*
X3048000Y9144000D01*
X3302000Y9537700D02*
G01*
X3302000Y9144000D01*
X4064000Y9537700D02*
G01*
X4064000Y9144000D01*
X4318000Y9537700D02*
G01*
X4318000Y9144000D01*
X4572000Y9537700D02*
G01*
X4572000Y9144000D01*
X4826000Y9537700D02*
G01*
X4826000Y9144000D01*
X5334000Y9537700D02*
G01*
X5334000Y9144000D01*
X5588000Y9537700D02*
G01*
X5588000Y9144000D01*
X5842000Y9537700D02*
G01*
X5842000Y9144000D01*
X6096000Y9537700D02*
G01*
X6096000Y9144000D01*
X6350000Y9537700D02*
G01*
X6350000Y9144000D01*
X6604000Y9537700D02*
G01*
X6604000Y9144000D01*
X6858000Y9537700D02*
G01*
X6858000Y9144000D01*
X7112000Y9537700D02*
G01*
X7112000Y9144000D01*
X7366000Y9537700D02*
G01*
X7366000Y9144000D01*
X7112000Y6197600D02*
G01*
X7112000Y6604000D01*
X6858000Y6197600D02*
G01*
X6858000Y6604000D01*
X6604000Y6197600D02*
G01*
X6604000Y6604000D01*
X6350000Y6197600D02*
G01*
X6350000Y6604000D01*
X6096000Y6197600D02*
G01*
X6096000Y6604000D01*
X5842000Y6197600D02*
G01*
X5842000Y6604000D01*
X5588000Y6197600D02*
G01*
X5588000Y6604000D01*
X5334000Y6197600D02*
G01*
X5334000Y6604000D01*
X5080000Y6197600D02*
G01*
X5080000Y6604000D01*
X4826000Y6197600D02*
G01*
X4826000Y6604000D01*
X4572000Y6197600D02*
G01*
X4572000Y6604000D01*
X4318000Y6197600D02*
G01*
X4318000Y6604000D01*
X4064000Y6197600D02*
G01*
X4064000Y6604000D01*
X3810000Y6197600D02*
G01*
X3810000Y6604000D01*
X3556000Y6197600D02*
G01*
X3556000Y6604000D01*
X3302000Y6197600D02*
G01*
X3302000Y6604000D01*
X3048000Y6197600D02*
G01*
X3048000Y6604000D01*
D11*
X7150100Y4114800D02*
G01*
X7150100Y4368800D01*
D10*
X2510790Y4851400D02*
G01*
X3098800Y4263389D01*
X3098800Y3162300D01*
X2256790Y3035300D02*
G01*
X2136266Y3155822D01*
X2136266Y4857877D01*
X2256790Y4978400D01*
X2510790Y3162300D02*
G01*
X2394534Y3278555D01*
X2394534Y4989144D01*
X2510790Y5105400D01*
X2510790Y5359400D02*
G01*
X3414522Y4455668D01*
X3414522Y3375279D01*
X3667099Y3122701D01*
X838200Y7607300D02*
G01*
X2510790Y5934710D01*
X2510790Y5359400D01*
X7150100Y5257800D02*
G01*
X7150100Y5511800D01*
X2794000Y9537700D02*
G01*
X2794000Y9144000D01*
X2794000Y9144000D02*
G01*
X2649854Y8999854D01*
X2649854Y5409387D01*
X3667099Y4392142D01*
X3667099Y3376701D01*
X2794000Y6197600D02*
G01*
X2794000Y6604000D01*
X2794000Y6197600D02*
G01*
X3809669Y5181930D01*
X3809669Y2757271D01*
X3667099Y2614701D01*
X3556000Y9537700D02*
G01*
X3556000Y9144000D01*
X7667091Y3376701D02*
G01*
X7667091Y6471996D01*
X5208473Y8930614D01*
X3769385Y8930614D01*
X3556000Y9144000D01*
X5080000Y9537700D02*
G01*
X5080000Y9144000D01*
X7667091Y2868701D02*
G01*
X7667091Y3122701D01*
X7667091Y3122701D02*
G01*
X7972475Y3428085D01*
X7972475Y6251524D01*
X5080000Y9144000D01*
X2256790Y5602630D02*
G01*
X838200Y7021220D01*
X838200Y7099300D01*
X2256790Y5488965D02*
G01*
X2256790Y5602630D01*
X2256790Y5488965D02*
G01*
X2256790Y5486400D01*
X2256790Y5370169D02*
G01*
X2309520Y5370169D01*
X2447290Y5232400D01*
X2552877Y5232400D01*
X3235375Y4549902D01*
X3235375Y3300425D01*
X3667099Y2868701D01*
X2256790Y5486400D02*
G01*
X2256790Y5370169D01*
X5245100Y5511800D02*
G01*
X5245100Y5257800D01*
X5245100Y4114800D02*
G01*
X5245100Y4368800D01*
X7366000Y6197600D02*
G01*
X7366000Y6604000D01*
X3810000Y9537700D02*
G01*
X3810000Y9144000D01*
X7667091Y2614701D02*
G01*
X8032597Y2980207D01*
X8032597Y7659547D01*
D12*
G01*
X3667099Y3376701D03*
G01*
X3667099Y3122701D03*
G01*
X3667099Y2868701D03*
G01*
X3667099Y2614701D03*
G01*
X7667091Y3376701D03*
G01*
X7667091Y3122701D03*
G01*
X7667091Y2868701D03*
G01*
X7667091Y2614701D03*
D13*
G01*
X2794000Y6604000D03*
G01*
X3048000Y6604000D03*
G01*
X3302000Y6604000D03*
G01*
X3556000Y6604000D03*
G01*
X3810000Y6604000D03*
G01*
X4064000Y6604000D03*
G01*
X4318000Y6604000D03*
G01*
X4572000Y6604000D03*
G01*
X4826000Y6604000D03*
G01*
X5080000Y6604000D03*
G01*
X5334000Y6604000D03*
G01*
X5588000Y6604000D03*
G01*
X5842000Y6604000D03*
G01*
X6096000Y6604000D03*
G01*
X6350000Y6604000D03*
G01*
X6604000Y6604000D03*
G01*
X6858000Y6604000D03*
G01*
X7112000Y6604000D03*
G01*
X7366000Y6604000D03*
G01*
X7366000Y9144000D03*
G01*
X7112000Y9144000D03*
G01*
X6858000Y9144000D03*
G01*
X6604000Y9144000D03*
G01*
X6350000Y9144000D03*
G01*
X6096000Y9144000D03*
G01*
X5842000Y9144000D03*
G01*
X5588000Y9144000D03*
G01*
X5334000Y9144000D03*
G01*
X5080000Y9144000D03*
G01*
X4826000Y9144000D03*
G01*
X4572000Y9144000D03*
G01*
X4318000Y9144000D03*
G01*
X4064000Y9144000D03*
G01*
X3810000Y9144000D03*
G01*
X3556000Y9144000D03*
G01*
X3302000Y9144000D03*
G01*
X3048000Y9144000D03*
G01*
X2794000Y9144000D03*
D14*
G01*
X838200Y7607300D03*
G01*
X838200Y7099300D03*
G01*
X838200Y8890000D03*
G01*
X838200Y8382000D03*
D15*
G01*
X3098800Y3162300D03*
G01*
X3098800Y2908300D03*
D16*
G01*
X3048000Y9537700D03*
G01*
X3302000Y9537700D03*
G01*
X3556000Y9537700D03*
G01*
X2794000Y9537700D03*
G01*
X3810000Y9537700D03*
G01*
X4064000Y9537700D03*
G01*
X4318000Y9537700D03*
G01*
X4572000Y9537700D03*
G01*
X4826000Y9537700D03*
G01*
X5080000Y9537700D03*
G01*
X5334000Y9537700D03*
G01*
X5588000Y9537700D03*
G01*
X5842000Y9537700D03*
G01*
X6096000Y9537700D03*
G01*
X6350000Y9537700D03*
G01*
X6604000Y9537700D03*
G01*
X6858000Y9537700D03*
G01*
X7112000Y9537700D03*
G01*
X7366000Y9537700D03*
G01*
X3048000Y6197600D03*
G01*
X3302000Y6197600D03*
G01*
X3556000Y6197600D03*
G01*
X2794000Y6197600D03*
G01*
X3810000Y6197600D03*
G01*
X4064000Y6197600D03*
G01*
X4318000Y6197600D03*
G01*
X4572000Y6197600D03*
G01*
X4826000Y6197600D03*
G01*
X5080000Y6197600D03*
G01*
X5334000Y6197600D03*
G01*
X5588000Y6197600D03*
G01*
X5842000Y6197600D03*
G01*
X6096000Y6197600D03*
G01*
X6350000Y6197600D03*
G01*
X6604000Y6197600D03*
G01*
X6858000Y6197600D03*
G01*
X7112000Y6197600D03*
G01*
X7366000Y6197600D03*
D13*
G01*
X2510790Y4597400D03*
G01*
X2256790Y4724400D03*
G01*
X2510790Y4851400D03*
G01*
X2256790Y4978400D03*
G01*
X2510790Y5105400D03*
G01*
X2256790Y5232400D03*
G01*
X2510790Y5359400D03*
D17*
G01*
X2256790Y5486400D03*
D18*
G01*
X1146810Y4251909D03*
G01*
X1146810Y5831890D03*
D13*
G01*
X2510790Y2654300D03*
G01*
X2256790Y2781300D03*
G01*
X2510790Y2908300D03*
G01*
X2256790Y3035300D03*
G01*
X2510790Y3162300D03*
G01*
X2256790Y3289300D03*
G01*
X2510790Y3416300D03*
D17*
G01*
X2256790Y3543300D03*
D18*
G01*
X1146810Y2308809D03*
G01*
X1146810Y3888790D03*
D13*
G01*
X5245100Y5257800D03*
G01*
X5245100Y5511800D03*
G01*
X5245100Y4368800D03*
G01*
X5245100Y4114800D03*
G01*
X7150100Y5511800D03*
G01*
X7150100Y5257800D03*
G01*
X7150100Y4368800D03*
G01*
X7150100Y4114800D03*
D15*
G01*
X7835900Y4622800D03*
G01*
X7835900Y4368800D03*
D19*
G01*
X8032597Y7659547D03*
M02*
