G04 Layer: TopSolderMaskLayer*
G04 EasyEDA v6.5.22, 2023-01-11 09:16:23*
G04 b7ba764f11704334a16948ce3b62396a,f9ecfe7abe46434aadffdc01d2bfd918,10*
G04 Gerber Generator version 0.2*
G04 Scale: 100 percent, Rotated: No, Reflected: No *
G04 Dimensions in millimeters *
G04 leading zeros omitted , absolute positions ,4 integer and 5 decimal *
%FSLAX45Y45*%
%MOMM*%

%AMMACRO1*1,1,$1,$2,$3*1,1,$1,$4,$5*1,1,$1,0-$2,0-$3*1,1,$1,0-$4,0-$5*20,1,$1,$2,$3,$4,$5,0*20,1,$1,$4,$5,0-$2,0-$3,0*20,1,$1,0-$2,0-$3,0-$4,0-$5,0*20,1,$1,0-$4,0-$5,$2,$3,0*4,1,4,$2,$3,$4,$5,0-$2,0-$3,0-$4,0-$5,$2,$3,0*%
%ADD10C,1.9016*%
%ADD11C,1.7272*%
%ADD12C,2.6416*%
%ADD13MACRO1,0.1016X0.9652X-0.9652X-0.9652X-0.9652*%
%ADD14C,1.9812*%
%ADD15C,2.0828*%
%ADD16C,1.6240*%
%ADD17MACRO1,0.1X0.762X0.762X0.762X-0.762*%
%ADD18O,2.1000212X1.3000228*%
%ADD19C,1.6256*%

%LPD*%
D10*
G01*
X3667099Y3376701D03*
G01*
X3667099Y3122701D03*
G01*
X3667099Y2868701D03*
G01*
X3667099Y2614701D03*
G01*
X7667091Y3376701D03*
G01*
X7667091Y3122701D03*
G01*
X7667091Y2868701D03*
G01*
X7667091Y2614701D03*
D11*
G01*
X2794000Y6604000D03*
G01*
X3048000Y6604000D03*
G01*
X3302000Y6604000D03*
G01*
X3556000Y6604000D03*
G01*
X3810000Y6604000D03*
G01*
X4064000Y6604000D03*
G01*
X4318000Y6604000D03*
G01*
X4572000Y6604000D03*
G01*
X4826000Y6604000D03*
G01*
X5080000Y6604000D03*
G01*
X5334000Y6604000D03*
G01*
X5588000Y6604000D03*
G01*
X5842000Y6604000D03*
G01*
X6096000Y6604000D03*
G01*
X6350000Y6604000D03*
G01*
X6604000Y6604000D03*
G01*
X6858000Y6604000D03*
G01*
X7112000Y6604000D03*
G01*
X7366000Y6604000D03*
G01*
X7366000Y9144000D03*
G01*
X7112000Y9144000D03*
G01*
X6858000Y9144000D03*
G01*
X6604000Y9144000D03*
G01*
X6350000Y9144000D03*
G01*
X6096000Y9144000D03*
G01*
X5842000Y9144000D03*
G01*
X5588000Y9144000D03*
G01*
X5334000Y9144000D03*
G01*
X5080000Y9144000D03*
G01*
X4826000Y9144000D03*
G01*
X4572000Y9144000D03*
G01*
X4318000Y9144000D03*
G01*
X4064000Y9144000D03*
G01*
X3810000Y9144000D03*
G01*
X3556000Y9144000D03*
G01*
X3302000Y9144000D03*
G01*
X3048000Y9144000D03*
G01*
X2794000Y9144000D03*
D12*
G01*
X838200Y7607300D03*
G01*
X838200Y7099300D03*
G01*
X838200Y8890000D03*
G01*
X838200Y8382000D03*
D13*
G01*
X3098800Y3162300D03*
G01*
X3098800Y2908300D03*
D14*
G01*
X3048000Y9537700D03*
G01*
X3302000Y9537700D03*
G01*
X3556000Y9537700D03*
G01*
X2794000Y9537700D03*
D15*
G01*
X3810000Y9537700D03*
G01*
X4064000Y9537700D03*
G01*
X4318000Y9537700D03*
G01*
X4572000Y9537700D03*
G01*
X4826000Y9537700D03*
G01*
X5080000Y9537700D03*
G01*
X5334000Y9537700D03*
G01*
X5588000Y9537700D03*
G01*
X5842000Y9537700D03*
G01*
X6096000Y9537700D03*
G01*
X6350000Y9537700D03*
G01*
X6604000Y9537700D03*
G01*
X6858000Y9537700D03*
G01*
X7112000Y9537700D03*
G01*
X7366000Y9537700D03*
D14*
G01*
X3048000Y6197600D03*
G01*
X3302000Y6197600D03*
G01*
X3556000Y6197600D03*
G01*
X2794000Y6197600D03*
D15*
G01*
X3810000Y6197600D03*
G01*
X4064000Y6197600D03*
G01*
X4318000Y6197600D03*
G01*
X4572000Y6197600D03*
G01*
X4826000Y6197600D03*
G01*
X5080000Y6197600D03*
G01*
X5334000Y6197600D03*
G01*
X5588000Y6197600D03*
G01*
X5842000Y6197600D03*
G01*
X6096000Y6197600D03*
G01*
X6350000Y6197600D03*
G01*
X6604000Y6197600D03*
G01*
X6858000Y6197600D03*
G01*
X7112000Y6197600D03*
G01*
X7366000Y6197600D03*
D16*
G01*
X2510790Y4597400D03*
G01*
X2256790Y4724400D03*
G01*
X2510790Y4851400D03*
G01*
X2256790Y4978400D03*
G01*
X2510790Y5105400D03*
G01*
X2256790Y5232400D03*
G01*
X2510790Y5359400D03*
D17*
G01*
X2256792Y5486407D03*
D18*
G01*
X1146810Y4251909D03*
G01*
X1146810Y5831890D03*
D16*
G01*
X2510790Y2654300D03*
G01*
X2256790Y2781300D03*
G01*
X2510790Y2908300D03*
G01*
X2256790Y3035300D03*
G01*
X2510790Y3162300D03*
G01*
X2256790Y3289300D03*
G01*
X2510790Y3416300D03*
D17*
G01*
X2256792Y3543307D03*
D18*
G01*
X1146810Y2308809D03*
G01*
X1146810Y3888790D03*
D19*
G01*
X5245100Y5257800D03*
G01*
X5245100Y5511800D03*
G01*
X5245100Y4368800D03*
G01*
X5245100Y4114800D03*
G01*
X7150100Y5511800D03*
G01*
X7150100Y5257800D03*
G01*
X7150100Y4368800D03*
G01*
X7150100Y4114800D03*
D13*
G01*
X7835900Y4622800D03*
G01*
X7835900Y4368800D03*
M02*
