G04 Layer: TopSilkscreenLayer*
G04 EasyEDA v6.5.22, 2023-04-05 22:42:55*
G04 57731fc057a342d4b2a8a82ce43b0460,f9ecfe7abe46434aadffdc01d2bfd918,10*
G04 Gerber Generator version 0.2*
G04 Scale: 100 percent, Rotated: No, Reflected: No *
G04 Dimensions in millimeters *
G04 leading zeros omitted , absolute positions ,4 integer and 5 decimal *
%FSLAX45Y45*%
%MOMM*%

%ADD10C,0.1524*%
%ADD11C,0.2032*%
%ADD12C,0.1500*%
%ADD13C,0.2050*%
%ADD14C,0.2540*%
%ADD15C,0.2997*%
%ADD16C,0.1270*%
%ADD17C,0.0112*%

%LPD*%
G36*
X5261102Y6641084D02*
G01*
X5255260Y6640880D01*
X5249621Y6640220D01*
X5244185Y6639153D01*
X5238953Y6637680D01*
X5233924Y6635750D01*
X5229148Y6633464D01*
X5224576Y6630822D01*
X5220309Y6627723D01*
X5216296Y6624320D01*
X5212537Y6620509D01*
X5209133Y6616344D01*
X5205984Y6611823D01*
X5203190Y6606997D01*
X5200700Y6601815D01*
X5198567Y6596278D01*
X5196789Y6590487D01*
X5195366Y6584340D01*
X5194350Y6577888D01*
X5193741Y6571132D01*
X5193538Y6564122D01*
X5193741Y6557009D01*
X5194350Y6550253D01*
X5195316Y6543751D01*
X5196687Y6537604D01*
X5198414Y6531762D01*
X5200497Y6526225D01*
X5202936Y6521043D01*
X5205679Y6516166D01*
X5208727Y6511696D01*
X5212130Y6507530D01*
X5215788Y6503771D01*
X5219700Y6500368D01*
X5223916Y6497320D01*
X5228386Y6494678D01*
X5233060Y6492392D01*
X5238038Y6490512D01*
X5243169Y6489090D01*
X5248554Y6488023D01*
X5254091Y6487363D01*
X5259832Y6487160D01*
X5267096Y6487464D01*
X5273954Y6488430D01*
X5280456Y6489954D01*
X5286451Y6491935D01*
X5291988Y6494424D01*
X5297017Y6497320D01*
X5301437Y6500622D01*
X5305298Y6504178D01*
X5305298Y6565900D01*
X5257292Y6565900D01*
X5257292Y6551930D01*
X5289804Y6551930D01*
X5289804Y6511290D01*
X5284368Y6507378D01*
X5277459Y6504381D01*
X5269636Y6502552D01*
X5261356Y6501892D01*
X5255463Y6502196D01*
X5249926Y6503009D01*
X5244693Y6504381D01*
X5239867Y6506260D01*
X5235346Y6508648D01*
X5231180Y6511544D01*
X5227421Y6514896D01*
X5223967Y6518757D01*
X5220970Y6523024D01*
X5218277Y6527749D01*
X5216042Y6532880D01*
X5214162Y6538417D01*
X5212689Y6544360D01*
X5211673Y6550659D01*
X5211013Y6557365D01*
X5210810Y6564375D01*
X5211064Y6571386D01*
X5211724Y6578041D01*
X5212842Y6584340D01*
X5214366Y6590233D01*
X5216347Y6595770D01*
X5218684Y6600850D01*
X5221427Y6605524D01*
X5224576Y6609740D01*
X5228031Y6613550D01*
X5231841Y6616852D01*
X5236006Y6619697D01*
X5240477Y6622084D01*
X5245303Y6623913D01*
X5250383Y6625285D01*
X5255717Y6626098D01*
X5261356Y6626352D01*
X5271973Y6625234D01*
X5280812Y6622186D01*
X5288076Y6617665D01*
X5294122Y6612128D01*
X5303520Y6623050D01*
X5300065Y6626301D01*
X5296154Y6629501D01*
X5291734Y6632549D01*
X5286806Y6635292D01*
X5281269Y6637629D01*
X5275173Y6639458D01*
X5268468Y6640677D01*
G37*
G36*
X5341366Y6638544D02*
G01*
X5341366Y6489700D01*
X5357114Y6489700D01*
X5357063Y6577025D01*
X5356402Y6594144D01*
X5355082Y6616446D01*
X5356098Y6616446D01*
X5372354Y6585966D01*
X5428234Y6489700D01*
X5445760Y6489700D01*
X5445760Y6638544D01*
X5429758Y6638544D01*
X5429808Y6552285D01*
X5430875Y6528816D01*
X5432044Y6511544D01*
X5431028Y6511544D01*
X5414772Y6542024D01*
X5358638Y6638544D01*
G37*
G36*
X5487162Y6638544D02*
G01*
X5487162Y6624574D01*
X5522468Y6624574D01*
X5529021Y6624320D01*
X5535117Y6623558D01*
X5540806Y6622288D01*
X5546039Y6620560D01*
X5550865Y6618325D01*
X5555284Y6615633D01*
X5559247Y6612483D01*
X5562803Y6608876D01*
X5565902Y6604812D01*
X5568594Y6600342D01*
X5570880Y6595414D01*
X5572760Y6590080D01*
X5574182Y6584289D01*
X5575249Y6578142D01*
X5575858Y6571589D01*
X5576062Y6564630D01*
X5575858Y6557721D01*
X5575249Y6551117D01*
X5574182Y6544919D01*
X5572760Y6539077D01*
X5570880Y6533642D01*
X5568594Y6528612D01*
X5565902Y6523990D01*
X5562803Y6519824D01*
X5559247Y6516065D01*
X5555284Y6512814D01*
X5550865Y6509969D01*
X5546039Y6507683D01*
X5540806Y6505803D01*
X5535117Y6504482D01*
X5529021Y6503670D01*
X5522468Y6503416D01*
X5504180Y6503416D01*
X5504180Y6624574D01*
X5487162Y6624574D01*
X5487162Y6489700D01*
X5524500Y6489700D01*
X5531104Y6489903D01*
X5537352Y6490512D01*
X5543296Y6491579D01*
X5548934Y6493002D01*
X5554218Y6494830D01*
X5559196Y6497066D01*
X5563819Y6499656D01*
X5568137Y6502603D01*
X5572150Y6505956D01*
X5575757Y6509664D01*
X5579059Y6513677D01*
X5582056Y6518046D01*
X5584698Y6522770D01*
X5586984Y6527850D01*
X5588914Y6533184D01*
X5590489Y6538874D01*
X5591708Y6544868D01*
X5592622Y6551168D01*
X5593130Y6557772D01*
X5593334Y6564630D01*
X5593130Y6571488D01*
X5592622Y6578041D01*
X5591708Y6584340D01*
X5590489Y6590284D01*
X5588863Y6595872D01*
X5586933Y6601206D01*
X5584647Y6606184D01*
X5582005Y6610858D01*
X5579008Y6615125D01*
X5575706Y6619138D01*
X5571998Y6622745D01*
X5567984Y6625996D01*
X5563616Y6628892D01*
X5558942Y6631431D01*
X5553913Y6633565D01*
X5548528Y6635343D01*
X5542838Y6636715D01*
X5536793Y6637731D01*
X5530443Y6638340D01*
X5523738Y6638544D01*
G37*
G36*
X5319268Y5485384D02*
G01*
X5312562Y5484977D01*
X5306314Y5483809D01*
X5300522Y5481929D01*
X5295087Y5479389D01*
X5289956Y5476240D01*
X5285028Y5472531D01*
X5280355Y5468264D01*
X5275834Y5463540D01*
X5285740Y5454396D01*
X5288991Y5458002D01*
X5292496Y5461304D01*
X5296154Y5464302D01*
X5300065Y5466892D01*
X5304129Y5468975D01*
X5308346Y5470601D01*
X5312714Y5471566D01*
X5317236Y5471922D01*
X5323992Y5471312D01*
X5329834Y5469585D01*
X5334711Y5466842D01*
X5338724Y5463133D01*
X5341772Y5458612D01*
X5343956Y5453380D01*
X5345277Y5447538D01*
X5345684Y5441188D01*
X5345531Y5437327D01*
X5345023Y5433364D01*
X5344210Y5429300D01*
X5343093Y5425186D01*
X5341620Y5420969D01*
X5337657Y5412282D01*
X5332272Y5403189D01*
X5325516Y5393588D01*
X5317337Y5383530D01*
X5307634Y5372963D01*
X5296458Y5361787D01*
X5276850Y5343906D01*
X5276850Y5334000D01*
X5369052Y5334000D01*
X5369052Y5348224D01*
X5320487Y5348122D01*
X5301996Y5346954D01*
X5312511Y5357114D01*
X5322163Y5367121D01*
X5330952Y5376875D01*
X5338775Y5386476D01*
X5345582Y5395976D01*
X5351322Y5405323D01*
X5355844Y5414568D01*
X5357672Y5419191D01*
X5359196Y5423763D01*
X5360365Y5428335D01*
X5361228Y5432856D01*
X5361787Y5437428D01*
X5361940Y5441950D01*
X5361584Y5448350D01*
X5360619Y5454345D01*
X5358993Y5459882D01*
X5356758Y5464962D01*
X5353913Y5469534D01*
X5350510Y5473547D01*
X5346547Y5477052D01*
X5342077Y5479999D01*
X5337098Y5482336D01*
X5331612Y5484012D01*
X5325668Y5485028D01*
G37*
G36*
X5446268Y5482844D02*
G01*
X5384767Y5388610D01*
X5400802Y5388610D01*
X5436870Y5441950D01*
X5442915Y5452770D01*
X5448554Y5463540D01*
X5449570Y5463540D01*
X5448757Y5450230D01*
X5448300Y5437124D01*
X5448300Y5388610D01*
X5384767Y5388610D01*
X5383276Y5386324D01*
X5383276Y5375402D01*
X5448300Y5375402D01*
X5448300Y5334000D01*
X5464048Y5334000D01*
X5464048Y5375402D01*
X5484368Y5375402D01*
X5484368Y5388610D01*
X5464048Y5388610D01*
X5464048Y5482844D01*
G37*
G36*
X5491226Y5482844D02*
G01*
X5538978Y5334000D01*
X5558282Y5334000D01*
X5605780Y5482844D01*
X5588762Y5482844D01*
X5549392Y5351526D01*
X5548630Y5351526D01*
X5541060Y5376011D01*
X5533898Y5400548D01*
X5509006Y5482844D01*
G37*
G36*
X5205222Y5459476D02*
G01*
X5205222Y5415026D01*
X5163820Y5415026D01*
X5163820Y5402580D01*
X5205222Y5402580D01*
X5205222Y5357876D01*
X5218684Y5357876D01*
X5218684Y5402580D01*
X5260086Y5402580D01*
X5260086Y5415026D01*
X5218684Y5415026D01*
X5218684Y5459476D01*
G37*
G36*
X6560058Y5495544D02*
G01*
X6555486Y5426456D01*
X6564630Y5420614D01*
X6570675Y5424474D01*
X6576517Y5427268D01*
X6582714Y5428945D01*
X6589775Y5429504D01*
X6596684Y5428894D01*
X6602933Y5427116D01*
X6608368Y5424170D01*
X6612991Y5420156D01*
X6616750Y5415127D01*
X6619494Y5409133D01*
X6621221Y5402224D01*
X6621780Y5394452D01*
X6621119Y5386476D01*
X6619138Y5379313D01*
X6616090Y5373065D01*
X6612077Y5367782D01*
X6607200Y5363565D01*
X6601612Y5360466D01*
X6595516Y5358536D01*
X6589014Y5357876D01*
X6582664Y5358231D01*
X6576872Y5359298D01*
X6571640Y5360924D01*
X6566916Y5363006D01*
X6562598Y5365546D01*
X6558635Y5368391D01*
X6555028Y5371439D01*
X6551676Y5374640D01*
X6543548Y5363718D01*
X6547459Y5360009D01*
X6551777Y5356504D01*
X6556603Y5353151D01*
X6561988Y5350205D01*
X6567931Y5347716D01*
X6574637Y5345836D01*
X6582054Y5344617D01*
X6590284Y5344160D01*
X6596380Y5344515D01*
X6602374Y5345684D01*
X6608165Y5347512D01*
X6613702Y5350103D01*
X6618833Y5353405D01*
X6623507Y5357368D01*
X6627723Y5362041D01*
X6631330Y5367324D01*
X6634276Y5373319D01*
X6636461Y5379923D01*
X6637832Y5387136D01*
X6638290Y5394960D01*
X6637883Y5402783D01*
X6636715Y5409844D01*
X6634784Y5416194D01*
X6632244Y5421833D01*
X6629044Y5426760D01*
X6625285Y5430977D01*
X6621018Y5434533D01*
X6616293Y5437428D01*
X6611162Y5439664D01*
X6605676Y5441238D01*
X6599885Y5442153D01*
X6593840Y5442458D01*
X6587236Y5442000D01*
X6581343Y5440730D01*
X6575907Y5438698D01*
X6570725Y5436108D01*
X6574790Y5481320D01*
X6631178Y5481320D01*
X6631178Y5495544D01*
G37*
G36*
X6649720Y5495544D02*
G01*
X6697472Y5346700D01*
X6716775Y5346700D01*
X6764274Y5495544D01*
X6747256Y5495544D01*
X6707886Y5364226D01*
X6707124Y5364226D01*
X6699554Y5388711D01*
X6692392Y5413248D01*
X6667500Y5495544D01*
G37*
G36*
X6475222Y5472176D02*
G01*
X6475222Y5427726D01*
X6433820Y5427726D01*
X6433820Y5415280D01*
X6475222Y5415280D01*
X6475222Y5370576D01*
X6488684Y5370576D01*
X6488684Y5415280D01*
X6530085Y5415280D01*
X6530085Y5427726D01*
X6488684Y5427726D01*
X6488684Y5472176D01*
G37*
G36*
X6442202Y6641084D02*
G01*
X6436360Y6640880D01*
X6430721Y6640220D01*
X6425285Y6639153D01*
X6420053Y6637680D01*
X6415024Y6635750D01*
X6410248Y6633464D01*
X6405676Y6630822D01*
X6401409Y6627723D01*
X6397396Y6624320D01*
X6393637Y6620509D01*
X6390233Y6616344D01*
X6387084Y6611823D01*
X6384290Y6606997D01*
X6381800Y6601815D01*
X6379667Y6596278D01*
X6377889Y6590487D01*
X6376466Y6584340D01*
X6375450Y6577888D01*
X6374841Y6571132D01*
X6374638Y6564122D01*
X6374841Y6557009D01*
X6375450Y6550253D01*
X6376416Y6543751D01*
X6377787Y6537604D01*
X6379514Y6531762D01*
X6381597Y6526225D01*
X6384036Y6521043D01*
X6386779Y6516166D01*
X6389827Y6511696D01*
X6393230Y6507530D01*
X6396888Y6503771D01*
X6400800Y6500368D01*
X6405016Y6497320D01*
X6409486Y6494678D01*
X6414160Y6492392D01*
X6419138Y6490512D01*
X6424269Y6489090D01*
X6429654Y6488023D01*
X6435191Y6487363D01*
X6440932Y6487160D01*
X6448196Y6487464D01*
X6455054Y6488430D01*
X6461556Y6489954D01*
X6467551Y6491935D01*
X6473088Y6494424D01*
X6478117Y6497320D01*
X6482537Y6500622D01*
X6486398Y6504178D01*
X6486398Y6565900D01*
X6438392Y6565900D01*
X6438392Y6551930D01*
X6470904Y6551930D01*
X6470904Y6511290D01*
X6465468Y6507378D01*
X6458559Y6504381D01*
X6450736Y6502552D01*
X6442456Y6501892D01*
X6436563Y6502196D01*
X6431026Y6503009D01*
X6425793Y6504381D01*
X6420967Y6506260D01*
X6416446Y6508648D01*
X6412280Y6511544D01*
X6408521Y6514896D01*
X6405067Y6518757D01*
X6402070Y6523024D01*
X6399377Y6527749D01*
X6397142Y6532880D01*
X6395262Y6538417D01*
X6393789Y6544360D01*
X6392773Y6550659D01*
X6392113Y6557365D01*
X6391910Y6564375D01*
X6392164Y6571386D01*
X6392824Y6578041D01*
X6393942Y6584340D01*
X6395466Y6590233D01*
X6397447Y6595770D01*
X6399784Y6600850D01*
X6402527Y6605524D01*
X6405676Y6609740D01*
X6409131Y6613550D01*
X6412941Y6616852D01*
X6417106Y6619697D01*
X6421577Y6622084D01*
X6426403Y6623913D01*
X6431483Y6625285D01*
X6436817Y6626098D01*
X6442456Y6626352D01*
X6453073Y6625234D01*
X6461912Y6622186D01*
X6469176Y6617665D01*
X6475222Y6612128D01*
X6484620Y6623050D01*
X6481165Y6626301D01*
X6477254Y6629501D01*
X6472834Y6632549D01*
X6467906Y6635292D01*
X6462369Y6637629D01*
X6456273Y6639458D01*
X6449568Y6640677D01*
G37*
G36*
X6522466Y6638544D02*
G01*
X6522466Y6489700D01*
X6538214Y6489700D01*
X6538163Y6577025D01*
X6537502Y6594144D01*
X6536181Y6616446D01*
X6537198Y6616446D01*
X6553454Y6585966D01*
X6609334Y6489700D01*
X6626859Y6489700D01*
X6626859Y6638544D01*
X6610858Y6638544D01*
X6610908Y6552285D01*
X6611975Y6528816D01*
X6613144Y6511544D01*
X6612128Y6511544D01*
X6595872Y6542024D01*
X6539738Y6638544D01*
G37*
G36*
X6668262Y6638544D02*
G01*
X6668262Y6624574D01*
X6703568Y6624574D01*
X6710121Y6624320D01*
X6716217Y6623558D01*
X6721906Y6622288D01*
X6727139Y6620560D01*
X6731965Y6618325D01*
X6736384Y6615633D01*
X6740347Y6612483D01*
X6743903Y6608876D01*
X6747002Y6604812D01*
X6749694Y6600342D01*
X6751980Y6595414D01*
X6753859Y6590080D01*
X6755282Y6584289D01*
X6756349Y6578142D01*
X6756958Y6571589D01*
X6757162Y6564630D01*
X6756958Y6557721D01*
X6756349Y6551117D01*
X6755282Y6544919D01*
X6753859Y6539077D01*
X6751980Y6533642D01*
X6749694Y6528612D01*
X6747002Y6523990D01*
X6743903Y6519824D01*
X6740347Y6516065D01*
X6736384Y6512814D01*
X6731965Y6509969D01*
X6727139Y6507683D01*
X6721906Y6505803D01*
X6716217Y6504482D01*
X6710121Y6503670D01*
X6703568Y6503416D01*
X6685280Y6503416D01*
X6685280Y6624574D01*
X6668262Y6624574D01*
X6668262Y6489700D01*
X6705600Y6489700D01*
X6712203Y6489903D01*
X6718452Y6490512D01*
X6724396Y6491579D01*
X6730034Y6493002D01*
X6735318Y6494830D01*
X6740296Y6497066D01*
X6744919Y6499656D01*
X6749237Y6502603D01*
X6753250Y6505956D01*
X6756857Y6509664D01*
X6760159Y6513677D01*
X6763156Y6518046D01*
X6765798Y6522770D01*
X6768084Y6527850D01*
X6770014Y6533184D01*
X6771589Y6538874D01*
X6772808Y6544868D01*
X6773722Y6551168D01*
X6774230Y6557772D01*
X6774434Y6564630D01*
X6774230Y6571488D01*
X6773722Y6578041D01*
X6772808Y6584340D01*
X6771589Y6590284D01*
X6769963Y6595872D01*
X6768033Y6601206D01*
X6765747Y6606184D01*
X6763105Y6610858D01*
X6760108Y6615125D01*
X6756806Y6619138D01*
X6753098Y6622745D01*
X6749084Y6625996D01*
X6744716Y6628892D01*
X6740042Y6631431D01*
X6735013Y6633565D01*
X6729628Y6635343D01*
X6723938Y6636715D01*
X6717893Y6637731D01*
X6711543Y6638340D01*
X6704838Y6638544D01*
G37*
D10*
X4356100Y3633215D02*
G01*
X4356100Y3524250D01*
X4356100Y3633215D02*
G01*
X4397756Y3524250D01*
X4439158Y3633215D02*
G01*
X4397756Y3524250D01*
X4439158Y3633215D02*
G01*
X4439158Y3524250D01*
X4473447Y3612387D02*
G01*
X4483861Y3617721D01*
X4499609Y3633215D01*
X4499609Y3524250D01*
D11*
X3848100Y2394965D02*
G01*
X3884422Y2299462D01*
X3920743Y2394965D02*
G01*
X3884422Y2299462D01*
X4019041Y2372105D02*
G01*
X4014470Y2381250D01*
X4005325Y2390394D01*
X3996181Y2394965D01*
X3978147Y2394965D01*
X3969004Y2390394D01*
X3959859Y2381250D01*
X3955288Y2372105D01*
X3950715Y2358644D01*
X3950715Y2335784D01*
X3955288Y2322068D01*
X3959859Y2313178D01*
X3969004Y2304034D01*
X3978147Y2299462D01*
X3996181Y2299462D01*
X4005325Y2304034D01*
X4014470Y2313178D01*
X4019041Y2322068D01*
X4117086Y2372105D02*
G01*
X4112768Y2381250D01*
X4103624Y2390394D01*
X4094479Y2394965D01*
X4076191Y2394965D01*
X4067302Y2390394D01*
X4058158Y2381250D01*
X4053586Y2372105D01*
X4049013Y2358644D01*
X4049013Y2335784D01*
X4053586Y2322068D01*
X4058158Y2313178D01*
X4067302Y2304034D01*
X4076191Y2299462D01*
X4094479Y2299462D01*
X4103624Y2304034D01*
X4112768Y2313178D01*
X4117086Y2322068D01*
X3848100Y2637789D02*
G01*
X3848100Y2542286D01*
X3848100Y2637789D02*
G01*
X3888993Y2637789D01*
X3902709Y2633218D01*
X3907281Y2628645D01*
X3911854Y2619502D01*
X3911854Y2610357D01*
X3907281Y2601468D01*
X3902709Y2596895D01*
X3888993Y2592323D01*
X3848100Y2592323D02*
G01*
X3888993Y2592323D01*
X3902709Y2587752D01*
X3907281Y2583179D01*
X3911854Y2574036D01*
X3911854Y2560573D01*
X3907281Y2551429D01*
X3902709Y2546857D01*
X3888993Y2542286D01*
X3848100Y2542286D01*
X3884422Y2891789D02*
G01*
X3848100Y2796286D01*
X3884422Y2891789D02*
G01*
X3920743Y2796286D01*
X3861815Y2828036D02*
G01*
X3907281Y2828036D01*
X3928872Y3122929D02*
G01*
X3924554Y3132073D01*
X3915409Y3141218D01*
X3906265Y3145789D01*
X3887977Y3145789D01*
X3879088Y3141218D01*
X3869943Y3132073D01*
X3865372Y3122929D01*
X3860800Y3109468D01*
X3860800Y3086607D01*
X3865372Y3072892D01*
X3869943Y3064002D01*
X3879088Y3054857D01*
X3887977Y3050286D01*
X3906265Y3050286D01*
X3915409Y3054857D01*
X3924554Y3064002D01*
X3928872Y3072892D01*
X3928872Y3086607D01*
X3906265Y3086607D02*
G01*
X3928872Y3086607D01*
X3959097Y3145789D02*
G01*
X3959097Y3050286D01*
X3959097Y3145789D02*
G01*
X4022597Y3050286D01*
X4022597Y3145789D02*
G01*
X4022597Y3050286D01*
X4052570Y3145789D02*
G01*
X4052570Y3050286D01*
X4052570Y3145789D02*
G01*
X4084320Y3145789D01*
X4098036Y3141218D01*
X4107179Y3132073D01*
X4111752Y3122929D01*
X4116324Y3109468D01*
X4116324Y3086607D01*
X4111752Y3072892D01*
X4107179Y3064002D01*
X4098036Y3054857D01*
X4084320Y3050286D01*
X4052570Y3050286D01*
X7378700Y3151123D02*
G01*
X7378700Y3055620D01*
X7378700Y3151123D02*
G01*
X7410450Y3151123D01*
X7424165Y3146552D01*
X7433309Y3137407D01*
X7437881Y3128263D01*
X7442454Y3114802D01*
X7442454Y3091942D01*
X7437881Y3078226D01*
X7433309Y3069336D01*
X7424165Y3060192D01*
X7410450Y3055620D01*
X7378700Y3055620D01*
X7472425Y3151123D02*
G01*
X7472425Y3055620D01*
X7366000Y2897123D02*
G01*
X7366000Y2801620D01*
X7366000Y2897123D02*
G01*
X7397750Y2897123D01*
X7411465Y2892552D01*
X7420609Y2883407D01*
X7425181Y2874263D01*
X7429754Y2860802D01*
X7429754Y2837942D01*
X7425181Y2824226D01*
X7420609Y2815336D01*
X7411465Y2806192D01*
X7397750Y2801620D01*
X7366000Y2801620D01*
X7459725Y2897123D02*
G01*
X7459725Y2801620D01*
X7459725Y2897123D02*
G01*
X7518654Y2897123D01*
X7459725Y2851657D02*
G01*
X7496047Y2851657D01*
X7459725Y2801620D02*
G01*
X7518654Y2801620D01*
X7366000Y2643123D02*
G01*
X7366000Y2547620D01*
X7366000Y2643123D02*
G01*
X7406893Y2643123D01*
X7420609Y2638552D01*
X7425181Y2633979D01*
X7429754Y2624836D01*
X7429754Y2615692D01*
X7425181Y2606802D01*
X7420609Y2602229D01*
X7406893Y2597657D01*
X7366000Y2597657D01*
X7397750Y2597657D02*
G01*
X7429754Y2547620D01*
X7459725Y2643123D02*
G01*
X7459725Y2547620D01*
X7459725Y2643123D02*
G01*
X7518654Y2643123D01*
X7459725Y2597657D02*
G01*
X7496047Y2597657D01*
X7459725Y2547620D02*
G01*
X7518654Y2547620D01*
X7366000Y2400300D02*
G01*
X7366000Y2304795D01*
X7366000Y2400300D02*
G01*
X7406893Y2400300D01*
X7420609Y2395728D01*
X7425181Y2391155D01*
X7429754Y2382012D01*
X7429754Y2372868D01*
X7425181Y2363978D01*
X7420609Y2359405D01*
X7406893Y2354834D01*
X7366000Y2354834D01*
X7397750Y2354834D02*
G01*
X7429754Y2304795D01*
X7486904Y2400300D02*
G01*
X7477759Y2395728D01*
X7468615Y2386584D01*
X7464297Y2377439D01*
X7459725Y2363978D01*
X7459725Y2341118D01*
X7464297Y2327402D01*
X7468615Y2318512D01*
X7477759Y2309368D01*
X7486904Y2304795D01*
X7505191Y2304795D01*
X7514081Y2309368D01*
X7523225Y2318512D01*
X7527797Y2327402D01*
X7532370Y2341118D01*
X7532370Y2363978D01*
X7527797Y2377439D01*
X7523225Y2386584D01*
X7514081Y2395728D01*
X7505191Y2400300D01*
X7486904Y2400300D01*
D10*
X1929384Y8331200D02*
G01*
X2007361Y8331200D01*
X2022856Y8336279D01*
X2033270Y8346694D01*
X2038350Y8362442D01*
X2038350Y8372855D01*
X2033270Y8388350D01*
X2022856Y8398763D01*
X2007361Y8403844D01*
X1929384Y8403844D01*
X1950211Y8438134D02*
G01*
X1944877Y8448547D01*
X1929384Y8464295D01*
X2038350Y8464295D01*
D12*
X5056550Y7413528D02*
G01*
X5016418Y7308626D01*
X5056550Y7413528D02*
G01*
X5096428Y7308626D01*
X5031404Y7343424D02*
G01*
X5081442Y7343424D01*
X5199552Y7413528D02*
G01*
X5129448Y7308626D01*
X5129448Y7413528D02*
G01*
X5199552Y7413528D01*
X5129448Y7308626D02*
G01*
X5199552Y7308626D01*
X5232572Y7413528D02*
G01*
X5232572Y7308626D01*
X5232572Y7413528D02*
G01*
X5267624Y7413528D01*
X5282610Y7408448D01*
X5292516Y7398542D01*
X5297596Y7388382D01*
X5302422Y7373396D01*
X5302422Y7348504D01*
X5297596Y7333518D01*
X5292516Y7323612D01*
X5282610Y7313452D01*
X5267624Y7308626D01*
X5232572Y7308626D01*
X5335442Y7348504D02*
G01*
X5395386Y7348504D01*
X5395386Y7358410D01*
X5390560Y7368570D01*
X5385480Y7373396D01*
X5375574Y7378476D01*
X5360588Y7378476D01*
X5350428Y7373396D01*
X5340522Y7363490D01*
X5335442Y7348504D01*
X5335442Y7338598D01*
X5340522Y7323612D01*
X5350428Y7313452D01*
X5360588Y7308626D01*
X5375574Y7308626D01*
X5385480Y7313452D01*
X5395386Y7323612D01*
X5428406Y7413528D02*
G01*
X5428406Y7308626D01*
X5461426Y7413528D02*
G01*
X5466506Y7408448D01*
X5471586Y7413528D01*
X5466506Y7418608D01*
X5461426Y7413528D01*
X5466506Y7378476D02*
G01*
X5466506Y7308626D01*
X5504606Y7378476D02*
G01*
X5534578Y7308626D01*
X5564550Y7378476D02*
G01*
X5534578Y7308626D01*
X5597570Y7348504D02*
G01*
X5657514Y7348504D01*
X5657514Y7358410D01*
X5652434Y7368570D01*
X5647608Y7373396D01*
X5637448Y7378476D01*
X5622462Y7378476D01*
X5612556Y7373396D01*
X5602396Y7363490D01*
X5597570Y7348504D01*
X5597570Y7338598D01*
X5602396Y7323612D01*
X5612556Y7313452D01*
X5622462Y7308626D01*
X5637448Y7308626D01*
X5647608Y7313452D01*
X5657514Y7323612D01*
X5690534Y7378476D02*
G01*
X5690534Y7308626D01*
X5690534Y7348504D02*
G01*
X5695614Y7363490D01*
X5705520Y7373396D01*
X5715426Y7378476D01*
X5730412Y7378476D01*
X5768512Y7378476D02*
G01*
X5798484Y7308626D01*
X5828456Y7378476D02*
G01*
X5798484Y7308626D01*
X5788578Y7288560D01*
X5778418Y7278400D01*
X5768512Y7273574D01*
X5763432Y7273574D01*
X5938438Y7413528D02*
G01*
X5938438Y7308626D01*
X5938438Y7413528D02*
G01*
X6003462Y7413528D01*
X5938438Y7363490D02*
G01*
X5978570Y7363490D01*
X5938438Y7308626D02*
G01*
X6003462Y7308626D01*
X6106586Y7398542D02*
G01*
X6096426Y7408448D01*
X6081440Y7413528D01*
X6061628Y7413528D01*
X6046388Y7408448D01*
X6036482Y7398542D01*
X6036482Y7388382D01*
X6041562Y7378476D01*
X6046388Y7373396D01*
X6056548Y7368570D01*
X6086520Y7358410D01*
X6096426Y7353584D01*
X6101506Y7348504D01*
X6106586Y7338598D01*
X6106586Y7323612D01*
X6096426Y7313452D01*
X6081440Y7308626D01*
X6061628Y7308626D01*
X6046388Y7313452D01*
X6036482Y7323612D01*
X6139606Y7413528D02*
G01*
X6139606Y7308626D01*
X6139606Y7413528D02*
G01*
X6184564Y7413528D01*
X6199550Y7408448D01*
X6204630Y7403622D01*
X6209456Y7393462D01*
X6209456Y7378476D01*
X6204630Y7368570D01*
X6199550Y7363490D01*
X6184564Y7358410D01*
X6139606Y7358410D01*
X6252382Y7413528D02*
G01*
X6307500Y7413528D01*
X6277528Y7373396D01*
X6292514Y7373396D01*
X6302420Y7368570D01*
X6307500Y7363490D01*
X6312580Y7348504D01*
X6312580Y7338598D01*
X6307500Y7323612D01*
X6297594Y7313452D01*
X6282608Y7308626D01*
X6267622Y7308626D01*
X6252382Y7313452D01*
X6247556Y7318532D01*
X6242476Y7328438D01*
X6350426Y7388382D02*
G01*
X6350426Y7393462D01*
X6355506Y7403622D01*
X6360586Y7408448D01*
X6370492Y7413528D01*
X6390558Y7413528D01*
X6400464Y7408448D01*
X6405544Y7403622D01*
X6410624Y7393462D01*
X6410624Y7383556D01*
X6405544Y7373396D01*
X6395384Y7358410D01*
X6345600Y7308626D01*
X6415450Y7308626D01*
X6525432Y7413528D02*
G01*
X6525432Y7308626D01*
X6525432Y7413528D02*
G01*
X6595536Y7308626D01*
X6595536Y7413528D02*
G01*
X6595536Y7308626D01*
X6653448Y7378476D02*
G01*
X6643542Y7373396D01*
X6633382Y7363490D01*
X6628556Y7348504D01*
X6628556Y7338598D01*
X6633382Y7323612D01*
X6643542Y7313452D01*
X6653448Y7308626D01*
X6668434Y7308626D01*
X6678594Y7313452D01*
X6688500Y7323612D01*
X6693580Y7338598D01*
X6693580Y7348504D01*
X6688500Y7363490D01*
X6678594Y7373396D01*
X6668434Y7378476D01*
X6653448Y7378476D01*
X6786544Y7413528D02*
G01*
X6786544Y7308626D01*
X6786544Y7363490D02*
G01*
X6776384Y7373396D01*
X6766478Y7378476D01*
X6751492Y7378476D01*
X6741586Y7373396D01*
X6731426Y7363490D01*
X6726600Y7348504D01*
X6726600Y7338598D01*
X6731426Y7323612D01*
X6741586Y7313452D01*
X6751492Y7308626D01*
X6766478Y7308626D01*
X6776384Y7313452D01*
X6786544Y7323612D01*
X6819564Y7348504D02*
G01*
X6879508Y7348504D01*
X6879508Y7358410D01*
X6874428Y7368570D01*
X6869602Y7373396D01*
X6859442Y7378476D01*
X6844456Y7378476D01*
X6834550Y7373396D01*
X6824390Y7363490D01*
X6819564Y7348504D01*
X6819564Y7338598D01*
X6824390Y7323612D01*
X6834550Y7313452D01*
X6844456Y7308626D01*
X6859442Y7308626D01*
X6869602Y7313452D01*
X6879508Y7323612D01*
X6912528Y7413528D02*
G01*
X6912528Y7308626D01*
X6912528Y7413528D02*
G01*
X6952406Y7308626D01*
X6992538Y7413528D02*
G01*
X6952406Y7308626D01*
X6992538Y7413528D02*
G01*
X6992538Y7308626D01*
X7100488Y7388382D02*
G01*
X7095408Y7398542D01*
X7085502Y7408448D01*
X7075596Y7413528D01*
X7055530Y7413528D01*
X7045624Y7408448D01*
X7035464Y7398542D01*
X7030384Y7388382D01*
X7025558Y7373396D01*
X7025558Y7348504D01*
X7030384Y7333518D01*
X7035464Y7323612D01*
X7045624Y7313452D01*
X7055530Y7308626D01*
X7075596Y7308626D01*
X7085502Y7313452D01*
X7095408Y7323612D01*
X7100488Y7333518D01*
X7133508Y7413528D02*
G01*
X7133508Y7338598D01*
X7138588Y7323612D01*
X7148494Y7313452D01*
X7163480Y7308626D01*
X7173386Y7308626D01*
X7188626Y7313452D01*
X7198532Y7323612D01*
X7203612Y7338598D01*
X7203612Y7413528D01*
D10*
X2832100Y2960115D02*
G01*
X2904743Y2851150D01*
X2904743Y2960115D02*
G01*
X2832100Y2851150D01*
X2944368Y2934207D02*
G01*
X2944368Y2939287D01*
X2949447Y2949702D01*
X2954781Y2955036D01*
X2965195Y2960115D01*
X2985770Y2960115D01*
X2996184Y2955036D01*
X3001518Y2949702D01*
X3006597Y2939287D01*
X3006597Y2928873D01*
X3001518Y2918460D01*
X2991104Y2902965D01*
X2939034Y2851150D01*
X3011931Y2851150D01*
X2310384Y3112770D02*
G01*
X2393441Y3112770D01*
X2409190Y3107436D01*
X2414270Y3102355D01*
X2419350Y3091942D01*
X2419350Y3081528D01*
X2414270Y3071113D01*
X2409190Y3065779D01*
X2393441Y3060700D01*
X2383027Y3060700D01*
X2310384Y3147060D02*
G01*
X2419350Y3147060D01*
X2310384Y3147060D02*
G01*
X2310384Y3193795D01*
X2315463Y3209289D01*
X2320797Y3214370D01*
X2331211Y3219704D01*
X2346706Y3219704D01*
X2357120Y3214370D01*
X2362200Y3209289D01*
X2367534Y3193795D01*
X2367534Y3147060D01*
X2331211Y3253994D02*
G01*
X2325877Y3264407D01*
X2310384Y3279902D01*
X2419350Y3279902D01*
X2853943Y2974086D02*
G01*
X2851658Y2974086D01*
X2847086Y2976371D01*
X2844800Y2978657D01*
X2842513Y2983229D01*
X2842513Y2992628D01*
X2844800Y2997200D01*
X2847086Y2999486D01*
X2851658Y3001771D01*
X2856229Y3001771D01*
X2861056Y2999486D01*
X2867913Y2994913D01*
X2891027Y2971800D01*
X2891027Y3004057D01*
X2851658Y3225800D02*
G01*
X2849372Y3230371D01*
X2842513Y3237229D01*
X2891027Y3237229D01*
X2337828Y4432300D02*
G01*
X2228862Y4432300D01*
X2337828Y4432300D02*
G01*
X2337828Y4385563D01*
X2332748Y4370070D01*
X2327414Y4364736D01*
X2317000Y4359655D01*
X2306586Y4359655D01*
X2296172Y4364736D01*
X2291092Y4370070D01*
X2286012Y4385563D01*
X2286012Y4432300D01*
X2286012Y4395978D02*
G01*
X2228862Y4359655D01*
X2337828Y4273295D02*
G01*
X2254770Y4273295D01*
X2239022Y4278629D01*
X2233942Y4283710D01*
X2228862Y4294123D01*
X2228862Y4304537D01*
X2233942Y4314952D01*
X2239022Y4320031D01*
X2254770Y4325365D01*
X2265184Y4325365D01*
X2317000Y4239005D02*
G01*
X2322334Y4228592D01*
X2337828Y4213097D01*
X2228862Y4213097D01*
X2325128Y3581400D02*
G01*
X2216162Y3581400D01*
X2325128Y3581400D02*
G01*
X2325128Y3534663D01*
X2320048Y3519170D01*
X2314714Y3513836D01*
X2304300Y3508755D01*
X2293886Y3508755D01*
X2283472Y3513836D01*
X2278392Y3519170D01*
X2273312Y3534663D01*
X2273312Y3581400D01*
X2273312Y3545078D02*
G01*
X2216162Y3508755D01*
X2325128Y3422395D02*
G01*
X2242070Y3422395D01*
X2226322Y3427729D01*
X2221242Y3432810D01*
X2216162Y3443223D01*
X2216162Y3453637D01*
X2221242Y3464052D01*
X2226322Y3469131D01*
X2242070Y3474465D01*
X2252484Y3474465D01*
X2299220Y3383026D02*
G01*
X2304300Y3383026D01*
X2314714Y3377692D01*
X2320048Y3372612D01*
X2325128Y3362197D01*
X2325128Y3341370D01*
X2320048Y3330955D01*
X2314714Y3325876D01*
X2304300Y3320542D01*
X2293886Y3320542D01*
X2283472Y3325876D01*
X2267978Y3336289D01*
X2216162Y3388105D01*
X2216162Y3315462D01*
X5816600Y7024115D02*
G01*
X5816600Y6946137D01*
X5821679Y6930644D01*
X5832093Y6920229D01*
X5847841Y6915150D01*
X5858256Y6915150D01*
X5873750Y6920229D01*
X5884163Y6930644D01*
X5889243Y6946137D01*
X5889243Y7024115D01*
X5986018Y7024115D02*
G01*
X5933947Y7024115D01*
X5928868Y6977379D01*
X5933947Y6982460D01*
X5949695Y6987794D01*
X5965190Y6987794D01*
X5980684Y6982460D01*
X5991097Y6972300D01*
X5996431Y6956552D01*
X5996431Y6946137D01*
X5991097Y6930644D01*
X5980684Y6920229D01*
X5965190Y6915150D01*
X5949695Y6915150D01*
X5933947Y6920229D01*
X5928868Y6925310D01*
X5923534Y6935723D01*
X7237984Y5894070D02*
G01*
X7321041Y5894070D01*
X7336790Y5888736D01*
X7341870Y5883655D01*
X7346950Y5873242D01*
X7346950Y5862828D01*
X7341870Y5852413D01*
X7336790Y5847079D01*
X7321041Y5842000D01*
X7310627Y5842000D01*
X7237984Y5928360D02*
G01*
X7346950Y5928360D01*
X7237984Y5928360D02*
G01*
X7237984Y5975095D01*
X7243063Y5990589D01*
X7248397Y5995670D01*
X7258811Y6001004D01*
X7274306Y6001004D01*
X7284720Y5995670D01*
X7289800Y5990589D01*
X7295134Y5975095D01*
X7295134Y5928360D01*
X7263891Y6040373D02*
G01*
X7258811Y6040373D01*
X7248397Y6045707D01*
X7243063Y6050787D01*
X7237984Y6061202D01*
X7237984Y6082029D01*
X7243063Y6092444D01*
X7248397Y6097523D01*
X7258811Y6102857D01*
X7269225Y6102857D01*
X7279640Y6097523D01*
X7295134Y6087110D01*
X7346950Y6035294D01*
X7346950Y6107937D01*
X7768843Y5831586D02*
G01*
X7766558Y5831586D01*
X7761986Y5833871D01*
X7759700Y5836157D01*
X7757413Y5840729D01*
X7757413Y5850128D01*
X7759700Y5854700D01*
X7761986Y5856986D01*
X7766558Y5859271D01*
X7771129Y5859271D01*
X7775956Y5856986D01*
X7782813Y5852413D01*
X7805927Y5829300D01*
X7805927Y5861557D01*
X7766558Y6083300D02*
G01*
X7764272Y6087871D01*
X7757413Y6094729D01*
X7805927Y6094729D01*
X2617470Y5119115D02*
G01*
X2617470Y5036057D01*
X2612136Y5020310D01*
X2607056Y5015229D01*
X2596641Y5010150D01*
X2586227Y5010150D01*
X2575813Y5015229D01*
X2570479Y5020310D01*
X2565400Y5036057D01*
X2565400Y5046471D01*
X2651759Y5119115D02*
G01*
X2651759Y5010150D01*
X2651759Y5119115D02*
G01*
X2698495Y5119115D01*
X2713990Y5114036D01*
X2719070Y5108702D01*
X2724404Y5098287D01*
X2724404Y5082794D01*
X2719070Y5072379D01*
X2713990Y5067300D01*
X2698495Y5061965D01*
X2651759Y5061965D01*
X2769108Y5119115D02*
G01*
X2826258Y5119115D01*
X2795015Y5077460D01*
X2810509Y5077460D01*
X2820924Y5072379D01*
X2826258Y5067300D01*
X2831338Y5051552D01*
X2831338Y5041137D01*
X2826258Y5025644D01*
X2815843Y5015229D01*
X2800350Y5010150D01*
X2784602Y5010150D01*
X2769108Y5015229D01*
X2763774Y5020310D01*
X2758693Y5030723D01*
X2516886Y4575555D02*
G01*
X2516886Y4577842D01*
X2519172Y4582413D01*
X2521458Y4584700D01*
X2526029Y4586986D01*
X2535427Y4586986D01*
X2540000Y4584700D01*
X2542286Y4582413D01*
X2544572Y4577842D01*
X2544572Y4573270D01*
X2542286Y4568444D01*
X2537713Y4561586D01*
X2514600Y4538471D01*
X2546858Y4538471D01*
X2768600Y4577842D02*
G01*
X2773172Y4580128D01*
X2780029Y4586986D01*
X2780029Y4538471D01*
X2881884Y3176270D02*
G01*
X2964941Y3176270D01*
X2980690Y3170936D01*
X2985770Y3165855D01*
X2990850Y3155442D01*
X2990850Y3145028D01*
X2985770Y3134613D01*
X2980690Y3129279D01*
X2964941Y3124200D01*
X2954527Y3124200D01*
X2881884Y3210560D02*
G01*
X2990850Y3210560D01*
X2881884Y3210560D02*
G01*
X2881884Y3257295D01*
X2886963Y3272789D01*
X2892297Y3277870D01*
X2902711Y3283204D01*
X2918206Y3283204D01*
X2928620Y3277870D01*
X2933700Y3272789D01*
X2939034Y3257295D01*
X2939034Y3210560D01*
X2881884Y3369310D02*
G01*
X2954527Y3317494D01*
X2954527Y3395471D01*
X2881884Y3369310D02*
G01*
X2990850Y3369310D01*
X3361943Y2974086D02*
G01*
X3359658Y2974086D01*
X3355086Y2976371D01*
X3352800Y2978657D01*
X3350513Y2983229D01*
X3350513Y2992628D01*
X3352800Y2997200D01*
X3355086Y2999486D01*
X3359658Y3001771D01*
X3364229Y3001771D01*
X3369056Y2999486D01*
X3375913Y2994913D01*
X3399027Y2971800D01*
X3399027Y3004057D01*
X3359658Y3225800D02*
G01*
X3357372Y3230371D01*
X3350513Y3237229D01*
X3399027Y3237229D01*
X2843784Y4127500D02*
G01*
X2952750Y4127500D01*
X2843784Y4127500D02*
G01*
X2843784Y4174236D01*
X2848863Y4189729D01*
X2854197Y4195063D01*
X2864611Y4200144D01*
X2875025Y4200144D01*
X2885440Y4195063D01*
X2890520Y4189729D01*
X2895600Y4174236D01*
X2895600Y4127500D01*
X2895600Y4163821D02*
G01*
X2952750Y4200144D01*
X2864611Y4234434D02*
G01*
X2859277Y4244847D01*
X2843784Y4260595D01*
X2952750Y4260595D01*
X4522215Y5981700D02*
G01*
X4444238Y5981700D01*
X4428743Y5976620D01*
X4418329Y5966205D01*
X4413250Y5950457D01*
X4413250Y5940044D01*
X4418329Y5924550D01*
X4428743Y5914136D01*
X4444238Y5909055D01*
X4522215Y5909055D01*
X4496308Y5869431D02*
G01*
X4501388Y5869431D01*
X4511802Y5864352D01*
X4517136Y5859018D01*
X4522215Y5848604D01*
X4522215Y5828029D01*
X4517136Y5817615D01*
X4511802Y5812281D01*
X4501388Y5807202D01*
X4490974Y5807202D01*
X4480559Y5812281D01*
X4465065Y5822695D01*
X4413250Y5874765D01*
X4413250Y5801868D01*
D13*
X3948429Y6370828D02*
G01*
X3957574Y6375145D01*
X3966718Y6384289D01*
X3971290Y6393434D01*
X3971290Y6411721D01*
X3966718Y6420612D01*
X3957574Y6429755D01*
X3948429Y6434328D01*
X3934968Y6438900D01*
X3912108Y6438900D01*
X3898391Y6434328D01*
X3889502Y6429755D01*
X3880358Y6420612D01*
X3875786Y6411721D01*
X3875786Y6393434D01*
X3880358Y6384289D01*
X3889502Y6375145D01*
X3898391Y6370828D01*
X3912108Y6370828D01*
X3912108Y6393434D02*
G01*
X3912108Y6370828D01*
X3971290Y6340602D02*
G01*
X3875786Y6340602D01*
X3971290Y6340602D02*
G01*
X3875786Y6277102D01*
X3971290Y6277102D02*
G01*
X3875786Y6277102D01*
X3971290Y6247129D02*
G01*
X3875786Y6247129D01*
X3971290Y6247129D02*
G01*
X3971290Y6215379D01*
X3966718Y6201663D01*
X3957574Y6192520D01*
X3948429Y6187947D01*
X3934968Y6183376D01*
X3912108Y6183376D01*
X3898391Y6187947D01*
X3889502Y6192520D01*
X3880358Y6201663D01*
X3875786Y6215379D01*
X3875786Y6247129D01*
X4212590Y6429755D02*
G01*
X4212590Y6379718D01*
X4176268Y6407150D01*
X4176268Y6393434D01*
X4171695Y6384289D01*
X4167124Y6379718D01*
X4153408Y6375145D01*
X4144263Y6375145D01*
X4130802Y6379718D01*
X4121658Y6388862D01*
X4117086Y6402578D01*
X4117086Y6416294D01*
X4121658Y6429755D01*
X4126229Y6434328D01*
X4135374Y6438900D01*
X4212590Y6345173D02*
G01*
X4117086Y6308852D01*
X4212590Y6272529D02*
G01*
X4117086Y6308852D01*
X4212590Y6233413D02*
G01*
X4212590Y6183376D01*
X4176268Y6210807D01*
X4176268Y6197092D01*
X4171695Y6187947D01*
X4167124Y6183376D01*
X4153408Y6178804D01*
X4144263Y6178804D01*
X4130802Y6183376D01*
X4121658Y6192520D01*
X4117086Y6206236D01*
X4117086Y6219697D01*
X4121658Y6233413D01*
X4126229Y6237986D01*
X4135374Y6242557D01*
X3228416Y5441873D02*
G01*
X3224098Y5450763D01*
X3214954Y5459907D01*
X3205810Y5464479D01*
X3187522Y5464479D01*
X3178632Y5459907D01*
X3169488Y5450763D01*
X3164916Y5441873D01*
X3160344Y5428157D01*
X3160344Y5405297D01*
X3164916Y5391835D01*
X3169488Y5382691D01*
X3178632Y5373547D01*
X3187522Y5368975D01*
X3205810Y5368975D01*
X3214954Y5373547D01*
X3224098Y5382691D01*
X3228416Y5391835D01*
X3303854Y5464479D02*
G01*
X3303854Y5391835D01*
X3299536Y5378119D01*
X3294964Y5373547D01*
X3285820Y5368975D01*
X3276676Y5368975D01*
X3267532Y5373547D01*
X3262960Y5378119D01*
X3258642Y5391835D01*
X3258642Y5400979D01*
X3334080Y5464479D02*
G01*
X3334080Y5368975D01*
X3334080Y5464479D02*
G01*
X3370402Y5368975D01*
X3406724Y5464479D02*
G01*
X3370402Y5368975D01*
X3406724Y5464479D02*
G01*
X3406724Y5368975D01*
X3504768Y5441873D02*
G01*
X3500450Y5450763D01*
X3491306Y5459907D01*
X3482162Y5464479D01*
X3463874Y5464479D01*
X3454984Y5459907D01*
X3445840Y5450763D01*
X3441268Y5441873D01*
X3436696Y5428157D01*
X3436696Y5405297D01*
X3441268Y5391835D01*
X3445840Y5382691D01*
X3454984Y5373547D01*
X3463874Y5368975D01*
X3482162Y5368975D01*
X3491306Y5373547D01*
X3500450Y5382691D01*
X3504768Y5391835D01*
X3534994Y5464479D02*
G01*
X3534994Y5396407D01*
X3539312Y5382691D01*
X3548456Y5373547D01*
X3562172Y5368975D01*
X3571316Y5368975D01*
X3584778Y5373547D01*
X3593922Y5382691D01*
X3598494Y5396407D01*
X3598494Y5464479D01*
X3681729Y6358128D02*
G01*
X3690874Y6362445D01*
X3700018Y6371589D01*
X3704590Y6380734D01*
X3704590Y6399021D01*
X3700018Y6407912D01*
X3690874Y6417055D01*
X3681729Y6421628D01*
X3668268Y6426200D01*
X3645408Y6426200D01*
X3631691Y6421628D01*
X3622802Y6417055D01*
X3613658Y6407912D01*
X3609086Y6399021D01*
X3609086Y6380734D01*
X3613658Y6371589D01*
X3622802Y6362445D01*
X3631691Y6358128D01*
X3704590Y6296152D02*
G01*
X3609086Y6296152D01*
X3704590Y6327902D02*
G01*
X3704590Y6264402D01*
X3704590Y6234429D02*
G01*
X3609086Y6170676D01*
X3704590Y6170676D02*
G01*
X3609086Y6234429D01*
X3440429Y6370828D02*
G01*
X3449574Y6375145D01*
X3458718Y6384289D01*
X3463290Y6393434D01*
X3463290Y6411721D01*
X3458718Y6420612D01*
X3449574Y6429755D01*
X3440429Y6434328D01*
X3426968Y6438900D01*
X3404108Y6438900D01*
X3390391Y6434328D01*
X3381502Y6429755D01*
X3372358Y6420612D01*
X3367786Y6411721D01*
X3367786Y6393434D01*
X3372358Y6384289D01*
X3381502Y6375145D01*
X3390391Y6370828D01*
X3463290Y6340602D02*
G01*
X3367786Y6340602D01*
X3463290Y6340602D02*
G01*
X3463290Y6299707D01*
X3458718Y6286245D01*
X3454145Y6281673D01*
X3445002Y6277102D01*
X3435858Y6277102D01*
X3426968Y6281673D01*
X3422395Y6286245D01*
X3417824Y6299707D01*
X3417824Y6340602D01*
X3417824Y6308852D02*
G01*
X3367786Y6277102D01*
X3463290Y6247129D02*
G01*
X3367786Y6183376D01*
X3463290Y6183376D02*
G01*
X3367786Y6247129D01*
X3199129Y6370828D02*
G01*
X3208274Y6375145D01*
X3217418Y6384289D01*
X3221990Y6393434D01*
X3221990Y6411721D01*
X3217418Y6420612D01*
X3208274Y6429755D01*
X3199129Y6434328D01*
X3185668Y6438900D01*
X3162808Y6438900D01*
X3149091Y6434328D01*
X3140202Y6429755D01*
X3131058Y6420612D01*
X3126486Y6411721D01*
X3126486Y6393434D01*
X3131058Y6384289D01*
X3140202Y6375145D01*
X3149091Y6370828D01*
X3221990Y6304279D02*
G01*
X3126486Y6340602D01*
X3221990Y6304279D02*
G01*
X3126486Y6267957D01*
X3158236Y6327139D02*
G01*
X3158236Y6281673D01*
X3221990Y6237986D02*
G01*
X3126486Y6237986D01*
X3221990Y6237986D02*
G01*
X3126486Y6174231D01*
X3221990Y6174231D02*
G01*
X3126486Y6174231D01*
X3221990Y6144260D02*
G01*
X3126486Y6144260D01*
X3221990Y6080760D02*
G01*
X3126486Y6080760D01*
X3176524Y6144260D02*
G01*
X3176524Y6080760D01*
X2932429Y6370828D02*
G01*
X2941574Y6375145D01*
X2950718Y6384289D01*
X2955290Y6393434D01*
X2955290Y6411721D01*
X2950718Y6420612D01*
X2941574Y6429755D01*
X2932429Y6434328D01*
X2918968Y6438900D01*
X2896108Y6438900D01*
X2882391Y6434328D01*
X2873502Y6429755D01*
X2864358Y6420612D01*
X2859786Y6411721D01*
X2859786Y6393434D01*
X2864358Y6384289D01*
X2873502Y6375145D01*
X2882391Y6370828D01*
X2955290Y6304279D02*
G01*
X2859786Y6340602D01*
X2955290Y6304279D02*
G01*
X2859786Y6267957D01*
X2891536Y6327139D02*
G01*
X2891536Y6281673D01*
X2955290Y6237986D02*
G01*
X2859786Y6237986D01*
X2955290Y6237986D02*
G01*
X2859786Y6174231D01*
X2955290Y6174231D02*
G01*
X2859786Y6174231D01*
X2955290Y6144260D02*
G01*
X2859786Y6144260D01*
X2859786Y6144260D02*
G01*
X2859786Y6089904D01*
D10*
X1321815Y6680200D02*
G01*
X1243837Y6680200D01*
X1228344Y6675120D01*
X1217929Y6664705D01*
X1212850Y6648958D01*
X1212850Y6638544D01*
X1217929Y6623050D01*
X1228344Y6612636D01*
X1243837Y6607555D01*
X1321815Y6607555D01*
X1321815Y6521195D02*
G01*
X1249171Y6573265D01*
X1249171Y6495287D01*
X1321815Y6521195D02*
G01*
X1212850Y6521195D01*
X1472184Y7227570D02*
G01*
X1555242Y7227570D01*
X1570989Y7222236D01*
X1576070Y7217155D01*
X1581150Y7206742D01*
X1581150Y7196328D01*
X1576070Y7185913D01*
X1570989Y7180579D01*
X1555242Y7175500D01*
X1544828Y7175500D01*
X1472184Y7261860D02*
G01*
X1581150Y7261860D01*
X1472184Y7261860D02*
G01*
X1472184Y7308595D01*
X1477263Y7324089D01*
X1482597Y7329170D01*
X1493012Y7334504D01*
X1508505Y7334504D01*
X1518920Y7329170D01*
X1524000Y7324089D01*
X1529334Y7308595D01*
X1529334Y7261860D01*
X1472184Y7431023D02*
G01*
X1472184Y7379208D01*
X1518920Y7373873D01*
X1513839Y7379208D01*
X1508505Y7394702D01*
X1508505Y7410450D01*
X1513839Y7425944D01*
X1524000Y7436358D01*
X1539747Y7441437D01*
X1550162Y7441437D01*
X1565655Y7436358D01*
X1576070Y7425944D01*
X1581150Y7410450D01*
X1581150Y7394702D01*
X1576070Y7379208D01*
X1570989Y7373873D01*
X1560576Y7368794D01*
X1977643Y7126986D02*
G01*
X1975358Y7126986D01*
X1970786Y7129271D01*
X1968500Y7131558D01*
X1966213Y7136129D01*
X1966213Y7145528D01*
X1968500Y7150100D01*
X1970786Y7152386D01*
X1975358Y7154671D01*
X1979929Y7154671D01*
X1984756Y7152386D01*
X1991613Y7147813D01*
X2014727Y7124700D01*
X2014727Y7156958D01*
X1975358Y7378700D02*
G01*
X1973072Y7383271D01*
X1966213Y7390129D01*
X2014727Y7390129D01*
X5676900Y5169915D02*
G01*
X5676900Y5060950D01*
X5676900Y5169915D02*
G01*
X5718556Y5060950D01*
X5759958Y5169915D02*
G01*
X5718556Y5060950D01*
X5759958Y5169915D02*
G01*
X5759958Y5060950D01*
X5799581Y5144007D02*
G01*
X5799581Y5149087D01*
X5804661Y5159502D01*
X5809995Y5164836D01*
X5820409Y5169915D01*
X5840984Y5169915D01*
X5851397Y5164836D01*
X5856731Y5159502D01*
X5861811Y5149087D01*
X5861811Y5138673D01*
X5856731Y5128260D01*
X5846318Y5112765D01*
X5794247Y5060950D01*
X5867145Y5060950D01*
D11*
X3848100Y3995165D02*
G01*
X3884422Y3899662D01*
X3920743Y3995165D02*
G01*
X3884422Y3899662D01*
X4019041Y3972305D02*
G01*
X4014470Y3981450D01*
X4005325Y3990594D01*
X3996181Y3995165D01*
X3978147Y3995165D01*
X3969004Y3990594D01*
X3959859Y3981450D01*
X3955288Y3972305D01*
X3950715Y3958844D01*
X3950715Y3935984D01*
X3955288Y3922268D01*
X3959859Y3913378D01*
X3969004Y3904234D01*
X3978147Y3899662D01*
X3996181Y3899662D01*
X4005325Y3904234D01*
X4014470Y3913378D01*
X4019041Y3922268D01*
X4117086Y3972305D02*
G01*
X4112768Y3981450D01*
X4103624Y3990594D01*
X4094479Y3995165D01*
X4076191Y3995165D01*
X4067302Y3990594D01*
X4058158Y3981450D01*
X4053586Y3972305D01*
X4049013Y3958844D01*
X4049013Y3935984D01*
X4053586Y3922268D01*
X4058158Y3913378D01*
X4067302Y3904234D01*
X4076191Y3899662D01*
X4094479Y3899662D01*
X4103624Y3904234D01*
X4112768Y3913378D01*
X4117086Y3922268D01*
X3848100Y4237989D02*
G01*
X3848100Y4142486D01*
X3848100Y4237989D02*
G01*
X3888993Y4237989D01*
X3902709Y4233418D01*
X3907281Y4228845D01*
X3911854Y4219702D01*
X3911854Y4210557D01*
X3907281Y4201668D01*
X3902709Y4197095D01*
X3888993Y4192523D01*
X3848100Y4192523D02*
G01*
X3888993Y4192523D01*
X3902709Y4187952D01*
X3907281Y4183379D01*
X3911854Y4174236D01*
X3911854Y4160773D01*
X3907281Y4151629D01*
X3902709Y4147057D01*
X3888993Y4142486D01*
X3848100Y4142486D01*
X3884422Y4491989D02*
G01*
X3848100Y4396486D01*
X3884422Y4491989D02*
G01*
X3920743Y4396486D01*
X3861815Y4428236D02*
G01*
X3907281Y4428236D01*
X3928872Y4723129D02*
G01*
X3924554Y4732273D01*
X3915409Y4741418D01*
X3906265Y4745989D01*
X3887977Y4745989D01*
X3879088Y4741418D01*
X3869943Y4732273D01*
X3865372Y4723129D01*
X3860800Y4709668D01*
X3860800Y4686807D01*
X3865372Y4673092D01*
X3869943Y4664202D01*
X3879088Y4655057D01*
X3887977Y4650486D01*
X3906265Y4650486D01*
X3915409Y4655057D01*
X3924554Y4664202D01*
X3928872Y4673092D01*
X3928872Y4686807D01*
X3906265Y4686807D02*
G01*
X3928872Y4686807D01*
X3959097Y4745989D02*
G01*
X3959097Y4650486D01*
X3959097Y4745989D02*
G01*
X4022597Y4650486D01*
X4022597Y4745989D02*
G01*
X4022597Y4650486D01*
X4052570Y4745989D02*
G01*
X4052570Y4650486D01*
X4052570Y4745989D02*
G01*
X4084320Y4745989D01*
X4098036Y4741418D01*
X4107179Y4732273D01*
X4111752Y4723129D01*
X4116324Y4709668D01*
X4116324Y4686807D01*
X4111752Y4673092D01*
X4107179Y4664202D01*
X4098036Y4655057D01*
X4084320Y4650486D01*
X4052570Y4650486D01*
X7378700Y4751323D02*
G01*
X7378700Y4655820D01*
X7378700Y4751323D02*
G01*
X7410450Y4751323D01*
X7424165Y4746752D01*
X7433309Y4737607D01*
X7437881Y4728463D01*
X7442454Y4715002D01*
X7442454Y4692142D01*
X7437881Y4678426D01*
X7433309Y4669536D01*
X7424165Y4660392D01*
X7410450Y4655820D01*
X7378700Y4655820D01*
X7472425Y4751323D02*
G01*
X7472425Y4655820D01*
X7366000Y4497323D02*
G01*
X7366000Y4401820D01*
X7366000Y4497323D02*
G01*
X7397750Y4497323D01*
X7411465Y4492752D01*
X7420609Y4483607D01*
X7425181Y4474463D01*
X7429754Y4461002D01*
X7429754Y4438142D01*
X7425181Y4424426D01*
X7420609Y4415536D01*
X7411465Y4406392D01*
X7397750Y4401820D01*
X7366000Y4401820D01*
X7459725Y4497323D02*
G01*
X7459725Y4401820D01*
X7459725Y4497323D02*
G01*
X7518654Y4497323D01*
X7459725Y4451857D02*
G01*
X7496047Y4451857D01*
X7459725Y4401820D02*
G01*
X7518654Y4401820D01*
X7366000Y4243323D02*
G01*
X7366000Y4147820D01*
X7366000Y4243323D02*
G01*
X7406893Y4243323D01*
X7420609Y4238752D01*
X7425181Y4234179D01*
X7429754Y4225036D01*
X7429754Y4215892D01*
X7425181Y4207002D01*
X7420609Y4202429D01*
X7406893Y4197857D01*
X7366000Y4197857D01*
X7397750Y4197857D02*
G01*
X7429754Y4147820D01*
X7459725Y4243323D02*
G01*
X7459725Y4147820D01*
X7459725Y4243323D02*
G01*
X7518654Y4243323D01*
X7459725Y4197857D02*
G01*
X7496047Y4197857D01*
X7459725Y4147820D02*
G01*
X7518654Y4147820D01*
X7366000Y4000500D02*
G01*
X7366000Y3904995D01*
X7366000Y4000500D02*
G01*
X7406893Y4000500D01*
X7420609Y3995928D01*
X7425181Y3991355D01*
X7429754Y3982212D01*
X7429754Y3973068D01*
X7425181Y3964178D01*
X7420609Y3959605D01*
X7406893Y3955034D01*
X7366000Y3955034D01*
X7397750Y3955034D02*
G01*
X7429754Y3904995D01*
X7486904Y4000500D02*
G01*
X7477759Y3995928D01*
X7468615Y3986784D01*
X7464297Y3977639D01*
X7459725Y3964178D01*
X7459725Y3941318D01*
X7464297Y3927602D01*
X7468615Y3918712D01*
X7477759Y3909568D01*
X7486904Y3904995D01*
X7505191Y3904995D01*
X7514081Y3909568D01*
X7523225Y3918712D01*
X7527797Y3927602D01*
X7532370Y3941318D01*
X7532370Y3964178D01*
X7527797Y3977639D01*
X7523225Y3986784D01*
X7514081Y3995928D01*
X7505191Y4000500D01*
X7486904Y4000500D01*
D10*
X533400Y7697215D02*
G01*
X533400Y7588250D01*
X533400Y7697215D02*
G01*
X580136Y7697215D01*
X595629Y7692136D01*
X600963Y7686802D01*
X606044Y7676387D01*
X606044Y7665973D01*
X600963Y7655560D01*
X595629Y7650479D01*
X580136Y7645400D01*
X533400Y7645400D01*
X569721Y7645400D02*
G01*
X606044Y7588250D01*
X692404Y7697215D02*
G01*
X692404Y7614158D01*
X687070Y7598410D01*
X681989Y7593329D01*
X671576Y7588250D01*
X661162Y7588250D01*
X650747Y7593329D01*
X645668Y7598410D01*
X640334Y7614158D01*
X640334Y7624571D01*
X737107Y7697215D02*
G01*
X794257Y7697215D01*
X763015Y7655560D01*
X778510Y7655560D01*
X788923Y7650479D01*
X794257Y7645400D01*
X799337Y7629652D01*
X799337Y7619237D01*
X794257Y7603744D01*
X783844Y7593329D01*
X768350Y7588250D01*
X752602Y7588250D01*
X737107Y7593329D01*
X731773Y7598410D01*
X726694Y7608823D01*
D14*
X3492500Y3429000D02*
G01*
X7892498Y3429000D01*
X7892498Y2029000D01*
X3492500Y2029000D01*
X3492500Y3429000D01*
X7780799Y6956600D02*
G01*
X2480800Y6956600D01*
X2480800Y9756599D02*
G01*
X7780799Y9756599D01*
X7880799Y9656597D02*
G01*
X7880799Y7056600D01*
X7793672Y7622842D02*
G01*
X7793672Y7876842D01*
X7438072Y7876842D01*
X7438072Y7622842D01*
X7793672Y7622842D01*
X7793672Y7673642D01*
X7844472Y7673642D01*
X7844472Y7826042D01*
X7793672Y7826042D01*
X7943529Y8008927D02*
G01*
X7443157Y8008927D01*
X7443157Y8750599D01*
X7943529Y8750599D01*
X7880029Y8011462D02*
G01*
X7880029Y8748062D01*
X7443157Y8049562D02*
G01*
X7443157Y8008927D01*
X7598100Y8008927D01*
X7443157Y8699799D02*
G01*
X7443157Y8750599D01*
X7608257Y8750599D01*
X7847015Y8008927D02*
G01*
X7938457Y8008927D01*
X7847015Y8750599D02*
G01*
X7938457Y8750599D01*
X7948615Y8049562D02*
G01*
X7945130Y8033961D01*
X7945130Y8033961D02*
G01*
X7946072Y8008927D01*
X7943529Y8750599D02*
G01*
X7945130Y8724846D01*
X7945130Y8724846D02*
G01*
X7946072Y8712499D01*
X7983230Y8084761D02*
G01*
X7983230Y8674046D01*
X8003557Y8084761D02*
G01*
X8003557Y8674046D01*
X7965457Y8069529D02*
G01*
X7968000Y8069529D01*
X7968000Y8069529D02*
G01*
X7988315Y8069529D01*
X7965457Y8689286D02*
G01*
X7968000Y8689286D01*
X7968000Y8689286D02*
G01*
X7988315Y8689286D01*
X7946072Y8011462D02*
G01*
X7989257Y7986062D01*
X7991800Y7983527D02*
G01*
X8003557Y8003486D01*
X8003557Y8003486D02*
G01*
X7957830Y8031429D01*
X7946072Y8748062D02*
G01*
X7989257Y8773462D01*
X7991800Y8773462D02*
G01*
X8003557Y8755329D01*
X8003557Y8755329D02*
G01*
X7960372Y8727386D01*
X7438072Y7673642D02*
G01*
X7387272Y7673642D01*
X7387272Y7826042D01*
X7431257Y7826042D01*
X7438072Y8928399D02*
G01*
X7387272Y8928399D01*
X7387272Y9080799D01*
X7428715Y9080799D01*
X7793672Y8877599D02*
G01*
X7793672Y9131599D01*
X7438072Y9131599D01*
X7438072Y8877599D01*
X7793672Y8877599D01*
X7793672Y8928399D01*
X7844472Y8928399D01*
X7844472Y9080799D01*
X7793672Y9080799D01*
X2380800Y7056600D02*
G01*
X2380800Y9656597D01*
X3270303Y7594125D02*
G01*
X4794303Y7594125D01*
X4794303Y9118125D01*
X3270303Y9118125D01*
X3270303Y7594125D01*
X2416860Y9247157D02*
G01*
X4966769Y9247157D01*
X2416860Y7447056D02*
G01*
X3766868Y7447056D01*
X4966769Y7447056D01*
X4966769Y7447056D02*
G01*
X4966769Y9247157D01*
X2416860Y7447056D02*
G01*
X2416860Y9247157D01*
X3016811Y7447056D02*
G01*
X3016811Y9047002D01*
X3016811Y9247157D01*
D15*
X2965503Y9102887D02*
G01*
X2503218Y9102887D01*
X2503218Y8559325D01*
X2762303Y8559325D01*
X2762303Y8300245D01*
X2503218Y8300245D01*
X2503218Y8046245D01*
X2762303Y8046245D01*
X2762303Y7804945D01*
X2503218Y7804945D01*
X2503218Y7601745D01*
X2965503Y7601745D01*
X2973118Y8836187D02*
G01*
X2504495Y8836187D01*
D11*
X2382520Y2103120D02*
G01*
X3383279Y2103120D01*
X3009900Y2006600D02*
G01*
X3009900Y2070100D01*
X3263900Y2070100D01*
X3263900Y2006600D01*
X2501900Y2006600D02*
G01*
X2501900Y2070100D01*
X2755900Y2070100D01*
X2755900Y2006600D01*
X2381250Y2781300D02*
G01*
X3384550Y2781300D01*
X3384550Y1993900D01*
X2381250Y1993900D01*
X2381250Y2781300D01*
X2303779Y2684779D02*
G01*
X2379979Y2684779D01*
X2379979Y2608579D01*
X2303779Y2608579D01*
X2303779Y2684779D01*
D14*
X2755900Y2870200D02*
G01*
X2501900Y2870200D01*
X2501900Y3378200D01*
X2755900Y3378200D01*
X2755900Y2870200D01*
X508932Y4191099D02*
G01*
X11503Y4191099D01*
X2141501Y4191099D02*
G01*
X794077Y4191099D01*
X508929Y5791100D02*
G01*
X11503Y5791100D01*
X2141501Y5791100D02*
G01*
X794075Y5791100D01*
X11503Y4191099D02*
G01*
X11503Y5791100D01*
X2141501Y5791100D02*
G01*
X2141501Y4191099D01*
X508932Y2438499D02*
G01*
X11503Y2438499D01*
X2141501Y2438499D02*
G01*
X794077Y2438499D01*
X508929Y4038500D02*
G01*
X11503Y4038500D01*
X2141501Y4038500D02*
G01*
X794075Y4038500D01*
X11503Y2438499D02*
G01*
X11503Y4038500D01*
X2141501Y4038500D02*
G01*
X2141501Y2438499D01*
X7137400Y5168900D02*
G01*
X4724400Y5168900D01*
X4724400Y6819900D01*
X7137400Y6819900D01*
X7137400Y5168900D01*
D16*
X6629400Y5803900D02*
G01*
X5867400Y5803900D01*
X5867400Y6565900D01*
X6629400Y6565900D01*
X6629400Y5803900D01*
D14*
X7683500Y5727700D02*
G01*
X7429500Y5727700D01*
X7429500Y6235700D01*
X7683500Y6235700D01*
X7683500Y5727700D01*
X2413000Y4660900D02*
G01*
X2413000Y4914900D01*
X2921000Y4914900D01*
X2921000Y4660900D01*
X2413000Y4660900D01*
X3276600Y2870200D02*
G01*
X3022600Y2870200D01*
X3022600Y3378200D01*
X3276600Y3378200D01*
X3276600Y2870200D01*
X2984500Y3746500D02*
G01*
X2984500Y4508500D01*
X3276600Y4508500D01*
X3276600Y3746500D01*
X2984500Y3746500D01*
X4381500Y6705600D02*
G01*
X4381500Y5255590D01*
X2741498Y5255590D01*
X2741498Y6705600D01*
X4381500Y6705600D01*
X1130300Y7468999D02*
G01*
X1130300Y5969000D01*
X469900Y5969000D02*
G01*
X469900Y7468999D01*
X380298Y5969000D02*
G01*
X380298Y7468999D01*
X380298Y7468999D02*
G01*
X1130300Y7469002D01*
X380298Y5969000D02*
G01*
X1130300Y5969000D01*
X1892300Y7023100D02*
G01*
X1638300Y7023100D01*
X1638300Y7531100D01*
X1892300Y7531100D01*
X1892300Y7023100D01*
X3492500Y5029200D02*
G01*
X7892498Y5029200D01*
X7892498Y3629200D01*
X3492500Y3629200D01*
X3492500Y5029200D01*
X292199Y9397067D02*
G01*
X292199Y9894496D01*
X292199Y7764498D02*
G01*
X292199Y9111922D01*
X1892200Y9397070D02*
G01*
X1892200Y9894496D01*
X1892200Y7764498D02*
G01*
X1892200Y9111924D01*
X292199Y9894496D02*
G01*
X1892200Y9894496D01*
X1892200Y7764498D02*
G01*
X292199Y7764498D01*
G75*
G01*
X7946085Y8026700D02*
G02*
X7961579Y8071150I51434J6997D01*
G75*
G01*
X7966151Y8071150D02*
G03*
X7980629Y8086390I-531J15002D01*
G75*
G01*
X7986725Y8071150D02*
G03*
X8002219Y8086390I485J15003D01*
G75*
G01*
X8002219Y8675924D02*
G03*
X7986725Y8691164I-15009J236D01*
G75*
G01*
X7980629Y8675924D02*
G03*
X7966151Y8691164I-15009J238D01*
G75*
G01*
X7961579Y8691164D02*
G02*
X7946085Y8730280I26085J32959D01*
G75*
G01*
X7956245Y8032796D02*
G03*
X7946085Y8036860I-10531J-11596D01*
G75*
G01*
X7956753Y8730026D02*
G02*
X7946085Y8727740I-8409J13209D01*
G75*
G01*
X2380798Y9656602D02*
G02*
X2480798Y9756602I100000J0D01*
G75*
G01*
X7780800Y9756602D02*
G02*
X7880800Y9656602I0J-100000D01*
G75*
G01*
X7880800Y7056600D02*
G02*
X7780800Y6956600I-100000J0D01*
G75*
G01*
X2480798Y6956600D02*
G02*
X2380798Y7056600I0J100000D01*
G75*
G01
X7641285Y7737145D02*
G03X7641285Y7737145I-12700J0D01*
G75*
G01
X7615885Y7762545D02*
G03X7615885Y7762545I-12700J0D01*
G75*
G01
X7641285Y7749845D02*
G03X7641285Y7749845I-25400J0D01*
G75*
G01
X7666685Y7749845D02*
G03X7666685Y7749845I-50800J0D01*
G75*
G01
X7692085Y7749845D02*
G03X7692085Y7749845I-76200J0D01*
G75*
G01
X7641285Y8991905D02*
G03X7641285Y8991905I-12700J0D01*
G75*
G01
X7615885Y9017305D02*
G03X7615885Y9017305I-12700J0D01*
G75*
G01
X7641285Y9004605D02*
G03X7641285Y9004605I-25400J0D01*
G75*
G01
X7666685Y9004605D02*
G03X7666685Y9004605I-50800J0D01*
G75*
G01
X7692085Y9004605D02*
G03X7692085Y9004605I-76200J0D01*
G75*
G01
X7805801Y9556598D02*
G03X7805801Y9556598I-124993J0D01*
G75*
G01
X2705786Y9556598D02*
G03X2705786Y9556598I-124993J0D01*
G75*
G01
X2705786Y7156602D02*
G03X2705786Y7156602I-124993J0D01*
G75*
G01
X7805801Y7156602D02*
G03X7805801Y7156602I-124993J0D01*
D11*
G75*
G01
X3327400Y2387600D02*
G03X3327400Y2387600I-190500J0D01*
G75*
G01
X2819400Y2387600D02*
G03X2819400Y2387600I-190500J0D01*
D14*
G75*
G01
X1765325Y5575300D02*
G03X1765325Y5575300I-12700J0D01*
G75*
G01
X1765325Y3822700D02*
G03X1765325Y3822700I-12700J0D01*
G75*
G01
X1689100Y8153375D02*
G03X1689100Y8153375I-12700J0D01*
M02*
