G04 Layer: BottomSolderMaskLayer*
G04 EasyEDA v6.5.22, 2023-04-05 22:42:55*
G04 57731fc057a342d4b2a8a82ce43b0460,f9ecfe7abe46434aadffdc01d2bfd918,10*
G04 Gerber Generator version 0.2*
G04 Scale: 100 percent, Rotated: No, Reflected: No *
G04 Dimensions in millimeters *
G04 leading zeros omitted , absolute positions ,4 integer and 5 decimal *
%FSLAX45Y45*%
%MOMM*%

%AMMACRO1*1,1,$1,$2,$3*1,1,$1,$4,$5*1,1,$1,0-$2,0-$3*1,1,$1,0-$4,0-$5*20,1,$1,$2,$3,$4,$5,0*20,1,$1,$4,$5,0-$2,0-$3,0*20,1,$1,0-$2,0-$3,0-$4,0-$5,0*20,1,$1,0-$4,0-$5,$2,$3,0*4,1,4,$2,$3,$4,$5,0-$2,0-$3,0-$4,0-$5,$2,$3,0*%
%ADD10C,1.9016*%
%ADD11C,1.7272*%
%ADD12C,2.6416*%
%ADD13MACRO1,0.1016X0.9652X-0.9652X-0.9652X-0.9652*%
%ADD14C,1.6240*%
%ADD15MACRO1,0.1X0.762X0.762X0.762X-0.762*%
%ADD16O,2.1000212X1.3000228*%
%ADD17C,1.6256*%
%ADD18R,2.0320X2.0320*%
%ADD19C,2.0033*%
%ADD20C,3.2032*%
%ADD21MACRO1,0.1X0.762X-0.762X-0.762X-0.762*%
%ADD22O,1.3000228X2.1000212*%

%LPD*%
D10*
G01*
X3692499Y3110001D03*
G01*
X3692499Y2856001D03*
G01*
X3692499Y2602001D03*
G01*
X3692499Y2348001D03*
G01*
X7692491Y3110001D03*
G01*
X7692491Y2856001D03*
G01*
X7692491Y2602001D03*
G01*
X7692491Y2348001D03*
D11*
G01*
X2844800Y7086600D03*
G01*
X3098800Y7086600D03*
G01*
X3352800Y7086600D03*
G01*
X3606800Y7086600D03*
G01*
X3860800Y7086600D03*
G01*
X4114800Y7086600D03*
G01*
X4368800Y7086600D03*
G01*
X4622800Y7086600D03*
G01*
X4876800Y7086600D03*
G01*
X5130800Y7086600D03*
G01*
X5384800Y7086600D03*
G01*
X5638800Y7086600D03*
G01*
X5892800Y7086600D03*
G01*
X6146800Y7086600D03*
G01*
X6400800Y7086600D03*
G01*
X6654800Y7086600D03*
G01*
X6908800Y7086600D03*
G01*
X7162800Y7086600D03*
G01*
X7416800Y7086600D03*
G01*
X7416800Y9626600D03*
G01*
X7162800Y9626600D03*
G01*
X6908800Y9626600D03*
G01*
X6654800Y9626600D03*
G01*
X6400800Y9626600D03*
G01*
X6146800Y9626600D03*
G01*
X5892800Y9626600D03*
G01*
X5638800Y9626600D03*
G01*
X5384800Y9626600D03*
G01*
X5130800Y9626600D03*
G01*
X4876800Y9626600D03*
G01*
X4622800Y9626600D03*
G01*
X4368800Y9626600D03*
G01*
X4114800Y9626600D03*
G01*
X3860800Y9626600D03*
G01*
X3606800Y9626600D03*
G01*
X3352800Y9626600D03*
G01*
X3098800Y9626600D03*
G01*
X2844800Y9626600D03*
D12*
G01*
X2628900Y2387600D03*
G01*
X3136900Y2387600D03*
D13*
G01*
X2628900Y3251200D03*
G01*
X2628900Y2997200D03*
D14*
G01*
X2015490Y4546600D03*
G01*
X1761489Y4673600D03*
G01*
X2015490Y4800600D03*
G01*
X1761489Y4927600D03*
G01*
X2015490Y5054600D03*
G01*
X1761489Y5181600D03*
G01*
X2015490Y5308600D03*
D15*
G01*
X1761492Y5435607D03*
D16*
G01*
X651510Y4201109D03*
G01*
X651510Y5781090D03*
D14*
G01*
X2015490Y2794000D03*
G01*
X1761489Y2921000D03*
G01*
X2015490Y3048000D03*
G01*
X1761489Y3175000D03*
G01*
X2015490Y3302000D03*
G01*
X1761489Y3429000D03*
G01*
X2015490Y3556000D03*
D15*
G01*
X1761492Y3683007D03*
D16*
G01*
X651510Y2448509D03*
G01*
X651510Y4028490D03*
D17*
G01*
X4978400Y6438900D03*
G01*
X4978400Y6692900D03*
G01*
X4978400Y5549900D03*
G01*
X4978400Y5295900D03*
G01*
X6883400Y6692900D03*
G01*
X6883400Y6438900D03*
G01*
X6883400Y5549900D03*
G01*
X6883400Y5295900D03*
D13*
G01*
X7556500Y6108700D03*
G01*
X7556500Y5854700D03*
D18*
G01*
X2794000Y4787900D03*
G01*
X2540000Y4787900D03*
D13*
G01*
X3149600Y3251200D03*
G01*
X3149600Y2997200D03*
D17*
G01*
X3111500Y3619500D03*
G01*
X3111500Y4635500D03*
D19*
G01*
X4178300Y6565900D03*
G01*
X3924300Y6565900D03*
G01*
X3670300Y6565900D03*
G01*
X3416300Y6565900D03*
G01*
X3162300Y6565900D03*
G01*
X2908300Y6565900D03*
D20*
G01*
X730300Y6219012D03*
G01*
X730300Y6719011D03*
G01*
X730300Y7219010D03*
D13*
G01*
X1765300Y7404100D03*
G01*
X1765300Y7150100D03*
D10*
G01*
X3692499Y4710201D03*
G01*
X3692499Y4456201D03*
G01*
X3692499Y4202201D03*
G01*
X3692499Y3948201D03*
G01*
X7692491Y4710201D03*
G01*
X7692491Y4456201D03*
G01*
X7692491Y4202201D03*
G01*
X7692491Y3948201D03*
D14*
G01*
X647700Y7890484D03*
G01*
X774700Y8144484D03*
G01*
X901700Y7890484D03*
G01*
X1028700Y8144484D03*
G01*
X1155700Y7890484D03*
G01*
X1282700Y8144484D03*
G01*
X1409700Y7890484D03*
D21*
G01*
X1536707Y8144507D03*
D22*
G01*
X302209Y9254489D03*
G01*
X1882190Y9254489D03*
M02*
