G04 Layer: TopLayer*
G04 EasyEDA v6.5.48, 2025-03-13 20:33:32*
G04 94a380b5bd244f86828ecfb0a5ad460b,f9ecfe7abe46434aadffdc01d2bfd918,10*
G04 Gerber Generator version 0.2*
G04 Scale: 100 percent, Rotated: No, Reflected: No *
G04 Dimensions in millimeters *
G04 leading zeros omitted , absolute positions ,4 integer and 5 decimal *
%FSLAX45Y45*%
%MOMM*%

%ADD10C,0.1000*%
%ADD11C,0.7000*%
%ADD12O,1.9999959999999999X3.9999919999999998*%
%ADD13O,1.499997X3.9999919999999998*%
%ADD14C,1.5240*%
%ADD15C,2.5400*%
%ADD16R,1.9304X1.9304*%
%ADD17R,1.5240X1.5240*%
%ADD18O,1.9999959999999999X1.1999976*%
%ADD19C,3.0000*%
%ADD20O,1.1999976X1.9999959999999999*%
%ADD21C,0.6100*%
%ADD22C,0.0149*%

%LPD*%
G36*
X2265222Y6173012D02*
G01*
X2261463Y6173774D01*
X2258263Y6175806D01*
X2256028Y6178905D01*
X2255062Y6182614D01*
X2255570Y6186424D01*
X2257450Y6189776D01*
X2266594Y6200546D01*
X2273909Y6212027D01*
X2279650Y6224422D01*
X2283714Y6237427D01*
X2285949Y6250889D01*
X2286406Y6264503D01*
X2285746Y6271056D01*
X2286304Y6275476D01*
X2288692Y6279235D01*
X2499410Y6489954D01*
X2502814Y6492240D01*
X2506827Y6492951D01*
X2510840Y6492036D01*
X2514142Y6489598D01*
X2516225Y6486093D01*
X2519019Y6477965D01*
X2523794Y6469126D01*
X2529941Y6461150D01*
X2537358Y6454343D01*
X2545791Y6448856D01*
X2554986Y6444843D01*
X2564739Y6442354D01*
X2575153Y6441490D01*
X2647289Y6441490D01*
X2651556Y6440525D01*
X2655011Y6437884D01*
X2657043Y6434023D01*
X2657297Y6429654D01*
X2655722Y6420205D01*
X2655722Y6410198D01*
X2657348Y6400241D01*
X2660650Y6390741D01*
X2665425Y6381902D01*
X2671572Y6373977D01*
X2678988Y6367170D01*
X2687421Y6361684D01*
X2696616Y6357620D01*
X2706370Y6355181D01*
X2716784Y6354318D01*
X2824734Y6354318D01*
X2829001Y6353352D01*
X2832506Y6350711D01*
X2834538Y6346799D01*
X2834741Y6342430D01*
X2833116Y6338366D01*
X2829915Y6335369D01*
X2825140Y6332575D01*
X2814421Y6324092D01*
X2804922Y6314287D01*
X2796844Y6303314D01*
X2791104Y6292850D01*
X2838450Y6292850D01*
X2838450Y6344158D01*
X2839212Y6348018D01*
X2841447Y6351320D01*
X2844698Y6353505D01*
X2848610Y6354318D01*
X2917190Y6354318D01*
X2921101Y6353505D01*
X2924352Y6351320D01*
X2926588Y6348018D01*
X2927350Y6344158D01*
X2927350Y6292850D01*
X2974695Y6292850D01*
X2968955Y6303314D01*
X2960878Y6314287D01*
X2951378Y6324092D01*
X2940659Y6332575D01*
X2935884Y6335369D01*
X2932684Y6338366D01*
X2931058Y6342430D01*
X2931261Y6346799D01*
X2933293Y6350711D01*
X2936798Y6353352D01*
X2941066Y6354318D01*
X3164586Y6354318D01*
X3175050Y6355181D01*
X3184804Y6357620D01*
X3193999Y6361684D01*
X3202432Y6367170D01*
X3209594Y6373723D01*
X3215995Y6381902D01*
X3220770Y6390741D01*
X3224022Y6400241D01*
X3225698Y6410198D01*
X3225698Y6420205D01*
X3224123Y6429654D01*
X3224326Y6434023D01*
X3226358Y6437884D01*
X3229864Y6440525D01*
X3234131Y6441490D01*
X3281984Y6441490D01*
X3285947Y6440678D01*
X3289300Y6438341D01*
X3291484Y6434937D01*
X3292144Y6430924D01*
X3291128Y6426962D01*
X3288690Y6423710D01*
X3284677Y6420154D01*
X3040532Y6176010D01*
X3037230Y6173825D01*
X3033369Y6173012D01*
X2974187Y6173012D01*
X2969971Y6173927D01*
X2966516Y6176518D01*
X2964434Y6180328D01*
X2964129Y6184595D01*
X2965602Y6188659D01*
X2972409Y6199327D01*
X2974543Y6203950D01*
X2927350Y6203950D01*
X2927350Y6183172D01*
X2926588Y6179312D01*
X2924352Y6176010D01*
X2921101Y6173825D01*
X2917190Y6173012D01*
X2848610Y6173012D01*
X2844698Y6173825D01*
X2841447Y6176010D01*
X2839212Y6179312D01*
X2838450Y6183172D01*
X2838450Y6203950D01*
X2791256Y6203950D01*
X2793390Y6199327D01*
X2800197Y6188659D01*
X2801670Y6184595D01*
X2801366Y6180328D01*
X2799283Y6176518D01*
X2795828Y6173927D01*
X2791612Y6173012D01*
X2720187Y6173012D01*
X2715971Y6173927D01*
X2712516Y6176518D01*
X2710434Y6180328D01*
X2710129Y6184595D01*
X2711602Y6188659D01*
X2718409Y6199327D01*
X2720543Y6203950D01*
X2673350Y6203950D01*
X2673350Y6183172D01*
X2672588Y6179312D01*
X2670352Y6176010D01*
X2667101Y6173825D01*
X2663190Y6173012D01*
X2594610Y6173012D01*
X2590698Y6173825D01*
X2587447Y6176010D01*
X2585212Y6179312D01*
X2584450Y6183172D01*
X2584450Y6203950D01*
X2537256Y6203950D01*
X2539390Y6199327D01*
X2546197Y6188659D01*
X2547670Y6184595D01*
X2547366Y6180328D01*
X2545283Y6176518D01*
X2541828Y6173927D01*
X2537612Y6173012D01*
G37*

%LPC*%
G36*
X2537104Y6292850D02*
G01*
X2584450Y6292850D01*
X2584450Y6340195D01*
X2582875Y6339535D01*
X2571140Y6332575D01*
X2560421Y6324092D01*
X2550922Y6314287D01*
X2542844Y6303314D01*
G37*
G36*
X2673350Y6292850D02*
G01*
X2720695Y6292850D01*
X2714955Y6303314D01*
X2706878Y6314287D01*
X2697378Y6324092D01*
X2686659Y6332575D01*
X2674924Y6339535D01*
X2673350Y6340195D01*
G37*

%LPD*%
G36*
X4117746Y2852470D02*
G01*
X4114088Y2852724D01*
X4110532Y2853639D01*
X4100068Y2854502D01*
X3989832Y2854502D01*
X3985971Y2855264D01*
X3982669Y2857500D01*
X3944721Y2895447D01*
X3942537Y2898698D01*
X3941775Y2902610D01*
X3941775Y2957525D01*
X3893007Y2957525D01*
X3889197Y2958287D01*
X3885895Y2960471D01*
X3883710Y2963672D01*
X3882898Y2967482D01*
X3883710Y2971749D01*
X3886860Y2985008D01*
X3888232Y2998571D01*
X3887774Y3012236D01*
X3885488Y3025648D01*
X3883151Y3033268D01*
X3882694Y3037027D01*
X3883710Y3040684D01*
X3885946Y3043732D01*
X3889146Y3045764D01*
X3892854Y3046425D01*
X3941775Y3046425D01*
X3941775Y3095244D01*
X3942435Y3098901D01*
X3944365Y3102051D01*
X3947312Y3104337D01*
X3950868Y3105353D01*
X3954576Y3105048D01*
X3965854Y3101949D01*
X3979367Y3100120D01*
X3993032Y3100120D01*
X4006545Y3101949D01*
X4017822Y3105048D01*
X4021531Y3105353D01*
X4025087Y3104337D01*
X4028033Y3102051D01*
X4029964Y3098901D01*
X4030675Y3095244D01*
X4030675Y3046425D01*
X4086707Y3046425D01*
X4090568Y3045663D01*
X4093870Y3043478D01*
X4096054Y3040176D01*
X4096867Y3036265D01*
X4096867Y2967685D01*
X4096054Y2963824D01*
X4093870Y2960522D01*
X4090568Y2958338D01*
X4086707Y2957525D01*
X4030675Y2957525D01*
X4030675Y2899867D01*
X4061815Y2899867D01*
X4068165Y2900629D01*
X4073601Y2902508D01*
X4078528Y2905607D01*
X4082592Y2909671D01*
X4084878Y2913329D01*
X4087723Y2916275D01*
X4091432Y2917850D01*
X4095546Y2917850D01*
X4099255Y2916275D01*
X4102557Y2912567D01*
X4106621Y2908503D01*
X4111548Y2905404D01*
X4121251Y2902356D01*
X4124147Y2900121D01*
X4126077Y2896971D01*
X4126737Y2893314D01*
X4126737Y2862580D01*
X4126077Y2858973D01*
X4124147Y2855823D01*
X4121251Y2853588D01*
G37*

%LPD*%
G36*
X1812442Y1803907D02*
G01*
X1808327Y1804771D01*
X1804873Y1807311D01*
X1802790Y1810969D01*
X1802333Y1815185D01*
X1802638Y1817674D01*
X1802638Y2040077D01*
X1801926Y2046376D01*
X1799996Y2051862D01*
X1796948Y2056739D01*
X1792833Y2060854D01*
X1787956Y2063902D01*
X1782470Y2065832D01*
X1776171Y2066543D01*
X1385214Y2066543D01*
X1380998Y2067458D01*
X1377594Y2069998D01*
X1375511Y2073757D01*
X1375156Y2078075D01*
X1376629Y2082088D01*
X1378610Y2085289D01*
X1380540Y2090775D01*
X1381252Y2097074D01*
X1381252Y2310079D01*
X1380540Y2316378D01*
X1378610Y2321864D01*
X1375562Y2326741D01*
X1371447Y2330856D01*
X1366570Y2333904D01*
X1361084Y2335834D01*
X1354785Y2336546D01*
X66598Y2336546D01*
X60299Y2335834D01*
X54813Y2333904D01*
X49936Y2330856D01*
X45821Y2326741D01*
X44653Y2324912D01*
X41656Y2321814D01*
X37592Y2320239D01*
X33274Y2320544D01*
X29464Y2322626D01*
X26822Y2326081D01*
X25908Y2330297D01*
X25908Y5861456D01*
X26822Y5865672D01*
X29464Y5869127D01*
X33274Y5871210D01*
X37592Y5871514D01*
X41656Y5869940D01*
X44653Y5866841D01*
X45821Y5865012D01*
X49936Y5860897D01*
X54813Y5857849D01*
X60299Y5855919D01*
X66598Y5855208D01*
X276047Y5855208D01*
X282346Y5855919D01*
X287832Y5857849D01*
X292709Y5860897D01*
X296824Y5865012D01*
X299872Y5869889D01*
X301802Y5875375D01*
X302514Y5881674D01*
X302514Y6094679D01*
X301802Y6100978D01*
X299872Y6106464D01*
X296824Y6111341D01*
X292709Y6115456D01*
X287832Y6118504D01*
X282346Y6120434D01*
X276047Y6121146D01*
X66598Y6121146D01*
X60299Y6120434D01*
X54813Y6118504D01*
X49936Y6115456D01*
X45821Y6111341D01*
X44653Y6109512D01*
X41656Y6106414D01*
X37592Y6104839D01*
X33274Y6105144D01*
X29464Y6107226D01*
X26822Y6110681D01*
X25908Y6114897D01*
X25908Y8039353D01*
X26670Y8043265D01*
X28905Y8046567D01*
X32258Y8048752D01*
X36169Y8049514D01*
X40030Y8048701D01*
X43332Y8046466D01*
X48463Y8041233D01*
X53289Y8038185D01*
X58775Y8036255D01*
X65074Y8035544D01*
X278079Y8035544D01*
X284378Y8036255D01*
X289864Y8038185D01*
X294741Y8041233D01*
X298856Y8045348D01*
X301904Y8050225D01*
X303834Y8055711D01*
X304546Y8062010D01*
X304546Y9133179D01*
X305409Y9137243D01*
X307848Y9140647D01*
X311404Y9142780D01*
X315569Y9143288D01*
X319582Y9142069D01*
X330047Y9136380D01*
X341528Y9132062D01*
X353466Y9129471D01*
X365709Y9128607D01*
X377901Y9129471D01*
X389890Y9132062D01*
X401370Y9136380D01*
X412140Y9142222D01*
X421944Y9149588D01*
X430631Y9158224D01*
X437946Y9168079D01*
X443839Y9178798D01*
X448106Y9190278D01*
X450697Y9202267D01*
X451612Y9214866D01*
X451612Y9294114D01*
X450697Y9306712D01*
X448106Y9318701D01*
X443839Y9330182D01*
X437946Y9340900D01*
X430631Y9350705D01*
X421944Y9359392D01*
X412140Y9366758D01*
X401370Y9372600D01*
X389890Y9376918D01*
X377901Y9379508D01*
X365709Y9380372D01*
X353466Y9379508D01*
X341528Y9376918D01*
X330047Y9372600D01*
X319582Y9366910D01*
X315569Y9365691D01*
X311404Y9366199D01*
X307848Y9368332D01*
X305409Y9371736D01*
X304546Y9375800D01*
X304546Y9712401D01*
X303834Y9718700D01*
X301904Y9724186D01*
X298856Y9729063D01*
X294741Y9733178D01*
X289864Y9736226D01*
X284378Y9738156D01*
X278079Y9738868D01*
X65074Y9738868D01*
X58775Y9738156D01*
X53289Y9736226D01*
X48463Y9733178D01*
X43332Y9727946D01*
X40030Y9725710D01*
X36169Y9724898D01*
X32258Y9725660D01*
X28905Y9727844D01*
X26670Y9731146D01*
X25908Y9735058D01*
X25908Y9869932D01*
X26670Y9873843D01*
X28905Y9877094D01*
X32156Y9879330D01*
X36068Y9880092D01*
X2148840Y9880092D01*
X2152751Y9879330D01*
X2156002Y9877094D01*
X2158238Y9873843D01*
X2159000Y9869932D01*
X2159000Y8033512D01*
X2158238Y8029651D01*
X2156002Y8026349D01*
X2152751Y8024164D01*
X2148840Y8023352D01*
X2048357Y8023352D01*
X2037892Y8022488D01*
X2028139Y8020050D01*
X2018944Y8015986D01*
X2010511Y8010499D01*
X2003145Y8003692D01*
X1996948Y7995767D01*
X1992172Y7986928D01*
X1988921Y7977428D01*
X1987245Y7967472D01*
X1987245Y7957464D01*
X1988921Y7947507D01*
X1992172Y7938008D01*
X1996948Y7929168D01*
X2003145Y7921244D01*
X2010511Y7914436D01*
X2018944Y7908950D01*
X2028139Y7904886D01*
X2037892Y7902448D01*
X2048357Y7901584D01*
X2148840Y7901584D01*
X2152751Y7900771D01*
X2156002Y7898587D01*
X2158238Y7895285D01*
X2159000Y7891424D01*
X2159000Y7621168D01*
X2158238Y7617307D01*
X2156002Y7614005D01*
X2152751Y7611821D01*
X2148840Y7611008D01*
X2144928Y7611821D01*
X2141677Y7614005D01*
X1822348Y7933334D01*
X1816303Y7938668D01*
X1814575Y7939938D01*
X1805990Y7945120D01*
X1798624Y7948168D01*
X1788871Y7950606D01*
X1786788Y7950911D01*
X1778711Y7951368D01*
X1559814Y7951368D01*
X1556816Y7951825D01*
X1554073Y7953197D01*
X1551838Y7955280D01*
X1548892Y7958988D01*
X1539087Y7968488D01*
X1528114Y7976565D01*
X1516176Y7983118D01*
X1503426Y7987995D01*
X1490167Y7991195D01*
X1476603Y7992516D01*
X1462989Y7992059D01*
X1449527Y7989824D01*
X1436522Y7985759D01*
X1424127Y7980019D01*
X1412646Y7972704D01*
X1402232Y7963916D01*
X1393088Y7953756D01*
X1385366Y7942529D01*
X1379220Y7930388D01*
X1374749Y7917484D01*
X1372006Y7904124D01*
X1371092Y7890509D01*
X1372006Y7876895D01*
X1374749Y7863535D01*
X1379220Y7850631D01*
X1385366Y7838490D01*
X1393088Y7827264D01*
X1402232Y7817103D01*
X1412646Y7808315D01*
X1424127Y7801000D01*
X1436522Y7795259D01*
X1449527Y7791196D01*
X1462989Y7788960D01*
X1476603Y7788503D01*
X1490167Y7789824D01*
X1503426Y7793024D01*
X1516176Y7797901D01*
X1528114Y7804454D01*
X1539087Y7812531D01*
X1548892Y7822031D01*
X1551787Y7825689D01*
X1554022Y7827772D01*
X1556766Y7829143D01*
X1559763Y7829600D01*
X1749602Y7829600D01*
X1753514Y7828788D01*
X1756765Y7826603D01*
X2156002Y7427366D01*
X2158238Y7424064D01*
X2159000Y7420203D01*
X2159000Y7383525D01*
X2158034Y7379208D01*
X2155393Y7375753D01*
X2150922Y7373518D01*
X2138375Y7368235D01*
X2126640Y7361275D01*
X2115921Y7352792D01*
X2106422Y7342987D01*
X2098344Y7332014D01*
X2091791Y7320076D01*
X2086914Y7307325D01*
X2083714Y7294067D01*
X2082393Y7280503D01*
X2082850Y7266228D01*
X2082139Y7262164D01*
X2079853Y7258710D01*
X1835657Y7014514D01*
X1832356Y7012279D01*
X1828495Y7011517D01*
X1770888Y7011517D01*
X1766976Y7012279D01*
X1763725Y7014514D01*
X1761489Y7017766D01*
X1760728Y7021677D01*
X1760728Y7044690D01*
X1692910Y7044690D01*
X1692910Y7021677D01*
X1692148Y7017766D01*
X1689912Y7014514D01*
X1686661Y7012279D01*
X1682750Y7011517D01*
X1593850Y7011517D01*
X1589938Y7012279D01*
X1586687Y7014514D01*
X1584452Y7017766D01*
X1583690Y7021677D01*
X1583690Y7044690D01*
X1515872Y7044690D01*
X1515872Y7021677D01*
X1515110Y7017766D01*
X1512874Y7014514D01*
X1509623Y7012279D01*
X1505712Y7011517D01*
X1028141Y7011517D01*
X1024229Y7012279D01*
X1020978Y7014514D01*
X894943Y7140549D01*
X892657Y7143953D01*
X891946Y7148017D01*
X893216Y7152741D01*
X899210Y7169861D01*
X903325Y7187488D01*
X905662Y7205421D01*
X906119Y7223506D01*
X904748Y7241590D01*
X901496Y7259421D01*
X896416Y7276795D01*
X889609Y7293559D01*
X881075Y7309561D01*
X870966Y7324598D01*
X859383Y7338466D01*
X846429Y7351115D01*
X832205Y7362342D01*
X816914Y7372096D01*
X800760Y7380173D01*
X783793Y7386574D01*
X766267Y7391196D01*
X748385Y7393940D01*
X730300Y7394905D01*
X712216Y7393940D01*
X694334Y7391196D01*
X676808Y7386574D01*
X659841Y7380173D01*
X643686Y7372096D01*
X628396Y7362342D01*
X614172Y7351115D01*
X601218Y7338466D01*
X589635Y7324598D01*
X579526Y7309561D01*
X570992Y7293559D01*
X564184Y7276795D01*
X559104Y7259421D01*
X555853Y7241590D01*
X554482Y7223506D01*
X554939Y7205421D01*
X557276Y7187488D01*
X561390Y7169861D01*
X567385Y7152741D01*
X575056Y7136333D01*
X584352Y7120788D01*
X595223Y7106310D01*
X607517Y7093051D01*
X621131Y7081062D01*
X635914Y7070598D01*
X651662Y7061657D01*
X668274Y7054392D01*
X685495Y7048906D01*
X703224Y7045198D01*
X721258Y7043318D01*
X739343Y7043318D01*
X757377Y7045198D01*
X775106Y7048906D01*
X792327Y7054392D01*
X797407Y7056628D01*
X801370Y7057491D01*
X805332Y7056729D01*
X808685Y7054494D01*
X955395Y6907784D01*
X961440Y6902399D01*
X969924Y6896963D01*
X971753Y6895998D01*
X981100Y6892290D01*
X988872Y6890512D01*
X990955Y6890207D01*
X999032Y6889699D01*
X1193901Y6889699D01*
X1197965Y6888835D01*
X1201369Y6886397D01*
X1203502Y6882841D01*
X1204010Y6878726D01*
X1202842Y6874713D01*
X1200912Y6871106D01*
X1197610Y6861606D01*
X1195984Y6851700D01*
X1195984Y6841642D01*
X1197610Y6831736D01*
X1200912Y6822236D01*
X1205687Y6813397D01*
X1211834Y6805422D01*
X1219301Y6798564D01*
X1222349Y6795516D01*
X1223822Y6791452D01*
X1223518Y6787184D01*
X1221435Y6783425D01*
X1217980Y6780834D01*
X1213764Y6779920D01*
X902004Y6779920D01*
X898093Y6780682D01*
X894791Y6782917D01*
X892606Y6786270D01*
X889609Y6793585D01*
X881075Y6809536D01*
X870966Y6824573D01*
X859383Y6838492D01*
X846429Y6851142D01*
X832205Y6862368D01*
X816914Y6872071D01*
X800760Y6880199D01*
X783793Y6886549D01*
X766267Y6891172D01*
X748385Y6893966D01*
X730300Y6894880D01*
X712216Y6893966D01*
X694334Y6891172D01*
X676808Y6886549D01*
X659841Y6880199D01*
X643686Y6872071D01*
X628396Y6862368D01*
X614172Y6851142D01*
X601218Y6838492D01*
X589635Y6824573D01*
X579526Y6809536D01*
X570992Y6793585D01*
X564184Y6776770D01*
X559104Y6759397D01*
X555853Y6741566D01*
X554482Y6723532D01*
X554939Y6705447D01*
X557276Y6687464D01*
X561390Y6669836D01*
X567385Y6652717D01*
X575056Y6636359D01*
X584352Y6620814D01*
X595223Y6606336D01*
X607517Y6593027D01*
X621131Y6581089D01*
X635914Y6570573D01*
X651662Y6561683D01*
X668274Y6554419D01*
X685495Y6548881D01*
X703224Y6545224D01*
X721258Y6543344D01*
X739343Y6543344D01*
X757377Y6545224D01*
X775106Y6548881D01*
X792327Y6554419D01*
X808939Y6561683D01*
X824687Y6570573D01*
X839469Y6581089D01*
X853084Y6593027D01*
X865378Y6606336D01*
X876249Y6620814D01*
X885545Y6636359D01*
X893013Y6652259D01*
X895248Y6655358D01*
X898448Y6657390D01*
X902208Y6658102D01*
X1697075Y6658102D01*
X1700936Y6657340D01*
X1704238Y6655104D01*
X1729892Y6629450D01*
X1732076Y6626199D01*
X1732889Y6622288D01*
X1732076Y6618376D01*
X1729892Y6615125D01*
X1726590Y6612890D01*
X1722729Y6612128D01*
X1542338Y6612128D01*
X1536039Y6611416D01*
X1530553Y6609486D01*
X1525676Y6606438D01*
X1521561Y6602323D01*
X1518513Y6597446D01*
X1516583Y6591960D01*
X1515872Y6585661D01*
X1515872Y6393738D01*
X1516583Y6387439D01*
X1518513Y6381953D01*
X1521561Y6377076D01*
X1525676Y6372961D01*
X1528318Y6371285D01*
X1531264Y6368491D01*
X1532890Y6364732D01*
X1532890Y6360668D01*
X1531264Y6356908D01*
X1528318Y6354114D01*
X1525676Y6352438D01*
X1521561Y6348323D01*
X1518513Y6343446D01*
X1516583Y6337960D01*
X1515872Y6331661D01*
X1515872Y6139738D01*
X1516583Y6133439D01*
X1518513Y6127953D01*
X1521561Y6123076D01*
X1525676Y6118961D01*
X1530553Y6115913D01*
X1536039Y6113983D01*
X1542338Y6113272D01*
X1677466Y6113272D01*
X1681378Y6112510D01*
X1684629Y6110274D01*
X1686864Y6107023D01*
X1687626Y6103112D01*
X1686864Y6099200D01*
X1684629Y6095949D01*
X1571752Y5983020D01*
X1566367Y5976975D01*
X1560931Y5968492D01*
X1559966Y5966663D01*
X1556258Y5957316D01*
X1554480Y5949543D01*
X1554175Y5947460D01*
X1553667Y5939383D01*
X1553667Y4638598D01*
X1554175Y4630572D01*
X1554480Y4628489D01*
X1556258Y4620717D01*
X1559966Y4611370D01*
X1560931Y4609490D01*
X1566367Y4601057D01*
X1571752Y4595012D01*
X2334615Y3832148D01*
X2340660Y3826764D01*
X2349093Y3821328D01*
X2350973Y3820363D01*
X2360320Y3816654D01*
X2368092Y3814876D01*
X2370175Y3814572D01*
X2378202Y3814064D01*
X3518001Y3814064D01*
X3521862Y3813301D01*
X3525164Y3811066D01*
X3623564Y3712718D01*
X3625748Y3709415D01*
X3626510Y3705504D01*
X3625748Y3701643D01*
X3623564Y3698341D01*
X3620262Y3696157D01*
X3616350Y3695344D01*
X3589934Y3695344D01*
X3583584Y3694633D01*
X3578148Y3692753D01*
X3573221Y3689654D01*
X3569157Y3685590D01*
X3566058Y3680663D01*
X3564178Y3675227D01*
X3563467Y3668877D01*
X3563467Y3583889D01*
X3562654Y3579977D01*
X3560470Y3576726D01*
X3557168Y3574491D01*
X3553307Y3573729D01*
X3446424Y3573729D01*
X3442563Y3574491D01*
X3439261Y3576726D01*
X3251606Y3764330D01*
X3243630Y3771137D01*
X3234994Y3776268D01*
X3225596Y3779926D01*
X3215792Y3782009D01*
X3205734Y3782415D01*
X3195777Y3781145D01*
X3186125Y3778300D01*
X3177082Y3773881D01*
X3168904Y3768039D01*
X3161792Y3760927D01*
X3155950Y3752748D01*
X3151530Y3743706D01*
X3148685Y3734054D01*
X3147415Y3724097D01*
X3147822Y3714038D01*
X3149904Y3704234D01*
X3153562Y3694836D01*
X3158693Y3686200D01*
X3165500Y3678224D01*
X3198723Y3644950D01*
X3200908Y3641699D01*
X3201720Y3637787D01*
X3200908Y3633876D01*
X3198723Y3630625D01*
X3195421Y3628390D01*
X3191560Y3627628D01*
X3153410Y3627628D01*
X3153410Y3559810D01*
X3221228Y3559810D01*
X3221228Y3597960D01*
X3221990Y3601821D01*
X3224225Y3605123D01*
X3227476Y3607308D01*
X3231388Y3608120D01*
X3235299Y3607308D01*
X3238550Y3605123D01*
X3373729Y3469995D01*
X3379774Y3464610D01*
X3388207Y3459175D01*
X3390087Y3458210D01*
X3399434Y3454501D01*
X3407206Y3452723D01*
X3409289Y3452418D01*
X3417315Y3451910D01*
X3553460Y3451910D01*
X3557320Y3451148D01*
X3560622Y3448913D01*
X3562807Y3445662D01*
X3563620Y3441750D01*
X3563620Y3361080D01*
X3564331Y3354730D01*
X3566210Y3349294D01*
X3569309Y3344367D01*
X3573373Y3340303D01*
X3578301Y3337204D01*
X3583736Y3335324D01*
X3590086Y3334613D01*
X3646678Y3334613D01*
X3653028Y3335324D01*
X3658463Y3337204D01*
X3663391Y3340303D01*
X3667455Y3344367D01*
X3670554Y3349294D01*
X3672433Y3354730D01*
X3672941Y3359251D01*
X3674414Y3363468D01*
X3677564Y3366668D01*
X3681780Y3368192D01*
X3686200Y3367786D01*
X3690061Y3365500D01*
X3692550Y3361791D01*
X3693617Y3359048D01*
X3700170Y3347059D01*
X3708247Y3336086D01*
X3717747Y3326282D01*
X3728415Y3317849D01*
X3740658Y3310585D01*
X3743807Y3307689D01*
X3745433Y3303676D01*
X3745280Y3299358D01*
X3743401Y3295497D01*
X3740048Y3292805D01*
X3734155Y3289858D01*
X3722928Y3282137D01*
X3712819Y3272993D01*
X3704031Y3262579D01*
X3696665Y3251047D01*
X3692398Y3241802D01*
X3689756Y3238347D01*
X3685895Y3236315D01*
X3681526Y3236061D01*
X3677462Y3237687D01*
X3674465Y3240836D01*
X3673094Y3244951D01*
X3672281Y3251809D01*
X3670401Y3257245D01*
X3667302Y3262172D01*
X3663238Y3266236D01*
X3658311Y3269335D01*
X3652875Y3271215D01*
X3646525Y3271926D01*
X3589934Y3271926D01*
X3583584Y3271215D01*
X3578148Y3269335D01*
X3573221Y3266236D01*
X3569157Y3262172D01*
X3566058Y3257245D01*
X3564178Y3251809D01*
X3563467Y3245459D01*
X3563467Y3157880D01*
X3564178Y3151530D01*
X3566058Y3146094D01*
X3569157Y3141167D01*
X3573221Y3137103D01*
X3578148Y3134004D01*
X3582771Y3132378D01*
X3586327Y3130245D01*
X3588715Y3126841D01*
X3589578Y3122777D01*
X3588715Y3118764D01*
X3586327Y3115360D01*
X3582771Y3113227D01*
X3578148Y3111601D01*
X3573221Y3108502D01*
X3569157Y3104438D01*
X3566058Y3099511D01*
X3564178Y3094075D01*
X3563467Y3087725D01*
X3563467Y2929280D01*
X3564178Y2922930D01*
X3566058Y2917494D01*
X3569157Y2912567D01*
X3573221Y2908503D01*
X3578148Y2905404D01*
X3583584Y2903524D01*
X3589934Y2902813D01*
X3610508Y2902813D01*
X3614420Y2902000D01*
X3617722Y2899816D01*
X3619906Y2896514D01*
X3620668Y2892653D01*
X3619906Y2888742D01*
X3617722Y2885440D01*
X3466998Y2734767D01*
X3463696Y2732532D01*
X3459835Y2731770D01*
X2107031Y2731770D01*
X2102866Y2732684D01*
X2099411Y2735275D01*
X2097328Y2739034D01*
X2096973Y2743352D01*
X2098497Y2747416D01*
X2105050Y2757627D01*
X2110790Y2770022D01*
X2114804Y2783027D01*
X2117090Y2796489D01*
X2117547Y2810103D01*
X2116175Y2823667D01*
X2113026Y2836926D01*
X2108098Y2849676D01*
X2101545Y2861614D01*
X2093468Y2872587D01*
X2083968Y2882392D01*
X2073300Y2890875D01*
X2061565Y2897835D01*
X2049018Y2903118D01*
X2035860Y2906725D01*
X2022348Y2908554D01*
X2008682Y2908554D01*
X1995170Y2906725D01*
X1982012Y2903118D01*
X1969465Y2897835D01*
X1957730Y2890875D01*
X1947011Y2882392D01*
X1937562Y2872587D01*
X1929485Y2861614D01*
X1922932Y2849676D01*
X1918004Y2836926D01*
X1914855Y2823667D01*
X1913483Y2810103D01*
X1913940Y2796489D01*
X1916226Y2783027D01*
X1920239Y2770022D01*
X1925980Y2757627D01*
X1932533Y2747416D01*
X1934006Y2743352D01*
X1933702Y2739034D01*
X1931619Y2735275D01*
X1928164Y2732684D01*
X1923948Y2731770D01*
X1604416Y2731770D01*
X1593951Y2730906D01*
X1584198Y2728417D01*
X1575003Y2724404D01*
X1566570Y2718917D01*
X1559204Y2712110D01*
X1553006Y2704134D01*
X1548231Y2695295D01*
X1544980Y2685796D01*
X1543304Y2675890D01*
X1543304Y2665831D01*
X1544980Y2655925D01*
X1548231Y2646426D01*
X1553006Y2637586D01*
X1559204Y2629611D01*
X1566570Y2622804D01*
X1575003Y2617317D01*
X1584198Y2613304D01*
X1593951Y2610815D01*
X1604416Y2609951D01*
X3488944Y2609951D01*
X3496970Y2610459D01*
X3499053Y2610764D01*
X3506825Y2612542D01*
X3516172Y2616250D01*
X3518052Y2617216D01*
X3526485Y2622651D01*
X3532530Y2628036D01*
X3779012Y2874467D01*
X3782314Y2876702D01*
X3786225Y2877464D01*
X3790086Y2876702D01*
X3793388Y2874467D01*
X3917137Y2750769D01*
X3923182Y2745384D01*
X3931615Y2739948D01*
X3933494Y2738983D01*
X3942842Y2735275D01*
X3950614Y2733497D01*
X3952697Y2733192D01*
X3960723Y2732684D01*
X4100068Y2732684D01*
X4110532Y2733548D01*
X4114088Y2734462D01*
X4117746Y2734716D01*
X4121251Y2733598D01*
X4124147Y2731363D01*
X4126077Y2728214D01*
X4126737Y2724607D01*
X4126737Y1873554D01*
X4127449Y1867255D01*
X4129379Y1861769D01*
X4132427Y1856892D01*
X4136542Y1852777D01*
X4141419Y1849729D01*
X4146905Y1847799D01*
X4153204Y1847088D01*
X4440377Y1847088D01*
X4446676Y1847799D01*
X4452162Y1849729D01*
X4457039Y1852777D01*
X4461154Y1856892D01*
X4464202Y1861769D01*
X4466132Y1867255D01*
X4466844Y1873554D01*
X4466844Y2440889D01*
X4467504Y2444546D01*
X4469434Y2447645D01*
X4472330Y2449931D01*
X4475835Y2450998D01*
X4479493Y2450744D01*
X4483049Y2449880D01*
X4493514Y2449017D01*
X4496460Y2449017D01*
X4500372Y2448204D01*
X4503623Y2446020D01*
X4823714Y2125929D01*
X4825898Y2122627D01*
X4826711Y2118766D01*
X4826711Y1983536D01*
X4827574Y1970024D01*
X4830165Y1957070D01*
X4834382Y1944573D01*
X4840224Y1932736D01*
X4847539Y1921764D01*
X4856276Y1911857D01*
X4866182Y1903171D01*
X4877155Y1895805D01*
X4888992Y1890014D01*
X4901488Y1885746D01*
X4914442Y1883156D01*
X4927600Y1882292D01*
X4940757Y1883156D01*
X4953711Y1885746D01*
X4966208Y1890014D01*
X4978044Y1895805D01*
X4989017Y1903171D01*
X4998923Y1911857D01*
X5007660Y1921764D01*
X5014976Y1932736D01*
X5020818Y1944573D01*
X5025034Y1957070D01*
X5027625Y1970024D01*
X5028488Y1983536D01*
X5028488Y2232863D01*
X5027625Y2246376D01*
X5025034Y2259330D01*
X5020818Y2271826D01*
X5014976Y2283663D01*
X5007660Y2294636D01*
X4998923Y2304542D01*
X4989017Y2313228D01*
X4978044Y2320594D01*
X4966208Y2326386D01*
X4953711Y2330653D01*
X4940757Y2333244D01*
X4927600Y2334107D01*
X4914442Y2333244D01*
X4901488Y2330653D01*
X4888992Y2326386D01*
X4877155Y2320594D01*
X4866182Y2313228D01*
X4856276Y2304542D01*
X4847539Y2294636D01*
X4846320Y2292756D01*
X4843119Y2289708D01*
X4838903Y2288286D01*
X4834483Y2288844D01*
X4830724Y2291232D01*
X4569206Y2552750D01*
X4563160Y2558084D01*
X4561433Y2559354D01*
X4552848Y2564536D01*
X4545482Y2567584D01*
X4535728Y2570022D01*
X4533646Y2570327D01*
X4525568Y2570784D01*
X4493514Y2570784D01*
X4483049Y2569921D01*
X4479493Y2569057D01*
X4475835Y2568803D01*
X4472330Y2569870D01*
X4469434Y2572156D01*
X4467504Y2575255D01*
X4466844Y2578912D01*
X4466844Y5457901D01*
X4466132Y5464200D01*
X4464202Y5469686D01*
X4461154Y5474563D01*
X4457039Y5478678D01*
X4452162Y5481726D01*
X4446676Y5483656D01*
X4440377Y5484368D01*
X4153204Y5484368D01*
X4146905Y5483656D01*
X4141419Y5481726D01*
X4136542Y5478678D01*
X4132427Y5474563D01*
X4129379Y5469686D01*
X4127449Y5464200D01*
X4126737Y5457901D01*
X4126737Y4409186D01*
X4125874Y4405071D01*
X4123385Y4401616D01*
X4119727Y4399534D01*
X4115562Y4399076D01*
X4111548Y4400346D01*
X4108399Y4403140D01*
X4103878Y4409287D01*
X4094378Y4419092D01*
X4083659Y4427575D01*
X4071924Y4434535D01*
X4059377Y4439818D01*
X4046220Y4443425D01*
X4032707Y4445254D01*
X4019092Y4445254D01*
X4005579Y4443425D01*
X3992422Y4439818D01*
X3979875Y4434535D01*
X3968140Y4427575D01*
X3957421Y4419092D01*
X3945077Y4406239D01*
X3942232Y4404817D01*
X3939133Y4404309D01*
X3858666Y4404309D01*
X3855567Y4404817D01*
X3852722Y4406239D01*
X3840378Y4419092D01*
X3829659Y4427575D01*
X3817924Y4434535D01*
X3805377Y4439818D01*
X3792220Y4443425D01*
X3778707Y4445254D01*
X3765092Y4445254D01*
X3751579Y4443425D01*
X3738422Y4439818D01*
X3725875Y4434535D01*
X3714140Y4427575D01*
X3710635Y4424832D01*
X3707688Y4423206D01*
X3704336Y4422597D01*
X3011678Y4422597D01*
X3001213Y4421733D01*
X2991459Y4419295D01*
X2982315Y4415282D01*
X2972765Y4408932D01*
X2969564Y4407509D01*
X2966059Y4407306D01*
X2962706Y4408271D01*
X2959862Y4410354D01*
X2951378Y4419092D01*
X2940659Y4427575D01*
X2928924Y4434535D01*
X2916377Y4439818D01*
X2903220Y4443425D01*
X2889707Y4445254D01*
X2876092Y4445254D01*
X2862580Y4443425D01*
X2849422Y4439818D01*
X2836875Y4434535D01*
X2825140Y4427575D01*
X2814421Y4419092D01*
X2802077Y4406239D01*
X2799232Y4404817D01*
X2796133Y4404309D01*
X2715666Y4404309D01*
X2712567Y4404817D01*
X2709722Y4406239D01*
X2697378Y4419092D01*
X2686659Y4427575D01*
X2674924Y4434535D01*
X2662377Y4439818D01*
X2649220Y4443425D01*
X2635707Y4445254D01*
X2622092Y4445254D01*
X2608580Y4443425D01*
X2595422Y4439818D01*
X2582875Y4434535D01*
X2571140Y4427575D01*
X2560421Y4419092D01*
X2550922Y4409287D01*
X2542844Y4398314D01*
X2536291Y4386376D01*
X2531414Y4373626D01*
X2528214Y4360367D01*
X2526893Y4346803D01*
X2527350Y4333189D01*
X2529586Y4319727D01*
X2533650Y4306722D01*
X2539390Y4294327D01*
X2546705Y4282846D01*
X2555494Y4272432D01*
X2565654Y4263288D01*
X2576880Y4255566D01*
X2589022Y4249420D01*
X2601925Y4244949D01*
X2615285Y4242206D01*
X2628900Y4241292D01*
X2642514Y4242206D01*
X2655874Y4244949D01*
X2668778Y4249420D01*
X2680919Y4255566D01*
X2692146Y4263288D01*
X2702306Y4272432D01*
X2707741Y4278884D01*
X2711246Y4281525D01*
X2715514Y4282490D01*
X2796286Y4282490D01*
X2800553Y4281525D01*
X2804058Y4278884D01*
X2809494Y4272432D01*
X2819654Y4263288D01*
X2830880Y4255566D01*
X2843022Y4249420D01*
X2855925Y4244949D01*
X2869285Y4242206D01*
X2882900Y4241292D01*
X2896514Y4242206D01*
X2909874Y4244949D01*
X2922778Y4249420D01*
X2934919Y4255566D01*
X2946146Y4263288D01*
X2956306Y4272432D01*
X2965094Y4282846D01*
X2972409Y4294327D01*
X2975254Y4300423D01*
X2977540Y4303572D01*
X2980842Y4305604D01*
X2984703Y4306265D01*
X2988513Y4305452D01*
X2991459Y4304131D01*
X3001213Y4301693D01*
X3011678Y4300829D01*
X3672890Y4300829D01*
X3676650Y4300067D01*
X3679850Y4298035D01*
X3689705Y4282846D01*
X3698494Y4272432D01*
X3708654Y4263288D01*
X3719880Y4255566D01*
X3732022Y4249420D01*
X3744925Y4244949D01*
X3758285Y4242206D01*
X3771900Y4241292D01*
X3785514Y4242206D01*
X3798874Y4244949D01*
X3811778Y4249420D01*
X3823919Y4255566D01*
X3835146Y4263288D01*
X3845306Y4272432D01*
X3850741Y4278884D01*
X3854246Y4281525D01*
X3858514Y4282490D01*
X3939286Y4282490D01*
X3943553Y4281525D01*
X3947058Y4278884D01*
X3952494Y4272432D01*
X3962654Y4263288D01*
X3973880Y4255566D01*
X3986022Y4249420D01*
X3998925Y4244949D01*
X4012285Y4242206D01*
X4025900Y4241292D01*
X4039514Y4242206D01*
X4052874Y4244949D01*
X4065778Y4249420D01*
X4077919Y4255566D01*
X4089146Y4263288D01*
X4099255Y4272432D01*
X4108805Y4283811D01*
X4112006Y4286351D01*
X4115968Y4287418D01*
X4120032Y4286808D01*
X4123537Y4284675D01*
X4125925Y4281271D01*
X4126737Y4277258D01*
X4126737Y3679951D01*
X4126077Y3676294D01*
X4124147Y3673144D01*
X4121251Y3670909D01*
X4116984Y3669741D01*
X4111548Y3667861D01*
X4106621Y3664762D01*
X4102557Y3660698D01*
X4099458Y3655771D01*
X4097578Y3650335D01*
X4096004Y3644950D01*
X4093006Y3641801D01*
X4088942Y3640175D01*
X4084574Y3640429D01*
X4080764Y3642461D01*
X4078122Y3645915D01*
X4075734Y3651046D01*
X4068368Y3662578D01*
X4059580Y3672992D01*
X4049471Y3682136D01*
X4038244Y3689858D01*
X4026052Y3696004D01*
X4013149Y3700475D01*
X3999788Y3703167D01*
X3986225Y3704082D01*
X3972610Y3703167D01*
X3959250Y3700475D01*
X3946347Y3696004D01*
X3934155Y3689858D01*
X3922928Y3682136D01*
X3912819Y3672992D01*
X3904030Y3662578D01*
X3896664Y3651046D01*
X3895394Y3648354D01*
X3893159Y3645255D01*
X3889959Y3643172D01*
X3886200Y3642461D01*
X3882440Y3643172D01*
X3879240Y3645255D01*
X3877005Y3648354D01*
X3875735Y3651046D01*
X3868369Y3662578D01*
X3859580Y3672992D01*
X3849471Y3682136D01*
X3838244Y3689858D01*
X3826052Y3696004D01*
X3813149Y3700475D01*
X3809746Y3701135D01*
X3807002Y3702151D01*
X3804615Y3703929D01*
X3590696Y3917797D01*
X3584651Y3923182D01*
X3576218Y3928618D01*
X3574338Y3929583D01*
X3564991Y3933291D01*
X3557219Y3935069D01*
X3555136Y3935374D01*
X3547110Y3935882D01*
X2407310Y3935882D01*
X2403449Y3936644D01*
X2400147Y3938879D01*
X1781403Y4557623D01*
X1779066Y4561281D01*
X1778457Y4565548D01*
X1779727Y4569714D01*
X1782572Y4573016D01*
X1786534Y4574743D01*
X1788464Y4575149D01*
X1801368Y4579620D01*
X1813509Y4585766D01*
X1824736Y4593488D01*
X1834896Y4602632D01*
X1843684Y4613046D01*
X1850999Y4624527D01*
X1856739Y4636922D01*
X1860804Y4649927D01*
X1863089Y4663389D01*
X1863496Y4677003D01*
X1862175Y4690567D01*
X1858975Y4703826D01*
X1854098Y4716576D01*
X1847545Y4728514D01*
X1839468Y4739487D01*
X1829968Y4749292D01*
X1819249Y4757775D01*
X1807514Y4764684D01*
X1794967Y4770018D01*
X1781810Y4773625D01*
X1768297Y4775454D01*
X1754682Y4775454D01*
X1741170Y4773625D01*
X1728012Y4770018D01*
X1715465Y4764684D01*
X1703730Y4757775D01*
X1692960Y4749241D01*
X1689658Y4746955D01*
X1685747Y4746142D01*
X1681835Y4746904D01*
X1678482Y4749088D01*
X1676247Y4752390D01*
X1675485Y4756302D01*
X1675485Y4845151D01*
X1676247Y4848961D01*
X1678330Y4852212D01*
X1681530Y4854448D01*
X1685289Y4855311D01*
X1689150Y4854702D01*
X1692452Y4852720D01*
X1698243Y4847488D01*
X1709470Y4839766D01*
X1721662Y4833620D01*
X1734515Y4829149D01*
X1747875Y4826457D01*
X1761489Y4825542D01*
X1775104Y4826457D01*
X1788464Y4829149D01*
X1801368Y4833620D01*
X1813509Y4839766D01*
X1824736Y4847488D01*
X1834896Y4856632D01*
X1843684Y4867046D01*
X1850999Y4878527D01*
X1856739Y4890922D01*
X1860804Y4903927D01*
X1863089Y4917389D01*
X1863496Y4931003D01*
X1862175Y4944567D01*
X1858975Y4957876D01*
X1854098Y4970576D01*
X1847545Y4982514D01*
X1839468Y4993538D01*
X1829968Y5003342D01*
X1819249Y5011775D01*
X1807514Y5018735D01*
X1794967Y5024069D01*
X1781810Y5027625D01*
X1768297Y5029454D01*
X1754682Y5029454D01*
X1741170Y5027625D01*
X1728012Y5024069D01*
X1715465Y5018735D01*
X1703730Y5011775D01*
X1692960Y5003241D01*
X1689658Y5001006D01*
X1685747Y5000142D01*
X1681835Y5000904D01*
X1678482Y5003088D01*
X1676247Y5006390D01*
X1675485Y5010302D01*
X1675485Y5099151D01*
X1676247Y5102961D01*
X1678330Y5106212D01*
X1681530Y5108448D01*
X1685289Y5109311D01*
X1689150Y5108702D01*
X1692452Y5106670D01*
X1698243Y5101488D01*
X1709470Y5093766D01*
X1721662Y5087620D01*
X1734515Y5083149D01*
X1747875Y5080406D01*
X1761489Y5079492D01*
X1775104Y5080406D01*
X1788464Y5083149D01*
X1801368Y5087620D01*
X1813509Y5093766D01*
X1824736Y5101488D01*
X1834896Y5110632D01*
X1843684Y5121046D01*
X1850999Y5132527D01*
X1856739Y5144922D01*
X1860804Y5157927D01*
X1863089Y5171389D01*
X1863496Y5185003D01*
X1862175Y5198567D01*
X1858975Y5211826D01*
X1854098Y5224576D01*
X1847545Y5236514D01*
X1839468Y5247487D01*
X1829968Y5257292D01*
X1819249Y5265775D01*
X1807514Y5272684D01*
X1794967Y5278018D01*
X1781810Y5281625D01*
X1768297Y5283454D01*
X1754682Y5283454D01*
X1741170Y5281625D01*
X1728012Y5278018D01*
X1715465Y5272684D01*
X1703730Y5265775D01*
X1692960Y5257241D01*
X1689658Y5254955D01*
X1685747Y5254142D01*
X1681835Y5254904D01*
X1678482Y5257088D01*
X1676247Y5260390D01*
X1675485Y5264302D01*
X1675485Y5323332D01*
X1676247Y5327243D01*
X1678482Y5330545D01*
X1681734Y5332730D01*
X1685645Y5333492D01*
X1837131Y5333492D01*
X1843430Y5334203D01*
X1848916Y5336133D01*
X1853793Y5339181D01*
X1857908Y5343296D01*
X1860956Y5348173D01*
X1862886Y5353659D01*
X1863598Y5359958D01*
X1863598Y5364530D01*
X1864360Y5368442D01*
X1866595Y5371693D01*
X1869897Y5373928D01*
X1873757Y5374690D01*
X1907438Y5374690D01*
X1917446Y5375452D01*
X1921865Y5375148D01*
X1925777Y5372912D01*
X1928317Y5369255D01*
X1929028Y5364835D01*
X1927809Y5360517D01*
X1922881Y5351576D01*
X1918004Y5338826D01*
X1914804Y5325567D01*
X1913483Y5312003D01*
X1913940Y5298389D01*
X1916175Y5284927D01*
X1920239Y5271922D01*
X1925980Y5259527D01*
X1933295Y5248046D01*
X1942084Y5237632D01*
X1952243Y5228488D01*
X1963470Y5220766D01*
X1975612Y5214620D01*
X1988515Y5210149D01*
X2001875Y5207406D01*
X2015489Y5206492D01*
X2029104Y5207406D01*
X2042464Y5210149D01*
X2055368Y5214620D01*
X2067509Y5220766D01*
X2078736Y5228488D01*
X2088896Y5237632D01*
X2097684Y5248046D01*
X2104999Y5259527D01*
X2110740Y5271922D01*
X2114804Y5284927D01*
X2117039Y5298389D01*
X2117496Y5312003D01*
X2116175Y5325567D01*
X2112975Y5338826D01*
X2108098Y5351576D01*
X2101545Y5363514D01*
X2093468Y5374487D01*
X2083968Y5384292D01*
X2073249Y5392775D01*
X2061514Y5399684D01*
X2048967Y5405018D01*
X2035810Y5408625D01*
X2022297Y5410454D01*
X2008682Y5410454D01*
X1995170Y5408625D01*
X1993239Y5408117D01*
X1988820Y5407863D01*
X1984756Y5409539D01*
X1981758Y5412790D01*
X1980438Y5417007D01*
X1980996Y5421376D01*
X1983384Y5425084D01*
X2060956Y5502656D01*
X2064257Y5504891D01*
X2068118Y5505653D01*
X6125057Y5505653D01*
X6133084Y5506161D01*
X6135166Y5506466D01*
X6142939Y5508244D01*
X6152286Y5511952D01*
X6154166Y5512917D01*
X6162598Y5518353D01*
X6168644Y5523738D01*
X6958228Y6313271D01*
X6961530Y6315506D01*
X6965391Y6316268D01*
X6969302Y6315506D01*
X6972604Y6313271D01*
X6977735Y6308191D01*
X6989673Y6298793D01*
X7002678Y6290919D01*
X7016546Y6284671D01*
X7031075Y6280150D01*
X7046010Y6277406D01*
X7061200Y6276492D01*
X7076389Y6277406D01*
X7091324Y6280150D01*
X7105853Y6284671D01*
X7119721Y6290919D01*
X7132726Y6298793D01*
X7144664Y6308191D01*
X7155434Y6318910D01*
X7164781Y6330899D01*
X7172655Y6343904D01*
X7178903Y6357772D01*
X7183424Y6372250D01*
X7186168Y6387236D01*
X7187133Y6402730D01*
X7187133Y6602069D01*
X7186168Y6617563D01*
X7183424Y6632549D01*
X7178903Y6647027D01*
X7172655Y6660896D01*
X7164781Y6673900D01*
X7155434Y6685889D01*
X7144664Y6696608D01*
X7132726Y6706006D01*
X7119721Y6713880D01*
X7105853Y6720128D01*
X7091324Y6724650D01*
X7076389Y6727393D01*
X7061200Y6728307D01*
X7046010Y6727393D01*
X7031075Y6724650D01*
X7016546Y6720128D01*
X7002678Y6713880D01*
X6989673Y6706006D01*
X6977735Y6696608D01*
X6966966Y6685889D01*
X6957618Y6673900D01*
X6949744Y6660896D01*
X6943496Y6647027D01*
X6938975Y6632549D01*
X6936231Y6617563D01*
X6935317Y6602069D01*
X6935317Y6466840D01*
X6934504Y6462928D01*
X6932320Y6459677D01*
X6103112Y5630468D01*
X6099810Y5628233D01*
X6095949Y5627471D01*
X4225086Y5627471D01*
X4221276Y5628182D01*
X4218076Y5630265D01*
X4215841Y5633415D01*
X4214926Y5637123D01*
X4217670Y5652465D01*
X4217670Y5662472D01*
X4216095Y5671870D01*
X4216298Y5676239D01*
X4218381Y5680100D01*
X4221835Y5682742D01*
X4226102Y5683707D01*
X5757011Y5683707D01*
X5765038Y5684215D01*
X5767120Y5684520D01*
X5774893Y5686298D01*
X5784240Y5690006D01*
X5786120Y5690971D01*
X5794552Y5696407D01*
X5800598Y5701792D01*
X6412128Y6313271D01*
X6415430Y6315506D01*
X6419291Y6316268D01*
X6423202Y6315506D01*
X6426504Y6313271D01*
X6431635Y6308191D01*
X6443573Y6298793D01*
X6456578Y6290919D01*
X6470446Y6284671D01*
X6484975Y6280150D01*
X6499910Y6277406D01*
X6515100Y6276492D01*
X6530289Y6277406D01*
X6545224Y6280150D01*
X6559753Y6284671D01*
X6573621Y6290919D01*
X6586626Y6298793D01*
X6598564Y6308191D01*
X6609334Y6318910D01*
X6618681Y6330899D01*
X6626555Y6343904D01*
X6632803Y6357772D01*
X6637324Y6372250D01*
X6640068Y6387236D01*
X6641033Y6402730D01*
X6641033Y6602069D01*
X6640068Y6617563D01*
X6637324Y6632549D01*
X6632803Y6647027D01*
X6626555Y6660896D01*
X6618681Y6673900D01*
X6609334Y6685889D01*
X6598564Y6696608D01*
X6586626Y6706006D01*
X6573621Y6713880D01*
X6559753Y6720128D01*
X6545224Y6724650D01*
X6530289Y6727393D01*
X6515100Y6728307D01*
X6499910Y6727393D01*
X6484975Y6724650D01*
X6470446Y6720128D01*
X6456578Y6713880D01*
X6443573Y6706006D01*
X6431635Y6696608D01*
X6420866Y6685889D01*
X6411518Y6673900D01*
X6403644Y6660896D01*
X6397396Y6647027D01*
X6392875Y6632549D01*
X6390132Y6617563D01*
X6389217Y6602069D01*
X6389217Y6466840D01*
X6388404Y6462928D01*
X6386220Y6459677D01*
X5735066Y5808522D01*
X5731764Y5806287D01*
X5727903Y5805525D01*
X2246934Y5805525D01*
X2236470Y5804662D01*
X2226716Y5802172D01*
X2217521Y5798159D01*
X2209088Y5792673D01*
X2201722Y5785866D01*
X2195525Y5777890D01*
X2190750Y5769051D01*
X2187498Y5759551D01*
X2185822Y5749645D01*
X2185822Y5739587D01*
X2187397Y5730189D01*
X2187194Y5725820D01*
X2185111Y5721959D01*
X2181656Y5719318D01*
X2177389Y5718352D01*
X2040432Y5718352D01*
X2029968Y5717489D01*
X2020214Y5715050D01*
X2011019Y5710986D01*
X2002586Y5705500D01*
X1995220Y5698693D01*
X1989023Y5690768D01*
X1984248Y5681929D01*
X1980996Y5672429D01*
X1979320Y5662472D01*
X1979320Y5652465D01*
X1980996Y5642508D01*
X1984248Y5633008D01*
X1989023Y5624169D01*
X1992782Y5619343D01*
X1994458Y5616143D01*
X1994916Y5612485D01*
X1994001Y5608929D01*
X1991969Y5605932D01*
X1885492Y5499506D01*
X1882190Y5497271D01*
X1878330Y5496509D01*
X1873757Y5496509D01*
X1869897Y5497271D01*
X1866595Y5499506D01*
X1864360Y5502757D01*
X1863598Y5506669D01*
X1863598Y5511241D01*
X1862886Y5517540D01*
X1860956Y5523026D01*
X1857908Y5527903D01*
X1853793Y5532018D01*
X1848916Y5535117D01*
X1843430Y5536996D01*
X1837131Y5537708D01*
X1685645Y5537708D01*
X1681734Y5538470D01*
X1678482Y5540705D01*
X1676247Y5544007D01*
X1675485Y5547868D01*
X1675485Y5860694D01*
X1676247Y5864504D01*
X1678381Y5867755D01*
X1681581Y5869990D01*
X1685340Y5870803D01*
X1689201Y5870194D01*
X1692503Y5868162D01*
X1700326Y5860948D01*
X1708759Y5855462D01*
X1717954Y5851398D01*
X1727707Y5848959D01*
X1738172Y5848096D01*
X3492500Y5848096D01*
X3500577Y5848553D01*
X3502660Y5848858D01*
X3512413Y5851296D01*
X3519779Y5854344D01*
X3528364Y5859526D01*
X3530092Y5860796D01*
X3536137Y5866130D01*
X3814724Y6144768D01*
X3820109Y6150813D01*
X3821277Y6152388D01*
X3826560Y6161227D01*
X3829507Y6164427D01*
X3835146Y6168288D01*
X3845306Y6177432D01*
X3850741Y6183884D01*
X3854246Y6186525D01*
X3858514Y6187490D01*
X3939286Y6187490D01*
X3943553Y6186525D01*
X3947058Y6183884D01*
X3952494Y6177432D01*
X3962654Y6168288D01*
X3973880Y6160566D01*
X3986022Y6154420D01*
X3998925Y6149949D01*
X4012285Y6147206D01*
X4025900Y6146292D01*
X4039514Y6147206D01*
X4052874Y6149949D01*
X4065778Y6154420D01*
X4077919Y6160566D01*
X4089146Y6168288D01*
X4099306Y6177432D01*
X4108094Y6187846D01*
X4115409Y6199327D01*
X4121150Y6211722D01*
X4125214Y6224727D01*
X4127449Y6238189D01*
X4127906Y6251803D01*
X4126585Y6265367D01*
X4123385Y6278626D01*
X4118508Y6291376D01*
X4113022Y6301384D01*
X4111802Y6305397D01*
X4112310Y6309512D01*
X4114444Y6313119D01*
X4117848Y6315557D01*
X4121912Y6316421D01*
X4251248Y6316421D01*
X4255160Y6315659D01*
X4258411Y6313424D01*
X4373321Y6198565D01*
X4379366Y6193180D01*
X4387850Y6187744D01*
X4389678Y6186779D01*
X4399026Y6183071D01*
X4406798Y6181293D01*
X4408881Y6180988D01*
X4416958Y6180480D01*
X5367731Y6180480D01*
X5375808Y6180988D01*
X5377891Y6181293D01*
X5385663Y6183071D01*
X5395010Y6186779D01*
X5405323Y6193180D01*
X5411368Y6198565D01*
X5611774Y6398971D01*
X5617159Y6405016D01*
X5622594Y6413500D01*
X5623560Y6415328D01*
X5627268Y6424676D01*
X5629046Y6432448D01*
X5629351Y6434531D01*
X5629859Y6442608D01*
X5629859Y6529984D01*
X5630621Y6533845D01*
X5632856Y6537147D01*
X5698744Y6603034D01*
X5702046Y6605270D01*
X5705957Y6606031D01*
X5709818Y6605270D01*
X5713120Y6603034D01*
X5715304Y6599783D01*
X5716117Y6595872D01*
X5716117Y6402730D01*
X5717032Y6387236D01*
X5719775Y6372250D01*
X5724296Y6357772D01*
X5730544Y6343904D01*
X5738418Y6330899D01*
X5747766Y6318910D01*
X5758535Y6308191D01*
X5770473Y6298793D01*
X5783478Y6290919D01*
X5797346Y6284671D01*
X5811875Y6280150D01*
X5826810Y6277406D01*
X5842000Y6276492D01*
X5857189Y6277406D01*
X5872124Y6280150D01*
X5886653Y6284671D01*
X5900521Y6290919D01*
X5913526Y6298793D01*
X5925464Y6308191D01*
X5936234Y6318910D01*
X5945581Y6330899D01*
X5953455Y6343904D01*
X5959703Y6357772D01*
X5964224Y6372250D01*
X5966968Y6387236D01*
X5967933Y6402730D01*
X5967933Y6602069D01*
X5966968Y6617563D01*
X5964224Y6632549D01*
X5959703Y6647027D01*
X5953455Y6660896D01*
X5945581Y6673900D01*
X5936234Y6685889D01*
X5925464Y6696608D01*
X5913526Y6706006D01*
X5900521Y6713880D01*
X5886653Y6720128D01*
X5872124Y6724650D01*
X5857189Y6727393D01*
X5847537Y6727952D01*
X5843778Y6728917D01*
X5840679Y6731203D01*
X5838647Y6734505D01*
X5837986Y6738315D01*
X5838799Y6742074D01*
X5840984Y6745274D01*
X5944717Y6849008D01*
X5948019Y6851243D01*
X5951880Y6852005D01*
X7369809Y6852005D01*
X7377836Y6852513D01*
X7379919Y6852818D01*
X7387691Y6854596D01*
X7397038Y6858304D01*
X7398918Y6859270D01*
X7407351Y6864705D01*
X7413396Y6870090D01*
X7461859Y6918502D01*
X7465161Y6920738D01*
X7469022Y6921500D01*
X7472781Y6921500D01*
X7476693Y6920738D01*
X7479944Y6918502D01*
X7482179Y6915251D01*
X7482941Y6911340D01*
X7482179Y6907428D01*
X7479944Y6904177D01*
X7373670Y6797852D01*
X7368286Y6791807D01*
X7362850Y6783324D01*
X7361885Y6781495D01*
X7358176Y6772148D01*
X7356398Y6764375D01*
X7356094Y6762292D01*
X7355586Y6754215D01*
X7355586Y6214872D01*
X7354824Y6210960D01*
X7352588Y6207709D01*
X5117439Y3972509D01*
X5110835Y3964787D01*
X5106619Y3958031D01*
X5105654Y3956151D01*
X5102606Y3948785D01*
X5100167Y3939032D01*
X5099862Y3936949D01*
X5099405Y3928922D01*
X5099405Y2268423D01*
X5098846Y2265172D01*
X5096865Y2259330D01*
X5094274Y2246376D01*
X5093411Y2232863D01*
X5093411Y1983536D01*
X5094274Y1970024D01*
X5096865Y1957070D01*
X5101082Y1944573D01*
X5106924Y1932736D01*
X5114239Y1921764D01*
X5122976Y1911857D01*
X5132882Y1903171D01*
X5143855Y1895805D01*
X5155692Y1890014D01*
X5168188Y1885746D01*
X5181142Y1883156D01*
X5194300Y1882292D01*
X5207457Y1883156D01*
X5220411Y1885746D01*
X5232908Y1890014D01*
X5244744Y1895805D01*
X5255717Y1903171D01*
X5265623Y1911857D01*
X5274360Y1921764D01*
X5281676Y1932736D01*
X5287518Y1944573D01*
X5291734Y1957070D01*
X5294325Y1970024D01*
X5295188Y1983536D01*
X5295188Y2232863D01*
X5294325Y2246376D01*
X5291734Y2259330D01*
X5287518Y2271826D01*
X5281676Y2283663D01*
X5274360Y2294636D01*
X5265623Y2304542D01*
X5255717Y2313228D01*
X5244744Y2320594D01*
X5232908Y2326386D01*
X5228082Y2328062D01*
X5224475Y2330196D01*
X5222036Y2333548D01*
X5221173Y2337663D01*
X5221173Y3824122D01*
X5221884Y3827729D01*
X5223764Y3830878D01*
X5226659Y3833114D01*
X5230164Y3834231D01*
X5233873Y3833977D01*
X5237429Y3833063D01*
X5247843Y3832199D01*
X7784439Y3832199D01*
X7794904Y3833063D01*
X7804658Y3835552D01*
X7813852Y3839565D01*
X7822285Y3845051D01*
X7829651Y3851859D01*
X7835849Y3859834D01*
X7840624Y3868674D01*
X7843875Y3878173D01*
X7845552Y3888079D01*
X7845552Y3898137D01*
X7843875Y3908044D01*
X7840624Y3917543D01*
X7835849Y3926382D01*
X7829651Y3934358D01*
X7822285Y3941165D01*
X7813852Y3946651D01*
X7804658Y3950665D01*
X7794904Y3953154D01*
X7784439Y3954018D01*
X5295747Y3954018D01*
X5291836Y3954779D01*
X5288584Y3957015D01*
X5286349Y3960266D01*
X5285587Y3964178D01*
X5286349Y3968089D01*
X5288584Y3971340D01*
X7459319Y6142126D01*
X7464704Y6148171D01*
X7470140Y6156655D01*
X7471105Y6158484D01*
X7474813Y6167831D01*
X7476591Y6175603D01*
X7476896Y6177686D01*
X7477404Y6185763D01*
X7477404Y6337909D01*
X7478318Y6342176D01*
X7480960Y6345682D01*
X7484821Y6347714D01*
X7489190Y6347968D01*
X7493253Y6346342D01*
X7496251Y6343192D01*
X7503718Y6330899D01*
X7513066Y6318910D01*
X7523835Y6308191D01*
X7535773Y6298793D01*
X7548778Y6290919D01*
X7562646Y6284671D01*
X7577175Y6280150D01*
X7592110Y6277406D01*
X7607300Y6276492D01*
X7622489Y6277406D01*
X7637424Y6280150D01*
X7651953Y6284671D01*
X7665821Y6290919D01*
X7678826Y6298793D01*
X7690764Y6308191D01*
X7701534Y6318910D01*
X7710881Y6330899D01*
X7718755Y6343904D01*
X7725003Y6357772D01*
X7729524Y6372250D01*
X7732268Y6387236D01*
X7733233Y6402730D01*
X7733233Y6602069D01*
X7732268Y6617563D01*
X7729524Y6632549D01*
X7725003Y6647027D01*
X7718755Y6660896D01*
X7710881Y6673900D01*
X7701534Y6685889D01*
X7690764Y6696608D01*
X7678826Y6706006D01*
X7665821Y6713880D01*
X7651953Y6720128D01*
X7637424Y6724650D01*
X7622489Y6727393D01*
X7607300Y6728307D01*
X7592110Y6727393D01*
X7577175Y6724650D01*
X7562646Y6720128D01*
X7548778Y6713880D01*
X7535773Y6706006D01*
X7523835Y6696608D01*
X7513066Y6685889D01*
X7503718Y6673900D01*
X7496251Y6661607D01*
X7493253Y6658457D01*
X7489190Y6656831D01*
X7484821Y6657086D01*
X7480960Y6659118D01*
X7478318Y6662623D01*
X7477404Y6666890D01*
X7477404Y6725107D01*
X7478166Y6729018D01*
X7480401Y6732270D01*
X7666634Y6918502D01*
X7669885Y6920738D01*
X7673797Y6921500D01*
X8091931Y6921500D01*
X8095843Y6920738D01*
X8099094Y6918502D01*
X8101330Y6915251D01*
X8102092Y6911340D01*
X8102092Y1814068D01*
X8101330Y1810156D01*
X8099094Y1806905D01*
X8095843Y1804670D01*
X8091931Y1803907D01*
X2930398Y1803907D01*
X2926486Y1804670D01*
X2923235Y1806905D01*
X2921000Y1810156D01*
X2920238Y1814068D01*
X2920238Y1990293D01*
X2919526Y1996592D01*
X2917596Y2002078D01*
X2914548Y2006955D01*
X2910433Y2011070D01*
X2905556Y2014118D01*
X2900070Y2016048D01*
X2893771Y2016760D01*
X2708198Y2016760D01*
X2701899Y2016048D01*
X2696413Y2014118D01*
X2691536Y2011070D01*
X2687421Y2006955D01*
X2684373Y2002078D01*
X2682443Y1996592D01*
X2681732Y1990293D01*
X2681732Y1814068D01*
X2680970Y1810156D01*
X2678734Y1806905D01*
X2675483Y1804670D01*
X2671572Y1803907D01*
G37*

%LPC*%
G36*
X3216198Y1861566D02*
G01*
X3401771Y1861566D01*
X3408070Y1862277D01*
X3413556Y1864207D01*
X3418433Y1867255D01*
X3422548Y1871370D01*
X3425596Y1876247D01*
X3427526Y1881733D01*
X3428237Y1888032D01*
X3428237Y1907235D01*
X3427526Y1913534D01*
X3425596Y1919020D01*
X3422548Y1923897D01*
X3418433Y1928012D01*
X3413556Y1931060D01*
X3408070Y1932990D01*
X3401771Y1933702D01*
X3216198Y1933702D01*
X3209899Y1932990D01*
X3204413Y1931060D01*
X3199536Y1928012D01*
X3195421Y1923897D01*
X3192373Y1919020D01*
X3190443Y1913534D01*
X3189732Y1907235D01*
X3189732Y1888032D01*
X3190443Y1881733D01*
X3192373Y1876247D01*
X3195421Y1871370D01*
X3199536Y1867255D01*
X3204413Y1864207D01*
X3209899Y1862277D01*
G37*
G36*
X6692900Y1882292D02*
G01*
X6706057Y1883156D01*
X6719011Y1885746D01*
X6731508Y1890014D01*
X6743344Y1895805D01*
X6754317Y1903171D01*
X6764223Y1911857D01*
X6772960Y1921764D01*
X6780275Y1932736D01*
X6786118Y1944573D01*
X6790334Y1957070D01*
X6792925Y1970024D01*
X6793788Y1983536D01*
X6793788Y2040788D01*
X6794449Y2044395D01*
X6796379Y2047544D01*
X6799275Y2049780D01*
X6802780Y2050897D01*
X6806438Y2050643D01*
X6816242Y2048154D01*
X6826656Y2047290D01*
X6848551Y2047290D01*
X6852412Y2046528D01*
X6855714Y2044293D01*
X6857898Y2041042D01*
X6858711Y2037130D01*
X6858711Y1983536D01*
X6859574Y1970024D01*
X6862165Y1957070D01*
X6866381Y1944573D01*
X6872224Y1932736D01*
X6879539Y1921764D01*
X6888276Y1911857D01*
X6898182Y1903171D01*
X6909155Y1895805D01*
X6920992Y1890014D01*
X6933488Y1885746D01*
X6946442Y1883156D01*
X6959600Y1882292D01*
X6972757Y1883156D01*
X6985711Y1885746D01*
X6998208Y1890014D01*
X7010044Y1895805D01*
X7021017Y1903171D01*
X7030923Y1911857D01*
X7039660Y1921764D01*
X7046975Y1932736D01*
X7052818Y1944573D01*
X7057034Y1957070D01*
X7059625Y1970024D01*
X7060488Y1983536D01*
X7060488Y2216302D01*
X7061301Y2220163D01*
X7063486Y2223465D01*
X7066788Y2225649D01*
X7070648Y2226462D01*
X7074560Y2225649D01*
X7077862Y2223465D01*
X7109714Y2191613D01*
X7111898Y2188311D01*
X7112711Y2184400D01*
X7112711Y1983536D01*
X7113574Y1970024D01*
X7116165Y1957070D01*
X7120381Y1944573D01*
X7126224Y1932736D01*
X7133539Y1921764D01*
X7142276Y1911857D01*
X7152182Y1903171D01*
X7163155Y1895805D01*
X7174992Y1890014D01*
X7187488Y1885746D01*
X7200442Y1883156D01*
X7213600Y1882292D01*
X7226757Y1883156D01*
X7239711Y1885746D01*
X7252208Y1890014D01*
X7264044Y1895805D01*
X7275017Y1903171D01*
X7284923Y1911857D01*
X7293660Y1921764D01*
X7300975Y1932736D01*
X7306818Y1944573D01*
X7311034Y1957070D01*
X7313625Y1970024D01*
X7314488Y1983536D01*
X7314488Y2232863D01*
X7313625Y2246376D01*
X7311034Y2259330D01*
X7306818Y2271826D01*
X7300975Y2283663D01*
X7293660Y2294636D01*
X7284923Y2304542D01*
X7275017Y2313228D01*
X7264044Y2320594D01*
X7252208Y2326386D01*
X7239711Y2330653D01*
X7226757Y2333244D01*
X7213600Y2334107D01*
X7200442Y2333244D01*
X7187488Y2330653D01*
X7174992Y2326386D01*
X7162901Y2320442D01*
X7158837Y2319426D01*
X7154722Y2320086D01*
X7151217Y2322372D01*
X7036460Y2437130D01*
X7030415Y2442514D01*
X7021931Y2447950D01*
X7020102Y2448915D01*
X7010755Y2452624D01*
X7002983Y2454402D01*
X7000900Y2454706D01*
X6992823Y2455214D01*
X6826656Y2455214D01*
X6816242Y2454351D01*
X6806488Y2451862D01*
X6797294Y2447848D01*
X6788861Y2442362D01*
X6781444Y2435555D01*
X6775297Y2427579D01*
X6770522Y2418740D01*
X6767220Y2409240D01*
X6765594Y2399334D01*
X6765594Y2389276D01*
X6767220Y2379370D01*
X6770522Y2369870D01*
X6775297Y2361031D01*
X6781444Y2353056D01*
X6788861Y2346248D01*
X6797294Y2340762D01*
X6806488Y2336749D01*
X6816242Y2334260D01*
X6826656Y2333396D01*
X6894880Y2333396D01*
X6899046Y2332482D01*
X6902500Y2329942D01*
X6904583Y2326182D01*
X6904939Y2321915D01*
X6903466Y2317851D01*
X6900519Y2314803D01*
X6898182Y2313228D01*
X6888276Y2304542D01*
X6879539Y2294636D01*
X6872224Y2283663D01*
X6866381Y2271826D01*
X6862165Y2259330D01*
X6859574Y2246376D01*
X6858711Y2232863D01*
X6858711Y2179269D01*
X6857898Y2175357D01*
X6855714Y2172106D01*
X6852412Y2169871D01*
X6848551Y2169109D01*
X6826656Y2169109D01*
X6816242Y2168245D01*
X6806438Y2165756D01*
X6802780Y2165502D01*
X6799275Y2166620D01*
X6796379Y2168855D01*
X6794449Y2172004D01*
X6793788Y2175611D01*
X6793788Y2232863D01*
X6792925Y2246376D01*
X6790334Y2259330D01*
X6786118Y2271826D01*
X6780275Y2283663D01*
X6772960Y2294636D01*
X6764223Y2304542D01*
X6754317Y2313228D01*
X6743344Y2320594D01*
X6731508Y2326386D01*
X6719011Y2330653D01*
X6706057Y2333244D01*
X6692900Y2334107D01*
X6679742Y2333244D01*
X6666788Y2330653D01*
X6654292Y2326386D01*
X6642455Y2320594D01*
X6631482Y2313228D01*
X6621576Y2304542D01*
X6612839Y2294636D01*
X6605524Y2283663D01*
X6600545Y2273554D01*
X6598310Y2270556D01*
X6595109Y2268575D01*
X6591452Y2267864D01*
X5905601Y2267864D01*
X5895136Y2267000D01*
X5885383Y2264562D01*
X5876188Y2260498D01*
X5867755Y2255012D01*
X5860389Y2248204D01*
X5854192Y2240280D01*
X5849416Y2231440D01*
X5846165Y2221941D01*
X5844489Y2211984D01*
X5844489Y2201976D01*
X5846165Y2192020D01*
X5849416Y2182520D01*
X5854192Y2173681D01*
X5860389Y2165756D01*
X5867755Y2158949D01*
X5876188Y2153462D01*
X5885383Y2149398D01*
X5895136Y2146960D01*
X5905601Y2146096D01*
X6564680Y2146096D01*
X6568592Y2145284D01*
X6571843Y2143099D01*
X6589014Y2125929D01*
X6591198Y2122627D01*
X6592011Y2118766D01*
X6592011Y1983536D01*
X6592874Y1970024D01*
X6595465Y1957070D01*
X6599681Y1944573D01*
X6605524Y1932736D01*
X6612839Y1921764D01*
X6621576Y1911857D01*
X6631482Y1903171D01*
X6642455Y1895805D01*
X6654292Y1890014D01*
X6666788Y1885746D01*
X6679742Y1883156D01*
G37*
G36*
X5448300Y1882292D02*
G01*
X5461457Y1883156D01*
X5474411Y1885746D01*
X5486908Y1890014D01*
X5498744Y1895805D01*
X5509717Y1903171D01*
X5519623Y1911857D01*
X5528360Y1921764D01*
X5535676Y1932736D01*
X5541518Y1944573D01*
X5545734Y1957070D01*
X5548325Y1970024D01*
X5549188Y1983536D01*
X5549188Y2172970D01*
X5550001Y2176830D01*
X5552186Y2180132D01*
X5584037Y2212035D01*
X5587034Y2214067D01*
X5590590Y2214981D01*
X5594197Y2214524D01*
X5658459Y2214524D01*
X5658459Y2282190D01*
X5659221Y2286101D01*
X5661406Y2289403D01*
X6423914Y3051860D01*
X6427165Y3054045D01*
X6431076Y3054858D01*
X7683804Y3054858D01*
X7694218Y3055721D01*
X7703972Y3058160D01*
X7713167Y3062224D01*
X7721600Y3067710D01*
X7729016Y3074517D01*
X7735163Y3082442D01*
X7739938Y3091281D01*
X7743240Y3100781D01*
X7744866Y3110738D01*
X7744866Y3120745D01*
X7743240Y3130702D01*
X7739938Y3140202D01*
X7735163Y3149041D01*
X7729016Y3156966D01*
X7721600Y3163773D01*
X7713167Y3169259D01*
X7703972Y3173323D01*
X7694218Y3175762D01*
X7683804Y3176625D01*
X6401968Y3176625D01*
X6393891Y3176168D01*
X6391808Y3175863D01*
X6382054Y3173425D01*
X6374688Y3170377D01*
X6366103Y3165195D01*
X6364376Y3163925D01*
X6358331Y3158591D01*
X5517591Y2317800D01*
X5514746Y2315819D01*
X5511393Y2314905D01*
X5507939Y2315159D01*
X5504738Y2316530D01*
X5498744Y2320594D01*
X5486908Y2326386D01*
X5474411Y2330653D01*
X5461457Y2333244D01*
X5448300Y2334107D01*
X5435142Y2333244D01*
X5422188Y2330653D01*
X5409692Y2326386D01*
X5397855Y2320594D01*
X5386882Y2313228D01*
X5376976Y2304542D01*
X5368239Y2294636D01*
X5360924Y2283663D01*
X5355082Y2271826D01*
X5350865Y2259330D01*
X5348274Y2246376D01*
X5347411Y2232863D01*
X5347411Y1983536D01*
X5348274Y1970024D01*
X5350865Y1957070D01*
X5355082Y1944573D01*
X5360924Y1932736D01*
X5368239Y1921764D01*
X5376976Y1911857D01*
X5386882Y1903171D01*
X5397855Y1895805D01*
X5409692Y1890014D01*
X5422188Y1885746D01*
X5435142Y1883156D01*
G37*
G36*
X7511440Y1892554D02*
G01*
X7518044Y1895805D01*
X7529017Y1903171D01*
X7538923Y1911857D01*
X7547660Y1921764D01*
X7554975Y1932736D01*
X7560818Y1944573D01*
X7565034Y1957070D01*
X7567625Y1970024D01*
X7568488Y1983536D01*
X7568488Y2001824D01*
X7511440Y2001824D01*
G37*
G36*
X5746140Y1892554D02*
G01*
X5752744Y1895805D01*
X5763717Y1903171D01*
X5773623Y1911857D01*
X5782360Y1921764D01*
X5789676Y1932736D01*
X5795518Y1944573D01*
X5799734Y1957070D01*
X5802325Y1970024D01*
X5803188Y1983536D01*
X5803188Y2001824D01*
X5746140Y2001824D01*
G37*
G36*
X7423759Y1892554D02*
G01*
X7423759Y2001824D01*
X7366711Y2001824D01*
X7366711Y1983536D01*
X7367574Y1970024D01*
X7370165Y1957070D01*
X7374381Y1944573D01*
X7380224Y1932736D01*
X7387539Y1921764D01*
X7396276Y1911857D01*
X7406182Y1903171D01*
X7417155Y1895805D01*
G37*
G36*
X5658459Y1892554D02*
G01*
X5658459Y2001824D01*
X5601411Y2001824D01*
X5601411Y1983536D01*
X5602274Y1970024D01*
X5604865Y1957070D01*
X5609082Y1944573D01*
X5614924Y1932736D01*
X5622239Y1921764D01*
X5630976Y1911857D01*
X5640882Y1903171D01*
X5651855Y1895805D01*
G37*
G36*
X7511440Y2214524D02*
G01*
X7568488Y2214524D01*
X7568488Y2232863D01*
X7567625Y2246376D01*
X7565034Y2259330D01*
X7560818Y2271826D01*
X7554975Y2283663D01*
X7547660Y2294636D01*
X7538923Y2304542D01*
X7529017Y2313228D01*
X7518044Y2320594D01*
X7511440Y2323846D01*
G37*
G36*
X5746140Y2214524D02*
G01*
X5803188Y2214524D01*
X5803188Y2232863D01*
X5802325Y2246376D01*
X5799734Y2259330D01*
X5795518Y2271826D01*
X5789676Y2283663D01*
X5782360Y2294636D01*
X5773623Y2304542D01*
X5763717Y2313228D01*
X5752744Y2320594D01*
X5746140Y2323846D01*
G37*
G36*
X7366711Y2214524D02*
G01*
X7423759Y2214524D01*
X7423759Y2323846D01*
X7417155Y2320594D01*
X7406182Y2313228D01*
X7396276Y2304542D01*
X7387539Y2294636D01*
X7380224Y2283663D01*
X7374381Y2271826D01*
X7370165Y2259330D01*
X7367574Y2246376D01*
X7366711Y2232863D01*
G37*
G36*
X2798216Y2260142D02*
G01*
X2814980Y2261565D01*
X2831541Y2264765D01*
X2847594Y2269794D01*
X2863037Y2276602D01*
X2877616Y2284984D01*
X2891180Y2294991D01*
X2903575Y2306370D01*
X2914650Y2319070D01*
X2924251Y2332939D01*
X2932277Y2347772D01*
X2938627Y2363368D01*
X2943199Y2379573D01*
X2945942Y2396185D01*
X2946908Y2413000D01*
X2945942Y2429814D01*
X2943199Y2446426D01*
X2938627Y2462631D01*
X2932277Y2478227D01*
X2924251Y2493060D01*
X2914650Y2506929D01*
X2903575Y2519629D01*
X2891180Y2531008D01*
X2877616Y2541016D01*
X2863037Y2549398D01*
X2847594Y2556205D01*
X2831541Y2561234D01*
X2814980Y2564434D01*
X2798216Y2565857D01*
X2781350Y2565349D01*
X2764688Y2563063D01*
X2748381Y2558897D01*
X2732582Y2553004D01*
X2717546Y2545384D01*
X2703474Y2536190D01*
X2690469Y2525471D01*
X2678684Y2513431D01*
X2668371Y2500122D01*
X2659532Y2485745D01*
X2652369Y2470556D01*
X2646883Y2454605D01*
X2643174Y2438146D01*
X2641346Y2421432D01*
X2641346Y2404567D01*
X2643174Y2387854D01*
X2646883Y2371394D01*
X2652369Y2355443D01*
X2659532Y2340254D01*
X2668371Y2325878D01*
X2678684Y2312568D01*
X2690469Y2300528D01*
X2703474Y2289810D01*
X2717546Y2280615D01*
X2732582Y2272995D01*
X2748381Y2267102D01*
X2764688Y2262936D01*
X2781350Y2260650D01*
G37*
G36*
X3306216Y2260142D02*
G01*
X3322980Y2261565D01*
X3339541Y2264765D01*
X3355594Y2269794D01*
X3371037Y2276602D01*
X3385616Y2284984D01*
X3399180Y2294991D01*
X3411575Y2306370D01*
X3422650Y2319070D01*
X3432251Y2332939D01*
X3440277Y2347772D01*
X3446627Y2363368D01*
X3451199Y2379573D01*
X3453942Y2396185D01*
X3454908Y2413000D01*
X3453942Y2429814D01*
X3451199Y2446426D01*
X3446627Y2462631D01*
X3440277Y2478227D01*
X3432251Y2493060D01*
X3422650Y2506929D01*
X3411575Y2519629D01*
X3399180Y2531008D01*
X3385616Y2541016D01*
X3371037Y2549398D01*
X3355594Y2556205D01*
X3339541Y2561234D01*
X3322980Y2564434D01*
X3306216Y2565857D01*
X3289350Y2565349D01*
X3272688Y2563063D01*
X3256381Y2558897D01*
X3240582Y2553004D01*
X3225546Y2545384D01*
X3211474Y2536190D01*
X3198469Y2525471D01*
X3186684Y2513431D01*
X3176371Y2500122D01*
X3167532Y2485745D01*
X3160369Y2470556D01*
X3154883Y2454605D01*
X3151174Y2438146D01*
X3149346Y2421432D01*
X3149346Y2404567D01*
X3151174Y2387854D01*
X3154883Y2371394D01*
X3160369Y2355443D01*
X3167532Y2340254D01*
X3176371Y2325878D01*
X3186684Y2312568D01*
X3198469Y2300528D01*
X3211474Y2289810D01*
X3225546Y2280615D01*
X3240582Y2272995D01*
X3256381Y2267102D01*
X3272688Y2262936D01*
X3289350Y2260650D01*
G37*
G36*
X611886Y2375306D02*
G01*
X691134Y2375306D01*
X703732Y2376220D01*
X715721Y2378811D01*
X727202Y2383078D01*
X737920Y2388971D01*
X747776Y2396286D01*
X756412Y2404973D01*
X763778Y2414778D01*
X769620Y2425547D01*
X773938Y2437028D01*
X776528Y2448966D01*
X777392Y2461209D01*
X776528Y2473401D01*
X773938Y2485390D01*
X769620Y2496870D01*
X763778Y2507640D01*
X756412Y2517444D01*
X747776Y2526131D01*
X737920Y2533446D01*
X727202Y2539339D01*
X715721Y2543606D01*
X703732Y2546197D01*
X691134Y2547112D01*
X611886Y2547112D01*
X599287Y2546197D01*
X587298Y2543606D01*
X575818Y2539339D01*
X565099Y2533446D01*
X555294Y2526131D01*
X546608Y2517444D01*
X539242Y2507640D01*
X533400Y2496870D01*
X529082Y2485390D01*
X526491Y2473401D01*
X525627Y2461209D01*
X526491Y2448966D01*
X529082Y2437028D01*
X533400Y2425547D01*
X539242Y2414778D01*
X546608Y2404973D01*
X555294Y2396286D01*
X565099Y2388971D01*
X575818Y2383078D01*
X587298Y2378811D01*
X599287Y2376220D01*
G37*
G36*
X1077112Y2495550D02*
G01*
X1095908Y2495550D01*
X1114653Y2497429D01*
X1133094Y2501239D01*
X1151077Y2506878D01*
X1168400Y2514295D01*
X1184859Y2523439D01*
X1200302Y2534208D01*
X1214577Y2546451D01*
X1227582Y2560116D01*
X1239062Y2575001D01*
X1249070Y2591003D01*
X1257350Y2607868D01*
X1263904Y2625547D01*
X1268577Y2643784D01*
X1271473Y2662377D01*
X1272387Y2681173D01*
X1271473Y2700020D01*
X1268577Y2718612D01*
X1263904Y2736850D01*
X1257350Y2754528D01*
X1249070Y2771394D01*
X1239062Y2787396D01*
X1227582Y2802280D01*
X1214577Y2815945D01*
X1200302Y2828188D01*
X1184859Y2838958D01*
X1168400Y2848102D01*
X1151077Y2855518D01*
X1133094Y2861157D01*
X1114653Y2864967D01*
X1095908Y2866847D01*
X1077112Y2866847D01*
X1058367Y2864967D01*
X1039926Y2861157D01*
X1021943Y2855518D01*
X1004620Y2848102D01*
X988161Y2838958D01*
X972718Y2828188D01*
X958443Y2815945D01*
X945438Y2802280D01*
X933958Y2787396D01*
X923950Y2771394D01*
X915669Y2754528D01*
X909116Y2736850D01*
X904443Y2718612D01*
X901547Y2700020D01*
X900633Y2681173D01*
X901547Y2662377D01*
X904443Y2643784D01*
X909116Y2625547D01*
X915669Y2607868D01*
X923950Y2591003D01*
X933958Y2575001D01*
X945438Y2560116D01*
X958443Y2546451D01*
X972718Y2534208D01*
X988161Y2523439D01*
X1004620Y2514295D01*
X1021943Y2506878D01*
X1039926Y2501239D01*
X1058367Y2497429D01*
G37*
G36*
X1761489Y2831592D02*
G01*
X1775104Y2832506D01*
X1788464Y2835249D01*
X1801368Y2839720D01*
X1813509Y2845866D01*
X1824736Y2853588D01*
X1834896Y2862732D01*
X1843684Y2873146D01*
X1850999Y2884627D01*
X1856739Y2897022D01*
X1860804Y2910027D01*
X1863089Y2923489D01*
X1863496Y2937103D01*
X1862175Y2950667D01*
X1858975Y2963926D01*
X1854098Y2976676D01*
X1847545Y2988614D01*
X1839468Y2999587D01*
X1829968Y3009392D01*
X1819249Y3017875D01*
X1807514Y3024784D01*
X1794967Y3030118D01*
X1781810Y3033725D01*
X1768297Y3035554D01*
X1754682Y3035554D01*
X1741170Y3033725D01*
X1728012Y3030118D01*
X1715465Y3024784D01*
X1703730Y3017875D01*
X1693011Y3009392D01*
X1683512Y2999587D01*
X1675434Y2988614D01*
X1668881Y2976676D01*
X1664004Y2963926D01*
X1660804Y2950667D01*
X1659483Y2937103D01*
X1659940Y2923489D01*
X1662175Y2910027D01*
X1666239Y2897022D01*
X1671980Y2884627D01*
X1679295Y2873146D01*
X1688134Y2862732D01*
X1698243Y2853588D01*
X1709470Y2845866D01*
X1721662Y2839720D01*
X1734515Y2835249D01*
X1747875Y2832506D01*
G37*
G36*
X2015489Y2958592D02*
G01*
X2029104Y2959506D01*
X2042464Y2962249D01*
X2055368Y2966720D01*
X2067560Y2972866D01*
X2078786Y2980588D01*
X2088896Y2989732D01*
X2094382Y2996184D01*
X2097836Y2998825D01*
X2102104Y2999790D01*
X2373122Y2999790D01*
X2381148Y3000298D01*
X2383231Y3000603D01*
X2391003Y3002381D01*
X2400350Y3006090D01*
X2402230Y3007055D01*
X2410663Y3012490D01*
X2416708Y3017875D01*
X2586177Y3187293D01*
X2589479Y3189528D01*
X2593340Y3190290D01*
X2597912Y3190290D01*
X2601823Y3189528D01*
X2605074Y3187293D01*
X2607310Y3184042D01*
X2608072Y3180130D01*
X2608072Y3155238D01*
X2608783Y3148939D01*
X2610713Y3143453D01*
X2613761Y3138576D01*
X2617876Y3134461D01*
X2622753Y3131413D01*
X2628239Y3129483D01*
X2634538Y3128772D01*
X2826461Y3128772D01*
X2832760Y3129483D01*
X2838246Y3131413D01*
X2843123Y3134461D01*
X2847238Y3138576D01*
X2850286Y3143453D01*
X2852216Y3148939D01*
X2852928Y3155238D01*
X2852928Y3234944D01*
X2853791Y3238957D01*
X2856128Y3242360D01*
X2859684Y3244494D01*
X2863748Y3245053D01*
X2867761Y3243935D01*
X2870962Y3241344D01*
X2872841Y3237687D01*
X2874670Y3231337D01*
X2876448Y3226714D01*
X2878683Y3222193D01*
X2881223Y3217875D01*
X2884170Y3213811D01*
X2887421Y3209950D01*
X2890977Y3206394D01*
X2894838Y3203143D01*
X2898902Y3200196D01*
X2903220Y3197656D01*
X2907741Y3195421D01*
X2912465Y3193592D01*
X2917291Y3192170D01*
X2922219Y3191154D01*
X2927197Y3190494D01*
X2932430Y3190290D01*
X2966212Y3190290D01*
X2970123Y3189528D01*
X2973374Y3187293D01*
X2975610Y3184042D01*
X2976372Y3180130D01*
X2976372Y3155238D01*
X2977083Y3148939D01*
X2979013Y3143453D01*
X2982061Y3138576D01*
X2986176Y3134461D01*
X2991053Y3131413D01*
X2996539Y3129483D01*
X3002838Y3128772D01*
X3194761Y3128772D01*
X3201060Y3129483D01*
X3206546Y3131413D01*
X3211423Y3134461D01*
X3215538Y3138576D01*
X3218586Y3143453D01*
X3220516Y3148939D01*
X3221228Y3155238D01*
X3221228Y3347161D01*
X3220516Y3353460D01*
X3218586Y3358946D01*
X3215538Y3363823D01*
X3211423Y3367938D01*
X3208782Y3369614D01*
X3205835Y3372408D01*
X3204210Y3376168D01*
X3204210Y3380232D01*
X3205835Y3383991D01*
X3208782Y3386785D01*
X3211423Y3388461D01*
X3215538Y3392576D01*
X3218586Y3397453D01*
X3220516Y3402939D01*
X3221228Y3409238D01*
X3221228Y3450590D01*
X3153410Y3450590D01*
X3153410Y3383787D01*
X3152648Y3379876D01*
X3150412Y3376625D01*
X3147161Y3374390D01*
X3143250Y3373628D01*
X3054350Y3373628D01*
X3050438Y3374390D01*
X3047187Y3376625D01*
X3044952Y3379876D01*
X3044190Y3383787D01*
X3044190Y3450590D01*
X3003296Y3450590D01*
X2999384Y3451351D01*
X2996133Y3453587D01*
X2993898Y3456838D01*
X2993136Y3460750D01*
X2993136Y3469741D01*
X2992628Y3477768D01*
X2992323Y3479850D01*
X2990545Y3487623D01*
X2986836Y3496970D01*
X2985871Y3498850D01*
X2980436Y3507282D01*
X2975051Y3513328D01*
X2940354Y3548024D01*
X2934309Y3553409D01*
X2925876Y3558844D01*
X2923997Y3559810D01*
X2914650Y3563518D01*
X2906877Y3565296D01*
X2904794Y3565601D01*
X2896768Y3566109D01*
X2863088Y3566109D01*
X2859176Y3566871D01*
X2855925Y3569106D01*
X2853690Y3572357D01*
X2852928Y3576269D01*
X2852928Y3601161D01*
X2852216Y3607460D01*
X2850286Y3612946D01*
X2847238Y3617823D01*
X2843123Y3621938D01*
X2838246Y3624986D01*
X2832760Y3626916D01*
X2826461Y3627628D01*
X2634538Y3627628D01*
X2628239Y3626916D01*
X2622753Y3624986D01*
X2617876Y3621938D01*
X2613761Y3617823D01*
X2610713Y3612946D01*
X2608783Y3607460D01*
X2608072Y3601161D01*
X2608072Y3576269D01*
X2607310Y3572357D01*
X2605074Y3569106D01*
X2601823Y3566871D01*
X2597912Y3566109D01*
X2472436Y3566109D01*
X2461971Y3565245D01*
X2452217Y3562756D01*
X2443022Y3558743D01*
X2434590Y3553256D01*
X2427224Y3546449D01*
X2421026Y3538474D01*
X2416251Y3529634D01*
X2413000Y3520135D01*
X2411323Y3510229D01*
X2411323Y3500170D01*
X2413000Y3490264D01*
X2416251Y3480765D01*
X2421026Y3471926D01*
X2427224Y3463950D01*
X2434590Y3457143D01*
X2443022Y3451656D01*
X2452217Y3447643D01*
X2461971Y3445154D01*
X2472436Y3444290D01*
X2597912Y3444290D01*
X2601823Y3443528D01*
X2605074Y3441293D01*
X2607310Y3438042D01*
X2608072Y3434130D01*
X2608072Y3409238D01*
X2608783Y3402939D01*
X2610713Y3397453D01*
X2613761Y3392576D01*
X2617876Y3388461D01*
X2620518Y3386785D01*
X2623464Y3383991D01*
X2625090Y3380232D01*
X2625090Y3376168D01*
X2623464Y3372408D01*
X2620518Y3369614D01*
X2617876Y3367938D01*
X2613761Y3363823D01*
X2610713Y3358946D01*
X2608783Y3353460D01*
X2608072Y3347161D01*
X2608072Y3322269D01*
X2607310Y3318357D01*
X2605074Y3315106D01*
X2601823Y3312871D01*
X2597912Y3312109D01*
X2564231Y3312109D01*
X2556205Y3311601D01*
X2554122Y3311296D01*
X2546350Y3309518D01*
X2537002Y3305810D01*
X2535123Y3304844D01*
X2526690Y3299409D01*
X2520645Y3294024D01*
X2351176Y3124606D01*
X2347874Y3122371D01*
X2344013Y3121609D01*
X2102256Y3121609D01*
X2099157Y3122117D01*
X2096363Y3123539D01*
X2083968Y3136392D01*
X2073300Y3144875D01*
X2061565Y3151784D01*
X2049018Y3157118D01*
X2035860Y3160725D01*
X2022348Y3162554D01*
X2008682Y3162554D01*
X1995170Y3160725D01*
X1982012Y3157118D01*
X1969465Y3151784D01*
X1957730Y3144875D01*
X1947011Y3136392D01*
X1937562Y3126587D01*
X1929485Y3115614D01*
X1922932Y3103676D01*
X1918004Y3090926D01*
X1914855Y3077667D01*
X1913483Y3064103D01*
X1913940Y3050489D01*
X1916226Y3037027D01*
X1920239Y3024022D01*
X1925980Y3011627D01*
X1933346Y3000146D01*
X1942134Y2989732D01*
X1952243Y2980588D01*
X1963470Y2972866D01*
X1975662Y2966720D01*
X1988515Y2962249D01*
X2001926Y2959506D01*
G37*
G36*
X1761489Y3085642D02*
G01*
X1775104Y3086557D01*
X1788464Y3089249D01*
X1801368Y3093720D01*
X1813509Y3099866D01*
X1824736Y3107588D01*
X1834896Y3116732D01*
X1843684Y3127146D01*
X1850999Y3138627D01*
X1856739Y3151022D01*
X1860804Y3164027D01*
X1863089Y3177489D01*
X1863496Y3191103D01*
X1862175Y3204667D01*
X1858975Y3217976D01*
X1854098Y3230676D01*
X1847545Y3242614D01*
X1839468Y3253638D01*
X1829968Y3263442D01*
X1819249Y3271875D01*
X1807514Y3278835D01*
X1794967Y3284169D01*
X1781810Y3287725D01*
X1768297Y3289554D01*
X1754682Y3289554D01*
X1741170Y3287725D01*
X1728012Y3284169D01*
X1715465Y3278835D01*
X1703730Y3271875D01*
X1693011Y3263442D01*
X1683512Y3253638D01*
X1675434Y3242614D01*
X1668881Y3230676D01*
X1664004Y3217976D01*
X1660804Y3204667D01*
X1659483Y3191103D01*
X1659940Y3177489D01*
X1662175Y3164027D01*
X1666239Y3151022D01*
X1671980Y3138627D01*
X1679295Y3127146D01*
X1688134Y3116732D01*
X1698243Y3107588D01*
X1709470Y3099866D01*
X1721662Y3093720D01*
X1734515Y3089249D01*
X1747875Y3086557D01*
G37*
G36*
X2015489Y3212592D02*
G01*
X2029104Y3213506D01*
X2042464Y3216249D01*
X2055368Y3220720D01*
X2067560Y3226866D01*
X2078786Y3234588D01*
X2088896Y3243732D01*
X2097684Y3254146D01*
X2105050Y3265627D01*
X2110790Y3278022D01*
X2114804Y3291027D01*
X2117090Y3304489D01*
X2117547Y3318103D01*
X2116175Y3331667D01*
X2113026Y3344926D01*
X2108098Y3357676D01*
X2101545Y3369614D01*
X2093468Y3380587D01*
X2083968Y3390392D01*
X2073300Y3398875D01*
X2061565Y3405835D01*
X2049018Y3411118D01*
X2035860Y3414725D01*
X2022348Y3416554D01*
X2008682Y3416554D01*
X1995170Y3414725D01*
X1982012Y3411118D01*
X1969465Y3405835D01*
X1957730Y3398875D01*
X1947011Y3390392D01*
X1937562Y3380587D01*
X1929485Y3369614D01*
X1922932Y3357676D01*
X1918004Y3344926D01*
X1914855Y3331667D01*
X1913483Y3318103D01*
X1913940Y3304489D01*
X1916226Y3291027D01*
X1920239Y3278022D01*
X1925980Y3265627D01*
X1933346Y3254146D01*
X1942134Y3243732D01*
X1952243Y3234588D01*
X1963470Y3226866D01*
X1975662Y3220720D01*
X1988515Y3216249D01*
X2001926Y3213506D01*
G37*
G36*
X1761489Y3339592D02*
G01*
X1775104Y3340506D01*
X1788464Y3343249D01*
X1801368Y3347720D01*
X1813509Y3353866D01*
X1824736Y3361588D01*
X1834896Y3370732D01*
X1843684Y3381146D01*
X1850999Y3392627D01*
X1856739Y3405022D01*
X1860804Y3418027D01*
X1863089Y3431489D01*
X1863496Y3445103D01*
X1862175Y3458667D01*
X1858975Y3471926D01*
X1854098Y3484676D01*
X1847545Y3496614D01*
X1839468Y3507587D01*
X1829968Y3517392D01*
X1819249Y3525875D01*
X1807514Y3532784D01*
X1794967Y3538118D01*
X1781810Y3541725D01*
X1768297Y3543554D01*
X1754682Y3543554D01*
X1741170Y3541725D01*
X1728012Y3538118D01*
X1715465Y3532784D01*
X1703730Y3525875D01*
X1693011Y3517392D01*
X1683512Y3507587D01*
X1675434Y3496614D01*
X1668881Y3484676D01*
X1664004Y3471926D01*
X1660804Y3458667D01*
X1659483Y3445103D01*
X1659940Y3431489D01*
X1662175Y3418027D01*
X1666239Y3405022D01*
X1671980Y3392627D01*
X1679295Y3381146D01*
X1688134Y3370732D01*
X1698243Y3361588D01*
X1709470Y3353866D01*
X1721662Y3347720D01*
X1734515Y3343249D01*
X1747875Y3340506D01*
G37*
G36*
X2015489Y3466592D02*
G01*
X2029104Y3467506D01*
X2042464Y3470249D01*
X2055368Y3474720D01*
X2067509Y3480866D01*
X2078736Y3488588D01*
X2088896Y3497732D01*
X2097684Y3508146D01*
X2104999Y3519627D01*
X2110740Y3532022D01*
X2114804Y3545027D01*
X2117039Y3558489D01*
X2117496Y3572103D01*
X2116175Y3585667D01*
X2112975Y3598926D01*
X2108098Y3611676D01*
X2101545Y3623614D01*
X2093468Y3634587D01*
X2083968Y3644392D01*
X2073249Y3652875D01*
X2061514Y3659784D01*
X2048967Y3665118D01*
X2035810Y3668725D01*
X2022297Y3670554D01*
X2008682Y3670554D01*
X1995170Y3668725D01*
X1982012Y3665118D01*
X1969465Y3659784D01*
X1957730Y3652875D01*
X1947011Y3644392D01*
X1937512Y3634587D01*
X1929434Y3623614D01*
X1922881Y3611676D01*
X1918004Y3598926D01*
X1914804Y3585667D01*
X1913483Y3572103D01*
X1913940Y3558489D01*
X1916175Y3545027D01*
X1920239Y3532022D01*
X1925980Y3519627D01*
X1933295Y3508146D01*
X1942084Y3497732D01*
X1952243Y3488588D01*
X1963470Y3480866D01*
X1975612Y3474720D01*
X1988515Y3470249D01*
X2001875Y3467506D01*
G37*
G36*
X2976372Y3559810D02*
G01*
X3044190Y3559810D01*
X3044190Y3627628D01*
X3002838Y3627628D01*
X2996539Y3626916D01*
X2991053Y3624986D01*
X2986176Y3621938D01*
X2982061Y3617823D01*
X2979013Y3612946D01*
X2977083Y3607460D01*
X2976372Y3601161D01*
G37*
G36*
X1685848Y3593592D02*
G01*
X1837131Y3593592D01*
X1843430Y3594303D01*
X1848916Y3596233D01*
X1853793Y3599281D01*
X1857908Y3603396D01*
X1860956Y3608273D01*
X1862886Y3613759D01*
X1863598Y3620058D01*
X1863598Y3771341D01*
X1862886Y3777640D01*
X1860956Y3783126D01*
X1857908Y3788003D01*
X1853793Y3792118D01*
X1848916Y3795217D01*
X1843430Y3797096D01*
X1837131Y3797808D01*
X1685848Y3797808D01*
X1679549Y3797096D01*
X1674063Y3795217D01*
X1669186Y3792118D01*
X1665071Y3788003D01*
X1662023Y3783126D01*
X1660093Y3777640D01*
X1659382Y3771341D01*
X1659382Y3620058D01*
X1660093Y3613759D01*
X1662023Y3608273D01*
X1665071Y3603396D01*
X1669186Y3599281D01*
X1674063Y3596233D01*
X1679549Y3594303D01*
G37*
G36*
X1077112Y3635552D02*
G01*
X1095908Y3635552D01*
X1114653Y3637432D01*
X1133094Y3641242D01*
X1151077Y3646881D01*
X1168400Y3654298D01*
X1184859Y3663442D01*
X1200302Y3674211D01*
X1214577Y3686454D01*
X1227582Y3700119D01*
X1239062Y3715004D01*
X1249070Y3731006D01*
X1257350Y3747871D01*
X1263904Y3765550D01*
X1268577Y3783787D01*
X1271473Y3802379D01*
X1272387Y3821176D01*
X1271473Y3840022D01*
X1268577Y3858615D01*
X1263904Y3876852D01*
X1257350Y3894531D01*
X1249070Y3911396D01*
X1239062Y3927398D01*
X1227582Y3942283D01*
X1214577Y3955948D01*
X1200302Y3968191D01*
X1184859Y3978960D01*
X1168400Y3988104D01*
X1151077Y3995521D01*
X1133094Y4001160D01*
X1114653Y4004970D01*
X1095908Y4006850D01*
X1077112Y4006850D01*
X1058367Y4004970D01*
X1039926Y4001160D01*
X1021943Y3995521D01*
X1004620Y3988104D01*
X988161Y3978960D01*
X972718Y3968191D01*
X958443Y3955948D01*
X945438Y3942283D01*
X933958Y3927398D01*
X923950Y3911396D01*
X915669Y3894531D01*
X909116Y3876852D01*
X904443Y3858615D01*
X901547Y3840022D01*
X900633Y3821176D01*
X901547Y3802379D01*
X904443Y3783787D01*
X909116Y3765550D01*
X915669Y3747871D01*
X923950Y3731006D01*
X933958Y3715004D01*
X945438Y3700119D01*
X958443Y3686454D01*
X972718Y3674211D01*
X988161Y3663442D01*
X1004620Y3654298D01*
X1021943Y3646881D01*
X1039926Y3641242D01*
X1058367Y3637432D01*
G37*
G36*
X611886Y3955287D02*
G01*
X691134Y3955287D01*
X703732Y3956202D01*
X715721Y3958793D01*
X727202Y3963111D01*
X737920Y3968953D01*
X747725Y3976319D01*
X756412Y3984955D01*
X763778Y3994759D01*
X769620Y4005529D01*
X773887Y4017010D01*
X776528Y4028998D01*
X777392Y4041190D01*
X776528Y4053433D01*
X773887Y4065422D01*
X769620Y4076903D01*
X763778Y4087622D01*
X756412Y4097426D01*
X747725Y4106113D01*
X738530Y4113022D01*
X735990Y4115765D01*
X734618Y4119270D01*
X734618Y4123029D01*
X735990Y4126534D01*
X738530Y4129278D01*
X747776Y4136186D01*
X756412Y4144873D01*
X763778Y4154678D01*
X769620Y4165447D01*
X773938Y4176928D01*
X776528Y4188866D01*
X777392Y4201109D01*
X776528Y4213301D01*
X773938Y4225290D01*
X769620Y4236770D01*
X763778Y4247540D01*
X756412Y4257344D01*
X747776Y4266031D01*
X737920Y4273346D01*
X727202Y4279239D01*
X715721Y4283506D01*
X703732Y4286097D01*
X691134Y4287012D01*
X611886Y4287012D01*
X599287Y4286097D01*
X587298Y4283506D01*
X575818Y4279239D01*
X565099Y4273346D01*
X555294Y4266031D01*
X546608Y4257344D01*
X539242Y4247540D01*
X533400Y4236770D01*
X529082Y4225290D01*
X526491Y4213301D01*
X525627Y4201109D01*
X526491Y4188866D01*
X529082Y4176928D01*
X533400Y4165447D01*
X539242Y4154678D01*
X546608Y4144873D01*
X555294Y4136186D01*
X564489Y4129278D01*
X567029Y4126534D01*
X568401Y4123029D01*
X568401Y4119270D01*
X567029Y4115765D01*
X564489Y4113022D01*
X555244Y4106113D01*
X546608Y4097426D01*
X539242Y4087622D01*
X533400Y4076903D01*
X529082Y4065422D01*
X526491Y4053433D01*
X525627Y4041190D01*
X526491Y4028998D01*
X529082Y4017010D01*
X533400Y4005529D01*
X539242Y3994759D01*
X546608Y3984955D01*
X555244Y3976319D01*
X565099Y3968953D01*
X575818Y3963111D01*
X587298Y3958793D01*
X599287Y3956202D01*
G37*
G36*
X1077112Y4235450D02*
G01*
X1095908Y4235450D01*
X1114653Y4237329D01*
X1133094Y4241139D01*
X1151077Y4246778D01*
X1168400Y4254195D01*
X1184859Y4263339D01*
X1200302Y4274108D01*
X1214577Y4286351D01*
X1227582Y4300016D01*
X1239062Y4314901D01*
X1249070Y4330903D01*
X1257350Y4347768D01*
X1263904Y4365447D01*
X1268577Y4383684D01*
X1271473Y4402277D01*
X1272387Y4421073D01*
X1271473Y4439920D01*
X1268577Y4458512D01*
X1263904Y4476750D01*
X1257350Y4494428D01*
X1249070Y4511294D01*
X1239062Y4527296D01*
X1227582Y4542180D01*
X1214577Y4555845D01*
X1200302Y4568088D01*
X1184859Y4578858D01*
X1168400Y4588002D01*
X1151077Y4595418D01*
X1133094Y4601057D01*
X1114653Y4604867D01*
X1095908Y4606747D01*
X1077112Y4606747D01*
X1058367Y4604867D01*
X1039926Y4601057D01*
X1021943Y4595418D01*
X1004620Y4588002D01*
X988161Y4578858D01*
X972718Y4568088D01*
X958443Y4555845D01*
X945438Y4542180D01*
X933958Y4527296D01*
X923950Y4511294D01*
X915669Y4494428D01*
X909116Y4476750D01*
X904443Y4458512D01*
X901547Y4439920D01*
X900633Y4421073D01*
X901547Y4402277D01*
X904443Y4383684D01*
X909116Y4365447D01*
X915669Y4347768D01*
X923950Y4330903D01*
X933958Y4314901D01*
X945438Y4300016D01*
X958443Y4286351D01*
X972718Y4274108D01*
X988161Y4263339D01*
X1004620Y4254195D01*
X1021943Y4246778D01*
X1039926Y4241139D01*
X1058367Y4237329D01*
G37*
G36*
X2015489Y4444492D02*
G01*
X2029104Y4445406D01*
X2042464Y4448149D01*
X2055368Y4452620D01*
X2067560Y4458766D01*
X2078786Y4466488D01*
X2088896Y4475632D01*
X2097684Y4486046D01*
X2105050Y4497527D01*
X2110790Y4509922D01*
X2114804Y4522927D01*
X2117090Y4536389D01*
X2117547Y4550003D01*
X2116175Y4563567D01*
X2113026Y4576826D01*
X2108098Y4589576D01*
X2101545Y4601514D01*
X2093468Y4612487D01*
X2083968Y4622292D01*
X2073300Y4630775D01*
X2061565Y4637735D01*
X2049018Y4643018D01*
X2035860Y4646625D01*
X2022348Y4648454D01*
X2008682Y4648454D01*
X1995170Y4646625D01*
X1982012Y4643018D01*
X1969465Y4637735D01*
X1957730Y4630775D01*
X1947011Y4622292D01*
X1937562Y4612487D01*
X1929485Y4601514D01*
X1922932Y4589576D01*
X1918004Y4576826D01*
X1914855Y4563567D01*
X1913483Y4550003D01*
X1913940Y4536389D01*
X1916226Y4522927D01*
X1920239Y4509922D01*
X1925980Y4497527D01*
X1933346Y4486046D01*
X1942134Y4475632D01*
X1952243Y4466488D01*
X1963470Y4458766D01*
X1975662Y4452620D01*
X1988515Y4448149D01*
X2001926Y4445406D01*
G37*
G36*
X2015489Y4698492D02*
G01*
X2029104Y4699406D01*
X2042464Y4702149D01*
X2055368Y4706620D01*
X2067560Y4712766D01*
X2078786Y4720488D01*
X2088896Y4729632D01*
X2097684Y4740046D01*
X2105050Y4751527D01*
X2110790Y4763922D01*
X2114804Y4776927D01*
X2117090Y4790389D01*
X2117547Y4804003D01*
X2116175Y4817567D01*
X2113026Y4830826D01*
X2108098Y4843576D01*
X2101545Y4855514D01*
X2093468Y4866487D01*
X2083968Y4876292D01*
X2073300Y4884775D01*
X2061565Y4891684D01*
X2049018Y4897018D01*
X2035860Y4900625D01*
X2022348Y4902454D01*
X2008682Y4902454D01*
X1995170Y4900625D01*
X1982012Y4897018D01*
X1969465Y4891684D01*
X1957730Y4884775D01*
X1947011Y4876292D01*
X1937562Y4866487D01*
X1929485Y4855514D01*
X1922932Y4843576D01*
X1918004Y4830826D01*
X1914855Y4817567D01*
X1913483Y4804003D01*
X1913940Y4790389D01*
X1916226Y4776927D01*
X1920239Y4763922D01*
X1925980Y4751527D01*
X1933346Y4740046D01*
X1942134Y4729632D01*
X1952243Y4720488D01*
X1963470Y4712766D01*
X1975662Y4706620D01*
X1988515Y4702149D01*
X2001926Y4699406D01*
G37*
G36*
X2015489Y4952492D02*
G01*
X2029104Y4953406D01*
X2042464Y4956149D01*
X2055368Y4960620D01*
X2067560Y4966766D01*
X2078786Y4974488D01*
X2088896Y4983632D01*
X2097684Y4994046D01*
X2105050Y5005527D01*
X2110790Y5017922D01*
X2114804Y5030927D01*
X2117090Y5044389D01*
X2117547Y5058003D01*
X2116175Y5071567D01*
X2113026Y5084826D01*
X2108098Y5097576D01*
X2101545Y5109514D01*
X2093468Y5120487D01*
X2083968Y5130292D01*
X2073300Y5138775D01*
X2061565Y5145735D01*
X2049018Y5151018D01*
X2035860Y5154625D01*
X2022348Y5156454D01*
X2008682Y5156454D01*
X1995170Y5154625D01*
X1982012Y5151018D01*
X1969465Y5145735D01*
X1957730Y5138775D01*
X1947011Y5130292D01*
X1937562Y5120487D01*
X1929485Y5109514D01*
X1922932Y5097576D01*
X1918004Y5084826D01*
X1914855Y5071567D01*
X1913483Y5058003D01*
X1913940Y5044389D01*
X1916226Y5030927D01*
X1920239Y5017922D01*
X1925980Y5005527D01*
X1933346Y4994046D01*
X1942134Y4983632D01*
X1952243Y4974488D01*
X1963470Y4966766D01*
X1975662Y4960620D01*
X1988515Y4956149D01*
X2001926Y4953406D01*
G37*
G36*
X1077112Y5375452D02*
G01*
X1095908Y5375452D01*
X1114653Y5377332D01*
X1133094Y5381142D01*
X1151077Y5386781D01*
X1168400Y5394198D01*
X1184859Y5403342D01*
X1200302Y5414111D01*
X1214577Y5426354D01*
X1227582Y5440019D01*
X1239062Y5454904D01*
X1249070Y5470906D01*
X1257350Y5487771D01*
X1263904Y5505450D01*
X1268577Y5523687D01*
X1271473Y5542280D01*
X1272387Y5561076D01*
X1271473Y5579922D01*
X1268577Y5598515D01*
X1263904Y5616752D01*
X1257350Y5634431D01*
X1249070Y5651296D01*
X1239062Y5667298D01*
X1227582Y5682183D01*
X1214577Y5695848D01*
X1200302Y5708091D01*
X1184859Y5718860D01*
X1168400Y5728004D01*
X1151077Y5735421D01*
X1133094Y5741060D01*
X1114653Y5744870D01*
X1095908Y5746750D01*
X1077112Y5746750D01*
X1058367Y5744870D01*
X1039926Y5741060D01*
X1021943Y5735421D01*
X1004620Y5728004D01*
X988161Y5718860D01*
X972718Y5708091D01*
X958443Y5695848D01*
X945438Y5682183D01*
X933958Y5667298D01*
X923950Y5651296D01*
X915669Y5634431D01*
X909116Y5616752D01*
X904443Y5598515D01*
X901547Y5579922D01*
X900633Y5561076D01*
X901547Y5542280D01*
X904443Y5523687D01*
X909116Y5505450D01*
X915669Y5487771D01*
X923950Y5470906D01*
X933958Y5454904D01*
X945438Y5440019D01*
X958443Y5426354D01*
X972718Y5414111D01*
X988161Y5403342D01*
X1004620Y5394198D01*
X1021943Y5386781D01*
X1039926Y5381142D01*
X1058367Y5377332D01*
G37*
G36*
X611886Y5695188D02*
G01*
X691134Y5695188D01*
X703732Y5696102D01*
X715721Y5698693D01*
X727202Y5703011D01*
X737920Y5708853D01*
X747725Y5716219D01*
X756412Y5724855D01*
X763778Y5734659D01*
X769620Y5745429D01*
X773887Y5756910D01*
X776528Y5768898D01*
X777392Y5781090D01*
X776528Y5793333D01*
X773887Y5805322D01*
X769620Y5816803D01*
X763778Y5827522D01*
X756412Y5837326D01*
X747725Y5846013D01*
X737920Y5853379D01*
X727202Y5859221D01*
X715721Y5863488D01*
X703732Y5866130D01*
X691134Y5866993D01*
X611886Y5866993D01*
X599287Y5866130D01*
X587298Y5863488D01*
X575818Y5859221D01*
X565099Y5853379D01*
X555244Y5846013D01*
X546608Y5837326D01*
X539242Y5827522D01*
X533400Y5816803D01*
X529082Y5805322D01*
X526491Y5793333D01*
X525627Y5781090D01*
X526491Y5768898D01*
X529082Y5756910D01*
X533400Y5745429D01*
X539242Y5734659D01*
X546608Y5724855D01*
X555244Y5716219D01*
X565099Y5708853D01*
X575818Y5703011D01*
X587298Y5698693D01*
X599287Y5696102D01*
G37*
G36*
X648970Y6063183D02*
G01*
X648970Y6137656D01*
X574446Y6137656D01*
X575056Y6136335D01*
X584352Y6120790D01*
X595223Y6106312D01*
X607517Y6093053D01*
X621131Y6081064D01*
X635914Y6070600D01*
G37*
G36*
X811631Y6063183D02*
G01*
X824687Y6070600D01*
X839469Y6081064D01*
X853084Y6093053D01*
X865378Y6106312D01*
X876249Y6120790D01*
X885545Y6136335D01*
X886155Y6137656D01*
X811631Y6137656D01*
G37*
G36*
X574598Y6300368D02*
G01*
X648970Y6300368D01*
X648970Y6374739D01*
X643686Y6372098D01*
X628396Y6362344D01*
X614172Y6351117D01*
X601218Y6338468D01*
X589635Y6324549D01*
X579526Y6309563D01*
G37*
G36*
X811631Y6300368D02*
G01*
X886002Y6300368D01*
X881075Y6309563D01*
X870966Y6324549D01*
X859383Y6338468D01*
X846429Y6351117D01*
X832205Y6362344D01*
X816914Y6372098D01*
X811631Y6374739D01*
G37*
G36*
X103174Y6362446D02*
G01*
X316179Y6362446D01*
X322478Y6363157D01*
X327964Y6365087D01*
X332841Y6368135D01*
X336956Y6372250D01*
X340004Y6377127D01*
X341934Y6382613D01*
X342646Y6388912D01*
X342646Y7350201D01*
X341934Y7356500D01*
X340004Y7361986D01*
X336956Y7366863D01*
X332841Y7370978D01*
X327964Y7374026D01*
X322478Y7375956D01*
X316179Y7376668D01*
X103174Y7376668D01*
X96875Y7375956D01*
X91389Y7374026D01*
X86512Y7370978D01*
X82397Y7366863D01*
X79349Y7361986D01*
X77419Y7356500D01*
X76708Y7350201D01*
X76708Y6388912D01*
X77419Y6382613D01*
X79349Y6377127D01*
X82397Y6372250D01*
X86512Y6368135D01*
X91389Y6365087D01*
X96875Y6363157D01*
G37*
G36*
X1515872Y7153909D02*
G01*
X1583690Y7153909D01*
X1583690Y7220712D01*
X1584452Y7224623D01*
X1586687Y7227874D01*
X1589938Y7230109D01*
X1593850Y7230872D01*
X1682750Y7230872D01*
X1686661Y7230109D01*
X1689912Y7227874D01*
X1692148Y7224623D01*
X1692910Y7220712D01*
X1692910Y7153909D01*
X1760728Y7153909D01*
X1760728Y7195261D01*
X1760016Y7201560D01*
X1758086Y7207046D01*
X1755038Y7211923D01*
X1750923Y7216038D01*
X1748282Y7217714D01*
X1745335Y7220508D01*
X1743710Y7224268D01*
X1743710Y7228331D01*
X1745335Y7232091D01*
X1748282Y7234885D01*
X1750923Y7236561D01*
X1755038Y7240676D01*
X1758086Y7245553D01*
X1760016Y7251039D01*
X1760728Y7257338D01*
X1760728Y7449261D01*
X1760016Y7455560D01*
X1758086Y7461046D01*
X1755038Y7465923D01*
X1750923Y7470038D01*
X1746046Y7473086D01*
X1740560Y7475016D01*
X1734261Y7475728D01*
X1542338Y7475728D01*
X1532128Y7474254D01*
X1528724Y7474864D01*
X1525727Y7476591D01*
X1523492Y7479182D01*
X1519936Y7484719D01*
X1514551Y7490764D01*
X1232306Y7773009D01*
X1230020Y7776565D01*
X1229360Y7780832D01*
X1230528Y7784947D01*
X1233322Y7788198D01*
X1237183Y7790078D01*
X1249426Y7792974D01*
X1262176Y7797901D01*
X1274114Y7804454D01*
X1285087Y7812531D01*
X1294892Y7822031D01*
X1303375Y7832699D01*
X1310335Y7844434D01*
X1315618Y7856981D01*
X1319225Y7870139D01*
X1321054Y7883652D01*
X1321054Y7897317D01*
X1319225Y7910830D01*
X1315618Y7923987D01*
X1310335Y7936534D01*
X1303375Y7948269D01*
X1294892Y7958988D01*
X1285087Y7968437D01*
X1274114Y7976514D01*
X1262176Y7983067D01*
X1249426Y7987995D01*
X1237183Y7990941D01*
X1233322Y7992770D01*
X1230528Y7996021D01*
X1229360Y8000136D01*
X1230020Y8004403D01*
X1232357Y8008010D01*
X1280515Y8056168D01*
X1283309Y8058150D01*
X1286560Y8059064D01*
X1290015Y8058861D01*
X1293164Y8057540D01*
X1297127Y8055000D01*
X1309522Y8049259D01*
X1322527Y8045196D01*
X1335989Y8042909D01*
X1349603Y8042503D01*
X1363167Y8043824D01*
X1376426Y8047024D01*
X1389176Y8051901D01*
X1401114Y8058454D01*
X1412087Y8066531D01*
X1421892Y8076031D01*
X1430375Y8086750D01*
X1437284Y8098485D01*
X1442618Y8111032D01*
X1446225Y8124190D01*
X1448054Y8137702D01*
X1448054Y8151317D01*
X1446225Y8164830D01*
X1442618Y8177987D01*
X1437284Y8190534D01*
X1430375Y8202269D01*
X1421892Y8212988D01*
X1412087Y8222488D01*
X1401114Y8230565D01*
X1389176Y8237118D01*
X1376426Y8241995D01*
X1363167Y8245195D01*
X1349603Y8246516D01*
X1335989Y8246059D01*
X1322527Y8243824D01*
X1309522Y8239759D01*
X1297127Y8234019D01*
X1285646Y8226704D01*
X1275232Y8217865D01*
X1266088Y8207756D01*
X1263497Y8203996D01*
X1261618Y8201914D01*
X1259230Y8200440D01*
X1253642Y8198002D01*
X1247140Y8193938D01*
X1239418Y8187334D01*
X1209700Y8157616D01*
X1205890Y8155228D01*
X1201470Y8154670D01*
X1197203Y8156143D01*
X1194003Y8159242D01*
X1192428Y8163458D01*
X1192225Y8164830D01*
X1188669Y8177987D01*
X1183335Y8190534D01*
X1176375Y8202269D01*
X1167942Y8212988D01*
X1158138Y8222488D01*
X1147114Y8230565D01*
X1135176Y8237118D01*
X1122476Y8241995D01*
X1109167Y8245195D01*
X1095603Y8246516D01*
X1081989Y8246059D01*
X1068527Y8243824D01*
X1055522Y8239759D01*
X1043127Y8234019D01*
X1031646Y8226704D01*
X1021232Y8217865D01*
X1012088Y8207756D01*
X1004366Y8196529D01*
X998219Y8184337D01*
X993749Y8171484D01*
X991057Y8158124D01*
X990142Y8144509D01*
X991057Y8130895D01*
X993749Y8117535D01*
X998219Y8104631D01*
X1004366Y8092490D01*
X1012088Y8081264D01*
X1021232Y8071103D01*
X1031646Y8062315D01*
X1043127Y8055000D01*
X1055522Y8049259D01*
X1068527Y8045196D01*
X1073708Y8044332D01*
X1077823Y8042656D01*
X1080820Y8039455D01*
X1082141Y8035239D01*
X1081582Y8030870D01*
X1079195Y8027111D01*
X1030986Y7978902D01*
X1027379Y7976565D01*
X1023061Y7975955D01*
X1018946Y7977174D01*
X1008176Y7983067D01*
X995426Y7987995D01*
X982167Y7991144D01*
X968603Y7992516D01*
X954989Y7992059D01*
X941527Y7989773D01*
X928522Y7985759D01*
X916127Y7980019D01*
X904646Y7972653D01*
X894232Y7963865D01*
X885088Y7953756D01*
X877366Y7942529D01*
X871219Y7930337D01*
X866749Y7917484D01*
X864006Y7904073D01*
X863092Y7890509D01*
X864006Y7876895D01*
X866749Y7863535D01*
X871219Y7850631D01*
X877366Y7838440D01*
X885088Y7827213D01*
X894232Y7817103D01*
X904646Y7808315D01*
X916127Y7800949D01*
X928522Y7795209D01*
X941527Y7791196D01*
X954989Y7788909D01*
X968603Y7788452D01*
X982167Y7789824D01*
X995426Y7792974D01*
X1008176Y7797901D01*
X1018895Y7803794D01*
X1023061Y7805013D01*
X1027328Y7804403D01*
X1030986Y7802067D01*
X1407820Y7425181D01*
X1410055Y7421930D01*
X1410817Y7418019D01*
X1410817Y7353503D01*
X1411020Y7348270D01*
X1411681Y7343292D01*
X1412697Y7338364D01*
X1414119Y7333538D01*
X1415948Y7328814D01*
X1418183Y7324293D01*
X1420723Y7319975D01*
X1423670Y7315911D01*
X1426921Y7312050D01*
X1430477Y7308494D01*
X1434338Y7305243D01*
X1438402Y7302296D01*
X1442720Y7299756D01*
X1447241Y7297521D01*
X1451965Y7295692D01*
X1456791Y7294270D01*
X1461719Y7293254D01*
X1466697Y7292594D01*
X1471930Y7292390D01*
X1505712Y7292390D01*
X1509623Y7291628D01*
X1512874Y7289393D01*
X1515110Y7286142D01*
X1515872Y7282230D01*
X1515872Y7257338D01*
X1516583Y7251039D01*
X1518513Y7245553D01*
X1521561Y7240676D01*
X1525676Y7236561D01*
X1528318Y7234885D01*
X1531264Y7232091D01*
X1532890Y7228331D01*
X1532890Y7224268D01*
X1531264Y7220508D01*
X1528318Y7217714D01*
X1525676Y7216038D01*
X1521561Y7211923D01*
X1518513Y7207046D01*
X1516583Y7201560D01*
X1515872Y7195261D01*
G37*
G36*
X714603Y7788452D02*
G01*
X728167Y7789824D01*
X741426Y7792974D01*
X754176Y7797901D01*
X766114Y7804454D01*
X777087Y7812531D01*
X786892Y7822031D01*
X795375Y7832699D01*
X802335Y7844434D01*
X807618Y7856981D01*
X811225Y7870139D01*
X813053Y7883652D01*
X813053Y7897317D01*
X811225Y7910830D01*
X807618Y7923987D01*
X802335Y7936534D01*
X795375Y7948269D01*
X786892Y7958988D01*
X777087Y7968437D01*
X766114Y7976514D01*
X754176Y7983067D01*
X741426Y7987995D01*
X728167Y7991144D01*
X714603Y7992516D01*
X700989Y7992059D01*
X687527Y7989773D01*
X674522Y7985759D01*
X662127Y7980019D01*
X650646Y7972653D01*
X640232Y7963865D01*
X631088Y7953756D01*
X623366Y7942529D01*
X617220Y7930337D01*
X612749Y7917484D01*
X610006Y7904073D01*
X609142Y7890509D01*
X610006Y7876895D01*
X612749Y7863535D01*
X617220Y7850631D01*
X623366Y7838440D01*
X631088Y7827213D01*
X640232Y7817103D01*
X650646Y7808315D01*
X662127Y7800949D01*
X674522Y7795209D01*
X687527Y7791196D01*
X700989Y7788909D01*
G37*
G36*
X1524558Y8042402D02*
G01*
X1675841Y8042402D01*
X1682140Y8043113D01*
X1687626Y8045043D01*
X1692503Y8048091D01*
X1696618Y8052206D01*
X1699717Y8057083D01*
X1701596Y8062569D01*
X1702307Y8068868D01*
X1702307Y8220151D01*
X1701596Y8226450D01*
X1699717Y8231936D01*
X1696618Y8236813D01*
X1692503Y8240928D01*
X1687626Y8243976D01*
X1682140Y8245906D01*
X1675841Y8246618D01*
X1524558Y8246618D01*
X1518259Y8245906D01*
X1512773Y8243976D01*
X1507896Y8240928D01*
X1503781Y8236813D01*
X1500733Y8231936D01*
X1498803Y8226450D01*
X1498092Y8220151D01*
X1498092Y8068868D01*
X1498803Y8062569D01*
X1500733Y8057083D01*
X1503781Y8052206D01*
X1507896Y8048091D01*
X1512773Y8045043D01*
X1518259Y8043113D01*
G37*
G36*
X841603Y8042503D02*
G01*
X855167Y8043824D01*
X868426Y8047024D01*
X881176Y8051901D01*
X893114Y8058454D01*
X904087Y8066531D01*
X913892Y8076031D01*
X922375Y8086750D01*
X929284Y8098485D01*
X934618Y8111032D01*
X938225Y8124190D01*
X940053Y8137702D01*
X940053Y8151317D01*
X938225Y8164830D01*
X934618Y8177987D01*
X929284Y8190534D01*
X922375Y8202269D01*
X913892Y8212988D01*
X904087Y8222488D01*
X893114Y8230565D01*
X881176Y8237118D01*
X868426Y8241995D01*
X855167Y8245195D01*
X841603Y8246516D01*
X827989Y8246059D01*
X814527Y8243824D01*
X801522Y8239759D01*
X789127Y8234019D01*
X777646Y8226704D01*
X767232Y8217865D01*
X758088Y8207756D01*
X750366Y8196529D01*
X744220Y8184337D01*
X739749Y8171484D01*
X737006Y8158124D01*
X736092Y8144509D01*
X737006Y8130895D01*
X739749Y8117535D01*
X744220Y8104631D01*
X750366Y8092490D01*
X758088Y8081264D01*
X767232Y8071103D01*
X777646Y8062315D01*
X789127Y8055000D01*
X801522Y8049259D01*
X814527Y8045196D01*
X827989Y8042909D01*
G37*
G36*
X576275Y8633815D02*
G01*
X595122Y8633815D01*
X613867Y8635746D01*
X632307Y8639505D01*
X650240Y8645144D01*
X667562Y8652611D01*
X684022Y8661755D01*
X699465Y8672474D01*
X713790Y8684768D01*
X726744Y8698382D01*
X738276Y8713317D01*
X748233Y8729268D01*
X756513Y8746185D01*
X763066Y8763863D01*
X767791Y8782050D01*
X770636Y8800693D01*
X771601Y8819489D01*
X770636Y8838285D01*
X767791Y8856929D01*
X763066Y8875115D01*
X756513Y8892794D01*
X748233Y8909710D01*
X738276Y8925661D01*
X726744Y8940596D01*
X713790Y8954211D01*
X699465Y8966504D01*
X684022Y8977223D01*
X667562Y8986367D01*
X650240Y8993835D01*
X632307Y8999474D01*
X613867Y9003233D01*
X595122Y9005163D01*
X576275Y9005163D01*
X557530Y9003233D01*
X539089Y8999474D01*
X521157Y8993835D01*
X503834Y8986367D01*
X487375Y8977223D01*
X471932Y8966504D01*
X457606Y8954211D01*
X444652Y8940596D01*
X433120Y8925661D01*
X423164Y8909710D01*
X414883Y8892794D01*
X408330Y8875115D01*
X403606Y8856929D01*
X400761Y8838285D01*
X399796Y8819489D01*
X400761Y8800693D01*
X403606Y8782050D01*
X408330Y8763863D01*
X414883Y8746185D01*
X423164Y8729268D01*
X433120Y8713317D01*
X444652Y8698382D01*
X457606Y8684768D01*
X471932Y8672474D01*
X487375Y8661755D01*
X503834Y8652611D01*
X521157Y8645144D01*
X539089Y8639505D01*
X557530Y8635746D01*
G37*
G36*
X1716278Y8633815D02*
G01*
X1735124Y8633815D01*
X1753870Y8635746D01*
X1772310Y8639505D01*
X1790242Y8645144D01*
X1807565Y8652611D01*
X1824024Y8661755D01*
X1839468Y8672474D01*
X1853793Y8684768D01*
X1866747Y8698382D01*
X1878279Y8713317D01*
X1888236Y8729268D01*
X1896516Y8746185D01*
X1903069Y8763863D01*
X1907793Y8782050D01*
X1910638Y8800693D01*
X1911604Y8819489D01*
X1910638Y8838285D01*
X1907793Y8856929D01*
X1903069Y8875115D01*
X1896516Y8892794D01*
X1888236Y8909710D01*
X1878279Y8925661D01*
X1866747Y8940596D01*
X1853793Y8954211D01*
X1839468Y8966504D01*
X1824024Y8977223D01*
X1807565Y8986367D01*
X1790242Y8993835D01*
X1772310Y8999474D01*
X1753870Y9003233D01*
X1735124Y9005163D01*
X1716278Y9005163D01*
X1697532Y9003233D01*
X1679092Y8999474D01*
X1661160Y8993835D01*
X1643837Y8986367D01*
X1627378Y8977223D01*
X1611934Y8966504D01*
X1597609Y8954211D01*
X1584655Y8940596D01*
X1573123Y8925661D01*
X1563166Y8909710D01*
X1554886Y8892794D01*
X1548333Y8875115D01*
X1543608Y8856929D01*
X1540764Y8838285D01*
X1539798Y8819489D01*
X1540764Y8800693D01*
X1543608Y8782050D01*
X1548333Y8763863D01*
X1554886Y8746185D01*
X1563166Y8729268D01*
X1573123Y8713317D01*
X1584655Y8698382D01*
X1597609Y8684768D01*
X1611934Y8672474D01*
X1627378Y8661755D01*
X1643837Y8652611D01*
X1661160Y8645144D01*
X1679092Y8639505D01*
X1697532Y8635746D01*
G37*
G36*
X1945690Y9128607D02*
G01*
X1957933Y9129471D01*
X1969922Y9132112D01*
X1981403Y9136380D01*
X1992122Y9142222D01*
X2001926Y9149588D01*
X2010613Y9158274D01*
X2017979Y9168079D01*
X2023821Y9178798D01*
X2028088Y9190278D01*
X2030730Y9202267D01*
X2031593Y9214866D01*
X2031593Y9294114D01*
X2030730Y9306712D01*
X2028088Y9318701D01*
X2023821Y9330182D01*
X2017979Y9340900D01*
X2010613Y9350756D01*
X2001926Y9359392D01*
X1992122Y9366758D01*
X1981403Y9372600D01*
X1969922Y9376918D01*
X1957933Y9379508D01*
X1945690Y9380372D01*
X1933498Y9379508D01*
X1921510Y9376918D01*
X1910029Y9372600D01*
X1899259Y9366758D01*
X1889455Y9359392D01*
X1880819Y9350756D01*
X1873453Y9340900D01*
X1867611Y9330182D01*
X1863293Y9318701D01*
X1860702Y9306712D01*
X1859788Y9294114D01*
X1859788Y9214866D01*
X1860702Y9202267D01*
X1863293Y9190278D01*
X1867611Y9178798D01*
X1873453Y9168079D01*
X1880819Y9158274D01*
X1889455Y9149588D01*
X1899259Y9142222D01*
X1910029Y9136380D01*
X1921510Y9132112D01*
X1933498Y9129471D01*
G37*

%LPD*%
G36*
X5812383Y8089138D02*
G01*
X5741822Y8017509D01*
X5741517Y8017002D01*
X5687263Y7961934D01*
X5678271Y7961934D01*
X5677916Y7962493D01*
X5679795Y7983321D01*
X5680405Y7983931D01*
X5681827Y7983270D01*
X5684723Y7982559D01*
X5690006Y7982559D01*
X5694629Y7983981D01*
X5698032Y7985759D01*
X5701385Y7988604D01*
X5704382Y7993075D01*
X5705398Y7995666D01*
X5706364Y7999831D01*
X5706364Y8003031D01*
X5705246Y8007756D01*
X5703062Y8012430D01*
X5697931Y8017560D01*
X5697220Y8017560D01*
X5695543Y8018729D01*
X5691835Y8020050D01*
X5687517Y8020761D01*
X5682742Y8020050D01*
X5679186Y8018780D01*
X5676442Y8017256D01*
X5672226Y8013446D01*
X5667451Y8018119D01*
X5664301Y8020608D01*
X5659120Y8023961D01*
X5648350Y8029244D01*
X5639155Y8032445D01*
X5629300Y8035036D01*
X5615889Y8037626D01*
X5609031Y8038541D01*
X5607913Y8039150D01*
X5607761Y8045856D01*
X5538419Y8046008D01*
X5537606Y8045297D01*
X5537606Y8040471D01*
X5536590Y8040065D01*
X5533085Y8040065D01*
X5521198Y8038795D01*
X5510225Y8037220D01*
X5501792Y8035645D01*
X5499658Y8034985D01*
X5498744Y8036356D01*
X5474766Y8036356D01*
X5474766Y8030819D01*
X5551932Y8030819D01*
X5552236Y8031632D01*
X5593486Y8031632D01*
X5593842Y8030667D01*
X5593842Y8025790D01*
X5592978Y8025079D01*
X5552135Y8025231D01*
X5551932Y8030819D01*
X5474766Y8030819D01*
X5474766Y8027365D01*
X5473852Y8026603D01*
X5469636Y8024571D01*
X5462727Y8020456D01*
X5457139Y8015935D01*
X5454396Y8013344D01*
X5450840Y8008975D01*
X5448300Y8005216D01*
X5445709Y7999831D01*
X5445709Y7999222D01*
X5445262Y7998815D01*
X5460898Y7998815D01*
X5462117Y8001152D01*
X5466791Y8006080D01*
X5470550Y8008924D01*
X5474004Y8011007D01*
X5474766Y8011007D01*
X5474722Y7998917D01*
X5499150Y7998917D01*
X5499150Y8020050D01*
X5501182Y8020659D01*
X5517134Y8023504D01*
X5535269Y8025638D01*
X5537606Y8025688D01*
X5537606Y8012023D01*
X5537962Y8011007D01*
X5607913Y8011007D01*
X5608066Y8024012D01*
X5610860Y8023859D01*
X5618378Y8022640D01*
X5627725Y8020710D01*
X5638393Y8017764D01*
X5644946Y8015224D01*
X5651652Y8011972D01*
X5657088Y8008366D01*
X5661914Y8003692D01*
X5664504Y7999628D01*
X5664301Y7998358D01*
X5500014Y7998206D01*
X5499150Y7998917D01*
X5474722Y7998917D01*
X5474004Y7998206D01*
X5461812Y7998206D01*
X5460898Y7998815D01*
X5445262Y7998815D01*
X5444591Y7998206D01*
X5430062Y7998206D01*
X5430266Y7984286D01*
X5446776Y7984134D01*
X5447487Y7983524D01*
X5665470Y7983524D01*
X5663844Y7966913D01*
X5663793Y7963662D01*
X5663336Y7962138D01*
X5657443Y7961782D01*
X5657291Y7931353D01*
X5651128Y7925104D01*
X5674461Y7925104D01*
X5674461Y7926781D01*
X5675223Y7933232D01*
X5690819Y7949184D01*
X5693054Y7948980D01*
X5693206Y7925104D01*
X5651128Y7925104D01*
X5623407Y7896961D01*
X5622899Y7896961D01*
X5622899Y7912150D01*
X5622137Y7912912D01*
X5536387Y7912912D01*
X5535422Y7912506D01*
X5535422Y7884464D01*
X5610402Y7884464D01*
X5610402Y7883753D01*
X5557774Y7830108D01*
X5557062Y7830108D01*
X5467146Y7924800D01*
X5466689Y7925612D01*
X5461863Y7983524D01*
X5447487Y7983524D01*
X5450433Y7948980D01*
X5450789Y7942580D01*
X5450179Y7942580D01*
X5312613Y8087410D01*
X5312613Y8071154D01*
X5452516Y7923682D01*
X5454094Y7905699D01*
X5468467Y7905699D01*
X5468518Y7906359D01*
X5469077Y7906359D01*
X5548985Y7821930D01*
X5549188Y7821371D01*
X5548736Y7820914D01*
X5565698Y7820914D01*
X5565698Y7821777D01*
X5611825Y7868564D01*
X5612130Y7869072D01*
X5656783Y7914436D01*
X5657291Y7914131D01*
X5657291Y7912557D01*
X5658916Y7911947D01*
X5642914Y7740396D01*
X5642000Y7740396D01*
X5640730Y7742021D01*
X5565698Y7820914D01*
X5548736Y7820914D01*
X5529021Y7801000D01*
X5528665Y7800441D01*
X5482132Y7753197D01*
X5481472Y7753400D01*
X5468467Y7905699D01*
X5454094Y7905699D01*
X5468213Y7742986D01*
X5468213Y7739024D01*
X5466318Y7737094D01*
X5482996Y7737094D01*
X5483352Y7737856D01*
X5557113Y7812887D01*
X5557469Y7812887D01*
X5641390Y7724597D01*
X5640374Y7713116D01*
X5639816Y7711694D01*
X5636818Y7711287D01*
X5633974Y7710627D01*
X5631180Y7709712D01*
X5625947Y7707477D01*
X5622747Y7705547D01*
X5618378Y7702346D01*
X5614619Y7698689D01*
X5609437Y7691628D01*
X5606999Y7686802D01*
X5605170Y7681163D01*
X5603748Y7672527D01*
X5604022Y7667599D01*
X5623864Y7667599D01*
X5623864Y7674406D01*
X5624728Y7677759D01*
X5625846Y7680553D01*
X5627420Y7683347D01*
X5632754Y7688681D01*
X5636514Y7690662D01*
X5639612Y7691729D01*
X5644946Y7692491D01*
X5649620Y7691932D01*
X5652566Y7691069D01*
X5654954Y7689951D01*
X5658358Y7687818D01*
X5662472Y7683550D01*
X5664809Y7679131D01*
X5666333Y7673695D01*
X5666333Y7668361D01*
X5664809Y7662925D01*
X5662523Y7658557D01*
X5658662Y7654544D01*
X5654954Y7652054D01*
X5651550Y7650632D01*
X5645150Y7649565D01*
X5640222Y7650124D01*
X5636514Y7651394D01*
X5632754Y7653324D01*
X5626963Y7659166D01*
X5626963Y7659827D01*
X5625795Y7661503D01*
X5624728Y7664297D01*
X5623864Y7667599D01*
X5604022Y7667599D01*
X5604103Y7666380D01*
X5603189Y7666024D01*
X5489549Y7666024D01*
X5488940Y7666786D01*
X5482996Y7737094D01*
X5466318Y7737094D01*
X5422747Y7692847D01*
X5422442Y7692339D01*
X5387136Y7656575D01*
X5386832Y7656068D01*
X5321808Y7590028D01*
X5321655Y7589316D01*
X5329631Y7581341D01*
X5376824Y7629194D01*
X5377129Y7629702D01*
X5410555Y7663586D01*
X5410860Y7664094D01*
X5468975Y7723225D01*
X5469686Y7723225D01*
X5470093Y7721803D01*
X5470093Y7719009D01*
X5474766Y7665262D01*
X5475732Y7656626D01*
X5477611Y7653883D01*
X5479288Y7652664D01*
X5481675Y7651851D01*
X5481675Y7631175D01*
X5482183Y7630414D01*
X5508040Y7630566D01*
X5508396Y7651800D01*
X5608421Y7651953D01*
X5613196Y7644841D01*
X5618226Y7639761D01*
X5622747Y7636408D01*
X5627116Y7633970D01*
X5633974Y7631379D01*
X5640070Y7630058D01*
X5649772Y7630058D01*
X5657138Y7631734D01*
X5659932Y7632649D01*
X5665266Y7635189D01*
X5670753Y7638897D01*
X5675477Y7643368D01*
X5679338Y7648346D01*
X5681218Y7651496D01*
X5683148Y7655559D01*
X5684723Y7660538D01*
X5685891Y7665262D01*
X5685891Y7677251D01*
X5686298Y7677251D01*
X5687974Y7675219D01*
X5775299Y7583170D01*
X5776315Y7583373D01*
X5783834Y7590434D01*
X5783834Y7591094D01*
X5656580Y7725257D01*
X5655767Y7726476D01*
X5656326Y7730540D01*
X5672632Y7906156D01*
X5673394Y7912100D01*
X5705551Y7912404D01*
X5705703Y7961934D01*
X5703824Y7961934D01*
X5703824Y7962392D01*
X5812586Y8073034D01*
X5812586Y8089138D01*
G37*
G36*
X5644946Y7685024D02*
G01*
X5640578Y7684262D01*
X5637733Y7682941D01*
X5635294Y7680959D01*
X5632907Y7677810D01*
X5631332Y7674102D01*
X5631332Y7667904D01*
X5632907Y7664196D01*
X5635294Y7661046D01*
X5637733Y7659116D01*
X5640578Y7657795D01*
X5644946Y7657033D01*
X5649010Y7657642D01*
X5652770Y7659420D01*
X5655360Y7661656D01*
X5657545Y7664958D01*
X5658866Y7668920D01*
X5658866Y7673086D01*
X5657545Y7677099D01*
X5655360Y7680401D01*
X5652770Y7682636D01*
X5649010Y7684414D01*
G37*
G36*
X5352897Y7480096D02*
G01*
X5352897Y7379462D01*
X5766358Y7379462D01*
X5766358Y7480096D01*
G37*
G36*
X6151880Y7963255D02*
G01*
X6141720Y7962544D01*
X6118301Y7960309D01*
X6097981Y7956296D01*
X6079134Y7951216D01*
X6063386Y7945475D01*
X6050178Y7939938D01*
X6028791Y7929016D01*
X6005423Y7913522D01*
X5986830Y7898434D01*
X5967069Y7878673D01*
X5950661Y7858302D01*
X5936589Y7836916D01*
X5920892Y7805318D01*
X5911392Y7776667D01*
X5906363Y7754569D01*
X5902858Y7729118D01*
X5902858Y7689443D01*
X5903427Y7685379D01*
X5939434Y7685379D01*
X5939434Y7733182D01*
X5943092Y7753553D01*
X5949035Y7776616D01*
X5957925Y7799425D01*
X5966104Y7815580D01*
X5977229Y7833156D01*
X5988913Y7848701D01*
X6009335Y7870088D01*
X6029858Y7886598D01*
X6046825Y7897571D01*
X6070549Y7909407D01*
X6090767Y7916925D01*
X6113221Y7922717D01*
X6134608Y7925866D01*
X6143752Y7926578D01*
X6165392Y7926933D01*
X6186474Y7924800D01*
X6203746Y7921701D01*
X6226048Y7915605D01*
X6248501Y7906461D01*
X6267602Y7896301D01*
X6285992Y7884007D01*
X6296660Y7875574D01*
X6296812Y7873695D01*
X6205474Y7782001D01*
X6164072Y7740142D01*
X6151372Y7730845D01*
X6142228Y7727340D01*
X6129375Y7728356D01*
X6111798Y7736586D01*
X6028842Y7789265D01*
X6022746Y7791551D01*
X6016040Y7792872D01*
X6005982Y7790434D01*
X5998108Y7784744D01*
X5992723Y7773974D01*
X5992774Y7763713D01*
X5996279Y7756194D01*
X6115100Y7616545D01*
X6123432Y7610398D01*
X6136284Y7604302D01*
X6151422Y7602118D01*
X6166002Y7604607D01*
X6179362Y7611160D01*
X6193282Y7625384D01*
X6332880Y7834325D01*
X6334252Y7834375D01*
X6345682Y7816596D01*
X6357620Y7792161D01*
X6364732Y7771739D01*
X6369964Y7750505D01*
X6373317Y7728102D01*
X6373317Y7690510D01*
X6369964Y7668107D01*
X6364732Y7646873D01*
X6357620Y7626400D01*
X6346799Y7604048D01*
X6335318Y7585760D01*
X6321044Y7566964D01*
X6301333Y7547102D01*
X6286144Y7534656D01*
X6267348Y7522159D01*
X6246469Y7511135D01*
X6225743Y7502906D01*
X6206794Y7497572D01*
X6187186Y7493863D01*
X6162040Y7491374D01*
X6134049Y7492644D01*
X6113221Y7495895D01*
X6093917Y7500772D01*
X6076645Y7506665D01*
X6060338Y7513878D01*
X6043066Y7523429D01*
X6029858Y7531963D01*
X6009335Y7548473D01*
X5988913Y7569911D01*
X5977229Y7585405D01*
X5966104Y7603032D01*
X5957925Y7619187D01*
X5949035Y7641996D01*
X5943092Y7665059D01*
X5939434Y7685379D01*
X5903427Y7685379D01*
X5906363Y7664043D01*
X5911392Y7641894D01*
X5920892Y7613243D01*
X5936589Y7581696D01*
X5950661Y7560309D01*
X5967069Y7539939D01*
X5986830Y7520178D01*
X6005423Y7505039D01*
X6028791Y7489545D01*
X6050178Y7478674D01*
X6063386Y7473086D01*
X6079134Y7467396D01*
X6097981Y7462266D01*
X6119317Y7458151D01*
X6140704Y7455865D01*
X6171184Y7455814D01*
X6192570Y7458151D01*
X6214567Y7462266D01*
X6238544Y7469174D01*
X6257645Y7476591D01*
X6281064Y7488326D01*
X6298336Y7499096D01*
X6321704Y7516571D01*
X6348222Y7543038D01*
X6361582Y7560309D01*
X6374282Y7579309D01*
X6386169Y7602016D01*
X6393434Y7619085D01*
X6397599Y7631480D01*
X6402374Y7647787D01*
X6406438Y7667091D01*
X6409131Y7686395D01*
X6409131Y7732166D01*
X6406438Y7751521D01*
X6402374Y7770825D01*
X6397599Y7787081D01*
X6393434Y7799527D01*
X6386169Y7816596D01*
X6374282Y7839303D01*
X6361633Y7858302D01*
X6355791Y7865668D01*
X6355791Y7867954D01*
X6386322Y7913725D01*
X6390335Y7923936D01*
X6390335Y7936026D01*
X6384594Y7942478D01*
X6373012Y7943443D01*
X6359347Y7936788D01*
X6322466Y7900314D01*
X6321196Y7902295D01*
X6298336Y7919516D01*
X6281064Y7930286D01*
X6257645Y7942021D01*
X6238544Y7949438D01*
X6214567Y7956346D01*
X6192570Y7960410D01*
X6172200Y7962392D01*
G37*
G36*
X7032548Y7806842D02*
G01*
X7022084Y7804912D01*
X7010704Y7800695D01*
X6998512Y7792567D01*
X6990384Y7783017D01*
X6984339Y7771688D01*
X6981139Y7759649D01*
X6981037Y7742326D01*
X6983526Y7732166D01*
X6988149Y7723022D01*
X6996988Y7714538D01*
X7007148Y7708696D01*
X7017969Y7704277D01*
X7042708Y7696962D01*
X7052462Y7691678D01*
X7056628Y7684871D01*
X7056729Y7674102D01*
X7053427Y7667802D01*
X7047992Y7663484D01*
X7036968Y7660284D01*
X7024420Y7662468D01*
X7009790Y7669682D01*
X6993839Y7684668D01*
X6976313Y7655915D01*
X6971995Y7648498D01*
X6985152Y7638034D01*
X6996734Y7631074D01*
X7010196Y7625943D01*
X7028230Y7622844D01*
X7040676Y7622844D01*
X7057999Y7625689D01*
X7069480Y7630058D01*
X7081367Y7637780D01*
X7091883Y7648956D01*
X7097928Y7660995D01*
X7101078Y7671663D01*
X7102398Y7688427D01*
X7099300Y7703972D01*
X7093000Y7716469D01*
X7084974Y7724495D01*
X7071207Y7731404D01*
X7055967Y7736484D01*
X7039660Y7741056D01*
X7030059Y7745933D01*
X7026808Y7750911D01*
X7025690Y7758988D01*
X7030059Y7766050D01*
X7037628Y7769707D01*
X7050227Y7770520D01*
X7064095Y7766303D01*
X7078167Y7757058D01*
X7079640Y7758633D01*
X7093305Y7790027D01*
X7091425Y7793177D01*
X7073900Y7801864D01*
X7057999Y7806080D01*
G37*
G36*
X6485940Y7803083D02*
G01*
X6485940Y7765237D01*
X6549644Y7765237D01*
X6559753Y7762240D01*
X6566001Y7755585D01*
X6568338Y7748676D01*
X6568338Y7735671D01*
X6565544Y7729016D01*
X6559245Y7723733D01*
X6551523Y7721041D01*
X6531203Y7720990D01*
X6530644Y7765237D01*
X6485940Y7765237D01*
X6485940Y7627924D01*
X6530695Y7627924D01*
X6530797Y7694574D01*
X6534150Y7689748D01*
X6570065Y7628432D01*
X6624269Y7627924D01*
X6624269Y7629144D01*
X6577482Y7698079D01*
X6583070Y7699349D01*
X6597802Y7706309D01*
X6607860Y7716418D01*
X6613906Y7729118D01*
X6616141Y7741208D01*
X6616141Y7754670D01*
X6613906Y7766761D01*
X6607098Y7780985D01*
X6595262Y7792516D01*
X6582664Y7798866D01*
X6568846Y7802067D01*
G37*
G36*
X6790029Y7802880D02*
G01*
X6790029Y7627924D01*
X6838848Y7627924D01*
X6838848Y7699146D01*
X6900875Y7699146D01*
X6900875Y7627924D01*
X6949694Y7627924D01*
X6949694Y7802880D01*
X6900875Y7802880D01*
X6900875Y7734706D01*
X6838848Y7734706D01*
X6838340Y7802372D01*
G37*
G36*
X6691884Y7752842D02*
G01*
X6680555Y7751318D01*
X6666433Y7747000D01*
X6653428Y7739278D01*
X6641033Y7726934D01*
X6633362Y7713878D01*
X6629196Y7700670D01*
X6628410Y7687411D01*
X6671564Y7687411D01*
X6671564Y7697622D01*
X6677253Y7709255D01*
X6683502Y7713675D01*
X6690868Y7716316D01*
X6698589Y7716418D01*
X6707378Y7714183D01*
X6714845Y7708087D01*
X6718655Y7700518D01*
X6720941Y7687919D01*
X6718655Y7675321D01*
X6714896Y7667904D01*
X6707682Y7661605D01*
X6700012Y7659471D01*
X6689852Y7659522D01*
X6680708Y7663637D01*
X6676898Y7667091D01*
X6671614Y7677251D01*
X6671564Y7687411D01*
X6628410Y7687411D01*
X6628130Y7682331D01*
X6631330Y7667294D01*
X6637375Y7654340D01*
X6646113Y7643164D01*
X6658305Y7633258D01*
X6670700Y7627061D01*
X6683298Y7623809D01*
X6699046Y7622590D01*
X6714185Y7625130D01*
X6725056Y7628890D01*
X6737146Y7636205D01*
X6748272Y7646416D01*
X6757365Y7660030D01*
X6762648Y7675778D01*
X6763867Y7691577D01*
X6760514Y7708087D01*
X6756146Y7717942D01*
X6748525Y7729118D01*
X6738670Y7738516D01*
X6729120Y7744917D01*
X6719773Y7748930D01*
X6708140Y7751825D01*
G37*
G36*
X6627825Y7590281D02*
G01*
X6617970Y7587538D01*
X6612585Y7583525D01*
X6608114Y7576972D01*
X6605727Y7565593D01*
X6605996Y7564221D01*
X6621018Y7564221D01*
X6622389Y7573264D01*
X6627215Y7578090D01*
X6633972Y7578090D01*
X6638442Y7574991D01*
X6640626Y7566812D01*
X6639204Y7557414D01*
X6634276Y7552436D01*
X6626199Y7553502D01*
X6623253Y7555992D01*
X6621018Y7564221D01*
X6605996Y7564221D01*
X6608013Y7554214D01*
X6613601Y7546238D01*
X6621729Y7542072D01*
X6635546Y7541259D01*
X6644944Y7543901D01*
X6652259Y7551216D01*
X6654749Y7559548D01*
X6654698Y7573518D01*
X6650990Y7581696D01*
X6646113Y7586167D01*
X6638645Y7589266D01*
G37*
G36*
X6573926Y7590180D02*
G01*
X6566814Y7588656D01*
X6560312Y7585252D01*
X6555384Y7578598D01*
X6553047Y7571689D01*
X6553098Y7560309D01*
X6555282Y7552486D01*
X6563207Y7543850D01*
X6571081Y7541514D01*
X6583934Y7541514D01*
X6592874Y7545831D01*
X6597751Y7553198D01*
X6598310Y7557973D01*
X6586118Y7561783D01*
X6585610Y7560309D01*
X6581597Y7553756D01*
X6576161Y7552385D01*
X6570929Y7554264D01*
X6568236Y7559294D01*
X6568897Y7574280D01*
X6573621Y7578090D01*
X6580530Y7578090D01*
X6584340Y7574280D01*
X6585153Y7571892D01*
X6597294Y7574584D01*
X6597903Y7577683D01*
X6591960Y7585913D01*
X6585102Y7589113D01*
G37*
G36*
X6666382Y7589367D02*
G01*
X6664959Y7587945D01*
X6664959Y7542530D01*
X6677152Y7542530D01*
X6677152Y7572349D01*
X6678625Y7570825D01*
X6685838Y7543038D01*
X6697370Y7542428D01*
X6705092Y7572502D01*
X6705650Y7542530D01*
X6717792Y7542530D01*
X6717792Y7589316D01*
X6698792Y7589316D01*
X6691680Y7562443D01*
X6684721Y7588808D01*
G37*
G36*
X6779869Y7589367D02*
G01*
X6779869Y7542530D01*
X6817461Y7542530D01*
X6817461Y7553706D01*
X6795160Y7553706D01*
X6794601Y7588808D01*
G37*
G36*
X6867601Y7589367D02*
G01*
X6856795Y7560818D01*
X6871157Y7560818D01*
X6874865Y7574025D01*
X6876034Y7574025D01*
X6879742Y7560818D01*
X6856795Y7560818D01*
X6849770Y7542428D01*
X6865670Y7543038D01*
X6867347Y7549642D01*
X6883298Y7549642D01*
X6885178Y7543038D01*
X6901027Y7542428D01*
X6899554Y7547102D01*
X6883857Y7588808D01*
G37*
G36*
X6939584Y7589367D02*
G01*
X6939025Y7564729D01*
X6922160Y7589316D01*
X6909358Y7589316D01*
X6907987Y7587945D01*
X6907987Y7542530D01*
X6922160Y7542530D01*
X6922719Y7566406D01*
X6938822Y7542530D01*
X6953808Y7542530D01*
X6953250Y7588808D01*
G37*
G36*
X6730034Y7589316D02*
G01*
X6730034Y7576261D01*
X6744106Y7576261D01*
X6745224Y7579106D01*
X6751370Y7579106D01*
X6755434Y7575042D01*
X6755434Y7573416D01*
X6752742Y7569708D01*
X6744766Y7569453D01*
X6744106Y7576261D01*
X6730034Y7576261D01*
X6730034Y7542530D01*
X6744157Y7542530D01*
X6744766Y7558278D01*
X6760006Y7559954D01*
X6766102Y7563459D01*
X6769658Y7570470D01*
X6769658Y7578191D01*
X6766712Y7585303D01*
X6757974Y7589266D01*
G37*
G36*
X6826605Y7589316D02*
G01*
X6826605Y7542530D01*
X6841896Y7542530D01*
X6841896Y7589316D01*
G37*
G36*
X6962851Y7589316D02*
G01*
X6961733Y7586472D01*
X6962394Y7577581D01*
X6977125Y7577023D01*
X6977125Y7542530D01*
X6992467Y7542530D01*
X6992213Y7576566D01*
X7006640Y7577175D01*
X7006640Y7589316D01*
G37*
D10*
X4139184Y2967736D02*
G01*
X4134611Y2965450D01*
X4130040Y2960878D01*
X4127754Y2956305D01*
X4127754Y2947415D01*
X4130040Y2942844D01*
X4134611Y2938271D01*
X4139184Y2935986D01*
X4146041Y2933700D01*
X4157472Y2933700D01*
X4164329Y2935986D01*
X4168647Y2938271D01*
X4173220Y2942844D01*
X4175506Y2947415D01*
X4175506Y2956305D01*
X4173220Y2960878D01*
X4168647Y2965450D01*
X4164329Y2967736D01*
X4157472Y2967736D01*
X4157472Y2956305D02*
G01*
X4157472Y2967736D01*
X4127754Y2982721D02*
G01*
X4175506Y2982721D01*
X4127754Y2982721D02*
G01*
X4175506Y3014726D01*
X4127754Y3014726D02*
G01*
X4175506Y3014726D01*
X4127754Y3029712D02*
G01*
X4175506Y3029712D01*
X4127754Y3029712D02*
G01*
X4127754Y3045460D01*
X4130040Y3052318D01*
X4134611Y3056889D01*
X4139184Y3059176D01*
X4146041Y3061462D01*
X4157472Y3061462D01*
X4164329Y3059176D01*
X4168647Y3056889D01*
X4173220Y3052318D01*
X4175506Y3045460D01*
X4175506Y3029712D01*
X4136897Y3175000D02*
G01*
X4134611Y3179571D01*
X4127754Y3186429D01*
X4175506Y3186429D01*
X4127754Y3212845D02*
G01*
X4130040Y3205987D01*
X4134611Y3203702D01*
X4139184Y3203702D01*
X4143756Y3205987D01*
X4146041Y3210560D01*
X4148327Y3219450D01*
X4150613Y3226307D01*
X4155186Y3230879D01*
X4159758Y3233165D01*
X4166361Y3233165D01*
X4170934Y3230879D01*
X4173220Y3228594D01*
X4175506Y3221736D01*
X4175506Y3212845D01*
X4173220Y3205987D01*
X4170934Y3203702D01*
X4166361Y3201415D01*
X4159758Y3201415D01*
X4155186Y3203702D01*
X4150613Y3208273D01*
X4148327Y3214878D01*
X4146041Y3224021D01*
X4143756Y3228594D01*
X4139184Y3230879D01*
X4134611Y3230879D01*
X4130040Y3228594D01*
X4127754Y3221736D01*
X4127754Y3212845D01*
X4136897Y3378200D02*
G01*
X4134611Y3382771D01*
X4127754Y3389629D01*
X4175506Y3389629D01*
X4143756Y3434079D02*
G01*
X4150613Y3431794D01*
X4155186Y3427221D01*
X4157472Y3420363D01*
X4157472Y3418078D01*
X4155186Y3411473D01*
X4150613Y3406902D01*
X4143756Y3404615D01*
X4141470Y3404615D01*
X4134611Y3406902D01*
X4130040Y3411473D01*
X4127754Y3418078D01*
X4127754Y3420363D01*
X4130040Y3427221D01*
X4134611Y3431794D01*
X4143756Y3434079D01*
X4155186Y3434079D01*
X4166361Y3431794D01*
X4173220Y3427221D01*
X4175506Y3420363D01*
X4175506Y3416045D01*
X4173220Y3409187D01*
X4168647Y3406902D01*
X4139184Y3583686D02*
G01*
X4136897Y3583686D01*
X4132325Y3585971D01*
X4130040Y3588257D01*
X4127754Y3592829D01*
X4127754Y3601973D01*
X4130040Y3606292D01*
X4132325Y3608578D01*
X4136897Y3610863D01*
X4141470Y3610863D01*
X4146041Y3608578D01*
X4152900Y3604005D01*
X4175506Y3581400D01*
X4175506Y3613150D01*
X4136897Y3628136D02*
G01*
X4134611Y3632707D01*
X4127754Y3639565D01*
X4175506Y3639565D01*
X3594354Y2938271D02*
G01*
X3594354Y2963163D01*
X3612641Y2949702D01*
X3612641Y2956305D01*
X3614927Y2960878D01*
X3617213Y2963163D01*
X3624072Y2965450D01*
X3628643Y2965450D01*
X3635247Y2963163D01*
X3639820Y2958592D01*
X3642106Y2951987D01*
X3642106Y2945129D01*
X3639820Y2938271D01*
X3637534Y2935986D01*
X3632961Y2933700D01*
X3632961Y2985007D02*
G01*
X3635247Y2982721D01*
X3632961Y2980436D01*
X3630929Y2982721D01*
X3632961Y2985007D01*
X3637534Y2985007D01*
X3642106Y2980436D01*
X3594354Y3004565D02*
G01*
X3594354Y3029712D01*
X3612641Y3015995D01*
X3612641Y3022854D01*
X3614927Y3027426D01*
X3617213Y3029712D01*
X3624072Y3031997D01*
X3628643Y3031997D01*
X3635247Y3029712D01*
X3639820Y3025139D01*
X3642106Y3018281D01*
X3642106Y3011423D01*
X3639820Y3004565D01*
X3637534Y3002279D01*
X3632961Y2999994D01*
X3594354Y3046984D02*
G01*
X3642106Y3065018D01*
X3594354Y3083305D02*
G01*
X3642106Y3065018D01*
X3605784Y3164586D02*
G01*
X3603497Y3164586D01*
X3598925Y3166871D01*
X3596640Y3169157D01*
X3594354Y3173729D01*
X3594354Y3182873D01*
X3596640Y3187192D01*
X3598925Y3189478D01*
X3603497Y3191763D01*
X3608070Y3191763D01*
X3612641Y3189478D01*
X3619500Y3184905D01*
X3642106Y3162300D01*
X3642106Y3194050D01*
X3605784Y3211321D02*
G01*
X3603497Y3211321D01*
X3598925Y3213607D01*
X3596640Y3215894D01*
X3594354Y3220465D01*
X3594354Y3229610D01*
X3596640Y3234181D01*
X3598925Y3236468D01*
X3603497Y3238754D01*
X3608070Y3238754D01*
X3612641Y3236468D01*
X3619500Y3231895D01*
X3642106Y3209036D01*
X3642106Y3241039D01*
X3605684Y3367788D02*
G01*
X3603652Y3367788D01*
X3599080Y3370074D01*
X3596794Y3372360D01*
X3594508Y3376932D01*
X3594508Y3386076D01*
X3596794Y3390394D01*
X3599080Y3392680D01*
X3603652Y3394966D01*
X3607970Y3394966D01*
X3612542Y3392680D01*
X3619400Y3388108D01*
X3642260Y3365502D01*
X3642260Y3397252D01*
X3594508Y3416810D02*
G01*
X3594508Y3441956D01*
X3612542Y3428240D01*
X3612542Y3435098D01*
X3614828Y3439670D01*
X3617114Y3441956D01*
X3623972Y3444242D01*
X3628544Y3444242D01*
X3635402Y3441956D01*
X3639974Y3437384D01*
X3642260Y3430526D01*
X3642260Y3423668D01*
X3639974Y3416810D01*
X3637688Y3414524D01*
X3633116Y3412238D01*
X3594354Y3608578D02*
G01*
X3594354Y3585971D01*
X3614927Y3583686D01*
X3612641Y3585971D01*
X3610356Y3592829D01*
X3610356Y3599687D01*
X3612641Y3606292D01*
X3617213Y3610863D01*
X3624072Y3613150D01*
X3628643Y3613150D01*
X3635247Y3610863D01*
X3639820Y3606292D01*
X3642106Y3599687D01*
X3642106Y3592829D01*
X3639820Y3585971D01*
X3637534Y3583686D01*
X3632961Y3581400D01*
X3594354Y3628136D02*
G01*
X3642106Y3646423D01*
X3594354Y3664457D02*
G01*
X3642106Y3646423D01*
D11*
X7213600Y2108200D02*
G01*
X7213600Y2173859D01*
X6993153Y2394305D01*
X6826250Y2394305D01*
X2184400Y7277100D02*
G01*
X1857908Y6950608D01*
X998702Y6950608D01*
X730300Y7219010D01*
X3786200Y2967812D02*
G01*
X3489248Y2670860D01*
X1603984Y2670860D01*
X3786200Y2967812D02*
G01*
X3960418Y2793593D01*
X4100499Y2793593D01*
X3786200Y3002000D02*
G01*
X3786200Y2967812D01*
X2971800Y7086600D02*
G01*
X2656408Y7401991D01*
X2469895Y7401991D01*
X5905169Y2206980D02*
G01*
X6594119Y2206980D01*
X6692900Y2108200D01*
X4927600Y2108200D02*
G01*
X4525899Y2509901D01*
X4493082Y2509901D01*
X2882900Y6248400D02*
G01*
X2628900Y6248400D01*
X5702300Y1846757D02*
G01*
X4669866Y1846757D01*
X7467600Y2108200D02*
G01*
X7467600Y2057323D01*
X7257034Y1846757D01*
X5702300Y1846757D01*
X5702300Y1846757D02*
G01*
X5702300Y2108200D01*
X6959600Y2108200D02*
G01*
X6826250Y2108200D01*
X5448300Y2108200D02*
G01*
X5448300Y2162403D01*
X6401638Y3115741D01*
X7684211Y3115741D01*
X5295900Y6502400D02*
G01*
X5043779Y6754520D01*
X3467404Y6754520D01*
X1256639Y6846671D02*
G01*
X1851990Y6846671D01*
X3467404Y6015761D02*
G01*
X1851990Y6015761D01*
X5247436Y3893108D02*
G01*
X7784871Y3893108D01*
X4241800Y9626600D02*
G01*
X2880588Y8265388D01*
X2571318Y8265388D01*
X2468854Y7047712D02*
G01*
X2817495Y7047712D01*
X2890672Y6974535D01*
X3165017Y6415201D02*
G01*
X2716377Y6415201D01*
X2874086Y9425965D02*
G01*
X3279165Y9425965D01*
X3479800Y9626600D01*
X4749800Y9626600D02*
G01*
X3085668Y7962468D01*
X2047925Y7962468D01*
X2047925Y6983145D02*
G01*
X2047925Y6860057D01*
X1946859Y6758990D01*
X4156989Y5657469D02*
G01*
X2040000Y5657469D01*
X1737740Y5908979D02*
G01*
X3492830Y5908979D01*
X3771900Y6188049D01*
X3771900Y6248400D01*
X4025900Y6248400D02*
G01*
X3771900Y6248400D01*
X3771900Y4343400D02*
G01*
X3753586Y4361713D01*
X3011246Y4361713D01*
X4025900Y4343400D02*
G01*
X3771900Y4343400D01*
X4749800Y6502400D02*
G01*
X2574747Y6502400D01*
X1473200Y7890484D02*
G01*
X1779041Y7890484D01*
X2441371Y7228154D01*
X2574747Y7228154D01*
X6515100Y6502400D02*
G01*
X5757316Y5744616D01*
X2246502Y5744616D01*
X2563926Y3505200D02*
G01*
X2472004Y3505200D01*
X2730500Y3505200D02*
G01*
X2563926Y3505200D01*
X2730500Y3505200D02*
G01*
X2897073Y3505200D01*
X3098800Y3251200D02*
G01*
X2932226Y3251200D01*
X2932226Y3251200D02*
G01*
X2932226Y3470046D01*
X2897073Y3505200D01*
X3786200Y3401999D02*
G01*
X3675379Y3512820D01*
X3417011Y3512820D01*
X3208248Y3721582D01*
X2628900Y4343400D02*
G01*
X2882900Y4343400D01*
X5765800Y7086600D02*
G01*
X5550281Y6871080D01*
X2794381Y6871080D01*
X2184400Y6261100D01*
X2184400Y6261100D02*
G01*
X1726488Y6719011D01*
X730300Y6719011D01*
X2730500Y3251200D02*
G01*
X2563926Y3251200D01*
X2015490Y3060700D02*
G01*
X2373426Y3060700D01*
X2563926Y3251200D01*
X5511800Y9626600D02*
G01*
X7675854Y7462545D01*
X7675854Y7013905D01*
X7416495Y6754545D01*
X7416495Y6185433D01*
X5160289Y3929227D01*
X5160289Y2142210D01*
X5194300Y2108200D01*
X1907743Y5435600D02*
G01*
X2038705Y5566562D01*
X6125362Y5566562D01*
X7061200Y6502400D01*
X1761489Y5435600D02*
G01*
X1907743Y5435600D01*
X1028700Y7890484D02*
G01*
X965200Y7890484D01*
X1346200Y8144484D02*
G01*
X1282700Y8144484D01*
X1028700Y7890484D01*
X1028700Y7890484D02*
G01*
X1471726Y7447457D01*
X1471726Y7353300D01*
X1638300Y7353300D02*
G01*
X1471726Y7353300D01*
X7543800Y7086600D02*
G01*
X7370114Y6912914D01*
X5922467Y6912914D01*
X5568950Y6559397D01*
X5568950Y6442278D01*
X5368061Y6241389D01*
X4416628Y6241389D01*
X4280687Y6377330D01*
X3327984Y6377330D01*
X3062782Y6112129D01*
X1786991Y6112129D01*
X1786991Y6112129D02*
G01*
X1614576Y5939713D01*
X1614576Y4638294D01*
X2377897Y3874973D01*
X3547414Y3874973D01*
X3786200Y3636187D01*
X3786200Y3601999D01*
X1638300Y6489700D02*
G01*
X1660017Y6489700D01*
X1786991Y6362725D01*
X1786991Y6112129D01*
D12*
G01*
X4749800Y6502400D03*
G01*
X5295900Y6502400D03*
G01*
X5842000Y6502400D03*
D13*
G01*
X4927600Y2108200D03*
G01*
X5194300Y2108200D03*
G01*
X5448300Y2108200D03*
G01*
X5702300Y2108200D03*
D12*
G01*
X6515100Y6502400D03*
G01*
X7061200Y6502400D03*
G01*
X7607300Y6502400D03*
D13*
G01*
X6692900Y2108200D03*
G01*
X6959600Y2108200D03*
G01*
X7213600Y2108200D03*
G01*
X7467600Y2108200D03*
D14*
G01*
X2971800Y7086600D03*
G01*
X3225800Y7086600D03*
G01*
X3479800Y7086600D03*
G01*
X3733800Y7086600D03*
G01*
X3987800Y7086600D03*
G01*
X4241800Y7086600D03*
G01*
X4495800Y7086600D03*
G01*
X4749800Y7086600D03*
G01*
X5003800Y7086600D03*
G01*
X5257800Y7086600D03*
G01*
X5511800Y7086600D03*
G01*
X5765800Y7086600D03*
G01*
X6019800Y7086600D03*
G01*
X6273800Y7086600D03*
G01*
X6527800Y7086600D03*
G01*
X6781800Y7086600D03*
G01*
X7035800Y7086600D03*
G01*
X7289800Y7086600D03*
G01*
X7543800Y7086600D03*
G01*
X7543800Y9626600D03*
G01*
X7289800Y9626600D03*
G01*
X7035800Y9626600D03*
G01*
X6781800Y9626600D03*
G01*
X6527800Y9626600D03*
G01*
X6273800Y9626600D03*
G01*
X6019800Y9626600D03*
G01*
X5765800Y9626600D03*
G01*
X5511800Y9626600D03*
G01*
X5257800Y9626600D03*
G01*
X5003800Y9626600D03*
G01*
X4749800Y9626600D03*
G01*
X4495800Y9626600D03*
G01*
X4241800Y9626600D03*
G01*
X3987800Y9626600D03*
G01*
X3733800Y9626600D03*
G01*
X3479800Y9626600D03*
G01*
X3225800Y9626600D03*
G01*
X2971800Y9626600D03*
D15*
G01*
X2794000Y2413000D03*
G01*
X3302000Y2413000D03*
D16*
G01*
X2730500Y3505200D03*
G01*
X2730500Y3251200D03*
D14*
G01*
X2015490Y4546600D03*
G01*
X1761489Y4673600D03*
G01*
X2015490Y4800600D03*
G01*
X1761489Y4927600D03*
G01*
X2015490Y5054600D03*
G01*
X1761489Y5181600D03*
G01*
X2015490Y5308600D03*
D17*
G01*
X1761489Y5435600D03*
D18*
G01*
X651510Y4201109D03*
G01*
X651510Y5781090D03*
D14*
G01*
X2015490Y2806700D03*
G01*
X1761489Y2933700D03*
G01*
X2015490Y3060700D03*
G01*
X1761489Y3187700D03*
G01*
X2015490Y3314700D03*
G01*
X1761489Y3441700D03*
G01*
X2015490Y3568700D03*
D17*
G01*
X1761489Y3695700D03*
D18*
G01*
X651510Y2461209D03*
G01*
X651510Y4041190D03*
D14*
G01*
X2882900Y4343400D03*
G01*
X2628900Y4343400D03*
G01*
X3771900Y4343400D03*
G01*
X4025900Y4343400D03*
G01*
X2628900Y6248400D03*
G01*
X2882900Y6248400D03*
G01*
X3771900Y6248400D03*
G01*
X4025900Y6248400D03*
D16*
G01*
X1638300Y6489700D03*
G01*
X1638300Y6235700D03*
G01*
X3098800Y3505200D03*
G01*
X3098800Y3251200D03*
D19*
G01*
X730300Y6219012D03*
G01*
X730300Y6719011D03*
G01*
X730300Y7219010D03*
D16*
G01*
X1638300Y7353300D03*
G01*
X1638300Y7099300D03*
D14*
G01*
X711200Y7890484D03*
G01*
X838200Y8144484D03*
G01*
X965200Y7890484D03*
G01*
X1092200Y8144484D03*
G01*
X1219200Y7890484D03*
G01*
X1346200Y8144484D03*
G01*
X1473200Y7890484D03*
D17*
G01*
X1600200Y8144510D03*
D20*
G01*
X365709Y9254489D03*
G01*
X1945690Y9254489D03*
D14*
G01*
X2184400Y7277100D03*
G01*
X2184400Y6261100D03*
G01*
X3786200Y3601999D03*
G01*
X3986199Y3601999D03*
G01*
X3786200Y3401999D03*
G01*
X3986199Y3401999D03*
G01*
X3786200Y3202000D03*
G01*
X3986199Y3202000D03*
G01*
X3786200Y3002000D03*
D17*
G01*
X3986199Y3002000D03*
D21*
G01*
X6826250Y2394305D03*
G01*
X1603984Y2670860D03*
G01*
X5905169Y2206980D03*
G01*
X2469895Y7401991D03*
G01*
X4100499Y2793593D03*
G01*
X4493082Y2509901D03*
G01*
X4669866Y1846757D03*
G01*
X6826250Y2108200D03*
G01*
X7684211Y3115741D03*
G01*
X3467404Y6754520D03*
G01*
X3467404Y6015761D03*
G01*
X1851990Y6015761D03*
G01*
X1851990Y6846671D03*
G01*
X1256639Y6846671D03*
G01*
X5247436Y3893108D03*
G01*
X7784871Y3893108D03*
G01*
X2468854Y7047712D03*
G01*
X2571318Y8265388D03*
G01*
X2890672Y6974535D03*
G01*
X2874086Y9425965D03*
G01*
X2716377Y6415201D03*
G01*
X3165017Y6415201D03*
G01*
X4156989Y5657469D03*
G01*
X2040000Y5657469D03*
G01*
X1946859Y6758990D03*
G01*
X2047925Y6983145D03*
G01*
X2047925Y7962468D03*
G01*
X1737740Y5908979D03*
G01*
X3011246Y4361713D03*
G01*
X2574747Y7228154D03*
G01*
X2574747Y6502400D03*
G01*
X2246502Y5744616D03*
G01*
X2472004Y3505200D03*
G01*
X3208248Y3721582D03*
M02*
