G04 Layer: TopLayer*
G04 EasyEDA v6.5.22, 2023-04-05 22:42:55*
G04 57731fc057a342d4b2a8a82ce43b0460,f9ecfe7abe46434aadffdc01d2bfd918,10*
G04 Gerber Generator version 0.2*
G04 Scale: 100 percent, Rotated: No, Reflected: No *
G04 Dimensions in millimeters *
G04 leading zeros omitted , absolute positions ,4 integer and 5 decimal *
%FSLAX45Y45*%
%MOMM*%

%ADD10C,0.2032*%
%ADD11C,0.7000*%
%ADD12C,1.8000*%
%ADD13C,1.5240*%
%ADD14C,2.5400*%
%ADD15R,1.9304X1.9304*%
%ADD16R,1.5240X1.5240*%
%ADD17O,1.9999959999999999X1.1999976*%
%ADD18C,1.8001*%
%ADD19C,3.0000*%
%ADD20O,1.1999976X1.9999959999999999*%
%ADD21C,0.6100*%
%ADD22C,0.0150*%

%LPD*%
G36*
X36068Y1803907D02*
G01*
X32156Y1804670D01*
X28905Y1806905D01*
X26670Y1810156D01*
X25908Y1814068D01*
X25908Y2076856D01*
X26822Y2081072D01*
X29464Y2084527D01*
X33274Y2086610D01*
X37592Y2086914D01*
X41656Y2085339D01*
X44653Y2082241D01*
X45821Y2080412D01*
X49936Y2076297D01*
X54813Y2073249D01*
X60299Y2071319D01*
X66598Y2070607D01*
X1354785Y2070607D01*
X1361084Y2071319D01*
X1366570Y2073249D01*
X1371447Y2076297D01*
X1375562Y2080412D01*
X1378610Y2085289D01*
X1380540Y2090775D01*
X1381252Y2097074D01*
X1381252Y2310079D01*
X1380540Y2316378D01*
X1378610Y2321864D01*
X1375562Y2326741D01*
X1371447Y2330856D01*
X1366570Y2333904D01*
X1361084Y2335834D01*
X1354785Y2336546D01*
X66598Y2336546D01*
X60299Y2335834D01*
X54813Y2333904D01*
X49936Y2330856D01*
X45821Y2326741D01*
X44653Y2324912D01*
X41656Y2321814D01*
X37592Y2320239D01*
X33274Y2320544D01*
X29464Y2322626D01*
X26822Y2326081D01*
X25908Y2330297D01*
X25908Y5861456D01*
X26822Y5865672D01*
X29464Y5869127D01*
X33274Y5871210D01*
X37592Y5871514D01*
X41656Y5869940D01*
X44653Y5866841D01*
X45821Y5865012D01*
X49936Y5860897D01*
X54813Y5857849D01*
X60299Y5855919D01*
X66598Y5855208D01*
X276047Y5855208D01*
X282346Y5855919D01*
X287832Y5857849D01*
X292709Y5860897D01*
X296824Y5865012D01*
X299872Y5869889D01*
X301802Y5875375D01*
X302514Y5881674D01*
X302514Y6094679D01*
X301802Y6100978D01*
X299872Y6106464D01*
X296824Y6111341D01*
X292709Y6115456D01*
X287832Y6118504D01*
X282346Y6120434D01*
X276047Y6121146D01*
X66598Y6121146D01*
X60299Y6120434D01*
X54813Y6118504D01*
X49936Y6115456D01*
X45821Y6111341D01*
X44653Y6109512D01*
X41656Y6106414D01*
X37592Y6104839D01*
X33274Y6105144D01*
X29464Y6107226D01*
X26822Y6110681D01*
X25908Y6114897D01*
X25908Y9869932D01*
X26670Y9873843D01*
X28905Y9877094D01*
X32156Y9879330D01*
X36068Y9880092D01*
X1882139Y9880092D01*
X1886051Y9879330D01*
X1889302Y9877094D01*
X1891538Y9873843D01*
X1892300Y9869932D01*
X1892300Y9390532D01*
X1891588Y9386824D01*
X1889556Y9383623D01*
X1886508Y9381388D01*
X1882851Y9380423D01*
X1869998Y9379508D01*
X1858010Y9376918D01*
X1846529Y9372600D01*
X1835759Y9366758D01*
X1825955Y9359392D01*
X1817319Y9350756D01*
X1809953Y9340900D01*
X1804111Y9330182D01*
X1799793Y9318701D01*
X1797202Y9306712D01*
X1796288Y9294114D01*
X1796288Y9214866D01*
X1797202Y9202267D01*
X1799793Y9190278D01*
X1804111Y9178798D01*
X1809953Y9168079D01*
X1817319Y9158274D01*
X1825955Y9149588D01*
X1835759Y9142222D01*
X1846529Y9136380D01*
X1858010Y9132112D01*
X1869998Y9129471D01*
X1882851Y9128556D01*
X1886508Y9127591D01*
X1889556Y9125356D01*
X1891588Y9122156D01*
X1892300Y9118447D01*
X1892300Y7530185D01*
X1891385Y7525969D01*
X1888845Y7522514D01*
X1885086Y7520431D01*
X1880768Y7520127D01*
X1876755Y7521600D01*
X1873046Y7523886D01*
X1867560Y7525816D01*
X1861261Y7526528D01*
X1669338Y7526528D01*
X1663039Y7525816D01*
X1657553Y7523886D01*
X1652676Y7520838D01*
X1648561Y7516723D01*
X1645513Y7511846D01*
X1643583Y7506360D01*
X1642872Y7500061D01*
X1642872Y7475169D01*
X1642110Y7471257D01*
X1639874Y7468006D01*
X1636623Y7465771D01*
X1632712Y7465009D01*
X1417523Y7465009D01*
X1413611Y7465771D01*
X1410360Y7468006D01*
X1091539Y7786776D01*
X1089253Y7790332D01*
X1088593Y7794498D01*
X1089660Y7798562D01*
X1092301Y7801813D01*
X1096060Y7803743D01*
X1100226Y7803997D01*
X1104188Y7802524D01*
X1106627Y7800949D01*
X1119022Y7795209D01*
X1132027Y7791196D01*
X1145489Y7788909D01*
X1159103Y7788452D01*
X1172667Y7789824D01*
X1185926Y7792974D01*
X1198676Y7797901D01*
X1210614Y7804454D01*
X1221587Y7812531D01*
X1231392Y7822031D01*
X1239875Y7832699D01*
X1246835Y7844434D01*
X1252118Y7856981D01*
X1255725Y7870139D01*
X1257554Y7883652D01*
X1257554Y7897317D01*
X1255725Y7910830D01*
X1250950Y7928711D01*
X1251712Y7932623D01*
X1253947Y7935925D01*
X1257249Y7938160D01*
X1261110Y7938973D01*
X1304391Y7938973D01*
X1308201Y7938211D01*
X1311402Y7936128D01*
X1313637Y7932978D01*
X1314551Y7929270D01*
X1313992Y7925460D01*
X1311249Y7917484D01*
X1308506Y7904124D01*
X1307592Y7890509D01*
X1308506Y7876895D01*
X1311249Y7863535D01*
X1315720Y7850631D01*
X1321866Y7838490D01*
X1329588Y7827264D01*
X1338732Y7817103D01*
X1349146Y7808315D01*
X1360627Y7801000D01*
X1373022Y7795259D01*
X1386027Y7791196D01*
X1399489Y7788960D01*
X1413103Y7788503D01*
X1426667Y7789824D01*
X1439926Y7793024D01*
X1452676Y7797901D01*
X1464614Y7804454D01*
X1475587Y7812531D01*
X1485392Y7822031D01*
X1493875Y7832750D01*
X1500784Y7844485D01*
X1506118Y7857032D01*
X1509725Y7870190D01*
X1511554Y7883702D01*
X1511554Y7897317D01*
X1509725Y7910830D01*
X1506118Y7923987D01*
X1500784Y7936534D01*
X1493875Y7948269D01*
X1485392Y7958988D01*
X1475587Y7968488D01*
X1464614Y7976565D01*
X1452676Y7983118D01*
X1439926Y7987995D01*
X1434947Y7989214D01*
X1431086Y7991043D01*
X1428343Y7994345D01*
X1427175Y7998459D01*
X1427784Y8002676D01*
X1430121Y8006283D01*
X1463243Y8039404D01*
X1466545Y8041640D01*
X1470456Y8042402D01*
X1612341Y8042402D01*
X1618640Y8043113D01*
X1624126Y8045043D01*
X1629003Y8048091D01*
X1633118Y8052206D01*
X1636217Y8057083D01*
X1638096Y8062569D01*
X1638807Y8068868D01*
X1638807Y8220151D01*
X1638096Y8226450D01*
X1636217Y8231936D01*
X1633118Y8236813D01*
X1629003Y8240928D01*
X1624126Y8243976D01*
X1618640Y8245906D01*
X1612341Y8246618D01*
X1461058Y8246618D01*
X1454759Y8245906D01*
X1449273Y8243976D01*
X1444396Y8240928D01*
X1440281Y8236813D01*
X1437233Y8231936D01*
X1435303Y8226450D01*
X1434592Y8220151D01*
X1434592Y8187232D01*
X1433830Y8183372D01*
X1431645Y8180070D01*
X1401267Y8149691D01*
X1397457Y8147303D01*
X1392986Y8146745D01*
X1388770Y8148167D01*
X1385570Y8151317D01*
X1383995Y8155482D01*
X1382725Y8164830D01*
X1379118Y8177987D01*
X1373784Y8190534D01*
X1366875Y8202269D01*
X1358392Y8212988D01*
X1348587Y8222488D01*
X1337614Y8230565D01*
X1325676Y8237118D01*
X1312926Y8241995D01*
X1299667Y8245195D01*
X1286103Y8246516D01*
X1272489Y8246059D01*
X1259027Y8243824D01*
X1246022Y8239759D01*
X1233627Y8234019D01*
X1222146Y8226704D01*
X1211732Y8217865D01*
X1202588Y8207756D01*
X1194866Y8196529D01*
X1188720Y8184337D01*
X1184249Y8171484D01*
X1181506Y8158124D01*
X1180592Y8144509D01*
X1181506Y8130895D01*
X1184249Y8117535D01*
X1187043Y8109508D01*
X1187551Y8105698D01*
X1186688Y8101990D01*
X1184452Y8098840D01*
X1181201Y8096758D01*
X1177442Y8095996D01*
X1134110Y8095996D01*
X1130198Y8096808D01*
X1126896Y8099044D01*
X1124712Y8102346D01*
X1123950Y8106257D01*
X1128725Y8124190D01*
X1130554Y8137702D01*
X1130554Y8151317D01*
X1128725Y8164830D01*
X1125169Y8177987D01*
X1119835Y8190534D01*
X1112875Y8202269D01*
X1104442Y8212988D01*
X1094638Y8222488D01*
X1083614Y8230565D01*
X1071676Y8237118D01*
X1058976Y8241995D01*
X1045667Y8245195D01*
X1032103Y8246516D01*
X1018489Y8246059D01*
X1005027Y8243824D01*
X992022Y8239759D01*
X979627Y8234019D01*
X968146Y8226704D01*
X957732Y8217865D01*
X948588Y8207756D01*
X940866Y8196529D01*
X934719Y8184337D01*
X930249Y8171484D01*
X927557Y8158124D01*
X926642Y8144509D01*
X927557Y8130895D01*
X930249Y8117535D01*
X935024Y8103819D01*
X935583Y8100009D01*
X934719Y8096250D01*
X932484Y8093100D01*
X929233Y8091017D01*
X925474Y8090306D01*
X877671Y8090306D01*
X873810Y8091068D01*
X870458Y8093303D01*
X868273Y8096605D01*
X867511Y8100517D01*
X868324Y8104428D01*
X871118Y8111032D01*
X874725Y8124190D01*
X876553Y8137702D01*
X876553Y8151317D01*
X874725Y8164830D01*
X871118Y8177987D01*
X865784Y8190534D01*
X858875Y8202269D01*
X850392Y8212988D01*
X840587Y8222488D01*
X829614Y8230565D01*
X817676Y8237118D01*
X804926Y8241995D01*
X791667Y8245195D01*
X778103Y8246516D01*
X764489Y8246059D01*
X751027Y8243824D01*
X738022Y8239759D01*
X725627Y8234019D01*
X714146Y8226704D01*
X703732Y8217865D01*
X694588Y8207756D01*
X686866Y8196529D01*
X680720Y8184337D01*
X676249Y8171484D01*
X673506Y8158124D01*
X672592Y8144509D01*
X673506Y8130895D01*
X676249Y8117535D01*
X680720Y8104631D01*
X686866Y8092490D01*
X694588Y8081264D01*
X703732Y8071103D01*
X714146Y8062315D01*
X725627Y8055000D01*
X738022Y8049259D01*
X751027Y8045196D01*
X756208Y8044332D01*
X760323Y8042656D01*
X763320Y8039404D01*
X764641Y8035239D01*
X764082Y8030870D01*
X761695Y8027111D01*
X713486Y7978902D01*
X709879Y7976565D01*
X705561Y7975955D01*
X701446Y7977174D01*
X690676Y7983067D01*
X677926Y7987995D01*
X664667Y7991144D01*
X651103Y7992516D01*
X637489Y7992059D01*
X624027Y7989773D01*
X611022Y7985759D01*
X598627Y7980019D01*
X587146Y7972653D01*
X576732Y7963865D01*
X567588Y7953756D01*
X559866Y7942529D01*
X553720Y7930337D01*
X549249Y7917484D01*
X546506Y7904073D01*
X545642Y7890509D01*
X546506Y7876895D01*
X549249Y7863535D01*
X553720Y7850631D01*
X559866Y7838440D01*
X567588Y7827213D01*
X576732Y7817103D01*
X587146Y7808315D01*
X598627Y7800949D01*
X611022Y7795209D01*
X624027Y7791196D01*
X637489Y7788909D01*
X651103Y7788452D01*
X664667Y7789824D01*
X677926Y7792974D01*
X690676Y7797901D01*
X702614Y7804454D01*
X713587Y7812531D01*
X723392Y7822031D01*
X730961Y7831581D01*
X732739Y7833309D01*
X734822Y7834579D01*
X740257Y7836966D01*
X746760Y7841030D01*
X754481Y7847634D01*
X784301Y7877454D01*
X787958Y7879791D01*
X792276Y7880400D01*
X796442Y7879130D01*
X799693Y7876286D01*
X801471Y7872272D01*
X803249Y7863535D01*
X807720Y7850631D01*
X813866Y7838440D01*
X821588Y7827213D01*
X830732Y7817103D01*
X841146Y7808315D01*
X852627Y7800949D01*
X865022Y7795209D01*
X878027Y7791196D01*
X891489Y7788909D01*
X905103Y7788452D01*
X911656Y7789113D01*
X916076Y7788605D01*
X919835Y7786217D01*
X1344777Y7361275D01*
X1350822Y7355890D01*
X1359306Y7350455D01*
X1361135Y7349490D01*
X1370482Y7345781D01*
X1378254Y7344003D01*
X1380337Y7343698D01*
X1388414Y7343190D01*
X1632712Y7343190D01*
X1636623Y7342428D01*
X1639874Y7340193D01*
X1642110Y7336942D01*
X1642872Y7333030D01*
X1642872Y7308138D01*
X1643583Y7301839D01*
X1645513Y7296353D01*
X1648561Y7291476D01*
X1652676Y7287361D01*
X1655318Y7285685D01*
X1658264Y7282891D01*
X1659889Y7279131D01*
X1659889Y7275068D01*
X1658264Y7271308D01*
X1655318Y7268514D01*
X1652676Y7266838D01*
X1648561Y7262723D01*
X1645513Y7257846D01*
X1643583Y7252360D01*
X1642872Y7246061D01*
X1642872Y7204709D01*
X1710689Y7204709D01*
X1710689Y7271512D01*
X1711452Y7275423D01*
X1713687Y7278674D01*
X1716938Y7280909D01*
X1720850Y7281672D01*
X1809750Y7281672D01*
X1813661Y7280909D01*
X1816912Y7278674D01*
X1819148Y7275423D01*
X1819910Y7271512D01*
X1819910Y7204709D01*
X1882139Y7204709D01*
X1886051Y7203948D01*
X1889302Y7201712D01*
X1891538Y7198461D01*
X1892300Y7194550D01*
X1892300Y7105650D01*
X1891538Y7101738D01*
X1889302Y7098487D01*
X1886051Y7096252D01*
X1882139Y7095490D01*
X1819910Y7095490D01*
X1819910Y7027672D01*
X1861261Y7027672D01*
X1867560Y7028383D01*
X1873046Y7030313D01*
X1876755Y7032599D01*
X1880768Y7034072D01*
X1885086Y7033768D01*
X1888845Y7031685D01*
X1891385Y7028230D01*
X1892300Y7024014D01*
X1892300Y6700113D01*
X1891538Y6696252D01*
X1889302Y6692950D01*
X1886051Y6690766D01*
X1882139Y6689953D01*
X1268730Y6689953D01*
X1258265Y6689090D01*
X1248511Y6686651D01*
X1239316Y6682587D01*
X1230884Y6677101D01*
X1223518Y6670294D01*
X1217320Y6662369D01*
X1212545Y6653530D01*
X1209294Y6644030D01*
X1207617Y6634073D01*
X1207617Y6624066D01*
X1209294Y6614109D01*
X1212545Y6604609D01*
X1217320Y6595770D01*
X1223518Y6587845D01*
X1230884Y6581038D01*
X1239316Y6575552D01*
X1248511Y6571488D01*
X1258265Y6569049D01*
X1268730Y6568186D01*
X2386939Y6568186D01*
X2395016Y6568643D01*
X2397099Y6568948D01*
X2406853Y6571386D01*
X2414219Y6574434D01*
X2422804Y6579616D01*
X2424531Y6580886D01*
X2430576Y6586220D01*
X2534259Y6689902D01*
X2537561Y6692138D01*
X2541422Y6692900D01*
X2547823Y6692900D01*
X2551379Y6692239D01*
X2554478Y6690410D01*
X2562961Y6679590D01*
X2570327Y6672783D01*
X2578760Y6667296D01*
X2587955Y6663283D01*
X2597708Y6660794D01*
X2608173Y6659930D01*
X2814472Y6659930D01*
X2818282Y6659168D01*
X2821584Y6657035D01*
X2823768Y6653784D01*
X2824632Y6649974D01*
X2823921Y6646113D01*
X2821838Y6642811D01*
X2818993Y6639763D01*
X2810459Y6627977D01*
X2803448Y6615226D01*
X2798064Y6601714D01*
X2794457Y6587591D01*
X2792628Y6573164D01*
X2792628Y6558635D01*
X2794457Y6544208D01*
X2798064Y6530085D01*
X2803448Y6516573D01*
X2810459Y6503822D01*
X2818993Y6492036D01*
X2828950Y6481419D01*
X2840177Y6472123D01*
X2852470Y6464350D01*
X2865628Y6458153D01*
X2879496Y6453632D01*
X2893771Y6450939D01*
X2908300Y6450025D01*
X2922828Y6450939D01*
X2937103Y6453632D01*
X2950972Y6458153D01*
X2964129Y6464350D01*
X2976422Y6472123D01*
X2987649Y6481419D01*
X2997606Y6492036D01*
X3006140Y6503822D01*
X3013151Y6516573D01*
X3018536Y6530085D01*
X3022142Y6544208D01*
X3023971Y6558635D01*
X3023971Y6573164D01*
X3022142Y6587591D01*
X3018536Y6601714D01*
X3013151Y6615226D01*
X3006140Y6627977D01*
X2997606Y6639763D01*
X2994761Y6642811D01*
X2992678Y6646113D01*
X2991967Y6649974D01*
X2992831Y6653784D01*
X2995015Y6657035D01*
X2998317Y6659168D01*
X3002127Y6659930D01*
X3068472Y6659930D01*
X3072282Y6659168D01*
X3075584Y6657035D01*
X3077768Y6653784D01*
X3078632Y6649974D01*
X3077921Y6646113D01*
X3075838Y6642811D01*
X3072993Y6639763D01*
X3064459Y6627977D01*
X3057448Y6615226D01*
X3052064Y6601714D01*
X3048457Y6587591D01*
X3046628Y6573164D01*
X3046628Y6558635D01*
X3048457Y6544208D01*
X3052064Y6530085D01*
X3057448Y6516573D01*
X3064459Y6503822D01*
X3072993Y6492036D01*
X3082950Y6481419D01*
X3094177Y6472123D01*
X3106470Y6464350D01*
X3119628Y6458153D01*
X3133496Y6453632D01*
X3147771Y6450939D01*
X3162300Y6450025D01*
X3176828Y6450939D01*
X3191103Y6453632D01*
X3204972Y6458153D01*
X3218129Y6464350D01*
X3230422Y6472123D01*
X3241649Y6481419D01*
X3251606Y6492036D01*
X3260140Y6503822D01*
X3267151Y6516573D01*
X3272536Y6530085D01*
X3276142Y6544208D01*
X3277971Y6558635D01*
X3277971Y6573164D01*
X3276142Y6587591D01*
X3272536Y6601714D01*
X3267151Y6615226D01*
X3260140Y6627977D01*
X3251606Y6639763D01*
X3248761Y6642811D01*
X3246678Y6646113D01*
X3245967Y6649974D01*
X3246831Y6653784D01*
X3249015Y6657035D01*
X3252317Y6659168D01*
X3256127Y6659930D01*
X3322472Y6659930D01*
X3326282Y6659168D01*
X3329584Y6657035D01*
X3331768Y6653784D01*
X3332632Y6649974D01*
X3331921Y6646113D01*
X3329838Y6642811D01*
X3326993Y6639763D01*
X3318459Y6627977D01*
X3311448Y6615226D01*
X3306064Y6601714D01*
X3302457Y6587591D01*
X3300628Y6573164D01*
X3300628Y6558635D01*
X3302457Y6544208D01*
X3306064Y6530085D01*
X3311448Y6516573D01*
X3318459Y6503822D01*
X3326993Y6492036D01*
X3336950Y6481419D01*
X3348177Y6472123D01*
X3360470Y6464350D01*
X3373628Y6458153D01*
X3387496Y6453632D01*
X3401771Y6450939D01*
X3416300Y6450025D01*
X3430828Y6450939D01*
X3445103Y6453632D01*
X3458972Y6458153D01*
X3472129Y6464350D01*
X3484422Y6472123D01*
X3495649Y6481419D01*
X3505606Y6492036D01*
X3514140Y6503822D01*
X3521151Y6516573D01*
X3526536Y6530085D01*
X3530142Y6544208D01*
X3531971Y6558635D01*
X3531971Y6573164D01*
X3530142Y6587591D01*
X3528212Y6595109D01*
X3528060Y6599478D01*
X3529787Y6603542D01*
X3533038Y6606438D01*
X3537204Y6607759D01*
X3541572Y6607200D01*
X3545230Y6604812D01*
X3553612Y6596430D01*
X3555441Y6593992D01*
X3556406Y6591046D01*
X3556508Y6587998D01*
X3554628Y6573164D01*
X3554628Y6558635D01*
X3556457Y6544208D01*
X3560064Y6530085D01*
X3565448Y6516573D01*
X3572459Y6503822D01*
X3580993Y6492036D01*
X3590950Y6481419D01*
X3602177Y6472123D01*
X3614470Y6464350D01*
X3627628Y6458153D01*
X3641496Y6453632D01*
X3655771Y6450939D01*
X3670300Y6450025D01*
X3684828Y6450939D01*
X3699103Y6453632D01*
X3712972Y6458153D01*
X3726129Y6464350D01*
X3738422Y6472123D01*
X3749649Y6481419D01*
X3759606Y6492036D01*
X3768140Y6503822D01*
X3775151Y6516573D01*
X3780536Y6530085D01*
X3784142Y6544208D01*
X3785971Y6558635D01*
X3785971Y6573164D01*
X3784142Y6587591D01*
X3780536Y6601714D01*
X3775151Y6615226D01*
X3768140Y6627977D01*
X3759606Y6639763D01*
X3749649Y6650380D01*
X3738422Y6659676D01*
X3726129Y6667449D01*
X3713175Y6673545D01*
X3710025Y6675831D01*
X3707993Y6679184D01*
X3707384Y6682994D01*
X3708196Y6686803D01*
X3710432Y6690004D01*
X3713683Y6692138D01*
X3717493Y6692900D01*
X3877106Y6692900D01*
X3880104Y6692290D01*
X3883101Y6692900D01*
X3960977Y6692900D01*
X3964838Y6692138D01*
X3968140Y6689902D01*
X3972661Y6685381D01*
X3974896Y6682079D01*
X3975658Y6678218D01*
X3975658Y6617258D01*
X4036618Y6617258D01*
X4040479Y6616496D01*
X4043781Y6614261D01*
X4061612Y6596430D01*
X4063441Y6593992D01*
X4064406Y6591046D01*
X4064508Y6587998D01*
X4062628Y6573164D01*
X4062628Y6558635D01*
X4064457Y6544208D01*
X4068064Y6530085D01*
X4073448Y6516573D01*
X4080459Y6503822D01*
X4088993Y6492036D01*
X4098950Y6481419D01*
X4110177Y6472123D01*
X4122470Y6464350D01*
X4135628Y6458153D01*
X4149496Y6453632D01*
X4163771Y6450939D01*
X4178300Y6450025D01*
X4192828Y6450939D01*
X4207103Y6453632D01*
X4220972Y6458153D01*
X4234129Y6464350D01*
X4246422Y6472123D01*
X4257649Y6481419D01*
X4267606Y6492036D01*
X4276140Y6503822D01*
X4283151Y6516573D01*
X4288536Y6530085D01*
X4292142Y6544208D01*
X4293971Y6558635D01*
X4293971Y6573164D01*
X4292142Y6587591D01*
X4288536Y6601714D01*
X4283151Y6615226D01*
X4276140Y6627977D01*
X4267606Y6639763D01*
X4257649Y6650380D01*
X4246422Y6659676D01*
X4234129Y6667449D01*
X4221175Y6673545D01*
X4218025Y6675831D01*
X4215993Y6679184D01*
X4215384Y6682994D01*
X4216196Y6686803D01*
X4218432Y6690004D01*
X4221683Y6692138D01*
X4225493Y6692900D01*
X4866792Y6692900D01*
X4870551Y6692188D01*
X4873752Y6690156D01*
X4875987Y6687108D01*
X4876952Y6683400D01*
X4877206Y6679285D01*
X4879949Y6665925D01*
X4884420Y6653022D01*
X4890566Y6640880D01*
X4898288Y6629653D01*
X4907432Y6619494D01*
X4917846Y6610705D01*
X4929327Y6603390D01*
X4941722Y6597650D01*
X4954727Y6593586D01*
X4968189Y6591350D01*
X4981803Y6590893D01*
X4995367Y6592214D01*
X5008626Y6595414D01*
X5021376Y6600291D01*
X5033314Y6606844D01*
X5044287Y6614922D01*
X5054092Y6624421D01*
X5062575Y6635140D01*
X5069535Y6646875D01*
X5074818Y6659422D01*
X5078425Y6672580D01*
X5080000Y6684111D01*
X5081117Y6687566D01*
X5083352Y6690410D01*
X5086502Y6692239D01*
X5090058Y6692900D01*
X5388457Y6692900D01*
X5392318Y6692138D01*
X5395620Y6689902D01*
X5397804Y6686651D01*
X5398617Y6682740D01*
X5397804Y6678828D01*
X5395620Y6675577D01*
X4799126Y6079083D01*
X4795824Y6076848D01*
X4791964Y6076086D01*
X860602Y6076086D01*
X856792Y6076848D01*
X853541Y6078982D01*
X851306Y6082182D01*
X850493Y6085992D01*
X851103Y6089853D01*
X853186Y6093155D01*
X865378Y6106312D01*
X876249Y6120790D01*
X885545Y6136335D01*
X886155Y6137656D01*
X811631Y6137656D01*
X811631Y6086246D01*
X810869Y6082334D01*
X808685Y6079083D01*
X805383Y6076848D01*
X801471Y6076086D01*
X670001Y6076086D01*
X666089Y6076848D01*
X662838Y6079083D01*
X651916Y6089954D01*
X649732Y6093256D01*
X648970Y6097117D01*
X648970Y6137656D01*
X608431Y6137656D01*
X604570Y6138418D01*
X601268Y6140602D01*
X587248Y6154623D01*
X585063Y6157925D01*
X584250Y6161786D01*
X584250Y6290208D01*
X585063Y6294069D01*
X587248Y6297371D01*
X590550Y6299555D01*
X594410Y6300368D01*
X648970Y6300368D01*
X648970Y6374739D01*
X643686Y6372098D01*
X628396Y6362344D01*
X614172Y6351117D01*
X601522Y6338773D01*
X598220Y6336639D01*
X594360Y6335877D01*
X590499Y6336690D01*
X587197Y6338925D01*
X585063Y6342176D01*
X584250Y6346037D01*
X584250Y6482638D01*
X585063Y6486550D01*
X587248Y6489801D01*
X651916Y6554520D01*
X655269Y6556756D01*
X659231Y6557467D01*
X663194Y6556654D01*
X668274Y6554419D01*
X685495Y6548881D01*
X703224Y6545224D01*
X721258Y6543344D01*
X739343Y6543344D01*
X757377Y6545224D01*
X775106Y6548881D01*
X792327Y6554419D01*
X808939Y6561683D01*
X824687Y6570573D01*
X839469Y6581089D01*
X853084Y6593027D01*
X865378Y6606336D01*
X876249Y6620814D01*
X885545Y6636359D01*
X893216Y6652717D01*
X899210Y6669836D01*
X903325Y6687464D01*
X905662Y6705447D01*
X906119Y6723532D01*
X904748Y6741566D01*
X901496Y6759397D01*
X896416Y6776770D01*
X889609Y6793585D01*
X881075Y6809536D01*
X870966Y6824573D01*
X859383Y6838492D01*
X846429Y6851142D01*
X832205Y6862368D01*
X816914Y6872071D01*
X800760Y6880199D01*
X783793Y6886549D01*
X766267Y6891172D01*
X748385Y6893966D01*
X730300Y6894880D01*
X712216Y6893966D01*
X694334Y6891172D01*
X676808Y6886549D01*
X659841Y6880199D01*
X643686Y6872071D01*
X628396Y6862368D01*
X614172Y6851142D01*
X601218Y6838492D01*
X589635Y6824573D01*
X579526Y6809536D01*
X570992Y6793585D01*
X564184Y6776770D01*
X559104Y6759397D01*
X555853Y6741566D01*
X554482Y6723532D01*
X554939Y6705447D01*
X557276Y6687464D01*
X561390Y6669836D01*
X567385Y6652717D01*
X568655Y6648043D01*
X567944Y6643979D01*
X565658Y6640525D01*
X480517Y6555384D01*
X475183Y6549339D01*
X473913Y6547612D01*
X468731Y6539026D01*
X465683Y6531660D01*
X463245Y6521907D01*
X462940Y6519824D01*
X462483Y6511747D01*
X462483Y6132677D01*
X462940Y6124651D01*
X463245Y6122568D01*
X465683Y6112814D01*
X468731Y6105448D01*
X469696Y6103569D01*
X473913Y6096812D01*
X480517Y6089091D01*
X597255Y5972352D01*
X603300Y5966968D01*
X611784Y5961532D01*
X613613Y5960567D01*
X622960Y5956858D01*
X630732Y5955080D01*
X632815Y5954776D01*
X640892Y5954268D01*
X1928368Y5954268D01*
X1932228Y5953506D01*
X1935530Y5951270D01*
X1937715Y5948019D01*
X1938528Y5944108D01*
X1937715Y5940196D01*
X1935530Y5936945D01*
X1575409Y5576824D01*
X1570075Y5570778D01*
X1568805Y5569051D01*
X1563624Y5560466D01*
X1560576Y5553100D01*
X1558137Y5543346D01*
X1557832Y5541264D01*
X1557375Y5533186D01*
X1557375Y5071160D01*
X1557832Y5063083D01*
X1558137Y5061000D01*
X1560576Y5051247D01*
X1563624Y5043881D01*
X1568805Y5035296D01*
X1570075Y5033568D01*
X1575409Y5027523D01*
X1657197Y4945735D01*
X1659585Y4941976D01*
X1660143Y4937556D01*
X1659483Y4931003D01*
X1659940Y4917389D01*
X1662175Y4903927D01*
X1666239Y4890922D01*
X1671980Y4878527D01*
X1679295Y4867046D01*
X1688134Y4856632D01*
X1698243Y4847488D01*
X1709470Y4839766D01*
X1721662Y4833620D01*
X1734515Y4829149D01*
X1747875Y4826457D01*
X1761489Y4825542D01*
X1775104Y4826457D01*
X1788464Y4829149D01*
X1796440Y4831943D01*
X1800250Y4832502D01*
X1804009Y4831588D01*
X1807159Y4829352D01*
X1809242Y4826101D01*
X1809953Y4822342D01*
X1809953Y4779010D01*
X1809191Y4775098D01*
X1806956Y4771796D01*
X1803654Y4769612D01*
X1799742Y4768850D01*
X1781810Y4773625D01*
X1768297Y4775454D01*
X1754682Y4775454D01*
X1741170Y4773625D01*
X1728012Y4770018D01*
X1715465Y4764684D01*
X1703730Y4757775D01*
X1693011Y4749292D01*
X1683512Y4739487D01*
X1675434Y4728514D01*
X1668881Y4716576D01*
X1664004Y4703826D01*
X1660804Y4690567D01*
X1659483Y4677003D01*
X1659940Y4663389D01*
X1662175Y4649927D01*
X1666239Y4636922D01*
X1671980Y4624527D01*
X1679295Y4613046D01*
X1688134Y4602632D01*
X1698243Y4593488D01*
X1709470Y4585766D01*
X1721662Y4579620D01*
X1739849Y4573117D01*
X1742693Y4569866D01*
X1743964Y4565700D01*
X1743354Y4561382D01*
X1741017Y4557725D01*
X1589938Y4406646D01*
X1583334Y4398924D01*
X1579118Y4392168D01*
X1578152Y4390288D01*
X1575104Y4382922D01*
X1572666Y4373168D01*
X1572361Y4371086D01*
X1571904Y4363059D01*
X1571904Y2859582D01*
X1572361Y2851505D01*
X1572666Y2849422D01*
X1575104Y2839669D01*
X1578152Y2832303D01*
X1583334Y2823718D01*
X1584604Y2821990D01*
X1589938Y2815945D01*
X1881987Y2523947D01*
X1888032Y2518562D01*
X1896465Y2513126D01*
X1898345Y2512161D01*
X1907692Y2508453D01*
X1915464Y2506675D01*
X1917547Y2506370D01*
X1925574Y2505862D01*
X2506929Y2505862D01*
X2510790Y2505100D01*
X2514041Y2502916D01*
X2516276Y2499664D01*
X2517089Y2495804D01*
X2516327Y2491943D01*
X2513584Y2488031D01*
X2503271Y2474722D01*
X2494432Y2460345D01*
X2487269Y2445156D01*
X2481783Y2429205D01*
X2478074Y2412746D01*
X2476246Y2396032D01*
X2476246Y2379167D01*
X2478074Y2362454D01*
X2481783Y2345994D01*
X2487269Y2330043D01*
X2494432Y2314854D01*
X2503271Y2300478D01*
X2513584Y2287168D01*
X2525369Y2275128D01*
X2538374Y2264410D01*
X2552446Y2255215D01*
X2567482Y2247595D01*
X2583281Y2241702D01*
X2599588Y2237536D01*
X2616250Y2235250D01*
X2633116Y2234742D01*
X2649880Y2236165D01*
X2666441Y2239365D01*
X2682494Y2244394D01*
X2697937Y2251202D01*
X2712516Y2259584D01*
X2726080Y2269591D01*
X2738475Y2280970D01*
X2749550Y2293670D01*
X2759151Y2307539D01*
X2767177Y2322372D01*
X2773527Y2337968D01*
X2778099Y2354173D01*
X2780842Y2370785D01*
X2781808Y2387600D01*
X2780842Y2404414D01*
X2778099Y2421026D01*
X2773527Y2437231D01*
X2767177Y2452827D01*
X2759151Y2467660D01*
X2749550Y2481529D01*
X2742996Y2489047D01*
X2741066Y2492349D01*
X2740507Y2496159D01*
X2741422Y2499918D01*
X2743657Y2503068D01*
X2746908Y2505151D01*
X2750667Y2505862D01*
X3014929Y2505862D01*
X3018790Y2505100D01*
X3022041Y2502916D01*
X3024276Y2499664D01*
X3025089Y2495804D01*
X3024327Y2491943D01*
X3021584Y2488031D01*
X3011271Y2474722D01*
X3002432Y2460345D01*
X2995269Y2445156D01*
X2989783Y2429205D01*
X2986074Y2412746D01*
X2984246Y2396032D01*
X2984246Y2379167D01*
X2986074Y2362454D01*
X2989783Y2345994D01*
X2995269Y2330043D01*
X3002432Y2314854D01*
X3011271Y2300478D01*
X3021584Y2287168D01*
X3033369Y2275128D01*
X3046374Y2264410D01*
X3060446Y2255215D01*
X3075482Y2247595D01*
X3091281Y2241702D01*
X3107588Y2237536D01*
X3124250Y2235250D01*
X3141116Y2234742D01*
X3157880Y2236165D01*
X3174441Y2239365D01*
X3187242Y2243378D01*
X3190900Y2243836D01*
X3194456Y2242972D01*
X3197453Y2240889D01*
X3288944Y2149449D01*
X3294989Y2144064D01*
X3303422Y2138629D01*
X3305301Y2137664D01*
X3314649Y2133955D01*
X3322421Y2132177D01*
X3324504Y2131872D01*
X3332530Y2131364D01*
X5112207Y2131364D01*
X5122672Y2132228D01*
X5132425Y2134717D01*
X5141620Y2138730D01*
X5150053Y2144217D01*
X5157419Y2151024D01*
X5163616Y2159000D01*
X5168392Y2167839D01*
X5171643Y2177338D01*
X5173319Y2187244D01*
X5173319Y2197303D01*
X5171643Y2207209D01*
X5168392Y2216708D01*
X5163616Y2225548D01*
X5157419Y2233523D01*
X5150053Y2240330D01*
X5141620Y2245817D01*
X5132425Y2249830D01*
X5122672Y2252319D01*
X5112207Y2253183D01*
X3785768Y2253183D01*
X3782009Y2253894D01*
X3778808Y2255926D01*
X3776573Y2259025D01*
X3775608Y2262682D01*
X3776116Y2266492D01*
X3777945Y2269794D01*
X3786276Y2279904D01*
X3794048Y2292146D01*
X3800246Y2305354D01*
X3804767Y2319172D01*
X3807460Y2333498D01*
X3808374Y2347976D01*
X3807460Y2362504D01*
X3804767Y2376830D01*
X3800246Y2390648D01*
X3794048Y2403805D01*
X3786276Y2416098D01*
X3776979Y2427325D01*
X3766362Y2437282D01*
X3754577Y2445867D01*
X3741826Y2452878D01*
X3728313Y2458212D01*
X3714191Y2461818D01*
X3699764Y2463647D01*
X3685235Y2463647D01*
X3670808Y2461818D01*
X3656685Y2458212D01*
X3643172Y2452878D01*
X3630422Y2445867D01*
X3618636Y2437282D01*
X3608019Y2427325D01*
X3598722Y2416098D01*
X3590950Y2403805D01*
X3584752Y2390648D01*
X3580231Y2376830D01*
X3577539Y2362504D01*
X3576624Y2347976D01*
X3577539Y2333498D01*
X3580231Y2319172D01*
X3584752Y2305354D01*
X3590950Y2292146D01*
X3598722Y2279904D01*
X3607054Y2269794D01*
X3608882Y2266492D01*
X3609390Y2262682D01*
X3608425Y2259025D01*
X3606190Y2255926D01*
X3602990Y2253894D01*
X3599230Y2253183D01*
X3361639Y2253183D01*
X3357778Y2253945D01*
X3354476Y2256180D01*
X3283712Y2326894D01*
X3281679Y2329840D01*
X3280765Y2333345D01*
X3281121Y2336901D01*
X3286099Y2354173D01*
X3288842Y2370785D01*
X3289808Y2387600D01*
X3288842Y2404414D01*
X3286099Y2421026D01*
X3281527Y2437231D01*
X3275177Y2452827D01*
X3267151Y2467660D01*
X3257550Y2481529D01*
X3246475Y2494229D01*
X3234080Y2505608D01*
X3220516Y2515616D01*
X3205937Y2523998D01*
X3190595Y2530754D01*
X3187395Y2532989D01*
X3185261Y2536291D01*
X3184499Y2540152D01*
X3185312Y2543962D01*
X3187496Y2547213D01*
X3256635Y2616352D01*
X3259734Y2618486D01*
X3263392Y2619349D01*
X3267100Y2618790D01*
X3270351Y2616911D01*
X3272739Y2614015D01*
X3276193Y2607665D01*
X3282340Y2599690D01*
X3289757Y2592882D01*
X3298190Y2587396D01*
X3307384Y2583383D01*
X3317138Y2580894D01*
X3327552Y2580030D01*
X3570630Y2580030D01*
X3574796Y2579166D01*
X3578199Y2576677D01*
X3580282Y2573020D01*
X3584752Y2559354D01*
X3590950Y2546146D01*
X3598722Y2533904D01*
X3608019Y2522677D01*
X3618636Y2512720D01*
X3630422Y2504135D01*
X3643172Y2497124D01*
X3656685Y2491790D01*
X3670808Y2488184D01*
X3685235Y2486355D01*
X3699764Y2486355D01*
X3714191Y2488184D01*
X3728313Y2491790D01*
X3741826Y2497124D01*
X3754577Y2504135D01*
X3766362Y2512720D01*
X3776979Y2522677D01*
X3786276Y2533904D01*
X3794048Y2546146D01*
X3800246Y2559354D01*
X3804767Y2573172D01*
X3807460Y2587498D01*
X3808374Y2601976D01*
X3807460Y2616504D01*
X3804767Y2630830D01*
X3800246Y2644648D01*
X3794048Y2657805D01*
X3786276Y2670098D01*
X3776979Y2681325D01*
X3766362Y2691282D01*
X3754577Y2699867D01*
X3741826Y2706878D01*
X3728313Y2712212D01*
X3714191Y2715818D01*
X3699764Y2717647D01*
X3685235Y2717647D01*
X3670808Y2715818D01*
X3656685Y2712212D01*
X3643172Y2706878D01*
X3636314Y2703118D01*
X3633978Y2702153D01*
X3631437Y2701848D01*
X3366617Y2701848D01*
X3362756Y2702610D01*
X3359454Y2704846D01*
X3357270Y2708097D01*
X3356457Y2712008D01*
X3357270Y2715920D01*
X3359454Y2719171D01*
X3432403Y2792120D01*
X3435654Y2794304D01*
X3439566Y2795117D01*
X3588562Y2795117D01*
X3591915Y2794508D01*
X3594912Y2792882D01*
X3597148Y2790393D01*
X3598722Y2787904D01*
X3608019Y2776677D01*
X3618636Y2766720D01*
X3630422Y2758135D01*
X3643172Y2751124D01*
X3656685Y2745790D01*
X3670808Y2742184D01*
X3685235Y2740355D01*
X3699764Y2740355D01*
X3714191Y2742184D01*
X3728313Y2745790D01*
X3741826Y2751124D01*
X3754577Y2758135D01*
X3766362Y2766720D01*
X3776979Y2776677D01*
X3786276Y2787904D01*
X3794048Y2800146D01*
X3800246Y2813354D01*
X3804767Y2827172D01*
X3807460Y2841498D01*
X3808374Y2855976D01*
X3807460Y2870504D01*
X3804767Y2884830D01*
X3800246Y2898648D01*
X3794048Y2911805D01*
X3786276Y2924098D01*
X3776979Y2935325D01*
X3766362Y2945282D01*
X3754577Y2953867D01*
X3741826Y2960878D01*
X3728313Y2966212D01*
X3714191Y2969818D01*
X3699764Y2971647D01*
X3685235Y2971647D01*
X3670808Y2969818D01*
X3656685Y2966212D01*
X3643172Y2960878D01*
X3630422Y2953867D01*
X3618636Y2945282D01*
X3608019Y2935325D01*
X3598722Y2924098D01*
X3597148Y2921609D01*
X3594912Y2919120D01*
X3591915Y2917494D01*
X3588562Y2916885D01*
X3410458Y2916885D01*
X3402380Y2916428D01*
X3400298Y2916123D01*
X3390544Y2913684D01*
X3383178Y2910636D01*
X3374593Y2905455D01*
X3372865Y2904185D01*
X3366820Y2898851D01*
X3098647Y2630678D01*
X3095345Y2628442D01*
X3091484Y2627680D01*
X2141372Y2627680D01*
X2137460Y2628442D01*
X2134209Y2630678D01*
X2131974Y2633929D01*
X2131212Y2637840D01*
X2131974Y2641752D01*
X2134209Y2645003D01*
X2186686Y2697530D01*
X2193290Y2705252D01*
X2197506Y2712008D01*
X2198471Y2713888D01*
X2201519Y2721254D01*
X2203958Y2731008D01*
X2204262Y2733090D01*
X2204720Y2741117D01*
X2204720Y3005429D01*
X2205532Y3009290D01*
X2207717Y3012592D01*
X2489149Y3293973D01*
X2492400Y3296208D01*
X2496312Y3296970D01*
X2500223Y3296208D01*
X2503474Y3293973D01*
X2505710Y3290722D01*
X2506472Y3286810D01*
X2506472Y3155238D01*
X2507183Y3148939D01*
X2509113Y3143453D01*
X2512161Y3138576D01*
X2516276Y3134461D01*
X2518918Y3132785D01*
X2521864Y3129991D01*
X2523490Y3126232D01*
X2523490Y3122168D01*
X2521864Y3118408D01*
X2518918Y3115614D01*
X2516276Y3113938D01*
X2512161Y3109823D01*
X2509113Y3104946D01*
X2507183Y3099460D01*
X2506472Y3093161D01*
X2506472Y2901238D01*
X2507183Y2894939D01*
X2509113Y2889453D01*
X2512161Y2884576D01*
X2516276Y2880461D01*
X2521153Y2877413D01*
X2526639Y2875483D01*
X2532938Y2874772D01*
X2724861Y2874772D01*
X2731160Y2875483D01*
X2736646Y2877413D01*
X2741523Y2880461D01*
X2745638Y2884576D01*
X2748686Y2889453D01*
X2750616Y2894939D01*
X2751328Y2901238D01*
X2751328Y3093161D01*
X2750616Y3099460D01*
X2748686Y3104946D01*
X2745638Y3109823D01*
X2741523Y3113938D01*
X2738882Y3115614D01*
X2735935Y3118408D01*
X2734310Y3122168D01*
X2734310Y3126232D01*
X2735935Y3129991D01*
X2738882Y3132785D01*
X2741523Y3134461D01*
X2743403Y3136341D01*
X2746705Y3138525D01*
X2750566Y3139287D01*
X2754477Y3138525D01*
X2757779Y3136341D01*
X2939745Y2954375D01*
X2945790Y2948990D01*
X2954223Y2943555D01*
X2956102Y2942590D01*
X2965450Y2938881D01*
X2973222Y2937103D01*
X2975305Y2936798D01*
X2983331Y2936290D01*
X3017012Y2936290D01*
X3020923Y2935528D01*
X3024174Y2933293D01*
X3026410Y2930042D01*
X3027172Y2926130D01*
X3027172Y2901238D01*
X3027883Y2894939D01*
X3029813Y2889453D01*
X3032861Y2884576D01*
X3036976Y2880461D01*
X3041853Y2877413D01*
X3047339Y2875483D01*
X3053638Y2874772D01*
X3245561Y2874772D01*
X3251860Y2875483D01*
X3257346Y2877413D01*
X3262223Y2880461D01*
X3266338Y2884576D01*
X3269386Y2889453D01*
X3271316Y2894939D01*
X3272028Y2901238D01*
X3272028Y3093161D01*
X3271316Y3099460D01*
X3269386Y3104946D01*
X3266338Y3109823D01*
X3262223Y3113938D01*
X3259582Y3115614D01*
X3256635Y3118408D01*
X3255010Y3122168D01*
X3255010Y3126232D01*
X3256635Y3129991D01*
X3259582Y3132785D01*
X3262223Y3134461D01*
X3266338Y3138576D01*
X3269386Y3143453D01*
X3271316Y3148939D01*
X3272028Y3155238D01*
X3272028Y3196590D01*
X3204210Y3196590D01*
X3204210Y3129788D01*
X3203448Y3125876D01*
X3201212Y3122625D01*
X3197961Y3120390D01*
X3194050Y3119628D01*
X3105150Y3119628D01*
X3101238Y3120390D01*
X3097987Y3122625D01*
X3095752Y3125876D01*
X3094990Y3129788D01*
X3094990Y3196590D01*
X3027172Y3196590D01*
X3027172Y3155238D01*
X3027883Y3148939D01*
X3029813Y3143453D01*
X3032861Y3138576D01*
X3036976Y3134461D01*
X3039618Y3132785D01*
X3042564Y3129991D01*
X3044190Y3126232D01*
X3044190Y3122168D01*
X3042564Y3118408D01*
X3039618Y3115614D01*
X3036976Y3113938D01*
X3032861Y3109823D01*
X3029813Y3104946D01*
X3027883Y3099460D01*
X3027172Y3093161D01*
X3027172Y3068269D01*
X3026410Y3064357D01*
X3024174Y3061106D01*
X3020923Y3058871D01*
X3017012Y3058109D01*
X3012440Y3058109D01*
X3008579Y3058871D01*
X3005277Y3061106D01*
X2859379Y3207004D01*
X2857144Y3210306D01*
X2856382Y3214166D01*
X2856382Y3250996D01*
X2856179Y3256229D01*
X2855518Y3261207D01*
X2854502Y3266135D01*
X2853080Y3270961D01*
X2851251Y3275685D01*
X2849016Y3280206D01*
X2846476Y3284524D01*
X2843530Y3288588D01*
X2840278Y3292449D01*
X2836722Y3296005D01*
X2832862Y3299256D01*
X2828798Y3302203D01*
X2824480Y3304743D01*
X2819958Y3306978D01*
X2815234Y3308807D01*
X2810408Y3310229D01*
X2805480Y3311245D01*
X2800502Y3311906D01*
X2795270Y3312109D01*
X2761488Y3312109D01*
X2757576Y3312871D01*
X2754325Y3315106D01*
X2752090Y3318357D01*
X2751328Y3322269D01*
X2751328Y3347161D01*
X2750616Y3353460D01*
X2748686Y3358946D01*
X2745638Y3363823D01*
X2741523Y3367938D01*
X2736646Y3370986D01*
X2731160Y3372916D01*
X2724861Y3373628D01*
X2593289Y3373628D01*
X2589377Y3374390D01*
X2586126Y3376625D01*
X2583891Y3379876D01*
X2583129Y3383787D01*
X2583891Y3387699D01*
X2586126Y3390950D01*
X2750769Y3555593D01*
X2754020Y3557828D01*
X2757932Y3558590D01*
X3024733Y3558590D01*
X3027832Y3558082D01*
X3030677Y3556660D01*
X3043021Y3543808D01*
X3053740Y3535324D01*
X3065475Y3528364D01*
X3078022Y3523081D01*
X3091180Y3519474D01*
X3104692Y3517646D01*
X3118307Y3517646D01*
X3131820Y3519474D01*
X3144977Y3523081D01*
X3157524Y3528364D01*
X3169259Y3535324D01*
X3179978Y3543808D01*
X3189478Y3553612D01*
X3197555Y3564585D01*
X3204108Y3576523D01*
X3208985Y3589274D01*
X3212185Y3602532D01*
X3213506Y3616096D01*
X3213049Y3629710D01*
X3210814Y3643172D01*
X3206750Y3656177D01*
X3201009Y3668572D01*
X3193694Y3680053D01*
X3184906Y3690467D01*
X3174746Y3699611D01*
X3163519Y3707333D01*
X3151378Y3713479D01*
X3138474Y3717950D01*
X3125114Y3720693D01*
X3111500Y3721608D01*
X3097885Y3720693D01*
X3084525Y3717950D01*
X3071622Y3713479D01*
X3059480Y3707333D01*
X3048254Y3699611D01*
X3038094Y3690467D01*
X3032658Y3684015D01*
X3029153Y3681374D01*
X3024886Y3680409D01*
X2728823Y3680409D01*
X2720746Y3679901D01*
X2718663Y3679596D01*
X2710891Y3677818D01*
X2701544Y3674110D01*
X2691231Y3667709D01*
X2685186Y3662324D01*
X2119731Y3096869D01*
X2116632Y3094736D01*
X2112975Y3093872D01*
X2109266Y3094431D01*
X2106015Y3096260D01*
X2103628Y3099155D01*
X2101545Y3102914D01*
X2093468Y3113887D01*
X2083968Y3123692D01*
X2073300Y3132175D01*
X2061565Y3139084D01*
X2049018Y3144418D01*
X2035860Y3148025D01*
X2022348Y3149854D01*
X2008682Y3149854D01*
X1995170Y3148025D01*
X1982012Y3144418D01*
X1969465Y3139084D01*
X1957730Y3132175D01*
X1947011Y3123692D01*
X1937562Y3113887D01*
X1929485Y3102914D01*
X1922932Y3090976D01*
X1918004Y3078226D01*
X1915058Y3065932D01*
X1913229Y3062071D01*
X1909978Y3059328D01*
X1905863Y3058160D01*
X1901596Y3058769D01*
X1897989Y3061106D01*
X1849831Y3109264D01*
X1847850Y3112058D01*
X1846935Y3115360D01*
X1847138Y3118764D01*
X1848459Y3121964D01*
X1850999Y3125927D01*
X1856739Y3138322D01*
X1860804Y3151327D01*
X1863089Y3164789D01*
X1863496Y3178403D01*
X1862175Y3191967D01*
X1858975Y3205276D01*
X1854098Y3217976D01*
X1847545Y3229914D01*
X1839468Y3240938D01*
X1829968Y3250742D01*
X1819249Y3259175D01*
X1807514Y3266135D01*
X1794967Y3271469D01*
X1781810Y3275025D01*
X1768297Y3276854D01*
X1754682Y3276854D01*
X1741170Y3275025D01*
X1728012Y3271469D01*
X1715465Y3266135D01*
X1709013Y3262325D01*
X1705000Y3260953D01*
X1700784Y3261360D01*
X1697075Y3263493D01*
X1694586Y3266897D01*
X1693672Y3271062D01*
X1693672Y3332683D01*
X1694535Y3336747D01*
X1696923Y3340100D01*
X1700428Y3342233D01*
X1704492Y3342843D01*
X1708454Y3341725D01*
X1721662Y3335020D01*
X1734515Y3330549D01*
X1747875Y3327806D01*
X1761489Y3326892D01*
X1775104Y3327806D01*
X1788464Y3330549D01*
X1801368Y3335020D01*
X1813509Y3341166D01*
X1824736Y3348888D01*
X1834896Y3358032D01*
X1843684Y3368446D01*
X1850999Y3379927D01*
X1856739Y3392322D01*
X1860804Y3405327D01*
X1863089Y3418789D01*
X1863496Y3432403D01*
X1862175Y3445967D01*
X1858975Y3459226D01*
X1854098Y3471976D01*
X1847545Y3483914D01*
X1839468Y3494887D01*
X1829968Y3504692D01*
X1819249Y3513175D01*
X1807514Y3520084D01*
X1794967Y3525418D01*
X1781810Y3529025D01*
X1768297Y3530854D01*
X1754682Y3530854D01*
X1741170Y3529025D01*
X1728012Y3525418D01*
X1715465Y3520084D01*
X1709013Y3516325D01*
X1705000Y3514953D01*
X1700784Y3515360D01*
X1697075Y3517442D01*
X1694586Y3520897D01*
X1693672Y3525062D01*
X1693672Y3570732D01*
X1694484Y3574643D01*
X1696669Y3577945D01*
X1699971Y3580129D01*
X1703832Y3580892D01*
X1837131Y3580892D01*
X1843430Y3581603D01*
X1848916Y3583533D01*
X1853793Y3586581D01*
X1857908Y3590696D01*
X1860956Y3595573D01*
X1862886Y3601059D01*
X1863598Y3607358D01*
X1863598Y3758641D01*
X1862886Y3764940D01*
X1860956Y3770426D01*
X1857908Y3775303D01*
X1853793Y3779418D01*
X1848916Y3782517D01*
X1843430Y3784396D01*
X1837131Y3785108D01*
X1703832Y3785108D01*
X1699971Y3785870D01*
X1696669Y3788105D01*
X1694484Y3791407D01*
X1693672Y3795268D01*
X1693672Y4333951D01*
X1694484Y4337812D01*
X1696669Y4341114D01*
X1896821Y4541266D01*
X1900580Y4543653D01*
X1904949Y4544212D01*
X1909114Y4542891D01*
X1912366Y4539894D01*
X1914042Y4535779D01*
X1916226Y4522927D01*
X1920239Y4509922D01*
X1925980Y4497527D01*
X1933346Y4486046D01*
X1942134Y4475632D01*
X1952243Y4466488D01*
X1963470Y4458766D01*
X1975662Y4452620D01*
X1988515Y4448149D01*
X2001926Y4445406D01*
X2015489Y4444492D01*
X2029104Y4445406D01*
X2042464Y4448149D01*
X2055368Y4452620D01*
X2067560Y4458766D01*
X2073198Y4462678D01*
X2077262Y4464304D01*
X2081631Y4464100D01*
X2085543Y4462068D01*
X2088184Y4458563D01*
X2089150Y4454296D01*
X2089150Y3648608D01*
X2088235Y3644442D01*
X2085746Y3640988D01*
X2082038Y3638905D01*
X2077821Y3638499D01*
X2073808Y3639820D01*
X2061514Y3647084D01*
X2048967Y3652418D01*
X2035810Y3656025D01*
X2022297Y3657854D01*
X2008682Y3657854D01*
X1995170Y3656025D01*
X1982012Y3652418D01*
X1969465Y3647084D01*
X1957730Y3640175D01*
X1947011Y3631692D01*
X1937512Y3621887D01*
X1929434Y3610914D01*
X1922881Y3598976D01*
X1918004Y3586226D01*
X1914804Y3572967D01*
X1913483Y3559403D01*
X1913940Y3545789D01*
X1916175Y3532327D01*
X1920239Y3519322D01*
X1925980Y3506927D01*
X1933295Y3495446D01*
X1942084Y3485032D01*
X1952243Y3475888D01*
X1963470Y3468166D01*
X1975612Y3462020D01*
X1988515Y3457549D01*
X2001875Y3454806D01*
X2015489Y3453892D01*
X2029104Y3454806D01*
X2042464Y3457549D01*
X2055368Y3462020D01*
X2067458Y3468115D01*
X2071370Y3469182D01*
X2075434Y3468624D01*
X2078939Y3466541D01*
X2081326Y3463239D01*
X2082190Y3459276D01*
X2081479Y3455263D01*
X2079243Y3451860D01*
X2033727Y3406343D01*
X2031238Y3404514D01*
X2028291Y3403549D01*
X2025192Y3403498D01*
X2022348Y3403854D01*
X2008682Y3403854D01*
X1995170Y3402025D01*
X1982012Y3398418D01*
X1969465Y3393135D01*
X1957730Y3386175D01*
X1947011Y3377692D01*
X1937562Y3367887D01*
X1929485Y3356914D01*
X1922932Y3344976D01*
X1918004Y3332226D01*
X1914855Y3318967D01*
X1913483Y3305403D01*
X1913940Y3291789D01*
X1916226Y3278327D01*
X1920239Y3265322D01*
X1925980Y3252927D01*
X1933346Y3241446D01*
X1942134Y3231032D01*
X1952243Y3221888D01*
X1963470Y3214166D01*
X1975662Y3208020D01*
X1988515Y3203549D01*
X2001926Y3200806D01*
X2015489Y3199892D01*
X2029104Y3200806D01*
X2042464Y3203549D01*
X2055368Y3208020D01*
X2067560Y3214166D01*
X2078786Y3221888D01*
X2088896Y3231032D01*
X2097684Y3241446D01*
X2105050Y3252927D01*
X2110790Y3265322D01*
X2114804Y3278327D01*
X2117090Y3291789D01*
X2117547Y3305403D01*
X2116886Y3311956D01*
X2117394Y3316427D01*
X2119782Y3320186D01*
X2192883Y3393236D01*
X2198217Y3399282D01*
X2199487Y3401009D01*
X2204669Y3409594D01*
X2207717Y3416960D01*
X2210155Y3426714D01*
X2210460Y3428796D01*
X2210917Y3436874D01*
X2210917Y4983530D01*
X2211730Y4987442D01*
X2213914Y4990693D01*
X2217216Y4992928D01*
X2221077Y4993690D01*
X2722930Y4993690D01*
X2726842Y4992928D01*
X2730093Y4990693D01*
X2732328Y4987442D01*
X2733090Y4983530D01*
X2733090Y4920488D01*
X2732328Y4916576D01*
X2730093Y4913325D01*
X2726842Y4911090D01*
X2722930Y4910328D01*
X2698038Y4910328D01*
X2691739Y4909616D01*
X2686253Y4907686D01*
X2681376Y4904638D01*
X2677261Y4900523D01*
X2675585Y4897882D01*
X2672791Y4894935D01*
X2669032Y4893310D01*
X2664968Y4893310D01*
X2661208Y4894935D01*
X2658414Y4897882D01*
X2656738Y4900523D01*
X2652623Y4904638D01*
X2647746Y4907686D01*
X2642260Y4909616D01*
X2635961Y4910328D01*
X2444038Y4910328D01*
X2437739Y4909616D01*
X2432253Y4907686D01*
X2427376Y4904638D01*
X2423261Y4900523D01*
X2420213Y4895646D01*
X2418283Y4890160D01*
X2417572Y4883861D01*
X2417572Y4691938D01*
X2418283Y4685639D01*
X2420213Y4680153D01*
X2423261Y4675276D01*
X2427376Y4671161D01*
X2432253Y4668113D01*
X2437739Y4666183D01*
X2444038Y4665472D01*
X2548534Y4665472D01*
X2552446Y4664710D01*
X2555697Y4662474D01*
X2625547Y4592675D01*
X2631592Y4587290D01*
X2640076Y4581855D01*
X2641904Y4580890D01*
X2651252Y4577181D01*
X2659024Y4575403D01*
X2661107Y4575098D01*
X2669184Y4574590D01*
X3024733Y4574590D01*
X3027832Y4574082D01*
X3030677Y4572660D01*
X3043021Y4559808D01*
X3053740Y4551324D01*
X3065475Y4544364D01*
X3078022Y4539081D01*
X3091180Y4535474D01*
X3104692Y4533646D01*
X3118307Y4533646D01*
X3131820Y4535474D01*
X3144977Y4539081D01*
X3157524Y4544364D01*
X3169259Y4551324D01*
X3179978Y4559808D01*
X3189478Y4569612D01*
X3197555Y4580585D01*
X3204108Y4592523D01*
X3208985Y4605274D01*
X3212185Y4618532D01*
X3213506Y4632096D01*
X3213049Y4645710D01*
X3210814Y4659172D01*
X3206750Y4672177D01*
X3201009Y4684572D01*
X3193694Y4696053D01*
X3184906Y4706467D01*
X3174746Y4715611D01*
X3163519Y4723333D01*
X3151378Y4729480D01*
X3138474Y4733950D01*
X3125114Y4736693D01*
X3111500Y4737608D01*
X3097885Y4736693D01*
X3084525Y4733950D01*
X3071622Y4729480D01*
X3059480Y4723333D01*
X3048254Y4715611D01*
X3038094Y4706467D01*
X3032658Y4700016D01*
X3029153Y4697374D01*
X3024886Y4696409D01*
X2926588Y4696409D01*
X2922676Y4697171D01*
X2919425Y4699406D01*
X2917190Y4702657D01*
X2916428Y4706569D01*
X2916428Y4883861D01*
X2915716Y4890160D01*
X2913786Y4895646D01*
X2910738Y4900523D01*
X2906623Y4904638D01*
X2901746Y4907686D01*
X2896260Y4909616D01*
X2889961Y4910328D01*
X2865069Y4910328D01*
X2861157Y4911090D01*
X2857906Y4913325D01*
X2855671Y4916576D01*
X2854909Y4920488D01*
X2854909Y5025186D01*
X2855671Y5029047D01*
X2857906Y5032349D01*
X2912668Y5087112D01*
X2915970Y5089347D01*
X2919831Y5090109D01*
X3161893Y5090109D01*
X3172307Y5090972D01*
X3182061Y5093462D01*
X3191256Y5097475D01*
X3199688Y5102961D01*
X3207105Y5109768D01*
X3213252Y5117744D01*
X3218027Y5126583D01*
X3221329Y5136083D01*
X3222955Y5145989D01*
X3222955Y5156047D01*
X3221329Y5165953D01*
X3218027Y5175453D01*
X3213252Y5184292D01*
X3207105Y5192268D01*
X3199688Y5199075D01*
X3191256Y5204561D01*
X3182061Y5208574D01*
X3172307Y5211064D01*
X3161893Y5211927D01*
X2890723Y5211927D01*
X2882696Y5211419D01*
X2880614Y5211114D01*
X2872841Y5209336D01*
X2863494Y5205628D01*
X2861614Y5204663D01*
X2853182Y5199227D01*
X2847136Y5193842D01*
X2771749Y5118506D01*
X2768447Y5116271D01*
X2764586Y5115509D01*
X2102307Y5115509D01*
X2099157Y5116017D01*
X2096363Y5117439D01*
X2083968Y5130292D01*
X2073300Y5138775D01*
X2061565Y5145735D01*
X2049018Y5151018D01*
X2035860Y5154625D01*
X2026513Y5155895D01*
X2022348Y5157470D01*
X2019198Y5160670D01*
X2017775Y5164937D01*
X2018334Y5169357D01*
X2020722Y5173167D01*
X2058263Y5210708D01*
X2064918Y5218531D01*
X2066899Y5220360D01*
X2078736Y5228488D01*
X2088896Y5237632D01*
X2097684Y5248046D01*
X2104999Y5259527D01*
X2110740Y5271922D01*
X2114804Y5284927D01*
X2117039Y5298389D01*
X2117496Y5312003D01*
X2116175Y5325567D01*
X2112975Y5338826D01*
X2108098Y5351576D01*
X2101545Y5363514D01*
X2093468Y5374487D01*
X2083968Y5384292D01*
X2073249Y5392775D01*
X2061514Y5399684D01*
X2048967Y5405018D01*
X2035810Y5408625D01*
X2022297Y5410454D01*
X2008682Y5410454D01*
X1995170Y5408625D01*
X1982012Y5405018D01*
X1969465Y5399684D01*
X1957730Y5392775D01*
X1947011Y5384292D01*
X1937512Y5374487D01*
X1929434Y5363514D01*
X1922881Y5351576D01*
X1918004Y5338826D01*
X1914804Y5325567D01*
X1913483Y5312003D01*
X1913940Y5298389D01*
X1916175Y5284927D01*
X1920239Y5271922D01*
X1925777Y5259933D01*
X1926742Y5255920D01*
X1926031Y5251907D01*
X1923745Y5248452D01*
X1877263Y5201970D01*
X1873656Y5199634D01*
X1869439Y5199024D01*
X1865325Y5200192D01*
X1862023Y5202936D01*
X1860194Y5206796D01*
X1858975Y5211826D01*
X1854098Y5224576D01*
X1847545Y5236514D01*
X1839468Y5247487D01*
X1829968Y5257292D01*
X1819249Y5265775D01*
X1807514Y5272684D01*
X1794967Y5278018D01*
X1781810Y5281625D01*
X1768297Y5283454D01*
X1754682Y5283454D01*
X1741170Y5281625D01*
X1728012Y5278018D01*
X1715465Y5272684D01*
X1703730Y5265775D01*
X1695602Y5259374D01*
X1691538Y5257444D01*
X1687017Y5257444D01*
X1682953Y5259425D01*
X1680159Y5262930D01*
X1679143Y5267350D01*
X1679143Y5323332D01*
X1679956Y5327243D01*
X1682140Y5330545D01*
X1685442Y5332730D01*
X1689303Y5333492D01*
X1837131Y5333492D01*
X1843430Y5334203D01*
X1848916Y5336133D01*
X1853793Y5339181D01*
X1857908Y5343296D01*
X1860956Y5348173D01*
X1862886Y5353659D01*
X1863598Y5359958D01*
X1863598Y5511241D01*
X1862886Y5517540D01*
X1860956Y5523026D01*
X1857908Y5527903D01*
X1853793Y5532018D01*
X1848916Y5535117D01*
X1843430Y5536996D01*
X1837131Y5537708D01*
X1733143Y5537708D01*
X1729232Y5538470D01*
X1725930Y5540705D01*
X1723745Y5544007D01*
X1722983Y5547868D01*
X1723745Y5551779D01*
X1725930Y5555081D01*
X2020671Y5849772D01*
X2023973Y5852007D01*
X2027834Y5852769D01*
X2331059Y5852769D01*
X2341473Y5853633D01*
X2351227Y5856122D01*
X2360422Y5860135D01*
X2368854Y5865622D01*
X2376271Y5872429D01*
X2382418Y5880404D01*
X2387193Y5889244D01*
X2390495Y5898743D01*
X2392121Y5908649D01*
X2392121Y5918708D01*
X2390495Y5928614D01*
X2385415Y5943295D01*
X2385923Y5947410D01*
X2388057Y5950966D01*
X2391460Y5953404D01*
X2395524Y5954268D01*
X4821072Y5954268D01*
X4829098Y5954776D01*
X4831181Y5955080D01*
X4838954Y5956858D01*
X4848301Y5960567D01*
X4850180Y5961532D01*
X4858613Y5966968D01*
X4864658Y5972352D01*
X5582259Y6689902D01*
X5585561Y6692138D01*
X5589422Y6692900D01*
X7486903Y6692900D01*
X7490409Y6692290D01*
X7493457Y6690512D01*
X7495743Y6687769D01*
X7496911Y6684416D01*
X7497876Y6678625D01*
X7501178Y6669125D01*
X7505953Y6660286D01*
X7512100Y6652361D01*
X7519517Y6645554D01*
X7527950Y6640068D01*
X7537145Y6636003D01*
X7546898Y6633565D01*
X7557312Y6632702D01*
X7844028Y6632702D01*
X7854442Y6633565D01*
X7864195Y6636003D01*
X7866278Y6636918D01*
X7870190Y6637781D01*
X7874152Y6637070D01*
X7877505Y6634886D01*
X7879740Y6631533D01*
X7880553Y6627622D01*
X7880553Y6599986D01*
X7881416Y6589572D01*
X7883855Y6579819D01*
X7887919Y6570624D01*
X7893405Y6562191D01*
X7900212Y6554774D01*
X7908137Y6548628D01*
X7916976Y6543852D01*
X7926476Y6540550D01*
X7936433Y6538925D01*
X7946440Y6538925D01*
X7956397Y6540550D01*
X7966557Y6544056D01*
X7970316Y6544614D01*
X7974075Y6543700D01*
X7977174Y6541465D01*
X7979257Y6538214D01*
X7980019Y6534454D01*
X7980019Y5088026D01*
X7979206Y5084165D01*
X7977022Y5080863D01*
X7723022Y4826863D01*
X7720584Y4825085D01*
X7717637Y4824069D01*
X7714589Y4823968D01*
X7699756Y4825847D01*
X7685227Y4825847D01*
X7670800Y4824018D01*
X7656677Y4820412D01*
X7643164Y4815078D01*
X7630414Y4808067D01*
X7618628Y4799482D01*
X7608011Y4789525D01*
X7598765Y4778298D01*
X7590942Y4766005D01*
X7584744Y4752848D01*
X7580274Y4739030D01*
X7577531Y4724704D01*
X7576616Y4710176D01*
X7577531Y4695698D01*
X7580274Y4681372D01*
X7584744Y4667554D01*
X7590942Y4654346D01*
X7598765Y4642104D01*
X7608011Y4630877D01*
X7618628Y4620920D01*
X7630414Y4612335D01*
X7643164Y4605324D01*
X7656677Y4599990D01*
X7670800Y4596384D01*
X7685227Y4594555D01*
X7699756Y4594555D01*
X7714234Y4596384D01*
X7728305Y4599990D01*
X7741818Y4605324D01*
X7754620Y4612335D01*
X7766354Y4620920D01*
X7776972Y4630877D01*
X7786268Y4642104D01*
X7794040Y4654346D01*
X7800238Y4667554D01*
X7804759Y4681372D01*
X7807452Y4695698D01*
X7808366Y4710176D01*
X7807452Y4724704D01*
X7806181Y4731461D01*
X7806080Y4734763D01*
X7807045Y4737912D01*
X7808975Y4740554D01*
X8083753Y5015331D01*
X8087563Y5018430D01*
X8091525Y5019395D01*
X8095538Y5018735D01*
X8098942Y5016550D01*
X8101279Y5013248D01*
X8102092Y5009235D01*
X8102092Y3167837D01*
X8101177Y3163620D01*
X8098586Y3160115D01*
X8094725Y3158083D01*
X8090408Y3157778D01*
X8086394Y3159353D01*
X8079943Y3163519D01*
X8070748Y3167583D01*
X8060994Y3170021D01*
X8050530Y3170885D01*
X7796428Y3170885D01*
X7793075Y3171494D01*
X7790078Y3173120D01*
X7787843Y3175609D01*
X7786268Y3178098D01*
X7776972Y3189325D01*
X7766354Y3199282D01*
X7754620Y3207867D01*
X7741818Y3214878D01*
X7728305Y3220212D01*
X7714234Y3223818D01*
X7699756Y3225647D01*
X7685227Y3225647D01*
X7670800Y3223818D01*
X7656677Y3220212D01*
X7643164Y3214878D01*
X7630414Y3207867D01*
X7618628Y3199282D01*
X7608011Y3189325D01*
X7598765Y3178098D01*
X7590942Y3165805D01*
X7584744Y3152648D01*
X7580274Y3138830D01*
X7577531Y3124504D01*
X7576616Y3109976D01*
X7577531Y3095498D01*
X7580274Y3081172D01*
X7584744Y3067354D01*
X7590942Y3054146D01*
X7598765Y3041904D01*
X7608011Y3030677D01*
X7618628Y3020720D01*
X7630414Y3012135D01*
X7643164Y3005124D01*
X7656677Y2999790D01*
X7670800Y2996184D01*
X7685227Y2994355D01*
X7699756Y2994355D01*
X7714234Y2996184D01*
X7728305Y2999790D01*
X7741818Y3005124D01*
X7754620Y3012135D01*
X7766354Y3020720D01*
X7776972Y3030677D01*
X7786268Y3041904D01*
X7787843Y3044393D01*
X7790129Y3046882D01*
X7793075Y3048508D01*
X7796428Y3049117D01*
X8050530Y3049117D01*
X8060994Y3049981D01*
X8070748Y3052419D01*
X8079943Y3056483D01*
X8086394Y3060649D01*
X8090408Y3062224D01*
X8094725Y3061919D01*
X8098586Y3059887D01*
X8101177Y3056382D01*
X8102092Y3052165D01*
X8102092Y1814068D01*
X8101330Y1810207D01*
X8099094Y1806905D01*
X8095843Y1804720D01*
X8091931Y1803907D01*
X7532370Y1803907D01*
X7528458Y1804670D01*
X7525207Y1806905D01*
X7522972Y1810207D01*
X7522209Y1814068D01*
X7522209Y2078177D01*
X7521498Y2084476D01*
X7519568Y2089962D01*
X7516520Y2094839D01*
X7512405Y2098954D01*
X7507528Y2102002D01*
X7502042Y2103932D01*
X7495743Y2104644D01*
X3901998Y2104644D01*
X3895699Y2103932D01*
X3890213Y2102002D01*
X3885336Y2098954D01*
X3881221Y2094839D01*
X3878173Y2089962D01*
X3876243Y2084476D01*
X3875532Y2078177D01*
X3875532Y1814068D01*
X3874770Y1810207D01*
X3872534Y1806905D01*
X3869283Y1804670D01*
X3865372Y1803907D01*
X2765298Y1803907D01*
X2761386Y1804670D01*
X2758135Y1806905D01*
X2755900Y1810207D01*
X2755138Y1814068D01*
X2755138Y1977593D01*
X2754426Y1983892D01*
X2752496Y1989378D01*
X2749448Y1994255D01*
X2745333Y1998370D01*
X2740456Y2001418D01*
X2734970Y2003348D01*
X2728671Y2004060D01*
X2543098Y2004060D01*
X2536799Y2003348D01*
X2531313Y2001418D01*
X2526436Y1998370D01*
X2522321Y1994255D01*
X2519273Y1989378D01*
X2517343Y1983892D01*
X2516632Y1977593D01*
X2516632Y1814068D01*
X2515870Y1810207D01*
X2513634Y1806905D01*
X2510383Y1804670D01*
X2506472Y1803907D01*
G37*

%LPC*%
G36*
X3038398Y1848866D02*
G01*
X3223971Y1848866D01*
X3230270Y1849577D01*
X3235756Y1851507D01*
X3240633Y1854555D01*
X3244748Y1858670D01*
X3247796Y1863547D01*
X3249726Y1869033D01*
X3250438Y1875332D01*
X3250438Y1894535D01*
X3249726Y1900834D01*
X3247796Y1906320D01*
X3244748Y1911197D01*
X3240633Y1915312D01*
X3235756Y1918360D01*
X3230270Y1920290D01*
X3223971Y1921002D01*
X3038398Y1921002D01*
X3032099Y1920290D01*
X3026613Y1918360D01*
X3021736Y1915312D01*
X3017621Y1911197D01*
X3014573Y1906320D01*
X3012643Y1900834D01*
X3011932Y1894535D01*
X3011932Y1875332D01*
X3012643Y1869033D01*
X3014573Y1863547D01*
X3017621Y1858670D01*
X3021736Y1854555D01*
X3026613Y1851507D01*
X3032099Y1849577D01*
G37*
G36*
X7685227Y2232355D02*
G01*
X7699756Y2232355D01*
X7714234Y2234184D01*
X7728305Y2237790D01*
X7741818Y2243124D01*
X7754620Y2250135D01*
X7766354Y2258720D01*
X7776972Y2268677D01*
X7786268Y2279904D01*
X7794040Y2292146D01*
X7800238Y2305354D01*
X7804759Y2319172D01*
X7807452Y2333498D01*
X7808366Y2347976D01*
X7807452Y2362504D01*
X7804759Y2376830D01*
X7800238Y2390648D01*
X7794040Y2403805D01*
X7786268Y2416098D01*
X7776972Y2427325D01*
X7766354Y2437282D01*
X7754620Y2445867D01*
X7741818Y2452878D01*
X7728305Y2458212D01*
X7714234Y2461818D01*
X7699756Y2463647D01*
X7685227Y2463647D01*
X7670800Y2461818D01*
X7656677Y2458212D01*
X7643164Y2452878D01*
X7630414Y2445867D01*
X7618628Y2437282D01*
X7608011Y2427325D01*
X7598765Y2416098D01*
X7590942Y2403805D01*
X7584744Y2390648D01*
X7580274Y2376830D01*
X7577531Y2362504D01*
X7576616Y2347976D01*
X7577531Y2333498D01*
X7580274Y2319172D01*
X7584744Y2305354D01*
X7590942Y2292146D01*
X7598765Y2279904D01*
X7608011Y2268677D01*
X7618628Y2258720D01*
X7630414Y2250135D01*
X7643164Y2243124D01*
X7656677Y2237790D01*
X7670800Y2234184D01*
G37*
G36*
X611886Y2362606D02*
G01*
X691134Y2362606D01*
X703732Y2363520D01*
X715721Y2366111D01*
X727202Y2370378D01*
X737920Y2376271D01*
X747776Y2383586D01*
X756412Y2392273D01*
X763778Y2402078D01*
X769620Y2412847D01*
X773938Y2424328D01*
X776528Y2436266D01*
X777392Y2448509D01*
X776528Y2460701D01*
X773938Y2472690D01*
X769620Y2484170D01*
X763778Y2494940D01*
X756412Y2504744D01*
X747776Y2513431D01*
X737920Y2520746D01*
X727202Y2526639D01*
X715721Y2530906D01*
X703732Y2533497D01*
X691134Y2534412D01*
X611886Y2534412D01*
X599287Y2533497D01*
X587298Y2530906D01*
X575818Y2526639D01*
X565099Y2520746D01*
X555294Y2513431D01*
X546608Y2504744D01*
X539242Y2494940D01*
X533400Y2484170D01*
X529082Y2472690D01*
X526491Y2460701D01*
X525627Y2448509D01*
X526491Y2436266D01*
X529082Y2424328D01*
X533400Y2412847D01*
X539242Y2402078D01*
X546608Y2392273D01*
X555294Y2383586D01*
X565099Y2376271D01*
X575818Y2370378D01*
X587298Y2366111D01*
X599287Y2363520D01*
G37*
G36*
X1077112Y2482850D02*
G01*
X1095908Y2482850D01*
X1114653Y2484729D01*
X1133094Y2488539D01*
X1151077Y2494178D01*
X1168400Y2501595D01*
X1184859Y2510739D01*
X1200302Y2521508D01*
X1214577Y2533751D01*
X1227582Y2547416D01*
X1239062Y2562301D01*
X1249070Y2578303D01*
X1257350Y2595168D01*
X1263904Y2612847D01*
X1268577Y2631084D01*
X1271473Y2649677D01*
X1272387Y2668473D01*
X1271473Y2687320D01*
X1268577Y2705912D01*
X1263904Y2724150D01*
X1257350Y2741828D01*
X1249070Y2758694D01*
X1239062Y2774696D01*
X1227582Y2789580D01*
X1214577Y2803245D01*
X1200302Y2815488D01*
X1184859Y2826258D01*
X1168400Y2835402D01*
X1151077Y2842818D01*
X1133094Y2848457D01*
X1114653Y2852267D01*
X1095908Y2854147D01*
X1077112Y2854147D01*
X1058367Y2852267D01*
X1039926Y2848457D01*
X1021943Y2842818D01*
X1004620Y2835402D01*
X988161Y2826258D01*
X972718Y2815488D01*
X958443Y2803245D01*
X945438Y2789580D01*
X933958Y2774696D01*
X923950Y2758694D01*
X915669Y2741828D01*
X909116Y2724150D01*
X904443Y2705912D01*
X901547Y2687320D01*
X900633Y2668473D01*
X901547Y2649677D01*
X904443Y2631084D01*
X909116Y2612847D01*
X915669Y2595168D01*
X923950Y2578303D01*
X933958Y2562301D01*
X945438Y2547416D01*
X958443Y2533751D01*
X972718Y2521508D01*
X988161Y2510739D01*
X1004620Y2501595D01*
X1021943Y2494178D01*
X1039926Y2488539D01*
X1058367Y2484729D01*
G37*
G36*
X7685227Y2486355D02*
G01*
X7699756Y2486355D01*
X7714234Y2488184D01*
X7728305Y2491790D01*
X7741818Y2497124D01*
X7754620Y2504135D01*
X7766354Y2512720D01*
X7776972Y2522677D01*
X7786268Y2533904D01*
X7794040Y2546146D01*
X7800238Y2559354D01*
X7804759Y2573172D01*
X7807452Y2587498D01*
X7808366Y2601976D01*
X7807452Y2616504D01*
X7804759Y2630830D01*
X7800238Y2644648D01*
X7794040Y2657805D01*
X7786268Y2670098D01*
X7776972Y2681325D01*
X7766354Y2691282D01*
X7754620Y2699867D01*
X7741818Y2706878D01*
X7728305Y2712212D01*
X7714234Y2715818D01*
X7699756Y2717647D01*
X7685227Y2717647D01*
X7670800Y2715818D01*
X7656677Y2712212D01*
X7643164Y2706878D01*
X7630414Y2699867D01*
X7618628Y2691282D01*
X7608011Y2681325D01*
X7598765Y2670098D01*
X7590942Y2657805D01*
X7584744Y2644648D01*
X7580274Y2630830D01*
X7577531Y2616504D01*
X7576616Y2601976D01*
X7577531Y2587498D01*
X7580274Y2573172D01*
X7584744Y2559354D01*
X7590942Y2546146D01*
X7598765Y2533904D01*
X7608011Y2522677D01*
X7618628Y2512720D01*
X7630414Y2504135D01*
X7643164Y2497124D01*
X7656677Y2491790D01*
X7670800Y2488184D01*
G37*
G36*
X7685227Y2740355D02*
G01*
X7699756Y2740355D01*
X7714234Y2742184D01*
X7728305Y2745790D01*
X7741818Y2751124D01*
X7754620Y2758135D01*
X7766354Y2766720D01*
X7776972Y2776677D01*
X7786268Y2787904D01*
X7794040Y2800146D01*
X7800238Y2813354D01*
X7804759Y2827172D01*
X7807452Y2841498D01*
X7808366Y2855976D01*
X7807452Y2870504D01*
X7804759Y2884830D01*
X7800238Y2898648D01*
X7794040Y2911805D01*
X7786268Y2924098D01*
X7776972Y2935325D01*
X7766354Y2945282D01*
X7754620Y2953867D01*
X7741818Y2960878D01*
X7728305Y2966212D01*
X7714234Y2969818D01*
X7699756Y2971647D01*
X7685227Y2971647D01*
X7670800Y2969818D01*
X7656677Y2966212D01*
X7643164Y2960878D01*
X7630414Y2953867D01*
X7618628Y2945282D01*
X7608011Y2935325D01*
X7598765Y2924098D01*
X7590942Y2911805D01*
X7584744Y2898648D01*
X7580274Y2884830D01*
X7577531Y2870504D01*
X7576616Y2855976D01*
X7577531Y2841498D01*
X7580274Y2827172D01*
X7584744Y2813354D01*
X7590942Y2800146D01*
X7598765Y2787904D01*
X7608011Y2776677D01*
X7618628Y2766720D01*
X7630414Y2758135D01*
X7643164Y2751124D01*
X7656677Y2745790D01*
X7670800Y2742184D01*
G37*
G36*
X3743858Y3006242D02*
G01*
X3754577Y3012135D01*
X3766362Y3020720D01*
X3776979Y3030677D01*
X3786276Y3041904D01*
X3794048Y3054146D01*
X3796182Y3058668D01*
X3743858Y3058668D01*
G37*
G36*
X3641140Y3006242D02*
G01*
X3641140Y3058668D01*
X3588816Y3058668D01*
X3590950Y3054146D01*
X3598722Y3041904D01*
X3608019Y3030677D01*
X3618636Y3020720D01*
X3630422Y3012135D01*
G37*
G36*
X3743858Y3161334D02*
G01*
X3796182Y3161334D01*
X3794048Y3165805D01*
X3786276Y3178098D01*
X3776979Y3189325D01*
X3766362Y3199282D01*
X3754577Y3207867D01*
X3743858Y3213760D01*
G37*
G36*
X3588816Y3161334D02*
G01*
X3641140Y3161334D01*
X3641140Y3213760D01*
X3630422Y3207867D01*
X3618636Y3199282D01*
X3608019Y3189325D01*
X3598722Y3178098D01*
X3590950Y3165805D01*
G37*
G36*
X3204210Y3305810D02*
G01*
X3272028Y3305810D01*
X3272028Y3347161D01*
X3271316Y3353460D01*
X3269386Y3358946D01*
X3266338Y3363823D01*
X3262223Y3367938D01*
X3257346Y3370986D01*
X3251860Y3372916D01*
X3245561Y3373628D01*
X3204210Y3373628D01*
G37*
G36*
X3027172Y3305810D02*
G01*
X3094990Y3305810D01*
X3094990Y3373628D01*
X3053638Y3373628D01*
X3047339Y3372916D01*
X3041853Y3370986D01*
X3036976Y3367938D01*
X3032861Y3363823D01*
X3029813Y3358946D01*
X3027883Y3353460D01*
X3027172Y3347161D01*
G37*
G36*
X1077112Y3622852D02*
G01*
X1095908Y3622852D01*
X1114653Y3624732D01*
X1133094Y3628542D01*
X1151077Y3634181D01*
X1168400Y3641598D01*
X1184859Y3650742D01*
X1200302Y3661511D01*
X1214577Y3673754D01*
X1227582Y3687419D01*
X1239062Y3702304D01*
X1249070Y3718306D01*
X1257350Y3735171D01*
X1263904Y3752850D01*
X1268577Y3771087D01*
X1271473Y3789679D01*
X1272387Y3808476D01*
X1271473Y3827322D01*
X1268577Y3845915D01*
X1263904Y3864152D01*
X1257350Y3881831D01*
X1249070Y3898696D01*
X1239062Y3914698D01*
X1227582Y3929583D01*
X1214577Y3943248D01*
X1200302Y3955491D01*
X1184859Y3966260D01*
X1168400Y3975404D01*
X1151077Y3982821D01*
X1133094Y3988460D01*
X1114653Y3992270D01*
X1095908Y3994150D01*
X1077112Y3994150D01*
X1058367Y3992270D01*
X1039926Y3988460D01*
X1021943Y3982821D01*
X1004620Y3975404D01*
X988161Y3966260D01*
X972718Y3955491D01*
X958443Y3943248D01*
X945438Y3929583D01*
X933958Y3914698D01*
X923950Y3898696D01*
X915669Y3881831D01*
X909116Y3864152D01*
X904443Y3845915D01*
X901547Y3827322D01*
X900633Y3808476D01*
X901547Y3789679D01*
X904443Y3771087D01*
X909116Y3752850D01*
X915669Y3735171D01*
X923950Y3718306D01*
X933958Y3702304D01*
X945438Y3687419D01*
X958443Y3673754D01*
X972718Y3661511D01*
X988161Y3650742D01*
X1004620Y3641598D01*
X1021943Y3634181D01*
X1039926Y3628542D01*
X1058367Y3624732D01*
G37*
G36*
X7685227Y3832555D02*
G01*
X7699756Y3832555D01*
X7714234Y3834384D01*
X7728305Y3837990D01*
X7741818Y3843324D01*
X7754620Y3850335D01*
X7766354Y3858920D01*
X7776972Y3868877D01*
X7786268Y3880104D01*
X7794040Y3892346D01*
X7800238Y3905554D01*
X7804759Y3919372D01*
X7807452Y3933698D01*
X7808366Y3948176D01*
X7807452Y3962704D01*
X7804759Y3977030D01*
X7800238Y3990848D01*
X7794040Y4004005D01*
X7786268Y4016298D01*
X7776972Y4027525D01*
X7766354Y4037482D01*
X7754620Y4046067D01*
X7741818Y4053078D01*
X7728305Y4058412D01*
X7714234Y4062018D01*
X7699756Y4063847D01*
X7685227Y4063847D01*
X7670800Y4062018D01*
X7656677Y4058412D01*
X7643164Y4053078D01*
X7630414Y4046067D01*
X7618628Y4037482D01*
X7608011Y4027525D01*
X7598765Y4016298D01*
X7590942Y4004005D01*
X7584744Y3990848D01*
X7580274Y3977030D01*
X7577531Y3962704D01*
X7576616Y3948176D01*
X7577531Y3933698D01*
X7580274Y3919372D01*
X7584744Y3905554D01*
X7590942Y3892346D01*
X7598765Y3880104D01*
X7608011Y3868877D01*
X7618628Y3858920D01*
X7630414Y3850335D01*
X7643164Y3843324D01*
X7656677Y3837990D01*
X7670800Y3834384D01*
G37*
G36*
X3685235Y3832555D02*
G01*
X3699764Y3832555D01*
X3714191Y3834384D01*
X3728313Y3837990D01*
X3741826Y3843324D01*
X3754577Y3850335D01*
X3766362Y3858920D01*
X3776979Y3868877D01*
X3786276Y3880104D01*
X3794048Y3892346D01*
X3800246Y3905554D01*
X3804767Y3919372D01*
X3807460Y3933698D01*
X3808374Y3948176D01*
X3807460Y3962704D01*
X3804767Y3977030D01*
X3800246Y3990848D01*
X3794048Y4004005D01*
X3786276Y4016298D01*
X3776979Y4027525D01*
X3766362Y4037482D01*
X3754577Y4046067D01*
X3741826Y4053078D01*
X3728313Y4058412D01*
X3714191Y4062018D01*
X3699764Y4063847D01*
X3685235Y4063847D01*
X3670808Y4062018D01*
X3656685Y4058412D01*
X3643172Y4053078D01*
X3630422Y4046067D01*
X3618636Y4037482D01*
X3608019Y4027525D01*
X3598722Y4016298D01*
X3590950Y4004005D01*
X3584752Y3990848D01*
X3580231Y3977030D01*
X3577539Y3962704D01*
X3576624Y3948176D01*
X3577539Y3933698D01*
X3580231Y3919372D01*
X3584752Y3905554D01*
X3590950Y3892346D01*
X3598722Y3880104D01*
X3608019Y3868877D01*
X3618636Y3858920D01*
X3630422Y3850335D01*
X3643172Y3843324D01*
X3656685Y3837990D01*
X3670808Y3834384D01*
G37*
G36*
X611886Y3942587D02*
G01*
X691134Y3942587D01*
X703732Y3943502D01*
X715721Y3946093D01*
X727202Y3950411D01*
X737920Y3956253D01*
X747725Y3963619D01*
X756412Y3972255D01*
X763778Y3982059D01*
X769620Y3992829D01*
X773887Y4004310D01*
X776528Y4016298D01*
X777392Y4028490D01*
X776528Y4040733D01*
X773887Y4052722D01*
X769620Y4064203D01*
X763778Y4074922D01*
X756412Y4084726D01*
X747725Y4093413D01*
X737920Y4100779D01*
X728522Y4105910D01*
X725271Y4108704D01*
X723493Y4112666D01*
X723493Y4116984D01*
X725271Y4120896D01*
X728522Y4123740D01*
X737920Y4128871D01*
X747776Y4136186D01*
X756412Y4144873D01*
X763778Y4154678D01*
X769620Y4165447D01*
X773938Y4176928D01*
X776528Y4188866D01*
X777392Y4201109D01*
X776528Y4213301D01*
X773938Y4225290D01*
X769620Y4236770D01*
X763778Y4247540D01*
X756412Y4257344D01*
X747776Y4266031D01*
X737920Y4273346D01*
X727202Y4279239D01*
X715721Y4283506D01*
X703732Y4286097D01*
X691134Y4287012D01*
X611886Y4287012D01*
X599287Y4286097D01*
X587298Y4283506D01*
X575818Y4279239D01*
X565099Y4273346D01*
X555294Y4266031D01*
X546608Y4257344D01*
X539242Y4247540D01*
X533400Y4236770D01*
X529082Y4225290D01*
X526491Y4213301D01*
X525627Y4201109D01*
X526491Y4188866D01*
X529082Y4176928D01*
X533400Y4165447D01*
X539242Y4154678D01*
X546608Y4144873D01*
X555294Y4136186D01*
X565099Y4128871D01*
X574497Y4123740D01*
X577748Y4120896D01*
X579526Y4116984D01*
X579526Y4112666D01*
X577748Y4108704D01*
X574497Y4105910D01*
X565099Y4100779D01*
X555244Y4093413D01*
X546608Y4084726D01*
X539242Y4074922D01*
X533400Y4064203D01*
X529082Y4052722D01*
X526491Y4040733D01*
X525627Y4028490D01*
X526491Y4016298D01*
X529082Y4004310D01*
X533400Y3992829D01*
X539242Y3982059D01*
X546608Y3972255D01*
X555244Y3963619D01*
X565099Y3956253D01*
X575818Y3950411D01*
X587298Y3946093D01*
X599287Y3943502D01*
G37*
G36*
X3685235Y4086555D02*
G01*
X3699764Y4086555D01*
X3714191Y4088384D01*
X3728313Y4091990D01*
X3741826Y4097324D01*
X3754577Y4104335D01*
X3766362Y4112920D01*
X3776979Y4122877D01*
X3786276Y4134104D01*
X3794048Y4146346D01*
X3800246Y4159554D01*
X3804767Y4173372D01*
X3807460Y4187698D01*
X3808374Y4202176D01*
X3807460Y4216704D01*
X3804767Y4231030D01*
X3800246Y4244848D01*
X3794048Y4258005D01*
X3786276Y4270298D01*
X3776979Y4281525D01*
X3766362Y4291482D01*
X3754577Y4300067D01*
X3741826Y4307078D01*
X3728313Y4312412D01*
X3714191Y4316018D01*
X3699764Y4317847D01*
X3685235Y4317847D01*
X3670808Y4316018D01*
X3656685Y4312412D01*
X3643172Y4307078D01*
X3630422Y4300067D01*
X3618636Y4291482D01*
X3608019Y4281525D01*
X3598722Y4270298D01*
X3590950Y4258005D01*
X3584752Y4244848D01*
X3580231Y4231030D01*
X3577539Y4216704D01*
X3576624Y4202176D01*
X3577539Y4187698D01*
X3580231Y4173372D01*
X3584752Y4159554D01*
X3590950Y4146346D01*
X3598722Y4134104D01*
X3608019Y4122877D01*
X3618636Y4112920D01*
X3630422Y4104335D01*
X3643172Y4097324D01*
X3656685Y4091990D01*
X3670808Y4088384D01*
G37*
G36*
X7685227Y4086555D02*
G01*
X7699756Y4086555D01*
X7714234Y4088384D01*
X7728305Y4091990D01*
X7741818Y4097324D01*
X7754620Y4104335D01*
X7766354Y4112920D01*
X7776972Y4122877D01*
X7786268Y4134104D01*
X7794040Y4146346D01*
X7800238Y4159554D01*
X7804759Y4173372D01*
X7807452Y4187698D01*
X7808366Y4202176D01*
X7807452Y4216704D01*
X7804759Y4231030D01*
X7800238Y4244848D01*
X7794040Y4258005D01*
X7786268Y4270298D01*
X7776972Y4281525D01*
X7766354Y4291482D01*
X7754620Y4300067D01*
X7741818Y4307078D01*
X7728305Y4312412D01*
X7714234Y4316018D01*
X7699756Y4317847D01*
X7685227Y4317847D01*
X7670800Y4316018D01*
X7656677Y4312412D01*
X7643164Y4307078D01*
X7630414Y4300067D01*
X7618628Y4291482D01*
X7608011Y4281525D01*
X7598765Y4270298D01*
X7590942Y4258005D01*
X7584744Y4244848D01*
X7580274Y4231030D01*
X7577531Y4216704D01*
X7576616Y4202176D01*
X7577531Y4187698D01*
X7580274Y4173372D01*
X7584744Y4159554D01*
X7590942Y4146346D01*
X7598765Y4134104D01*
X7608011Y4122877D01*
X7618628Y4112920D01*
X7630414Y4104335D01*
X7643164Y4097324D01*
X7656677Y4091990D01*
X7670800Y4088384D01*
G37*
G36*
X1077112Y4235450D02*
G01*
X1095908Y4235450D01*
X1114653Y4237329D01*
X1133094Y4241139D01*
X1151077Y4246778D01*
X1168400Y4254195D01*
X1184859Y4263339D01*
X1200302Y4274108D01*
X1214577Y4286351D01*
X1227582Y4300016D01*
X1239062Y4314901D01*
X1249070Y4330903D01*
X1257350Y4347768D01*
X1263904Y4365447D01*
X1268577Y4383684D01*
X1271473Y4402277D01*
X1272387Y4421073D01*
X1271473Y4439920D01*
X1268577Y4458512D01*
X1263904Y4476750D01*
X1257350Y4494428D01*
X1249070Y4511294D01*
X1239062Y4527296D01*
X1227582Y4542180D01*
X1214577Y4555845D01*
X1200302Y4568088D01*
X1184859Y4578858D01*
X1168400Y4588002D01*
X1151077Y4595418D01*
X1133094Y4601057D01*
X1114653Y4604867D01*
X1095908Y4606747D01*
X1077112Y4606747D01*
X1058367Y4604867D01*
X1039926Y4601057D01*
X1021943Y4595418D01*
X1004620Y4588002D01*
X988161Y4578858D01*
X972718Y4568088D01*
X958443Y4555845D01*
X945438Y4542180D01*
X933958Y4527296D01*
X923950Y4511294D01*
X915669Y4494428D01*
X909116Y4476750D01*
X904443Y4458512D01*
X901547Y4439920D01*
X900633Y4421073D01*
X901547Y4402277D01*
X904443Y4383684D01*
X909116Y4365447D01*
X915669Y4347768D01*
X923950Y4330903D01*
X933958Y4314901D01*
X945438Y4300016D01*
X958443Y4286351D01*
X972718Y4274108D01*
X988161Y4263339D01*
X1004620Y4254195D01*
X1021943Y4246778D01*
X1039926Y4241139D01*
X1058367Y4237329D01*
G37*
G36*
X7685227Y4340555D02*
G01*
X7699756Y4340555D01*
X7714234Y4342384D01*
X7728305Y4345990D01*
X7741818Y4351324D01*
X7754620Y4358335D01*
X7766354Y4366920D01*
X7776972Y4376877D01*
X7786268Y4388104D01*
X7794040Y4400346D01*
X7800238Y4413554D01*
X7804759Y4427372D01*
X7807452Y4441698D01*
X7808366Y4456176D01*
X7807452Y4470704D01*
X7804759Y4485030D01*
X7800238Y4498848D01*
X7794040Y4512005D01*
X7786268Y4524298D01*
X7776972Y4535525D01*
X7766354Y4545482D01*
X7754620Y4554067D01*
X7741818Y4561078D01*
X7728305Y4566412D01*
X7714234Y4570018D01*
X7699756Y4571847D01*
X7685227Y4571847D01*
X7670800Y4570018D01*
X7656677Y4566412D01*
X7643164Y4561078D01*
X7630414Y4554067D01*
X7618628Y4545482D01*
X7608011Y4535525D01*
X7598765Y4524298D01*
X7590942Y4512005D01*
X7584744Y4498848D01*
X7580274Y4485030D01*
X7577531Y4470704D01*
X7576616Y4456176D01*
X7577531Y4441698D01*
X7580274Y4427372D01*
X7584744Y4413554D01*
X7590942Y4400346D01*
X7598765Y4388104D01*
X7608011Y4376877D01*
X7618628Y4366920D01*
X7630414Y4358335D01*
X7643164Y4351324D01*
X7656677Y4345990D01*
X7670800Y4342384D01*
G37*
G36*
X3685235Y4340555D02*
G01*
X3699764Y4340555D01*
X3714191Y4342384D01*
X3728313Y4345990D01*
X3741826Y4351324D01*
X3754577Y4358335D01*
X3766362Y4366920D01*
X3776979Y4376877D01*
X3786276Y4388104D01*
X3794048Y4400346D01*
X3800246Y4413554D01*
X3804767Y4427372D01*
X3807460Y4441698D01*
X3808374Y4456176D01*
X3807460Y4470704D01*
X3804767Y4485030D01*
X3800246Y4498848D01*
X3794048Y4512005D01*
X3786276Y4524298D01*
X3776979Y4535525D01*
X3766362Y4545482D01*
X3754577Y4554067D01*
X3741826Y4561078D01*
X3728313Y4566412D01*
X3714191Y4570018D01*
X3699764Y4571847D01*
X3685235Y4571847D01*
X3670808Y4570018D01*
X3656685Y4566412D01*
X3643172Y4561078D01*
X3630422Y4554067D01*
X3618636Y4545482D01*
X3608019Y4535525D01*
X3598722Y4524298D01*
X3590950Y4512005D01*
X3584752Y4498848D01*
X3580231Y4485030D01*
X3577539Y4470704D01*
X3576624Y4456176D01*
X3577539Y4441698D01*
X3580231Y4427372D01*
X3584752Y4413554D01*
X3590950Y4400346D01*
X3598722Y4388104D01*
X3608019Y4376877D01*
X3618636Y4366920D01*
X3630422Y4358335D01*
X3643172Y4351324D01*
X3656685Y4345990D01*
X3670808Y4342384D01*
G37*
G36*
X3743858Y4606442D02*
G01*
X3754577Y4612335D01*
X3766362Y4620920D01*
X3776979Y4630877D01*
X3786276Y4642104D01*
X3794048Y4654346D01*
X3796182Y4658868D01*
X3743858Y4658868D01*
G37*
G36*
X3641140Y4606442D02*
G01*
X3641140Y4658868D01*
X3588816Y4658868D01*
X3590950Y4654346D01*
X3598722Y4642104D01*
X3608019Y4630877D01*
X3618636Y4620920D01*
X3630422Y4612335D01*
G37*
G36*
X3743858Y4761534D02*
G01*
X3796182Y4761534D01*
X3794048Y4766005D01*
X3786276Y4778298D01*
X3776979Y4789525D01*
X3766362Y4799482D01*
X3754577Y4808067D01*
X3743858Y4813960D01*
G37*
G36*
X3588816Y4761534D02*
G01*
X3641140Y4761534D01*
X3641140Y4813960D01*
X3630422Y4808067D01*
X3618636Y4799482D01*
X3608019Y4789525D01*
X3598722Y4778298D01*
X3590950Y4766005D01*
G37*
G36*
X4981803Y5193893D02*
G01*
X4995367Y5195214D01*
X5008626Y5198414D01*
X5021376Y5203291D01*
X5033314Y5209844D01*
X5044287Y5217922D01*
X5054092Y5227421D01*
X5062575Y5238140D01*
X5069535Y5249875D01*
X5074818Y5262422D01*
X5078425Y5275580D01*
X5080254Y5289092D01*
X5080254Y5302707D01*
X5078425Y5316220D01*
X5074818Y5329377D01*
X5069535Y5341924D01*
X5062575Y5353659D01*
X5054092Y5364378D01*
X5044287Y5373878D01*
X5033314Y5381955D01*
X5021376Y5388508D01*
X5008626Y5393385D01*
X4995367Y5396585D01*
X4981803Y5397906D01*
X4968189Y5397449D01*
X4954727Y5395214D01*
X4941722Y5391150D01*
X4929327Y5385409D01*
X4917846Y5378094D01*
X4907432Y5369306D01*
X4898288Y5359146D01*
X4890566Y5347919D01*
X4884420Y5335778D01*
X4879949Y5322874D01*
X4877206Y5309514D01*
X4876292Y5295900D01*
X4877206Y5282285D01*
X4879949Y5268925D01*
X4884420Y5256022D01*
X4890566Y5243880D01*
X4898288Y5232654D01*
X4907432Y5222494D01*
X4917846Y5213705D01*
X4929327Y5206390D01*
X4941722Y5200650D01*
X4954727Y5196586D01*
X4968189Y5194350D01*
G37*
G36*
X6886803Y5193893D02*
G01*
X6900367Y5195214D01*
X6913625Y5198414D01*
X6926376Y5203291D01*
X6938314Y5209844D01*
X6949287Y5217922D01*
X6959092Y5227421D01*
X6967575Y5238140D01*
X6974535Y5249875D01*
X6979818Y5262422D01*
X6983425Y5275580D01*
X6985253Y5289092D01*
X6985253Y5302707D01*
X6983425Y5316220D01*
X6979818Y5329377D01*
X6974535Y5341924D01*
X6967575Y5353659D01*
X6959092Y5364378D01*
X6949287Y5373878D01*
X6938314Y5381955D01*
X6926376Y5388508D01*
X6913625Y5393385D01*
X6900367Y5396585D01*
X6886803Y5397906D01*
X6873189Y5397449D01*
X6859727Y5395214D01*
X6846722Y5391150D01*
X6834327Y5385409D01*
X6822846Y5378094D01*
X6812432Y5369306D01*
X6803288Y5359146D01*
X6795566Y5347919D01*
X6789420Y5335778D01*
X6784949Y5322874D01*
X6782206Y5309514D01*
X6781292Y5295900D01*
X6782206Y5282285D01*
X6784949Y5268925D01*
X6789420Y5256022D01*
X6795566Y5243880D01*
X6803288Y5232654D01*
X6812432Y5222494D01*
X6822846Y5213705D01*
X6834327Y5206390D01*
X6846722Y5200650D01*
X6859727Y5196586D01*
X6873189Y5194350D01*
G37*
G36*
X1077112Y5375452D02*
G01*
X1095908Y5375452D01*
X1114653Y5377332D01*
X1133094Y5381142D01*
X1151077Y5386781D01*
X1168400Y5394198D01*
X1184859Y5403342D01*
X1200302Y5414111D01*
X1214577Y5426354D01*
X1227582Y5440019D01*
X1239062Y5454904D01*
X1249070Y5470906D01*
X1257350Y5487771D01*
X1263904Y5505450D01*
X1268577Y5523687D01*
X1271473Y5542280D01*
X1272387Y5561076D01*
X1271473Y5579922D01*
X1268577Y5598515D01*
X1263904Y5616752D01*
X1257350Y5634431D01*
X1249070Y5651296D01*
X1239062Y5667298D01*
X1227582Y5682183D01*
X1214577Y5695848D01*
X1200302Y5708091D01*
X1184859Y5718860D01*
X1168400Y5728004D01*
X1151077Y5735421D01*
X1133094Y5741060D01*
X1114653Y5744870D01*
X1095908Y5746750D01*
X1077112Y5746750D01*
X1058367Y5744870D01*
X1039926Y5741060D01*
X1021943Y5735421D01*
X1004620Y5728004D01*
X988161Y5718860D01*
X972718Y5708091D01*
X958443Y5695848D01*
X945438Y5682183D01*
X933958Y5667298D01*
X923950Y5651296D01*
X915669Y5634431D01*
X909116Y5616752D01*
X904443Y5598515D01*
X901547Y5579922D01*
X900633Y5561076D01*
X901547Y5542280D01*
X904443Y5523687D01*
X909116Y5505450D01*
X915669Y5487771D01*
X923950Y5470906D01*
X933958Y5454904D01*
X945438Y5440019D01*
X958443Y5426354D01*
X972718Y5414111D01*
X988161Y5403342D01*
X1004620Y5394198D01*
X1021943Y5386781D01*
X1039926Y5381142D01*
X1058367Y5377332D01*
G37*
G36*
X4981803Y5447893D02*
G01*
X4995367Y5449214D01*
X5008626Y5452414D01*
X5021376Y5457291D01*
X5033314Y5463844D01*
X5044287Y5471922D01*
X5054092Y5481421D01*
X5062575Y5492140D01*
X5069535Y5503875D01*
X5074818Y5516422D01*
X5078425Y5529580D01*
X5080254Y5543092D01*
X5080254Y5556707D01*
X5078425Y5570220D01*
X5074818Y5583377D01*
X5069535Y5595924D01*
X5062575Y5607659D01*
X5054092Y5618378D01*
X5044287Y5627878D01*
X5033314Y5635955D01*
X5021376Y5642508D01*
X5008626Y5647385D01*
X4995367Y5650585D01*
X4981803Y5651906D01*
X4968189Y5651449D01*
X4954727Y5649214D01*
X4941722Y5645150D01*
X4929327Y5639409D01*
X4917846Y5632094D01*
X4907432Y5623306D01*
X4898288Y5613146D01*
X4890566Y5601919D01*
X4884420Y5589778D01*
X4879949Y5576874D01*
X4877206Y5563514D01*
X4876292Y5549900D01*
X4877206Y5536285D01*
X4879949Y5522925D01*
X4884420Y5510022D01*
X4890566Y5497880D01*
X4898288Y5486654D01*
X4907432Y5476494D01*
X4917846Y5467705D01*
X4929327Y5460390D01*
X4941722Y5454650D01*
X4954727Y5450586D01*
X4968189Y5448350D01*
G37*
G36*
X6886803Y5447893D02*
G01*
X6900367Y5449214D01*
X6913625Y5452414D01*
X6926376Y5457291D01*
X6938314Y5463844D01*
X6949287Y5471922D01*
X6959092Y5481421D01*
X6967575Y5492140D01*
X6974535Y5503875D01*
X6979818Y5516422D01*
X6983425Y5529580D01*
X6985253Y5543092D01*
X6985253Y5556707D01*
X6984847Y5559602D01*
X6984949Y5562701D01*
X6985914Y5565597D01*
X6987743Y5568137D01*
X7210450Y5790793D01*
X7213752Y5793028D01*
X7217613Y5793790D01*
X7423912Y5793790D01*
X7427823Y5793028D01*
X7431074Y5790793D01*
X7433309Y5787542D01*
X7434072Y5783630D01*
X7434072Y5758738D01*
X7434783Y5752439D01*
X7436713Y5746953D01*
X7439761Y5742076D01*
X7443876Y5737961D01*
X7448753Y5734913D01*
X7454239Y5732983D01*
X7460538Y5732272D01*
X7652461Y5732272D01*
X7658760Y5732983D01*
X7664246Y5734913D01*
X7669123Y5737961D01*
X7673238Y5742076D01*
X7676286Y5746953D01*
X7678216Y5752439D01*
X7678928Y5758738D01*
X7678928Y5950661D01*
X7678216Y5956960D01*
X7676286Y5962446D01*
X7673238Y5967323D01*
X7669123Y5971438D01*
X7666481Y5973114D01*
X7663535Y5975908D01*
X7661909Y5979668D01*
X7661909Y5983732D01*
X7663535Y5987491D01*
X7666481Y5990285D01*
X7669123Y5991961D01*
X7673238Y5996076D01*
X7676286Y6000953D01*
X7678216Y6006439D01*
X7678928Y6012738D01*
X7678928Y6204661D01*
X7678216Y6210960D01*
X7676286Y6216446D01*
X7673238Y6221323D01*
X7669123Y6225438D01*
X7664246Y6228486D01*
X7658760Y6230416D01*
X7652461Y6231128D01*
X7460538Y6231128D01*
X7454239Y6230416D01*
X7448753Y6228486D01*
X7443876Y6225438D01*
X7439761Y6221323D01*
X7436713Y6216446D01*
X7434783Y6210960D01*
X7434072Y6204661D01*
X7434072Y6012738D01*
X7434783Y6006439D01*
X7436713Y6000953D01*
X7439761Y5996076D01*
X7443876Y5991961D01*
X7446518Y5990285D01*
X7449464Y5987491D01*
X7451090Y5983732D01*
X7451090Y5979668D01*
X7449464Y5975908D01*
X7446518Y5973114D01*
X7443876Y5971438D01*
X7439761Y5967323D01*
X7436713Y5962446D01*
X7434783Y5956960D01*
X7434072Y5950661D01*
X7434072Y5925769D01*
X7433309Y5921857D01*
X7431074Y5918606D01*
X7427823Y5916371D01*
X7423912Y5915609D01*
X7188504Y5915609D01*
X7180478Y5915101D01*
X7178395Y5914796D01*
X7170623Y5913018D01*
X7161275Y5909310D01*
X7159396Y5908344D01*
X7150963Y5902909D01*
X7144918Y5897524D01*
X6901535Y5654192D01*
X6897776Y5651804D01*
X6893356Y5651246D01*
X6886803Y5651906D01*
X6873189Y5651449D01*
X6859727Y5649214D01*
X6846722Y5645150D01*
X6834327Y5639409D01*
X6822846Y5632094D01*
X6812432Y5623306D01*
X6803288Y5613146D01*
X6795566Y5601919D01*
X6789420Y5589778D01*
X6784949Y5576874D01*
X6782206Y5563514D01*
X6781292Y5549900D01*
X6782206Y5536285D01*
X6784949Y5522925D01*
X6789420Y5510022D01*
X6795566Y5497880D01*
X6803288Y5486654D01*
X6812432Y5476494D01*
X6822846Y5467705D01*
X6834327Y5460390D01*
X6846722Y5454650D01*
X6859727Y5450586D01*
X6873189Y5448350D01*
G37*
G36*
X611886Y5695188D02*
G01*
X691134Y5695188D01*
X703732Y5696102D01*
X715721Y5698693D01*
X727202Y5703011D01*
X737920Y5708853D01*
X747725Y5716219D01*
X756412Y5724855D01*
X763778Y5734659D01*
X769620Y5745429D01*
X773887Y5756910D01*
X776528Y5768898D01*
X777392Y5781090D01*
X776528Y5793333D01*
X773887Y5805322D01*
X769620Y5816803D01*
X763778Y5827522D01*
X756412Y5837326D01*
X747725Y5846013D01*
X737920Y5853379D01*
X727202Y5859221D01*
X715721Y5863488D01*
X703732Y5866130D01*
X691134Y5866993D01*
X611886Y5866993D01*
X599287Y5866130D01*
X587298Y5863488D01*
X575818Y5859221D01*
X565099Y5853379D01*
X555244Y5846013D01*
X546608Y5837326D01*
X539242Y5827522D01*
X533400Y5816803D01*
X529082Y5805322D01*
X526491Y5793333D01*
X525627Y5781090D01*
X526491Y5768898D01*
X529082Y5756910D01*
X533400Y5745429D01*
X539242Y5734659D01*
X546608Y5724855D01*
X555244Y5716219D01*
X565099Y5708853D01*
X575818Y5703011D01*
X587298Y5698693D01*
X599287Y5696102D01*
G37*
G36*
X103174Y6171946D02*
G01*
X316179Y6171946D01*
X322478Y6172657D01*
X327964Y6174587D01*
X332841Y6177635D01*
X336956Y6181750D01*
X340004Y6186627D01*
X341934Y6192113D01*
X342646Y6198412D01*
X342646Y7159701D01*
X341934Y7166000D01*
X340004Y7171486D01*
X336956Y7176363D01*
X332841Y7180478D01*
X327964Y7183526D01*
X322478Y7185456D01*
X316179Y7186168D01*
X103174Y7186168D01*
X96875Y7185456D01*
X91389Y7183526D01*
X86512Y7180478D01*
X82397Y7176363D01*
X79349Y7171486D01*
X77419Y7166000D01*
X76708Y7159701D01*
X76708Y6198412D01*
X77419Y6192113D01*
X79349Y6186627D01*
X82397Y6181750D01*
X86512Y6177635D01*
X91389Y6174587D01*
X96875Y6172657D01*
G37*
G36*
X811631Y6300368D02*
G01*
X886002Y6300368D01*
X881075Y6309563D01*
X870966Y6324549D01*
X859383Y6338468D01*
X846429Y6351117D01*
X832205Y6362344D01*
X816914Y6372098D01*
X811631Y6374739D01*
G37*
G36*
X4981803Y6336893D02*
G01*
X4995367Y6338214D01*
X5008626Y6341414D01*
X5021376Y6346291D01*
X5033314Y6352844D01*
X5044287Y6360922D01*
X5054092Y6370421D01*
X5062575Y6381140D01*
X5069535Y6392875D01*
X5074818Y6405422D01*
X5078425Y6418580D01*
X5080254Y6432092D01*
X5080254Y6445707D01*
X5078425Y6459220D01*
X5074818Y6472377D01*
X5069535Y6484924D01*
X5062575Y6496659D01*
X5054092Y6507378D01*
X5044287Y6516878D01*
X5033314Y6524955D01*
X5021376Y6531508D01*
X5008626Y6536385D01*
X4995367Y6539585D01*
X4981803Y6540906D01*
X4968189Y6540449D01*
X4954727Y6538214D01*
X4941722Y6534150D01*
X4929327Y6528409D01*
X4917846Y6521094D01*
X4907432Y6512306D01*
X4898288Y6502146D01*
X4890566Y6490919D01*
X4884420Y6478778D01*
X4879949Y6465874D01*
X4877206Y6452514D01*
X4876292Y6438900D01*
X4877206Y6425285D01*
X4879949Y6411925D01*
X4884420Y6399022D01*
X4890566Y6386880D01*
X4898288Y6375654D01*
X4907432Y6365494D01*
X4917846Y6356705D01*
X4929327Y6349390D01*
X4941722Y6343650D01*
X4954727Y6339586D01*
X4968189Y6337350D01*
G37*
G36*
X6927850Y6347104D02*
G01*
X6938314Y6352844D01*
X6949287Y6360922D01*
X6959092Y6370421D01*
X6967575Y6381140D01*
X6974535Y6392875D01*
X6975195Y6394450D01*
X6927850Y6394450D01*
G37*
G36*
X6838950Y6347256D02*
G01*
X6838950Y6394450D01*
X6791756Y6394450D01*
X6795566Y6386880D01*
X6803288Y6375654D01*
X6812432Y6365494D01*
X6822846Y6356705D01*
X6834327Y6349390D01*
G37*
G36*
X3872941Y6462217D02*
G01*
X3872941Y6514541D01*
X3820515Y6514541D01*
X3826459Y6503822D01*
X3834993Y6492036D01*
X3844950Y6481419D01*
X3856177Y6472123D01*
X3868470Y6464350D01*
G37*
G36*
X3975658Y6462217D02*
G01*
X3980129Y6464350D01*
X3992422Y6472123D01*
X4003649Y6481419D01*
X4013606Y6492036D01*
X4022140Y6503822D01*
X4028084Y6514541D01*
X3975658Y6514541D01*
G37*
G36*
X6791756Y6483350D02*
G01*
X6838950Y6483350D01*
X6838950Y6530543D01*
X6834327Y6528409D01*
X6822846Y6521094D01*
X6812432Y6512306D01*
X6803288Y6502146D01*
X6795566Y6490919D01*
G37*
G36*
X6927850Y6483350D02*
G01*
X6975195Y6483350D01*
X6974535Y6484924D01*
X6967575Y6496659D01*
X6959092Y6507378D01*
X6949287Y6516878D01*
X6938314Y6524955D01*
X6927850Y6530695D01*
G37*
G36*
X6927850Y6601104D02*
G01*
X6938314Y6606844D01*
X6949287Y6614922D01*
X6959092Y6624421D01*
X6967575Y6635140D01*
X6974535Y6646875D01*
X6975195Y6648450D01*
X6927850Y6648450D01*
G37*
G36*
X6838950Y6601256D02*
G01*
X6838950Y6648450D01*
X6791756Y6648450D01*
X6795566Y6640880D01*
X6803288Y6629653D01*
X6812432Y6619494D01*
X6822846Y6610705D01*
X6834327Y6603390D01*
G37*
G36*
X3820515Y6617258D02*
G01*
X3872941Y6617258D01*
X3872941Y6669582D01*
X3868470Y6667449D01*
X3856177Y6659676D01*
X3844950Y6650380D01*
X3834993Y6639763D01*
X3826459Y6627977D01*
G37*
G36*
X1669338Y7027672D02*
G01*
X1710689Y7027672D01*
X1710689Y7095490D01*
X1642872Y7095490D01*
X1642872Y7054138D01*
X1643583Y7047839D01*
X1645513Y7042353D01*
X1648561Y7037476D01*
X1652676Y7033361D01*
X1657553Y7030313D01*
X1663039Y7028383D01*
G37*
G36*
X721258Y7043318D02*
G01*
X739343Y7043318D01*
X757377Y7045198D01*
X775106Y7048906D01*
X792327Y7054392D01*
X808939Y7061657D01*
X824687Y7070598D01*
X839469Y7081062D01*
X853084Y7093051D01*
X865378Y7106310D01*
X876249Y7120788D01*
X885545Y7136333D01*
X893216Y7152741D01*
X899210Y7169861D01*
X903325Y7187488D01*
X905662Y7205421D01*
X906119Y7223506D01*
X904748Y7241590D01*
X901496Y7259421D01*
X896416Y7276795D01*
X889609Y7293559D01*
X881075Y7309561D01*
X870966Y7324598D01*
X859383Y7338466D01*
X846429Y7351115D01*
X832205Y7362342D01*
X816914Y7372096D01*
X800760Y7380173D01*
X783793Y7386574D01*
X766267Y7391196D01*
X748385Y7393940D01*
X730300Y7394905D01*
X712216Y7393940D01*
X694334Y7391196D01*
X676808Y7386574D01*
X659841Y7380173D01*
X643686Y7372096D01*
X628396Y7362342D01*
X614172Y7351115D01*
X601218Y7338466D01*
X589635Y7324598D01*
X579526Y7309561D01*
X570992Y7293559D01*
X564184Y7276795D01*
X559104Y7259421D01*
X555853Y7241590D01*
X554482Y7223506D01*
X554939Y7205421D01*
X557276Y7187488D01*
X561390Y7169861D01*
X567385Y7152741D01*
X575056Y7136333D01*
X584352Y7120788D01*
X595223Y7106310D01*
X607517Y7093051D01*
X621131Y7081062D01*
X635914Y7070598D01*
X651662Y7061657D01*
X668274Y7054392D01*
X685495Y7048906D01*
X703224Y7045198D01*
G37*
G36*
X512775Y8633815D02*
G01*
X531622Y8633815D01*
X550367Y8635746D01*
X568807Y8639505D01*
X586740Y8645144D01*
X604062Y8652611D01*
X620522Y8661755D01*
X635965Y8672474D01*
X650290Y8684768D01*
X663244Y8698382D01*
X674776Y8713317D01*
X684733Y8729268D01*
X693013Y8746185D01*
X699566Y8763863D01*
X704291Y8782050D01*
X707136Y8800693D01*
X708101Y8819489D01*
X707136Y8838285D01*
X704291Y8856929D01*
X699566Y8875115D01*
X693013Y8892794D01*
X684733Y8909710D01*
X674776Y8925661D01*
X663244Y8940596D01*
X650290Y8954211D01*
X635965Y8966504D01*
X620522Y8977223D01*
X604062Y8986367D01*
X586740Y8993835D01*
X568807Y8999474D01*
X550367Y9003233D01*
X531622Y9005163D01*
X512775Y9005163D01*
X494030Y9003233D01*
X475589Y8999474D01*
X457657Y8993835D01*
X440334Y8986367D01*
X423875Y8977223D01*
X408432Y8966504D01*
X394106Y8954211D01*
X381152Y8940596D01*
X369620Y8925661D01*
X359664Y8909710D01*
X351383Y8892794D01*
X344830Y8875115D01*
X340106Y8856929D01*
X337261Y8838285D01*
X336296Y8819489D01*
X337261Y8800693D01*
X340106Y8782050D01*
X344830Y8763863D01*
X351383Y8746185D01*
X359664Y8729268D01*
X369620Y8713317D01*
X381152Y8698382D01*
X394106Y8684768D01*
X408432Y8672474D01*
X423875Y8661755D01*
X440334Y8652611D01*
X457657Y8645144D01*
X475589Y8639505D01*
X494030Y8635746D01*
G37*
G36*
X1652778Y8633815D02*
G01*
X1671624Y8633815D01*
X1690370Y8635746D01*
X1708810Y8639505D01*
X1726742Y8645144D01*
X1744065Y8652611D01*
X1760524Y8661755D01*
X1775968Y8672474D01*
X1790293Y8684768D01*
X1803247Y8698382D01*
X1814779Y8713317D01*
X1824736Y8729268D01*
X1833016Y8746185D01*
X1839569Y8763863D01*
X1844293Y8782050D01*
X1847138Y8800693D01*
X1848104Y8819489D01*
X1847138Y8838285D01*
X1844293Y8856929D01*
X1839569Y8875115D01*
X1833016Y8892794D01*
X1824736Y8909710D01*
X1814779Y8925661D01*
X1803247Y8940596D01*
X1790293Y8954211D01*
X1775968Y8966504D01*
X1760524Y8977223D01*
X1744065Y8986367D01*
X1726742Y8993835D01*
X1708810Y8999474D01*
X1690370Y9003233D01*
X1671624Y9005163D01*
X1652778Y9005163D01*
X1634032Y9003233D01*
X1615592Y8999474D01*
X1597660Y8993835D01*
X1580337Y8986367D01*
X1563878Y8977223D01*
X1548434Y8966504D01*
X1534109Y8954211D01*
X1521155Y8940596D01*
X1509623Y8925661D01*
X1499666Y8909710D01*
X1491386Y8892794D01*
X1484833Y8875115D01*
X1480108Y8856929D01*
X1477264Y8838285D01*
X1476298Y8819489D01*
X1477264Y8800693D01*
X1480108Y8782050D01*
X1484833Y8763863D01*
X1491386Y8746185D01*
X1499666Y8729268D01*
X1509623Y8713317D01*
X1521155Y8698382D01*
X1534109Y8684768D01*
X1548434Y8672474D01*
X1563878Y8661755D01*
X1580337Y8652611D01*
X1597660Y8645144D01*
X1615592Y8639505D01*
X1634032Y8635746D01*
G37*
G36*
X302209Y9128607D02*
G01*
X314401Y9129471D01*
X326390Y9132062D01*
X337870Y9136380D01*
X348640Y9142222D01*
X358444Y9149588D01*
X367131Y9158224D01*
X374446Y9168079D01*
X380339Y9178798D01*
X384606Y9190278D01*
X387197Y9202267D01*
X388112Y9214866D01*
X388112Y9294114D01*
X387197Y9306712D01*
X384606Y9318701D01*
X380339Y9330182D01*
X374446Y9340900D01*
X367131Y9350705D01*
X358444Y9359392D01*
X348640Y9366758D01*
X337870Y9372600D01*
X326390Y9376918D01*
X314401Y9379508D01*
X302209Y9380372D01*
X289966Y9379508D01*
X278028Y9376918D01*
X266547Y9372600D01*
X255778Y9366758D01*
X245973Y9359392D01*
X237286Y9350705D01*
X229971Y9340900D01*
X224078Y9330182D01*
X219811Y9318701D01*
X217220Y9306712D01*
X216306Y9294114D01*
X216306Y9214866D01*
X217220Y9202267D01*
X219811Y9190278D01*
X224078Y9178798D01*
X229971Y9168079D01*
X237286Y9158224D01*
X245973Y9149588D01*
X255778Y9142222D01*
X266547Y9136380D01*
X278028Y9132062D01*
X289966Y9129471D01*
G37*

%LPD*%
D10*
X2635758Y1967992D02*
G01*
X2635758Y1801876D01*
X2552700Y1884934D02*
G01*
X2719070Y1884934D01*
X3048000Y1884934D02*
G01*
X3214370Y1884934D01*
X76200Y6085078D02*
G01*
X76200Y5891276D01*
X137160Y6085078D02*
G01*
X137160Y5891276D01*
X137160Y6085078D02*
G01*
X266445Y5891276D01*
X266445Y6085078D02*
G01*
X266445Y5891276D01*
X214629Y2254250D02*
G01*
X205486Y2272792D01*
X186944Y2291334D01*
X168655Y2300478D01*
X131571Y2300478D01*
X113029Y2291334D01*
X94742Y2272792D01*
X85344Y2254250D01*
X76200Y2226563D01*
X76200Y2180589D01*
X85344Y2152650D01*
X94742Y2134362D01*
X113029Y2115820D01*
X131571Y2106676D01*
X168655Y2106676D01*
X186944Y2115820D01*
X205486Y2134362D01*
X214629Y2152650D01*
X349504Y2300478D02*
G01*
X275589Y2106676D01*
X349504Y2300478D02*
G01*
X423418Y2106676D01*
X303529Y2171192D02*
G01*
X395731Y2171192D01*
X484378Y2300478D02*
G01*
X484378Y2106676D01*
X484378Y2300478D02*
G01*
X613663Y2106676D01*
X613663Y2300478D02*
G01*
X613663Y2106676D01*
X872489Y2300478D02*
G01*
X853947Y2291334D01*
X835405Y2272792D01*
X826262Y2254250D01*
X816863Y2226563D01*
X816863Y2180589D01*
X826262Y2152650D01*
X835405Y2134362D01*
X853947Y2115820D01*
X872489Y2106676D01*
X909320Y2106676D01*
X927862Y2115820D01*
X946150Y2134362D01*
X955547Y2152650D01*
X964692Y2180589D01*
X964692Y2226563D01*
X955547Y2254250D01*
X946150Y2272792D01*
X927862Y2291334D01*
X909320Y2300478D01*
X872489Y2300478D01*
X1025652Y2300478D02*
G01*
X1025652Y2162047D01*
X1035050Y2134362D01*
X1053337Y2115820D01*
X1081023Y2106676D01*
X1099565Y2106676D01*
X1127252Y2115820D01*
X1145794Y2134362D01*
X1154937Y2162047D01*
X1154937Y2300478D01*
X1280668Y2300478D02*
G01*
X1280668Y2106676D01*
X1215897Y2300478D02*
G01*
X1345184Y2300478D01*
X3911600Y2059178D02*
G01*
X3911600Y1865376D01*
X3911600Y2059178D02*
G01*
X3976370Y2059178D01*
X4004056Y2050034D01*
X4022343Y2031492D01*
X4031741Y2012950D01*
X4040886Y1985263D01*
X4040886Y1939289D01*
X4031741Y1911350D01*
X4022343Y1893062D01*
X4004056Y1874520D01*
X3976370Y1865376D01*
X3911600Y1865376D01*
X4101845Y1939289D02*
G01*
X4212590Y1939289D01*
X4212590Y1957578D01*
X4203445Y1976120D01*
X4194302Y1985263D01*
X4175759Y1994662D01*
X4148074Y1994662D01*
X4129531Y1985263D01*
X4110990Y1966976D01*
X4101845Y1939289D01*
X4101845Y1920747D01*
X4110990Y1893062D01*
X4129531Y1874520D01*
X4148074Y1865376D01*
X4175759Y1865376D01*
X4194302Y1874520D01*
X4212590Y1893062D01*
X4282947Y1994662D02*
G01*
X4338320Y1865376D01*
X4393691Y1994662D02*
G01*
X4338320Y1865376D01*
X4319777Y1828292D01*
X4301490Y1809750D01*
X4282947Y1800605D01*
X4273550Y1800605D01*
X4454652Y1939289D02*
G01*
X4565650Y1939289D01*
X4565650Y1957578D01*
X4556252Y1976120D01*
X4547108Y1985263D01*
X4528565Y1994662D01*
X4500879Y1994662D01*
X4482338Y1985263D01*
X4464050Y1966976D01*
X4454652Y1939289D01*
X4454652Y1920747D01*
X4464050Y1893062D01*
X4482338Y1874520D01*
X4500879Y1865376D01*
X4528565Y1865376D01*
X4547108Y1874520D01*
X4565650Y1893062D01*
X4768850Y2059178D02*
G01*
X4768850Y1865376D01*
X4768850Y2059178D02*
G01*
X4888738Y2059178D01*
X4768850Y1966976D02*
G01*
X4842509Y1966976D01*
X4768850Y1865376D02*
G01*
X4888738Y1865376D01*
X5078984Y2031492D02*
G01*
X5060695Y2050034D01*
X5033009Y2059178D01*
X4995925Y2059178D01*
X4968240Y2050034D01*
X4949697Y2031492D01*
X4949697Y2012950D01*
X4959095Y1994662D01*
X4968240Y1985263D01*
X4986781Y1976120D01*
X5042154Y1957578D01*
X5060695Y1948434D01*
X5069840Y1939289D01*
X5078984Y1920747D01*
X5078984Y1893062D01*
X5060695Y1874520D01*
X5033009Y1865376D01*
X4995925Y1865376D01*
X4968240Y1874520D01*
X4949697Y1893062D01*
X5139943Y2059178D02*
G01*
X5139943Y1865376D01*
X5139943Y2059178D02*
G01*
X5223256Y2059178D01*
X5250941Y2050034D01*
X5260086Y2040889D01*
X5269229Y2022347D01*
X5269229Y1994662D01*
X5260086Y1976120D01*
X5250941Y1966976D01*
X5223256Y1957578D01*
X5139943Y1957578D01*
X5348731Y2059178D02*
G01*
X5450331Y2059178D01*
X5394959Y1985263D01*
X5422645Y1985263D01*
X5441188Y1976120D01*
X5450331Y1966976D01*
X5459729Y1939289D01*
X5459729Y1920747D01*
X5450331Y1893062D01*
X5431790Y1874520D01*
X5404104Y1865376D01*
X5376418Y1865376D01*
X5348731Y1874520D01*
X5339588Y1883663D01*
X5330190Y1902205D01*
X5529834Y2012950D02*
G01*
X5529834Y2022347D01*
X5538977Y2040889D01*
X5548375Y2050034D01*
X5566663Y2059178D01*
X5603747Y2059178D01*
X5622290Y2050034D01*
X5631434Y2040889D01*
X5640577Y2022347D01*
X5640577Y2003805D01*
X5631434Y1985263D01*
X5612891Y1957578D01*
X5520690Y1865376D01*
X5649975Y1865376D01*
X5853175Y2059178D02*
G01*
X5853175Y1865376D01*
X5853175Y2059178D02*
G01*
X5936234Y2059178D01*
X5963920Y2050034D01*
X5973063Y2040889D01*
X5982461Y2022347D01*
X5982461Y2003805D01*
X5973063Y1985263D01*
X5963920Y1976120D01*
X5936234Y1966976D01*
X5853175Y1966976D02*
G01*
X5936234Y1966976D01*
X5963920Y1957578D01*
X5973063Y1948434D01*
X5982461Y1929892D01*
X5982461Y1902205D01*
X5973063Y1883663D01*
X5963920Y1874520D01*
X5936234Y1865376D01*
X5853175Y1865376D01*
X6043422Y1994662D02*
G01*
X6043422Y1865376D01*
X6043422Y1939289D02*
G01*
X6052565Y1966976D01*
X6071108Y1985263D01*
X6089650Y1994662D01*
X6117336Y1994662D01*
X6178295Y2059178D02*
G01*
X6187440Y2050034D01*
X6196584Y2059178D01*
X6187440Y2068576D01*
X6178295Y2059178D01*
X6187440Y1994662D02*
G01*
X6187440Y1865376D01*
X6368541Y2059178D02*
G01*
X6368541Y1865376D01*
X6368541Y1966976D02*
G01*
X6350000Y1985263D01*
X6331458Y1994662D01*
X6303772Y1994662D01*
X6285229Y1985263D01*
X6266941Y1966976D01*
X6257543Y1939289D01*
X6257543Y1920747D01*
X6266941Y1893062D01*
X6285229Y1874520D01*
X6303772Y1865376D01*
X6331458Y1865376D01*
X6350000Y1874520D01*
X6368541Y1893062D01*
X6540245Y1994662D02*
G01*
X6540245Y1846834D01*
X6531102Y1819147D01*
X6521704Y1809750D01*
X6503415Y1800605D01*
X6475729Y1800605D01*
X6457188Y1809750D01*
X6540245Y1966976D02*
G01*
X6521704Y1985263D01*
X6503415Y1994662D01*
X6475729Y1994662D01*
X6457188Y1985263D01*
X6438645Y1966976D01*
X6429502Y1939289D01*
X6429502Y1920747D01*
X6438645Y1893062D01*
X6457188Y1874520D01*
X6475729Y1865376D01*
X6503415Y1865376D01*
X6521704Y1874520D01*
X6540245Y1893062D01*
X6601206Y1939289D02*
G01*
X6711950Y1939289D01*
X6711950Y1957578D01*
X6702806Y1976120D01*
X6693661Y1985263D01*
X6675120Y1994662D01*
X6647434Y1994662D01*
X6628891Y1985263D01*
X6610350Y1966976D01*
X6601206Y1939289D01*
X6601206Y1920747D01*
X6610350Y1893062D01*
X6628891Y1874520D01*
X6647434Y1865376D01*
X6675120Y1865376D01*
X6693661Y1874520D01*
X6711950Y1893062D01*
X6915150Y1994662D02*
G01*
X6970775Y1865376D01*
X7026147Y1994662D02*
G01*
X6970775Y1865376D01*
X7142479Y2059178D02*
G01*
X7114793Y2050034D01*
X7096252Y2022347D01*
X7087108Y1976120D01*
X7087108Y1948434D01*
X7096252Y1902205D01*
X7114793Y1874520D01*
X7142479Y1865376D01*
X7161022Y1865376D01*
X7188708Y1874520D01*
X7207250Y1902205D01*
X7216393Y1948434D01*
X7216393Y1976120D01*
X7207250Y2022347D01*
X7188708Y2050034D01*
X7161022Y2059178D01*
X7142479Y2059178D01*
X7286497Y1911350D02*
G01*
X7277354Y1902205D01*
X7286497Y1893062D01*
X7295895Y1902205D01*
X7286497Y1911350D01*
X7375143Y2059178D02*
G01*
X7476743Y2059178D01*
X7421372Y1985263D01*
X7449058Y1985263D01*
X7467600Y1976120D01*
X7476743Y1966976D01*
X7486141Y1939289D01*
X7486141Y1920747D01*
X7476743Y1893062D01*
X7458456Y1874520D01*
X7430770Y1865376D01*
X7402829Y1865376D01*
X7375143Y1874520D01*
X7366000Y1883663D01*
X7356856Y1902205D01*
X278892Y7020813D02*
G01*
X297434Y7039355D01*
X306578Y7067042D01*
X306578Y7103871D01*
X297434Y7131558D01*
X278892Y7150100D01*
X260350Y7150100D01*
X242062Y7140955D01*
X232663Y7131558D01*
X223520Y7113270D01*
X204978Y7057644D01*
X195834Y7039355D01*
X186689Y7029958D01*
X168147Y7020813D01*
X140462Y7020813D01*
X121920Y7039355D01*
X112776Y7067042D01*
X112776Y7103871D01*
X121920Y7131558D01*
X140462Y7150100D01*
X186689Y6959854D02*
G01*
X186689Y6849110D01*
X204978Y6849110D01*
X223520Y6858254D01*
X232663Y6867397D01*
X242062Y6885939D01*
X242062Y6913626D01*
X232663Y6932168D01*
X214376Y6950710D01*
X186689Y6959854D01*
X168147Y6959854D01*
X140462Y6950710D01*
X121920Y6932168D01*
X112776Y6913626D01*
X112776Y6885939D01*
X121920Y6867397D01*
X140462Y6849110D01*
X242062Y6788150D02*
G01*
X112776Y6788150D01*
X204978Y6788150D02*
G01*
X232663Y6760210D01*
X242062Y6741921D01*
X242062Y6714236D01*
X232663Y6695694D01*
X204978Y6686550D01*
X112776Y6686550D01*
X214376Y6523989D02*
G01*
X232663Y6533134D01*
X242062Y6560820D01*
X242062Y6588505D01*
X232663Y6616192D01*
X214376Y6625589D01*
X195834Y6616192D01*
X186689Y6597650D01*
X177292Y6551676D01*
X168147Y6533134D01*
X149605Y6523989D01*
X140462Y6523989D01*
X121920Y6533134D01*
X112776Y6560820D01*
X112776Y6588505D01*
X121920Y6616192D01*
X140462Y6625589D01*
X242062Y6416802D02*
G01*
X232663Y6435089D01*
X214376Y6453631D01*
X186689Y6463029D01*
X168147Y6463029D01*
X140462Y6453631D01*
X121920Y6435089D01*
X112776Y6416802D01*
X112776Y6389115D01*
X121920Y6370573D01*
X140462Y6352031D01*
X168147Y6342887D01*
X186689Y6342887D01*
X214376Y6352031D01*
X232663Y6370573D01*
X242062Y6389115D01*
X242062Y6416802D01*
X242062Y6281928D02*
G01*
X112776Y6281928D01*
X186689Y6281928D02*
G01*
X214376Y6272529D01*
X232663Y6254242D01*
X242062Y6235700D01*
X242062Y6208013D01*
D11*
X4178300Y6565900D02*
G01*
X3789502Y6954697D01*
X2976702Y6954697D01*
X2844800Y7086600D01*
X2844800Y7086600D02*
G01*
X2387269Y6629069D01*
X1268298Y6629069D01*
X3111500Y3619500D02*
G01*
X2728493Y3619500D01*
X2143836Y3034842D01*
X2143836Y2740812D01*
X2068677Y2665653D01*
X1962327Y2665653D01*
X1887143Y2740837D01*
X1887143Y2858896D01*
X1903018Y2874771D01*
X1903018Y2969971D01*
X1761489Y3111500D01*
X1761489Y3175000D01*
X2331465Y5913678D02*
G01*
X1998421Y5913678D01*
X1618259Y5533517D01*
X1618259Y5070830D01*
X1761489Y4927600D01*
X2150033Y5054600D02*
G01*
X2794000Y5054600D01*
X2015490Y5054600D02*
G01*
X2150033Y5054600D01*
X2150033Y5054600D02*
G01*
X2150033Y3436543D01*
X2015490Y3302000D01*
X2794000Y5054600D02*
G01*
X2890418Y5151018D01*
X3162300Y5151018D01*
X2794000Y4954473D02*
G01*
X2794000Y5054600D01*
X2794000Y4787900D02*
G01*
X2794000Y4954473D01*
X3136900Y2387600D02*
G01*
X3332225Y2192273D01*
X5112638Y2192273D01*
X3670300Y6565900D02*
G01*
X3515359Y6720839D01*
X2607741Y6720839D01*
X7556906Y6693585D02*
G01*
X7844434Y6693585D01*
X3327145Y2640939D02*
G01*
X3653561Y2640939D01*
X3692499Y2602001D01*
X3860800Y9626600D02*
G01*
X3989171Y9498228D01*
X5320563Y9498228D01*
X7941436Y6877354D01*
X7941436Y6599580D01*
X7692491Y3110001D02*
G01*
X8050961Y3110001D01*
X3606800Y9626600D02*
G01*
X4496257Y8737142D01*
X5957646Y8737142D01*
X7840014Y6854774D01*
X2628900Y3251200D02*
G01*
X2795473Y3251200D01*
X3149600Y2997200D02*
G01*
X2983026Y2997200D01*
X2983026Y2997200D02*
G01*
X2795473Y3184753D01*
X2795473Y3251200D01*
X6883400Y6438900D02*
G01*
X5421198Y6438900D01*
X3692499Y4710201D01*
X3149600Y3334486D02*
G01*
X3468014Y3334486D01*
X3692499Y3110001D01*
X3149600Y3334486D02*
G01*
X3149600Y3417773D01*
X3149600Y3251200D02*
G01*
X3149600Y3334486D01*
X3692499Y4710201D02*
G01*
X3316173Y4333875D01*
X3316173Y3584346D01*
X3149600Y3417773D01*
X1178940Y6412763D02*
G01*
X985189Y6219012D01*
X730300Y6219012D01*
X1598726Y7150100D02*
G01*
X1178940Y6730314D01*
X1178940Y6412763D01*
X1178940Y6412763D02*
G01*
X3771163Y6412763D01*
X3924300Y6565900D01*
X1765300Y7150100D02*
G01*
X1598726Y7150100D01*
X901700Y7890484D02*
G01*
X1388084Y7404100D01*
X1765300Y7404100D01*
X1536700Y8144510D02*
G01*
X1482217Y8144510D01*
X1337563Y7999856D01*
X1245819Y7999856D01*
X1210563Y8035112D01*
X1118819Y8035112D01*
X1098346Y8014639D01*
X977036Y8014639D01*
X962279Y8029397D01*
X850112Y8029397D01*
X711200Y7890484D01*
X647700Y7890484D01*
X7556500Y5854700D02*
G01*
X7188200Y5854700D01*
X6883400Y5549900D01*
X651510Y4028490D02*
G01*
X651510Y4201109D01*
X2015490Y5308600D02*
G01*
X2015490Y5254066D01*
X1870862Y5109438D01*
X1870862Y5017719D01*
X1906117Y4982463D01*
X1906117Y4890693D01*
X1870862Y4855438D01*
X1870862Y4763719D01*
X1906117Y4728463D01*
X1906117Y4636693D01*
X1632788Y4363364D01*
X1632788Y2859252D01*
X1925269Y2566771D01*
X3120897Y2566771D01*
X3410127Y2856001D01*
X3692499Y2856001D01*
X7692491Y4710201D02*
G01*
X8040903Y5058613D01*
X8040903Y8240496D01*
X6654800Y9626600D01*
X3111500Y4635500D02*
G01*
X2668854Y4635500D01*
X2540000Y4764354D01*
X2540000Y4787900D01*
X730300Y6719011D02*
G01*
X523367Y6512077D01*
X523367Y6132372D01*
X640562Y6015177D01*
X4821377Y6015177D01*
X5892800Y7086600D01*
D12*
G01*
X3692499Y3110001D03*
G01*
X3692499Y2856001D03*
G01*
X3692499Y2602001D03*
G01*
X3692499Y2348001D03*
G01*
X7692491Y3110001D03*
G01*
X7692491Y2856001D03*
G01*
X7692491Y2602001D03*
G01*
X7692491Y2348001D03*
D13*
G01*
X2844800Y7086600D03*
G01*
X3098800Y7086600D03*
G01*
X3352800Y7086600D03*
G01*
X3606800Y7086600D03*
G01*
X3860800Y7086600D03*
G01*
X4114800Y7086600D03*
G01*
X4368800Y7086600D03*
G01*
X4622800Y7086600D03*
G01*
X4876800Y7086600D03*
G01*
X5130800Y7086600D03*
G01*
X5384800Y7086600D03*
G01*
X5638800Y7086600D03*
G01*
X5892800Y7086600D03*
G01*
X6146800Y7086600D03*
G01*
X6400800Y7086600D03*
G01*
X6654800Y7086600D03*
G01*
X6908800Y7086600D03*
G01*
X7162800Y7086600D03*
G01*
X7416800Y7086600D03*
G01*
X7416800Y9626600D03*
G01*
X7162800Y9626600D03*
G01*
X6908800Y9626600D03*
G01*
X6654800Y9626600D03*
G01*
X6400800Y9626600D03*
G01*
X6146800Y9626600D03*
G01*
X5892800Y9626600D03*
G01*
X5638800Y9626600D03*
G01*
X5384800Y9626600D03*
G01*
X5130800Y9626600D03*
G01*
X4876800Y9626600D03*
G01*
X4622800Y9626600D03*
G01*
X4368800Y9626600D03*
G01*
X4114800Y9626600D03*
G01*
X3860800Y9626600D03*
G01*
X3606800Y9626600D03*
G01*
X3352800Y9626600D03*
G01*
X3098800Y9626600D03*
G01*
X2844800Y9626600D03*
D14*
G01*
X2628900Y2387600D03*
G01*
X3136900Y2387600D03*
D15*
G01*
X2628900Y3251200D03*
G01*
X2628900Y2997200D03*
D13*
G01*
X2015490Y4546600D03*
G01*
X1761489Y4673600D03*
G01*
X2015490Y4800600D03*
G01*
X1761489Y4927600D03*
G01*
X2015490Y5054600D03*
G01*
X1761489Y5181600D03*
G01*
X2015490Y5308600D03*
D16*
G01*
X1761489Y5435600D03*
D17*
G01*
X651510Y4201109D03*
G01*
X651510Y5781090D03*
D13*
G01*
X2015490Y2794000D03*
G01*
X1761489Y2921000D03*
G01*
X2015490Y3048000D03*
G01*
X1761489Y3175000D03*
G01*
X2015490Y3302000D03*
G01*
X1761489Y3429000D03*
G01*
X2015490Y3556000D03*
D16*
G01*
X1761489Y3683000D03*
D17*
G01*
X651510Y2448509D03*
G01*
X651510Y4028490D03*
D13*
G01*
X4978400Y6438900D03*
G01*
X4978400Y6692900D03*
G01*
X4978400Y5549900D03*
G01*
X4978400Y5295900D03*
G01*
X6883400Y6692900D03*
G01*
X6883400Y6438900D03*
G01*
X6883400Y5549900D03*
G01*
X6883400Y5295900D03*
D15*
G01*
X7556500Y6108700D03*
G01*
X7556500Y5854700D03*
G01*
X2794000Y4787900D03*
G01*
X2540000Y4787900D03*
G01*
X3149600Y3251200D03*
G01*
X3149600Y2997200D03*
D13*
G01*
X3111500Y3619500D03*
G01*
X3111500Y4635500D03*
D18*
G01*
X4178300Y6565900D03*
G01*
X3924300Y6565900D03*
G01*
X3670300Y6565900D03*
G01*
X3416300Y6565900D03*
G01*
X3162300Y6565900D03*
G01*
X2908300Y6565900D03*
D19*
G01*
X730300Y6219012D03*
G01*
X730300Y6719011D03*
G01*
X730300Y7219010D03*
D15*
G01*
X1765300Y7404100D03*
G01*
X1765300Y7150100D03*
D12*
G01*
X3692499Y4710201D03*
G01*
X3692499Y4456201D03*
G01*
X3692499Y4202201D03*
G01*
X3692499Y3948201D03*
G01*
X7692491Y4710201D03*
G01*
X7692491Y4456201D03*
G01*
X7692491Y4202201D03*
G01*
X7692491Y3948201D03*
D13*
G01*
X647700Y7890484D03*
G01*
X774700Y8144484D03*
G01*
X901700Y7890484D03*
G01*
X1028700Y8144484D03*
G01*
X1155700Y7890484D03*
G01*
X1282700Y8144484D03*
G01*
X1409700Y7890484D03*
D16*
G01*
X1536700Y8144510D03*
D20*
G01*
X302209Y9254489D03*
G01*
X1882190Y9254489D03*
D21*
G01*
X1268298Y6629069D03*
G01*
X2331465Y5913678D03*
G01*
X3162300Y5151018D03*
G01*
X5112638Y2192273D03*
G01*
X2607741Y6720839D03*
G01*
X7844434Y6693585D03*
G01*
X7556906Y6693585D03*
G01*
X3327145Y2640939D03*
G01*
X7941436Y6599580D03*
G01*
X8050961Y3110001D03*
G01*
X7840014Y6854774D03*
M02*
