G04 Layer: TopLayer*
G04 EasyEDA v6.5.22, 2023-04-24 20:58:47*
G04 13ecd297d484426e822b8d46814ac5cb,f9ecfe7abe46434aadffdc01d2bfd918,10*
G04 Gerber Generator version 0.2*
G04 Scale: 100 percent, Rotated: No, Reflected: No *
G04 Dimensions in millimeters *
G04 leading zeros omitted , absolute positions ,4 integer and 5 decimal *
%FSLAX45Y45*%
%MOMM*%

%ADD10C,0.2032*%
%ADD11C,0.7000*%
%ADD12O,1.9999959999999999X3.9999919999999998*%
%ADD13O,1.499997X3.9999919999999998*%
%ADD14C,1.5240*%
%ADD15C,2.5400*%
%ADD16R,1.9304X1.9304*%
%ADD17R,1.5240X1.5240*%
%ADD18O,1.9999959999999999X1.1999976*%
%ADD19C,3.0000*%
%ADD20O,1.1999976X1.9999959999999999*%
%ADD21C,0.6100*%
%ADD22C,0.0176*%

%LPD*%
G36*
X36068Y1803907D02*
G01*
X32156Y1804670D01*
X28905Y1806905D01*
X26670Y1810156D01*
X25908Y1814068D01*
X25908Y2076856D01*
X26822Y2081072D01*
X29464Y2084527D01*
X33274Y2086610D01*
X37592Y2086914D01*
X41656Y2085339D01*
X44653Y2082241D01*
X45821Y2080412D01*
X49936Y2076297D01*
X54813Y2073249D01*
X60299Y2071319D01*
X66598Y2070607D01*
X1354785Y2070607D01*
X1361084Y2071319D01*
X1366570Y2073249D01*
X1371447Y2076297D01*
X1375562Y2080412D01*
X1378610Y2085289D01*
X1380540Y2090775D01*
X1381252Y2097074D01*
X1381252Y2310079D01*
X1380540Y2316378D01*
X1378610Y2321864D01*
X1375562Y2326741D01*
X1371447Y2330856D01*
X1366570Y2333904D01*
X1361084Y2335834D01*
X1354785Y2336546D01*
X66598Y2336546D01*
X60299Y2335834D01*
X54813Y2333904D01*
X49936Y2330856D01*
X45821Y2326741D01*
X44653Y2324912D01*
X41656Y2321814D01*
X37592Y2320239D01*
X33274Y2320544D01*
X29464Y2322626D01*
X26822Y2326081D01*
X25908Y2330297D01*
X25908Y5861456D01*
X26822Y5865672D01*
X29464Y5869127D01*
X33274Y5871210D01*
X37592Y5871514D01*
X41656Y5869940D01*
X44653Y5866841D01*
X45821Y5865012D01*
X49936Y5860897D01*
X54813Y5857849D01*
X60299Y5855919D01*
X66598Y5855208D01*
X276047Y5855208D01*
X282346Y5855919D01*
X287832Y5857849D01*
X292709Y5860897D01*
X296824Y5865012D01*
X299872Y5869889D01*
X301802Y5875375D01*
X302514Y5881674D01*
X302514Y6094679D01*
X301802Y6100978D01*
X299872Y6106464D01*
X296824Y6111341D01*
X292709Y6115456D01*
X287832Y6118504D01*
X282346Y6120434D01*
X276047Y6121146D01*
X66598Y6121146D01*
X60299Y6120434D01*
X54813Y6118504D01*
X49936Y6115456D01*
X45821Y6111341D01*
X44653Y6109512D01*
X41656Y6106414D01*
X37592Y6104839D01*
X33274Y6105144D01*
X29464Y6107226D01*
X26822Y6110681D01*
X25908Y6114897D01*
X25908Y9869932D01*
X26670Y9873843D01*
X28905Y9877094D01*
X32156Y9879330D01*
X36068Y9880092D01*
X2174240Y9880092D01*
X2178151Y9879330D01*
X2181402Y9877094D01*
X2183638Y9873843D01*
X2184400Y9869932D01*
X2184400Y7798917D01*
X2183638Y7795056D01*
X2181402Y7791754D01*
X2178151Y7789570D01*
X2174240Y7788757D01*
X2170328Y7789570D01*
X2167077Y7791754D01*
X1809242Y8149590D01*
X1807464Y8151977D01*
X1806448Y8154720D01*
X1805482Y8159496D01*
X1804060Y8164271D01*
X1802231Y8168995D01*
X1799996Y8173516D01*
X1797456Y8177834D01*
X1794510Y8181898D01*
X1791258Y8185759D01*
X1787702Y8189315D01*
X1783842Y8192566D01*
X1779778Y8195513D01*
X1775460Y8198053D01*
X1770938Y8200288D01*
X1766214Y8202117D01*
X1761388Y8203539D01*
X1756460Y8204555D01*
X1751482Y8205216D01*
X1746250Y8205419D01*
X1712468Y8205419D01*
X1708607Y8206181D01*
X1705305Y8208416D01*
X1703070Y8211667D01*
X1702307Y8215579D01*
X1702307Y8220151D01*
X1701596Y8226450D01*
X1699717Y8231936D01*
X1696618Y8236813D01*
X1692503Y8240928D01*
X1687626Y8243976D01*
X1682140Y8245906D01*
X1675841Y8246618D01*
X1524558Y8246618D01*
X1518259Y8245906D01*
X1512773Y8243976D01*
X1507896Y8240928D01*
X1503781Y8236813D01*
X1500733Y8231936D01*
X1498803Y8226450D01*
X1498092Y8220151D01*
X1498092Y8068868D01*
X1498803Y8062569D01*
X1500733Y8057083D01*
X1503781Y8052206D01*
X1507896Y8048091D01*
X1512773Y8045043D01*
X1518259Y8043113D01*
X1524558Y8042402D01*
X1675841Y8042402D01*
X1682140Y8043113D01*
X1687626Y8045043D01*
X1692503Y8048091D01*
X1696618Y8052206D01*
X1699666Y8057083D01*
X1702003Y8063839D01*
X1704086Y8067395D01*
X1707337Y8069783D01*
X1711350Y8070748D01*
X1715363Y8069986D01*
X1718767Y8067751D01*
X2181402Y7605115D01*
X2183638Y7601813D01*
X2184400Y7597952D01*
X2184400Y7289952D01*
X2183638Y7286040D01*
X2181402Y7282789D01*
X2178151Y7280554D01*
X2174240Y7279792D01*
X2170328Y7280554D01*
X2167077Y7282789D01*
X1577543Y7872272D01*
X1575714Y7874762D01*
X1574698Y7877708D01*
X1574647Y7880807D01*
X1575054Y7883702D01*
X1575054Y7897317D01*
X1573225Y7910830D01*
X1569618Y7923987D01*
X1564284Y7936534D01*
X1557375Y7948269D01*
X1548892Y7958988D01*
X1539087Y7968488D01*
X1528114Y7976565D01*
X1516176Y7983118D01*
X1503426Y7987995D01*
X1490167Y7991195D01*
X1476603Y7992516D01*
X1462989Y7992059D01*
X1449527Y7989824D01*
X1436522Y7985759D01*
X1424127Y7980019D01*
X1412646Y7972704D01*
X1402232Y7963916D01*
X1393088Y7953756D01*
X1385366Y7942529D01*
X1379220Y7930388D01*
X1374749Y7917484D01*
X1372006Y7904124D01*
X1371092Y7890509D01*
X1372006Y7876895D01*
X1374749Y7863535D01*
X1379220Y7850631D01*
X1385366Y7838490D01*
X1393088Y7827264D01*
X1402232Y7817103D01*
X1412646Y7808315D01*
X1424127Y7801000D01*
X1436522Y7795259D01*
X1449527Y7791196D01*
X1462989Y7788960D01*
X1476603Y7788503D01*
X1483156Y7789164D01*
X1487576Y7788605D01*
X1491335Y7786217D01*
X2181402Y7096099D01*
X2183638Y7092848D01*
X2184400Y7088936D01*
X2184400Y6833616D01*
X2185416Y6832600D01*
X2440736Y6832600D01*
X2444648Y6831838D01*
X2447899Y6829602D01*
X2817977Y6459575D01*
X2824022Y6454190D01*
X2832506Y6448755D01*
X2834335Y6447790D01*
X2843682Y6444081D01*
X2851454Y6442303D01*
X2853537Y6441998D01*
X2861614Y6441490D01*
X4613757Y6441490D01*
X4617618Y6440728D01*
X4620920Y6438493D01*
X4623104Y6435242D01*
X4623917Y6431330D01*
X4623917Y6402730D01*
X4624832Y6387236D01*
X4627575Y6372250D01*
X4632096Y6357772D01*
X4638344Y6343904D01*
X4646218Y6330899D01*
X4655566Y6318910D01*
X4666335Y6308191D01*
X4678273Y6298793D01*
X4691278Y6290919D01*
X4705146Y6284671D01*
X4719675Y6280150D01*
X4734610Y6277406D01*
X4749800Y6276492D01*
X4764989Y6277406D01*
X4779924Y6280150D01*
X4794453Y6284671D01*
X4808321Y6290919D01*
X4821326Y6298793D01*
X4833264Y6308191D01*
X4844034Y6318910D01*
X4853381Y6330899D01*
X4861255Y6343904D01*
X4867503Y6357772D01*
X4872024Y6372250D01*
X4874768Y6387236D01*
X4875733Y6402730D01*
X4875733Y6602069D01*
X4874768Y6617563D01*
X4872024Y6632549D01*
X4867503Y6647027D01*
X4861255Y6660896D01*
X4853381Y6673900D01*
X4844034Y6685889D01*
X4833264Y6696608D01*
X4821326Y6706006D01*
X4808321Y6713880D01*
X4794453Y6720128D01*
X4779924Y6724650D01*
X4764989Y6727393D01*
X4749800Y6728307D01*
X4734610Y6727393D01*
X4719675Y6724650D01*
X4705146Y6720128D01*
X4691278Y6713880D01*
X4678273Y6706006D01*
X4666335Y6696608D01*
X4655566Y6685889D01*
X4646218Y6673900D01*
X4638344Y6660896D01*
X4632096Y6647027D01*
X4627575Y6632549D01*
X4624832Y6617563D01*
X4623917Y6602069D01*
X4623917Y6573469D01*
X4623104Y6569557D01*
X4620920Y6566306D01*
X4617618Y6564071D01*
X4613757Y6563309D01*
X2890723Y6563309D01*
X2886811Y6564071D01*
X2883560Y6566306D01*
X2634589Y6815277D01*
X2632354Y6818528D01*
X2631592Y6822440D01*
X2632354Y6826351D01*
X2634589Y6829602D01*
X2637840Y6831838D01*
X2641752Y6832600D01*
X4875377Y6832600D01*
X4879238Y6831838D01*
X4882540Y6829602D01*
X5167020Y6545122D01*
X5169204Y6541871D01*
X5170017Y6537959D01*
X5170017Y6402730D01*
X5170932Y6387236D01*
X5173675Y6372250D01*
X5178196Y6357772D01*
X5184444Y6343904D01*
X5192318Y6330899D01*
X5201666Y6318910D01*
X5212435Y6308191D01*
X5224373Y6298793D01*
X5237378Y6290919D01*
X5251246Y6284671D01*
X5265775Y6280150D01*
X5277916Y6277914D01*
X5281980Y6276238D01*
X5284927Y6272987D01*
X5286248Y6268821D01*
X5285638Y6264452D01*
X5283301Y6260744D01*
X5101844Y6079337D01*
X5098542Y6077102D01*
X5094681Y6076340D01*
X3710482Y6076340D01*
X3706622Y6077102D01*
X3703320Y6079337D01*
X3701135Y6082588D01*
X3700322Y6086500D01*
X3701135Y6090412D01*
X3703320Y6093663D01*
X3753713Y6144056D01*
X3757320Y6146393D01*
X3761536Y6147003D01*
X3771900Y6146292D01*
X3785514Y6147206D01*
X3798874Y6149949D01*
X3811778Y6154420D01*
X3823919Y6160566D01*
X3835146Y6168288D01*
X3845306Y6177432D01*
X3850741Y6183884D01*
X3854246Y6186525D01*
X3858514Y6187490D01*
X3939286Y6187490D01*
X3943553Y6186525D01*
X3947058Y6183884D01*
X3952494Y6177432D01*
X3962654Y6168288D01*
X3973880Y6160566D01*
X3986022Y6154420D01*
X3998925Y6149949D01*
X4012285Y6147206D01*
X4025900Y6146292D01*
X4039514Y6147206D01*
X4052874Y6149949D01*
X4065778Y6154420D01*
X4077919Y6160566D01*
X4089146Y6168288D01*
X4099306Y6177432D01*
X4108094Y6187846D01*
X4115409Y6199327D01*
X4121150Y6211722D01*
X4125214Y6224727D01*
X4127449Y6238189D01*
X4127906Y6251803D01*
X4126585Y6265367D01*
X4123385Y6278626D01*
X4118508Y6291376D01*
X4111955Y6303314D01*
X4103878Y6314287D01*
X4094378Y6324092D01*
X4083659Y6332575D01*
X4071924Y6339535D01*
X4059377Y6344818D01*
X4046220Y6348425D01*
X4032707Y6350254D01*
X4019092Y6350254D01*
X4005579Y6348425D01*
X3992422Y6344818D01*
X3979875Y6339535D01*
X3968140Y6332575D01*
X3957421Y6324092D01*
X3945077Y6311239D01*
X3942232Y6309817D01*
X3939133Y6309309D01*
X3858666Y6309309D01*
X3855567Y6309817D01*
X3852722Y6311239D01*
X3840378Y6324092D01*
X3829659Y6332575D01*
X3817924Y6339535D01*
X3805377Y6344818D01*
X3792220Y6348425D01*
X3778707Y6350254D01*
X3765092Y6350254D01*
X3751579Y6348425D01*
X3738422Y6344818D01*
X3725875Y6339535D01*
X3714140Y6332575D01*
X3703421Y6324092D01*
X3693922Y6314287D01*
X3685844Y6303314D01*
X3679291Y6291376D01*
X3674414Y6278626D01*
X3671214Y6265367D01*
X3669893Y6251803D01*
X3670350Y6237528D01*
X3669639Y6233464D01*
X3667353Y6230010D01*
X3620465Y6183122D01*
X3617214Y6180937D01*
X3613302Y6180124D01*
X2978708Y6180124D01*
X2974492Y6181039D01*
X2971038Y6183630D01*
X2968955Y6187440D01*
X2968650Y6191707D01*
X2970123Y6195771D01*
X2972409Y6199327D01*
X2974543Y6203950D01*
X2927350Y6203950D01*
X2927350Y6190284D01*
X2926588Y6186424D01*
X2924352Y6183122D01*
X2921101Y6180937D01*
X2917190Y6180124D01*
X2848610Y6180124D01*
X2844698Y6180937D01*
X2841447Y6183122D01*
X2839212Y6186424D01*
X2838450Y6190284D01*
X2838450Y6203950D01*
X2791256Y6203950D01*
X2793390Y6199327D01*
X2795676Y6195771D01*
X2797149Y6191707D01*
X2796844Y6187440D01*
X2794762Y6183630D01*
X2791307Y6181039D01*
X2787091Y6180124D01*
X2724708Y6180124D01*
X2720492Y6181039D01*
X2717038Y6183630D01*
X2714955Y6187440D01*
X2714650Y6191707D01*
X2716123Y6195771D01*
X2718409Y6199327D01*
X2720543Y6203950D01*
X2673350Y6203950D01*
X2673350Y6190284D01*
X2672588Y6186424D01*
X2670352Y6183122D01*
X2667101Y6180937D01*
X2663190Y6180124D01*
X2594610Y6180124D01*
X2590698Y6180937D01*
X2587447Y6183122D01*
X2585212Y6186424D01*
X2584450Y6190284D01*
X2584450Y6203950D01*
X2537256Y6203950D01*
X2539390Y6199327D01*
X2541676Y6195771D01*
X2543149Y6191707D01*
X2542844Y6187440D01*
X2540762Y6183630D01*
X2537307Y6181039D01*
X2533091Y6180124D01*
X1950770Y6180124D01*
X1946859Y6180937D01*
X1943607Y6183122D01*
X1848154Y6278524D01*
X1842109Y6283909D01*
X1833676Y6289344D01*
X1831797Y6290310D01*
X1822450Y6294018D01*
X1814677Y6295796D01*
X1812594Y6296101D01*
X1804568Y6296609D01*
X1770888Y6296609D01*
X1766976Y6297371D01*
X1763725Y6299606D01*
X1761489Y6302857D01*
X1760728Y6306769D01*
X1760728Y6331661D01*
X1760016Y6337960D01*
X1758086Y6343446D01*
X1755038Y6348323D01*
X1750923Y6352438D01*
X1748282Y6354114D01*
X1745335Y6356908D01*
X1743710Y6360668D01*
X1743710Y6364732D01*
X1745335Y6368491D01*
X1748282Y6371285D01*
X1750923Y6372961D01*
X1755038Y6377076D01*
X1758086Y6381953D01*
X1760016Y6387439D01*
X1760728Y6393738D01*
X1760728Y6585661D01*
X1760016Y6591960D01*
X1758086Y6597446D01*
X1755038Y6602323D01*
X1750923Y6606438D01*
X1746046Y6609486D01*
X1740560Y6611416D01*
X1734261Y6612128D01*
X1542338Y6612128D01*
X1536039Y6611416D01*
X1530553Y6609486D01*
X1525676Y6606438D01*
X1521561Y6602323D01*
X1518513Y6597446D01*
X1516583Y6591960D01*
X1515872Y6585661D01*
X1515872Y6393738D01*
X1516583Y6387439D01*
X1518513Y6381953D01*
X1521561Y6377076D01*
X1525676Y6372961D01*
X1528318Y6371285D01*
X1531264Y6368491D01*
X1532890Y6364732D01*
X1532890Y6360668D01*
X1531264Y6356908D01*
X1528318Y6354114D01*
X1525676Y6352438D01*
X1521561Y6348323D01*
X1518513Y6343446D01*
X1516583Y6337960D01*
X1515872Y6331661D01*
X1515872Y6139738D01*
X1516583Y6133439D01*
X1518513Y6127953D01*
X1521561Y6123076D01*
X1525676Y6118961D01*
X1530553Y6115913D01*
X1536039Y6113983D01*
X1542338Y6113272D01*
X1734261Y6113272D01*
X1740560Y6113983D01*
X1746046Y6115913D01*
X1750923Y6118961D01*
X1755038Y6123076D01*
X1758086Y6127953D01*
X1760016Y6133439D01*
X1760728Y6139738D01*
X1760728Y6164630D01*
X1761489Y6168542D01*
X1763725Y6171793D01*
X1766976Y6174028D01*
X1770888Y6174790D01*
X1775460Y6174790D01*
X1779320Y6174028D01*
X1782622Y6171793D01*
X1860753Y6093663D01*
X1862937Y6090412D01*
X1863750Y6086500D01*
X1862937Y6082588D01*
X1860753Y6079337D01*
X1857451Y6077102D01*
X1853590Y6076340D01*
X860856Y6076340D01*
X857046Y6077102D01*
X853795Y6079236D01*
X851560Y6082436D01*
X850696Y6086246D01*
X851357Y6090107D01*
X853389Y6093409D01*
X865378Y6106312D01*
X876249Y6120790D01*
X885545Y6136335D01*
X886155Y6137656D01*
X811631Y6137656D01*
X811631Y6086500D01*
X810869Y6082588D01*
X808685Y6079337D01*
X805383Y6077102D01*
X801471Y6076340D01*
X665632Y6076340D01*
X661771Y6077102D01*
X658469Y6079337D01*
X651916Y6085840D01*
X649732Y6089142D01*
X648970Y6093053D01*
X648970Y6137656D01*
X604367Y6137656D01*
X600456Y6138418D01*
X597154Y6140602D01*
X586181Y6151626D01*
X583996Y6154877D01*
X583184Y6158788D01*
X583184Y6290208D01*
X583996Y6294069D01*
X586181Y6297371D01*
X589483Y6299555D01*
X593344Y6300368D01*
X648970Y6300368D01*
X648970Y6374739D01*
X643686Y6372098D01*
X628396Y6362344D01*
X614172Y6351117D01*
X600506Y6337655D01*
X597204Y6335522D01*
X593293Y6334760D01*
X589432Y6335572D01*
X586181Y6337757D01*
X583996Y6341059D01*
X583184Y6344920D01*
X583184Y6481572D01*
X583996Y6485483D01*
X586181Y6488734D01*
X651916Y6554520D01*
X655269Y6556756D01*
X659231Y6557467D01*
X663194Y6556654D01*
X668274Y6554419D01*
X685495Y6548881D01*
X703224Y6545224D01*
X721258Y6543344D01*
X739343Y6543344D01*
X757377Y6545224D01*
X775106Y6548881D01*
X792327Y6554419D01*
X808939Y6561683D01*
X824687Y6570573D01*
X839469Y6581089D01*
X853084Y6593027D01*
X865378Y6606336D01*
X876249Y6620814D01*
X885545Y6636359D01*
X893216Y6652717D01*
X899210Y6669836D01*
X903325Y6687464D01*
X905662Y6705447D01*
X906119Y6723532D01*
X904748Y6741566D01*
X901496Y6759397D01*
X896416Y6776770D01*
X889609Y6793585D01*
X881075Y6809536D01*
X870966Y6824573D01*
X859383Y6838492D01*
X846429Y6851142D01*
X832205Y6862368D01*
X816914Y6872071D01*
X800760Y6880199D01*
X783793Y6886549D01*
X766267Y6891172D01*
X748385Y6893966D01*
X730300Y6894880D01*
X712216Y6893966D01*
X694334Y6891172D01*
X676808Y6886549D01*
X659841Y6880199D01*
X643686Y6872071D01*
X628396Y6862368D01*
X614172Y6851142D01*
X601218Y6838492D01*
X589635Y6824573D01*
X579526Y6809536D01*
X570992Y6793585D01*
X564184Y6776770D01*
X559104Y6759397D01*
X555853Y6741566D01*
X554482Y6723532D01*
X554939Y6705447D01*
X557276Y6687464D01*
X561390Y6669836D01*
X567385Y6652717D01*
X568655Y6648043D01*
X567944Y6643979D01*
X565658Y6640525D01*
X479450Y6554317D01*
X474116Y6548272D01*
X472846Y6546545D01*
X467664Y6537959D01*
X464616Y6530594D01*
X462178Y6520840D01*
X461873Y6518757D01*
X461416Y6510680D01*
X461416Y6129680D01*
X461873Y6121603D01*
X462178Y6119520D01*
X464616Y6109766D01*
X467664Y6102400D01*
X472846Y6093815D01*
X474116Y6092088D01*
X479450Y6086043D01*
X592937Y5972606D01*
X598982Y5967222D01*
X607415Y5961786D01*
X609295Y5960821D01*
X618642Y5957112D01*
X626414Y5955334D01*
X628497Y5955030D01*
X636524Y5954522D01*
X5123789Y5954522D01*
X5131816Y5955030D01*
X5133898Y5955334D01*
X5141671Y5957112D01*
X5151018Y5960821D01*
X5152898Y5961786D01*
X5161330Y5967222D01*
X5167376Y5972606D01*
X5658104Y6463334D01*
X5663488Y6469380D01*
X5668924Y6477812D01*
X5669889Y6479692D01*
X5673598Y6489039D01*
X5675376Y6496812D01*
X5675680Y6498894D01*
X5676188Y6506921D01*
X5676188Y6652666D01*
X5676950Y6656527D01*
X5679186Y6659829D01*
X5848959Y6829602D01*
X5852261Y6831838D01*
X5856122Y6832600D01*
X6390690Y6832600D01*
X6394602Y6831838D01*
X6397853Y6829602D01*
X6400088Y6826351D01*
X6400850Y6822440D01*
X6400088Y6818528D01*
X6397853Y6815277D01*
X5985256Y6402628D01*
X5981954Y6400444D01*
X5978093Y6399631D01*
X5974181Y6400444D01*
X5970879Y6402628D01*
X5968695Y6405930D01*
X5967933Y6409791D01*
X5967933Y6602069D01*
X5966968Y6617563D01*
X5964224Y6632549D01*
X5959703Y6647027D01*
X5953455Y6660896D01*
X5945581Y6673900D01*
X5936234Y6685889D01*
X5925464Y6696608D01*
X5913526Y6706006D01*
X5900521Y6713880D01*
X5886653Y6720128D01*
X5872124Y6724650D01*
X5857189Y6727393D01*
X5842000Y6728307D01*
X5826810Y6727393D01*
X5811875Y6724650D01*
X5797346Y6720128D01*
X5783478Y6713880D01*
X5770473Y6706006D01*
X5758535Y6696608D01*
X5747766Y6685889D01*
X5738418Y6673900D01*
X5730544Y6660896D01*
X5724296Y6647027D01*
X5719775Y6632549D01*
X5717032Y6617563D01*
X5716117Y6602069D01*
X5716117Y6402730D01*
X5717032Y6387236D01*
X5719775Y6372250D01*
X5724296Y6357772D01*
X5730544Y6343904D01*
X5738418Y6330899D01*
X5747766Y6318910D01*
X5758535Y6308191D01*
X5770473Y6298793D01*
X5783478Y6290919D01*
X5797346Y6284671D01*
X5811875Y6280150D01*
X5826810Y6277406D01*
X5835599Y6276898D01*
X5839358Y6275933D01*
X5842457Y6273647D01*
X5844489Y6270345D01*
X5845149Y6266535D01*
X5844336Y6262776D01*
X5842203Y6259576D01*
X5481980Y5899404D01*
X5478729Y5897168D01*
X5474817Y5896406D01*
X1805279Y5896406D01*
X1794865Y5895543D01*
X1785112Y5893054D01*
X1775917Y5889040D01*
X1767484Y5883554D01*
X1760067Y5876747D01*
X1753920Y5868771D01*
X1749145Y5859932D01*
X1745843Y5850432D01*
X1744218Y5840526D01*
X1744218Y5830468D01*
X1745843Y5820562D01*
X1749145Y5811062D01*
X1753920Y5802223D01*
X1760067Y5794248D01*
X1767484Y5787440D01*
X1775917Y5781954D01*
X1785112Y5777941D01*
X1794865Y5775452D01*
X1805279Y5774588D01*
X5503926Y5774588D01*
X5512003Y5775096D01*
X5514086Y5775401D01*
X5521858Y5777179D01*
X5531205Y5780887D01*
X5541518Y5787288D01*
X5547563Y5792673D01*
X6372301Y6617411D01*
X6375704Y6619646D01*
X6379718Y6620408D01*
X6383680Y6619494D01*
X6386982Y6617106D01*
X6389065Y6613652D01*
X6389624Y6609638D01*
X6389217Y6602069D01*
X6389217Y6466840D01*
X6388404Y6462928D01*
X6386220Y6459677D01*
X5668314Y5741771D01*
X5665063Y5739587D01*
X5661152Y5738774D01*
X2246934Y5738774D01*
X2236470Y5737910D01*
X2226716Y5735472D01*
X2217521Y5731408D01*
X2209088Y5725922D01*
X2201722Y5719114D01*
X2195525Y5711190D01*
X2190750Y5702350D01*
X2187498Y5692851D01*
X2185822Y5682894D01*
X2185822Y5672886D01*
X2187498Y5662930D01*
X2190750Y5653430D01*
X2198014Y5639816D01*
X2197963Y5635294D01*
X2195982Y5631281D01*
X2192477Y5628487D01*
X2188108Y5627471D01*
X2039010Y5627471D01*
X2030984Y5626963D01*
X2028901Y5626658D01*
X2021128Y5624880D01*
X2011781Y5621172D01*
X2009902Y5620207D01*
X2001469Y5614771D01*
X1995424Y5609386D01*
X1885492Y5499506D01*
X1882190Y5497271D01*
X1878330Y5496509D01*
X1873757Y5496509D01*
X1869897Y5497271D01*
X1866595Y5499506D01*
X1864360Y5502757D01*
X1863598Y5506669D01*
X1863598Y5511241D01*
X1862886Y5517540D01*
X1860956Y5523026D01*
X1857908Y5527903D01*
X1853793Y5532018D01*
X1848916Y5535117D01*
X1843430Y5536996D01*
X1837131Y5537708D01*
X1685848Y5537708D01*
X1679549Y5536996D01*
X1674063Y5535117D01*
X1669186Y5532018D01*
X1665071Y5527903D01*
X1662023Y5523026D01*
X1660093Y5517540D01*
X1659382Y5511241D01*
X1659382Y5359958D01*
X1660093Y5353659D01*
X1662023Y5348173D01*
X1665071Y5343296D01*
X1669186Y5339181D01*
X1674063Y5336133D01*
X1679549Y5334203D01*
X1685848Y5333492D01*
X1837131Y5333492D01*
X1843430Y5334203D01*
X1848916Y5336133D01*
X1853793Y5339181D01*
X1857908Y5343296D01*
X1860956Y5348173D01*
X1862886Y5353659D01*
X1863598Y5359958D01*
X1863598Y5364530D01*
X1864360Y5368442D01*
X1866595Y5371693D01*
X1869897Y5373928D01*
X1873757Y5374690D01*
X1907438Y5374690D01*
X1917446Y5375452D01*
X1921865Y5375148D01*
X1925777Y5372912D01*
X1928317Y5369255D01*
X1929028Y5364835D01*
X1927809Y5360517D01*
X1922881Y5351576D01*
X1918004Y5338826D01*
X1914804Y5325567D01*
X1913483Y5312003D01*
X1913940Y5298389D01*
X1916175Y5284927D01*
X1920239Y5271922D01*
X1925980Y5259527D01*
X1933295Y5248046D01*
X1942084Y5237632D01*
X1952243Y5228488D01*
X1963470Y5220766D01*
X1975612Y5214620D01*
X1988515Y5210149D01*
X2001875Y5207406D01*
X2015489Y5206492D01*
X2029104Y5207406D01*
X2042464Y5210149D01*
X2055368Y5214620D01*
X2067509Y5220766D01*
X2078736Y5228488D01*
X2088896Y5237632D01*
X2097684Y5248046D01*
X2104999Y5259527D01*
X2110740Y5271922D01*
X2114804Y5284927D01*
X2117039Y5298389D01*
X2117496Y5312003D01*
X2116175Y5325567D01*
X2112975Y5338826D01*
X2108098Y5351576D01*
X2101545Y5363514D01*
X2093468Y5374487D01*
X2083968Y5384292D01*
X2073249Y5392775D01*
X2061514Y5399684D01*
X2048967Y5405018D01*
X2035810Y5408625D01*
X2022297Y5410454D01*
X2008682Y5410454D01*
X1995170Y5408625D01*
X1993239Y5408117D01*
X1988820Y5407863D01*
X1984756Y5409539D01*
X1981758Y5412790D01*
X1980438Y5417007D01*
X1980996Y5421376D01*
X1983384Y5425084D01*
X2060956Y5502656D01*
X2064257Y5504891D01*
X2068118Y5505653D01*
X6125057Y5505653D01*
X6133084Y5506161D01*
X6135166Y5506466D01*
X6142939Y5508244D01*
X6152286Y5511952D01*
X6154166Y5512917D01*
X6162598Y5518353D01*
X6168644Y5523738D01*
X6958228Y6313271D01*
X6961530Y6315506D01*
X6965391Y6316268D01*
X6969302Y6315506D01*
X6972604Y6313271D01*
X6977735Y6308191D01*
X6989673Y6298793D01*
X7002678Y6290919D01*
X7016546Y6284671D01*
X7031075Y6280150D01*
X7046010Y6277406D01*
X7061200Y6276492D01*
X7076389Y6277406D01*
X7091324Y6280150D01*
X7105853Y6284671D01*
X7119721Y6290919D01*
X7132726Y6298793D01*
X7144664Y6308191D01*
X7155434Y6318910D01*
X7164781Y6330899D01*
X7172655Y6343904D01*
X7178903Y6357772D01*
X7183424Y6372250D01*
X7186168Y6387236D01*
X7187133Y6402730D01*
X7187133Y6602069D01*
X7186168Y6617563D01*
X7183424Y6632549D01*
X7178903Y6647027D01*
X7172655Y6660896D01*
X7164781Y6673900D01*
X7155434Y6685889D01*
X7144664Y6696608D01*
X7132726Y6706006D01*
X7119721Y6713880D01*
X7105853Y6720128D01*
X7091324Y6724650D01*
X7076389Y6727393D01*
X7061200Y6728307D01*
X7046010Y6727393D01*
X7031075Y6724650D01*
X7016546Y6720128D01*
X7002678Y6713880D01*
X6989673Y6706006D01*
X6977735Y6696608D01*
X6966966Y6685889D01*
X6957618Y6673900D01*
X6949744Y6660896D01*
X6943496Y6647027D01*
X6938975Y6632549D01*
X6936231Y6617563D01*
X6935317Y6602069D01*
X6935317Y6466840D01*
X6934504Y6462928D01*
X6932320Y6459677D01*
X6103112Y5630468D01*
X6099810Y5628233D01*
X6095949Y5627471D01*
X5750814Y5627471D01*
X5746953Y5628233D01*
X5743651Y5630468D01*
X5741466Y5633720D01*
X5740654Y5637631D01*
X5741466Y5641543D01*
X5743651Y5644794D01*
X6412128Y6313271D01*
X6415430Y6315506D01*
X6419291Y6316268D01*
X6423202Y6315506D01*
X6426504Y6313271D01*
X6431635Y6308191D01*
X6443573Y6298793D01*
X6456578Y6290919D01*
X6470446Y6284671D01*
X6484975Y6280150D01*
X6499910Y6277406D01*
X6515100Y6276492D01*
X6530289Y6277406D01*
X6545224Y6280150D01*
X6559753Y6284671D01*
X6573621Y6290919D01*
X6586626Y6298793D01*
X6598564Y6308191D01*
X6609334Y6318910D01*
X6618681Y6330899D01*
X6626555Y6343904D01*
X6632803Y6357772D01*
X6637324Y6372250D01*
X6640068Y6387236D01*
X6641033Y6402730D01*
X6641033Y6602069D01*
X6640068Y6617563D01*
X6637324Y6632549D01*
X6632803Y6647027D01*
X6626555Y6660896D01*
X6618681Y6673900D01*
X6609334Y6685889D01*
X6598564Y6696608D01*
X6586626Y6706006D01*
X6573621Y6713880D01*
X6559753Y6720128D01*
X6545224Y6724650D01*
X6530289Y6727393D01*
X6515100Y6728307D01*
X6507886Y6727850D01*
X6503822Y6728409D01*
X6500368Y6730542D01*
X6497980Y6733844D01*
X6497116Y6737807D01*
X6497828Y6741769D01*
X6500063Y6745173D01*
X6584543Y6829602D01*
X6587794Y6831838D01*
X6591706Y6832600D01*
X7383881Y6832600D01*
X7387793Y6831838D01*
X7391044Y6829602D01*
X7393279Y6826351D01*
X7394041Y6822440D01*
X7393279Y6818528D01*
X7391044Y6815277D01*
X7373670Y6797852D01*
X7368286Y6791807D01*
X7362850Y6783324D01*
X7361885Y6781495D01*
X7358176Y6772148D01*
X7356398Y6764375D01*
X7356094Y6762292D01*
X7355586Y6754215D01*
X7355586Y6157569D01*
X7354824Y6153658D01*
X7352588Y6150406D01*
X5151475Y3949242D01*
X5146090Y3943197D01*
X5140655Y3934714D01*
X5139690Y3932885D01*
X5135981Y3923537D01*
X5134203Y3915765D01*
X5133898Y3913682D01*
X5133390Y3905605D01*
X5133390Y2318308D01*
X5132476Y2314092D01*
X5129936Y2310638D01*
X5122976Y2304542D01*
X5114239Y2294636D01*
X5106924Y2283663D01*
X5101082Y2271826D01*
X5096865Y2259330D01*
X5094274Y2246376D01*
X5093411Y2232863D01*
X5093411Y1983536D01*
X5094274Y1970024D01*
X5096865Y1957070D01*
X5101082Y1944573D01*
X5106924Y1932736D01*
X5114239Y1921764D01*
X5122976Y1911857D01*
X5132882Y1903171D01*
X5143855Y1895805D01*
X5155692Y1890014D01*
X5168188Y1885746D01*
X5181142Y1883156D01*
X5194300Y1882292D01*
X5207457Y1883156D01*
X5220411Y1885746D01*
X5232908Y1890014D01*
X5244744Y1895805D01*
X5255717Y1903171D01*
X5265623Y1911857D01*
X5274360Y1921764D01*
X5281676Y1932736D01*
X5287518Y1944573D01*
X5291734Y1957070D01*
X5294325Y1970024D01*
X5295188Y1983536D01*
X5295188Y2232863D01*
X5294325Y2246376D01*
X5291734Y2259330D01*
X5287518Y2271826D01*
X5281676Y2283663D01*
X5274360Y2294636D01*
X5265623Y2304542D01*
X5258663Y2310638D01*
X5256123Y2314092D01*
X5255209Y2318308D01*
X5255209Y3876497D01*
X5255971Y3880408D01*
X5258206Y3883660D01*
X7459319Y6084824D01*
X7464704Y6090869D01*
X7470140Y6099352D01*
X7471105Y6101181D01*
X7474813Y6110528D01*
X7476591Y6118301D01*
X7476896Y6120384D01*
X7477404Y6128461D01*
X7477404Y6337909D01*
X7478318Y6342176D01*
X7480960Y6345682D01*
X7484821Y6347714D01*
X7489190Y6347968D01*
X7493253Y6346342D01*
X7496251Y6343192D01*
X7503718Y6330899D01*
X7513066Y6318910D01*
X7523835Y6308191D01*
X7535773Y6298793D01*
X7548778Y6290919D01*
X7562646Y6284671D01*
X7577175Y6280150D01*
X7592110Y6277406D01*
X7607300Y6276492D01*
X7622489Y6277406D01*
X7637424Y6280150D01*
X7651953Y6284671D01*
X7665821Y6290919D01*
X7678826Y6298793D01*
X7690764Y6308191D01*
X7701534Y6318910D01*
X7710881Y6330899D01*
X7718755Y6343904D01*
X7725003Y6357772D01*
X7729524Y6372250D01*
X7732268Y6387236D01*
X7733233Y6402730D01*
X7733233Y6602069D01*
X7732268Y6617563D01*
X7729524Y6632549D01*
X7725003Y6647027D01*
X7718755Y6660896D01*
X7710881Y6673900D01*
X7701534Y6685889D01*
X7690764Y6696608D01*
X7678826Y6706006D01*
X7665821Y6713880D01*
X7651953Y6720128D01*
X7637424Y6724650D01*
X7622489Y6727393D01*
X7607300Y6728307D01*
X7592110Y6727393D01*
X7577175Y6724650D01*
X7562646Y6720128D01*
X7548778Y6713880D01*
X7535773Y6706006D01*
X7523835Y6696608D01*
X7513066Y6685889D01*
X7503718Y6673900D01*
X7496251Y6661607D01*
X7493253Y6658457D01*
X7489190Y6656831D01*
X7484821Y6657086D01*
X7480960Y6659118D01*
X7478318Y6662623D01*
X7477404Y6666890D01*
X7477404Y6725107D01*
X7478166Y6729018D01*
X7480401Y6732270D01*
X7577734Y6829602D01*
X7580985Y6831838D01*
X7584897Y6832600D01*
X8091931Y6832600D01*
X8095843Y6831838D01*
X8099094Y6829602D01*
X8101330Y6826351D01*
X8102092Y6822440D01*
X8102092Y1814068D01*
X8101330Y1810207D01*
X8099094Y1806905D01*
X8095843Y1804720D01*
X8091931Y1803907D01*
X2930398Y1803907D01*
X2926486Y1804670D01*
X2923235Y1806905D01*
X2921000Y1810207D01*
X2920238Y1814068D01*
X2920238Y1990293D01*
X2919526Y1996592D01*
X2917596Y2002078D01*
X2914548Y2006955D01*
X2910433Y2011070D01*
X2905556Y2014118D01*
X2900070Y2016048D01*
X2893771Y2016760D01*
X2708198Y2016760D01*
X2701899Y2016048D01*
X2696413Y2014118D01*
X2691536Y2011070D01*
X2687421Y2006955D01*
X2684373Y2002078D01*
X2682443Y1996592D01*
X2681732Y1990293D01*
X2681732Y1814068D01*
X2680970Y1810207D01*
X2678734Y1806905D01*
X2675483Y1804670D01*
X2671572Y1803907D01*
G37*

%LPC*%
G36*
X4153204Y1828546D02*
G01*
X4440377Y1828546D01*
X4446676Y1829257D01*
X4452162Y1831187D01*
X4457039Y1834235D01*
X4461154Y1838350D01*
X4464202Y1843227D01*
X4466132Y1848713D01*
X4466844Y1855012D01*
X4466844Y5457901D01*
X4466132Y5464200D01*
X4464202Y5469686D01*
X4461154Y5474563D01*
X4457039Y5478678D01*
X4452162Y5481726D01*
X4446676Y5483656D01*
X4440377Y5484368D01*
X4153204Y5484368D01*
X4146905Y5483656D01*
X4141419Y5481726D01*
X4136542Y5478678D01*
X4132427Y5474563D01*
X4129379Y5469686D01*
X4127449Y5464200D01*
X4126737Y5457901D01*
X4126737Y4409186D01*
X4125874Y4405071D01*
X4123385Y4401616D01*
X4119727Y4399534D01*
X4115562Y4399076D01*
X4111548Y4400346D01*
X4108399Y4403140D01*
X4103878Y4409287D01*
X4094378Y4419092D01*
X4083659Y4427575D01*
X4071924Y4434535D01*
X4059377Y4439818D01*
X4046220Y4443425D01*
X4032707Y4445254D01*
X4019092Y4445254D01*
X4005579Y4443425D01*
X3992422Y4439818D01*
X3979875Y4434535D01*
X3968140Y4427575D01*
X3957421Y4419092D01*
X3945077Y4406239D01*
X3942232Y4404817D01*
X3939133Y4404309D01*
X3858666Y4404309D01*
X3855567Y4404817D01*
X3852722Y4406239D01*
X3840378Y4419092D01*
X3829659Y4427575D01*
X3817924Y4434535D01*
X3805377Y4439818D01*
X3792220Y4443425D01*
X3778707Y4445254D01*
X3765092Y4445254D01*
X3751579Y4443425D01*
X3738422Y4439818D01*
X3725875Y4434535D01*
X3714140Y4427575D01*
X3703421Y4419092D01*
X3693922Y4409287D01*
X3685844Y4398314D01*
X3679291Y4386376D01*
X3674414Y4373626D01*
X3671214Y4360367D01*
X3669893Y4346803D01*
X3670350Y4333189D01*
X3672586Y4319727D01*
X3676650Y4306722D01*
X3682390Y4294327D01*
X3689705Y4282846D01*
X3698494Y4272432D01*
X3707637Y4264152D01*
X3710127Y4260748D01*
X3710990Y4256633D01*
X3710990Y3420313D01*
X3710228Y3416452D01*
X3707993Y3413150D01*
X2854553Y2559710D01*
X2851556Y2557627D01*
X2848000Y2556764D01*
X2844342Y2557221D01*
X2831541Y2561234D01*
X2814980Y2564434D01*
X2798216Y2565857D01*
X2781350Y2565349D01*
X2764688Y2563063D01*
X2748381Y2558897D01*
X2732582Y2553004D01*
X2717546Y2545384D01*
X2703474Y2536190D01*
X2690469Y2525471D01*
X2678684Y2513431D01*
X2668371Y2500122D01*
X2659532Y2485745D01*
X2652369Y2470556D01*
X2646883Y2454605D01*
X2643174Y2438146D01*
X2641346Y2421432D01*
X2641346Y2404567D01*
X2643174Y2387854D01*
X2646883Y2371394D01*
X2652369Y2355443D01*
X2659532Y2340254D01*
X2668371Y2325878D01*
X2678684Y2312568D01*
X2690469Y2300528D01*
X2703474Y2289810D01*
X2717546Y2280615D01*
X2732582Y2272995D01*
X2748381Y2267102D01*
X2764688Y2262936D01*
X2781350Y2260650D01*
X2798216Y2260142D01*
X2814980Y2261565D01*
X2831541Y2264765D01*
X2847594Y2269794D01*
X2863037Y2276602D01*
X2877616Y2284984D01*
X2891180Y2294991D01*
X2903575Y2306370D01*
X2914650Y2319070D01*
X2924251Y2332939D01*
X2932277Y2347772D01*
X2938627Y2363368D01*
X2943199Y2379573D01*
X2945942Y2396185D01*
X2946908Y2413000D01*
X2945942Y2429814D01*
X2943199Y2446426D01*
X2938221Y2463698D01*
X2937865Y2467254D01*
X2938780Y2470759D01*
X2940812Y2473706D01*
X3814724Y3347618D01*
X3820109Y3353663D01*
X3825544Y3362096D01*
X3826510Y3363976D01*
X3830218Y3373323D01*
X3831996Y3381095D01*
X3832301Y3383178D01*
X3832809Y3391204D01*
X3832809Y4256633D01*
X3833672Y4260748D01*
X3836162Y4264152D01*
X3845306Y4272432D01*
X3850741Y4278884D01*
X3854246Y4281525D01*
X3858514Y4282490D01*
X3939286Y4282490D01*
X3943553Y4281525D01*
X3947058Y4278884D01*
X3952494Y4272432D01*
X3962654Y4263288D01*
X3973880Y4255566D01*
X3986022Y4249420D01*
X3998925Y4244949D01*
X4012285Y4242206D01*
X4025900Y4241292D01*
X4039514Y4242206D01*
X4052874Y4244949D01*
X4065778Y4249420D01*
X4077919Y4255566D01*
X4089146Y4263288D01*
X4099255Y4272432D01*
X4108805Y4283811D01*
X4112006Y4286351D01*
X4115968Y4287418D01*
X4120032Y4286808D01*
X4123537Y4284675D01*
X4125925Y4281271D01*
X4126737Y4277258D01*
X4126737Y1855012D01*
X4127449Y1848713D01*
X4129379Y1843227D01*
X4132427Y1838350D01*
X4136542Y1834235D01*
X4141419Y1831187D01*
X4146905Y1829257D01*
G37*
G36*
X3216198Y1861566D02*
G01*
X3401771Y1861566D01*
X3408070Y1862277D01*
X3413556Y1864207D01*
X3418433Y1867255D01*
X3422548Y1871370D01*
X3425596Y1876247D01*
X3427526Y1881733D01*
X3428237Y1888032D01*
X3428237Y1907235D01*
X3427526Y1913534D01*
X3425596Y1919020D01*
X3422548Y1923897D01*
X3418433Y1928012D01*
X3413556Y1931060D01*
X3408070Y1932990D01*
X3401771Y1933702D01*
X3216198Y1933702D01*
X3209899Y1932990D01*
X3204413Y1931060D01*
X3199536Y1928012D01*
X3195421Y1923897D01*
X3192373Y1919020D01*
X3190443Y1913534D01*
X3189732Y1907235D01*
X3189732Y1888032D01*
X3190443Y1881733D01*
X3192373Y1876247D01*
X3195421Y1871370D01*
X3199536Y1867255D01*
X3204413Y1864207D01*
X3209899Y1862277D01*
G37*
G36*
X4927600Y1882292D02*
G01*
X4940757Y1883156D01*
X4953711Y1885746D01*
X4966208Y1890014D01*
X4978044Y1895805D01*
X4989017Y1903171D01*
X4998923Y1911857D01*
X5007660Y1921764D01*
X5014976Y1932736D01*
X5020818Y1944573D01*
X5025034Y1957070D01*
X5027625Y1970024D01*
X5028488Y1983536D01*
X5028488Y2232863D01*
X5027625Y2246376D01*
X5025034Y2259330D01*
X5020818Y2271826D01*
X5014976Y2283663D01*
X5007660Y2294636D01*
X5000599Y2302611D01*
X4998720Y2305913D01*
X4998110Y2309622D01*
X4998923Y2313330D01*
X5001056Y2316480D01*
X5015534Y2330958D01*
X5022342Y2338984D01*
X5027472Y2347620D01*
X5031130Y2356967D01*
X5033213Y2366822D01*
X5033619Y2376881D01*
X5032349Y2386838D01*
X5029504Y2396490D01*
X5025085Y2405481D01*
X5019243Y2413660D01*
X5012131Y2420772D01*
X5003952Y2426614D01*
X4994910Y2431034D01*
X4985258Y2433929D01*
X4975301Y2435148D01*
X4965242Y2434742D01*
X4955438Y2432659D01*
X4946040Y2429052D01*
X4937404Y2423871D01*
X4929428Y2417114D01*
X4884775Y2372461D01*
X4879390Y2366416D01*
X4873955Y2357932D01*
X4872990Y2356104D01*
X4869281Y2346756D01*
X4867503Y2338984D01*
X4867198Y2336901D01*
X4866690Y2328824D01*
X4866690Y2318308D01*
X4865776Y2314092D01*
X4863236Y2310638D01*
X4856276Y2304542D01*
X4847539Y2294636D01*
X4840224Y2283663D01*
X4834382Y2271826D01*
X4830165Y2259330D01*
X4827574Y2246376D01*
X4826711Y2232863D01*
X4826711Y1983536D01*
X4827574Y1970024D01*
X4830165Y1957070D01*
X4834382Y1944573D01*
X4840224Y1932736D01*
X4847539Y1921764D01*
X4856276Y1911857D01*
X4866182Y1903171D01*
X4877155Y1895805D01*
X4888992Y1890014D01*
X4901488Y1885746D01*
X4914442Y1883156D01*
G37*
G36*
X6692900Y1882292D02*
G01*
X6706057Y1883156D01*
X6719011Y1885746D01*
X6731508Y1890014D01*
X6743344Y1895805D01*
X6754317Y1903171D01*
X6764223Y1911857D01*
X6772960Y1921764D01*
X6780275Y1932736D01*
X6786118Y1944573D01*
X6790334Y1957070D01*
X6792925Y1970024D01*
X6793788Y1983536D01*
X6793788Y2040788D01*
X6794449Y2044395D01*
X6796379Y2047544D01*
X6799275Y2049780D01*
X6802780Y2050897D01*
X6806438Y2050643D01*
X6816242Y2048154D01*
X6826656Y2047290D01*
X6848551Y2047290D01*
X6852412Y2046528D01*
X6855714Y2044293D01*
X6857898Y2041042D01*
X6858711Y2037130D01*
X6858711Y1983536D01*
X6859574Y1970024D01*
X6862165Y1957070D01*
X6866381Y1944573D01*
X6872224Y1932736D01*
X6879539Y1921764D01*
X6888276Y1911857D01*
X6898182Y1903171D01*
X6909155Y1895805D01*
X6920992Y1890014D01*
X6933488Y1885746D01*
X6946442Y1883156D01*
X6959600Y1882292D01*
X6972757Y1883156D01*
X6985711Y1885746D01*
X6998208Y1890014D01*
X7010044Y1895805D01*
X7021017Y1903171D01*
X7030923Y1911857D01*
X7039660Y1921764D01*
X7046975Y1932736D01*
X7052818Y1944573D01*
X7057034Y1957070D01*
X7059625Y1970024D01*
X7060488Y1983536D01*
X7060488Y2216302D01*
X7061301Y2220163D01*
X7063486Y2223465D01*
X7066788Y2225649D01*
X7070648Y2226462D01*
X7074560Y2225649D01*
X7077862Y2223465D01*
X7109714Y2191613D01*
X7111898Y2188311D01*
X7112711Y2184400D01*
X7112711Y1983536D01*
X7113574Y1970024D01*
X7116165Y1957070D01*
X7120381Y1944573D01*
X7126224Y1932736D01*
X7133539Y1921764D01*
X7142276Y1911857D01*
X7152182Y1903171D01*
X7163155Y1895805D01*
X7174992Y1890014D01*
X7187488Y1885746D01*
X7200442Y1883156D01*
X7213600Y1882292D01*
X7226757Y1883156D01*
X7239711Y1885746D01*
X7252208Y1890014D01*
X7264044Y1895805D01*
X7275017Y1903171D01*
X7284923Y1911857D01*
X7293660Y1921764D01*
X7300975Y1932736D01*
X7306818Y1944573D01*
X7311034Y1957070D01*
X7313625Y1970024D01*
X7314488Y1983536D01*
X7314488Y2232863D01*
X7313625Y2246376D01*
X7311034Y2259330D01*
X7306818Y2271826D01*
X7300975Y2283663D01*
X7293660Y2294636D01*
X7284923Y2304542D01*
X7275017Y2313228D01*
X7264044Y2320594D01*
X7252208Y2326386D01*
X7239711Y2330653D01*
X7226757Y2333244D01*
X7213600Y2334107D01*
X7200442Y2333244D01*
X7187488Y2330653D01*
X7174992Y2326386D01*
X7162901Y2320442D01*
X7158837Y2319426D01*
X7154722Y2320086D01*
X7151217Y2322372D01*
X7036460Y2437130D01*
X7030415Y2442514D01*
X7021931Y2447950D01*
X7020102Y2448915D01*
X7010755Y2452624D01*
X7002983Y2454402D01*
X7000900Y2454706D01*
X6992823Y2455214D01*
X6826656Y2455214D01*
X6816242Y2454351D01*
X6806488Y2451862D01*
X6797294Y2447848D01*
X6788861Y2442362D01*
X6781444Y2435555D01*
X6775297Y2427579D01*
X6770522Y2418740D01*
X6767220Y2409240D01*
X6765594Y2399334D01*
X6765594Y2389276D01*
X6767220Y2379370D01*
X6770522Y2369870D01*
X6775297Y2361031D01*
X6781444Y2353056D01*
X6788861Y2346248D01*
X6797294Y2340762D01*
X6806488Y2336749D01*
X6816242Y2334260D01*
X6826656Y2333396D01*
X6894880Y2333396D01*
X6899046Y2332482D01*
X6902500Y2329942D01*
X6904583Y2326182D01*
X6904939Y2321915D01*
X6903466Y2317851D01*
X6900519Y2314803D01*
X6898182Y2313228D01*
X6888276Y2304542D01*
X6879539Y2294636D01*
X6872224Y2283663D01*
X6866381Y2271826D01*
X6862165Y2259330D01*
X6859574Y2246376D01*
X6858711Y2232863D01*
X6858711Y2179269D01*
X6857898Y2175357D01*
X6855714Y2172106D01*
X6852412Y2169871D01*
X6848551Y2169109D01*
X6826656Y2169109D01*
X6816242Y2168245D01*
X6806438Y2165756D01*
X6802780Y2165502D01*
X6799275Y2166620D01*
X6796379Y2168855D01*
X6794449Y2172004D01*
X6793788Y2175611D01*
X6793788Y2232863D01*
X6792925Y2246376D01*
X6790334Y2259330D01*
X6786118Y2271826D01*
X6780275Y2283663D01*
X6772960Y2294636D01*
X6764223Y2304542D01*
X6754317Y2313228D01*
X6743344Y2320594D01*
X6731508Y2326386D01*
X6719011Y2330653D01*
X6706057Y2333244D01*
X6692900Y2334107D01*
X6679742Y2333244D01*
X6666788Y2330653D01*
X6654292Y2326386D01*
X6642455Y2320594D01*
X6631482Y2313228D01*
X6621576Y2304542D01*
X6612839Y2294636D01*
X6605524Y2283663D01*
X6600545Y2273554D01*
X6598310Y2270556D01*
X6595109Y2268575D01*
X6591452Y2267864D01*
X5829858Y2267864D01*
X5819444Y2267000D01*
X5809640Y2264511D01*
X5805525Y2263698D01*
X5801461Y2264511D01*
X5798058Y2266950D01*
X5789676Y2283663D01*
X5782360Y2294636D01*
X5773623Y2304542D01*
X5763717Y2313228D01*
X5752744Y2320594D01*
X5746140Y2323846D01*
X5746140Y2214524D01*
X5758637Y2214524D01*
X5762498Y2213762D01*
X5765800Y2211578D01*
X5768035Y2208276D01*
X5768797Y2204364D01*
X5768797Y2201976D01*
X5770422Y2192020D01*
X5773724Y2182520D01*
X5778500Y2173681D01*
X5784646Y2165756D01*
X5792063Y2158949D01*
X5800496Y2153462D01*
X5809691Y2149398D01*
X5819444Y2146960D01*
X5829858Y2146096D01*
X6564680Y2146096D01*
X6568592Y2145284D01*
X6571843Y2143099D01*
X6589014Y2125929D01*
X6591198Y2122627D01*
X6592011Y2118766D01*
X6592011Y1983536D01*
X6592874Y1970024D01*
X6595465Y1957070D01*
X6599681Y1944573D01*
X6605524Y1932736D01*
X6612839Y1921764D01*
X6621576Y1911857D01*
X6631482Y1903171D01*
X6642455Y1895805D01*
X6654292Y1890014D01*
X6666788Y1885746D01*
X6679742Y1883156D01*
G37*
G36*
X5448300Y1882292D02*
G01*
X5461457Y1883156D01*
X5474411Y1885746D01*
X5486908Y1890014D01*
X5498744Y1895805D01*
X5509717Y1903171D01*
X5519623Y1911857D01*
X5528360Y1921764D01*
X5535676Y1932736D01*
X5541518Y1944573D01*
X5545734Y1957070D01*
X5548325Y1970024D01*
X5549188Y1983536D01*
X5549188Y2172970D01*
X5550001Y2176830D01*
X5552186Y2180132D01*
X5584037Y2212035D01*
X5587034Y2214067D01*
X5590590Y2214981D01*
X5594197Y2214524D01*
X5658459Y2214524D01*
X5658459Y2282190D01*
X5659221Y2286101D01*
X5661406Y2289403D01*
X6423914Y3051860D01*
X6427165Y3054045D01*
X6431076Y3054858D01*
X7683804Y3054858D01*
X7694218Y3055721D01*
X7703972Y3058160D01*
X7713167Y3062224D01*
X7721600Y3067710D01*
X7729016Y3074517D01*
X7735163Y3082442D01*
X7739938Y3091281D01*
X7743240Y3100781D01*
X7744866Y3110738D01*
X7744866Y3120745D01*
X7743240Y3130702D01*
X7739938Y3140202D01*
X7735163Y3149041D01*
X7729016Y3156966D01*
X7721600Y3163773D01*
X7713167Y3169259D01*
X7703972Y3173323D01*
X7694218Y3175762D01*
X7683804Y3176625D01*
X6401968Y3176625D01*
X6393891Y3176168D01*
X6391808Y3175863D01*
X6382054Y3173425D01*
X6374688Y3170377D01*
X6366103Y3165195D01*
X6364376Y3163925D01*
X6358331Y3158591D01*
X5517591Y2317800D01*
X5514746Y2315819D01*
X5511393Y2314905D01*
X5507939Y2315159D01*
X5504738Y2316530D01*
X5498744Y2320594D01*
X5486908Y2326386D01*
X5474411Y2330653D01*
X5461457Y2333244D01*
X5448300Y2334107D01*
X5435142Y2333244D01*
X5422188Y2330653D01*
X5409692Y2326386D01*
X5397855Y2320594D01*
X5386882Y2313228D01*
X5376976Y2304542D01*
X5368239Y2294636D01*
X5360924Y2283663D01*
X5355082Y2271826D01*
X5350865Y2259330D01*
X5348274Y2246376D01*
X5347411Y2232863D01*
X5347411Y1983536D01*
X5348274Y1970024D01*
X5350865Y1957070D01*
X5355082Y1944573D01*
X5360924Y1932736D01*
X5368239Y1921764D01*
X5376976Y1911857D01*
X5386882Y1903171D01*
X5397855Y1895805D01*
X5409692Y1890014D01*
X5422188Y1885746D01*
X5435142Y1883156D01*
G37*
G36*
X7511440Y1892554D02*
G01*
X7518044Y1895805D01*
X7529017Y1903171D01*
X7538923Y1911857D01*
X7547660Y1921764D01*
X7554975Y1932736D01*
X7560818Y1944573D01*
X7565034Y1957070D01*
X7567625Y1970024D01*
X7568488Y1983536D01*
X7568488Y2001824D01*
X7511440Y2001824D01*
G37*
G36*
X5658459Y1892554D02*
G01*
X5658459Y2001824D01*
X5601411Y2001824D01*
X5601411Y1983536D01*
X5602274Y1970024D01*
X5604865Y1957070D01*
X5609082Y1944573D01*
X5614924Y1932736D01*
X5622239Y1921764D01*
X5630976Y1911857D01*
X5640882Y1903171D01*
X5651855Y1895805D01*
G37*
G36*
X5746140Y1892554D02*
G01*
X5752744Y1895805D01*
X5763717Y1903171D01*
X5773623Y1911857D01*
X5782360Y1921764D01*
X5789676Y1932736D01*
X5795518Y1944573D01*
X5799734Y1957070D01*
X5802325Y1970024D01*
X5803188Y1983536D01*
X5803188Y2001824D01*
X5746140Y2001824D01*
G37*
G36*
X7423759Y1892554D02*
G01*
X7423759Y2001824D01*
X7366711Y2001824D01*
X7366711Y1983536D01*
X7367574Y1970024D01*
X7370165Y1957070D01*
X7374381Y1944573D01*
X7380224Y1932736D01*
X7387539Y1921764D01*
X7396276Y1911857D01*
X7406182Y1903171D01*
X7417155Y1895805D01*
G37*
G36*
X7511440Y2214524D02*
G01*
X7568488Y2214524D01*
X7568488Y2232863D01*
X7567625Y2246376D01*
X7565034Y2259330D01*
X7560818Y2271826D01*
X7554975Y2283663D01*
X7547660Y2294636D01*
X7538923Y2304542D01*
X7529017Y2313228D01*
X7518044Y2320594D01*
X7511440Y2323846D01*
G37*
G36*
X7366711Y2214524D02*
G01*
X7423759Y2214524D01*
X7423759Y2323846D01*
X7417155Y2320594D01*
X7406182Y2313228D01*
X7396276Y2304542D01*
X7387539Y2294636D01*
X7380224Y2283663D01*
X7374381Y2271826D01*
X7370165Y2259330D01*
X7367574Y2246376D01*
X7366711Y2232863D01*
G37*
G36*
X3306216Y2260142D02*
G01*
X3322980Y2261565D01*
X3339541Y2264765D01*
X3355594Y2269794D01*
X3371037Y2276602D01*
X3385616Y2284984D01*
X3399180Y2294991D01*
X3411575Y2306370D01*
X3422650Y2319070D01*
X3432251Y2332939D01*
X3440277Y2347772D01*
X3446627Y2363368D01*
X3451199Y2379573D01*
X3453942Y2396185D01*
X3454908Y2413000D01*
X3453942Y2429814D01*
X3451199Y2446426D01*
X3446627Y2462631D01*
X3440277Y2478227D01*
X3432251Y2493060D01*
X3422650Y2506929D01*
X3411575Y2519629D01*
X3399180Y2531008D01*
X3385616Y2541016D01*
X3371037Y2549398D01*
X3355594Y2556205D01*
X3339541Y2561234D01*
X3322980Y2564434D01*
X3306216Y2565857D01*
X3289350Y2565349D01*
X3272688Y2563063D01*
X3256381Y2558897D01*
X3240582Y2553004D01*
X3225546Y2545384D01*
X3211474Y2536190D01*
X3198469Y2525471D01*
X3186684Y2513431D01*
X3176371Y2500122D01*
X3167532Y2485745D01*
X3160369Y2470556D01*
X3154883Y2454605D01*
X3151174Y2438146D01*
X3149346Y2421432D01*
X3149346Y2404567D01*
X3151174Y2387854D01*
X3154883Y2371394D01*
X3160369Y2355443D01*
X3167532Y2340254D01*
X3176371Y2325878D01*
X3186684Y2312568D01*
X3198469Y2300528D01*
X3211474Y2289810D01*
X3225546Y2280615D01*
X3240582Y2272995D01*
X3256381Y2267102D01*
X3272688Y2262936D01*
X3289350Y2260650D01*
G37*
G36*
X611886Y2362606D02*
G01*
X691134Y2362606D01*
X703732Y2363520D01*
X715721Y2366111D01*
X727202Y2370378D01*
X737920Y2376271D01*
X747776Y2383586D01*
X756412Y2392273D01*
X763778Y2402078D01*
X769620Y2412847D01*
X773938Y2424328D01*
X776528Y2436266D01*
X777392Y2448509D01*
X776528Y2460701D01*
X773938Y2472690D01*
X769620Y2484170D01*
X763778Y2494940D01*
X756412Y2504744D01*
X747776Y2513431D01*
X737920Y2520746D01*
X727202Y2526639D01*
X715721Y2530906D01*
X703732Y2533497D01*
X691134Y2534412D01*
X611886Y2534412D01*
X599287Y2533497D01*
X587298Y2530906D01*
X575818Y2526639D01*
X565099Y2520746D01*
X555294Y2513431D01*
X546608Y2504744D01*
X539242Y2494940D01*
X533400Y2484170D01*
X529082Y2472690D01*
X526491Y2460701D01*
X525627Y2448509D01*
X526491Y2436266D01*
X529082Y2424328D01*
X533400Y2412847D01*
X539242Y2402078D01*
X546608Y2392273D01*
X555294Y2383586D01*
X565099Y2376271D01*
X575818Y2370378D01*
X587298Y2366111D01*
X599287Y2363520D01*
G37*
G36*
X1077112Y2482850D02*
G01*
X1095908Y2482850D01*
X1114653Y2484729D01*
X1133094Y2488539D01*
X1151077Y2494178D01*
X1168400Y2501595D01*
X1184859Y2510739D01*
X1200302Y2521508D01*
X1214577Y2533751D01*
X1227582Y2547416D01*
X1239062Y2562301D01*
X1249070Y2578303D01*
X1257350Y2595168D01*
X1263904Y2612847D01*
X1268577Y2631084D01*
X1271473Y2649677D01*
X1272387Y2668473D01*
X1271473Y2687320D01*
X1268577Y2705912D01*
X1263904Y2724150D01*
X1257350Y2741828D01*
X1249070Y2758694D01*
X1239062Y2774696D01*
X1227582Y2789580D01*
X1214577Y2803245D01*
X1200302Y2815488D01*
X1184859Y2826258D01*
X1168400Y2835402D01*
X1151077Y2842818D01*
X1133094Y2848457D01*
X1114653Y2852267D01*
X1095908Y2854147D01*
X1077112Y2854147D01*
X1058367Y2852267D01*
X1039926Y2848457D01*
X1021943Y2842818D01*
X1004620Y2835402D01*
X988161Y2826258D01*
X972718Y2815488D01*
X958443Y2803245D01*
X945438Y2789580D01*
X933958Y2774696D01*
X923950Y2758694D01*
X915669Y2741828D01*
X909116Y2724150D01*
X904443Y2705912D01*
X901547Y2687320D01*
X900633Y2668473D01*
X901547Y2649677D01*
X904443Y2631084D01*
X909116Y2612847D01*
X915669Y2595168D01*
X923950Y2578303D01*
X933958Y2562301D01*
X945438Y2547416D01*
X958443Y2533751D01*
X972718Y2521508D01*
X988161Y2510739D01*
X1004620Y2501595D01*
X1021943Y2494178D01*
X1039926Y2488539D01*
X1058367Y2484729D01*
G37*
G36*
X2015489Y2691892D02*
G01*
X2029104Y2692806D01*
X2042464Y2695549D01*
X2055368Y2700020D01*
X2067560Y2706166D01*
X2078786Y2713888D01*
X2088896Y2723032D01*
X2097684Y2733446D01*
X2105050Y2744927D01*
X2110790Y2757322D01*
X2114804Y2770327D01*
X2117090Y2783789D01*
X2117547Y2797403D01*
X2116175Y2810967D01*
X2113026Y2824226D01*
X2108098Y2836976D01*
X2101545Y2848914D01*
X2093468Y2859887D01*
X2083968Y2869692D01*
X2073300Y2878175D01*
X2061565Y2885135D01*
X2049018Y2890418D01*
X2035860Y2894025D01*
X2022348Y2895854D01*
X2008682Y2895854D01*
X1995170Y2894025D01*
X1982012Y2890418D01*
X1969465Y2885135D01*
X1957730Y2878175D01*
X1947011Y2869692D01*
X1937562Y2859887D01*
X1929485Y2848914D01*
X1922932Y2836976D01*
X1918004Y2824226D01*
X1914855Y2810967D01*
X1913483Y2797403D01*
X1913940Y2783789D01*
X1916226Y2770327D01*
X1920239Y2757322D01*
X1925980Y2744927D01*
X1933346Y2733446D01*
X1942134Y2723032D01*
X1952243Y2713888D01*
X1963470Y2706166D01*
X1975662Y2700020D01*
X1988515Y2695549D01*
X2001926Y2692806D01*
G37*
G36*
X1761489Y2818892D02*
G01*
X1775104Y2819806D01*
X1788464Y2822549D01*
X1801368Y2827020D01*
X1813509Y2833166D01*
X1824736Y2840888D01*
X1834896Y2850032D01*
X1843684Y2860446D01*
X1850999Y2871927D01*
X1856739Y2884322D01*
X1860804Y2897327D01*
X1863089Y2910789D01*
X1863496Y2924403D01*
X1862175Y2937967D01*
X1858975Y2951226D01*
X1854098Y2963976D01*
X1847545Y2975914D01*
X1839468Y2986887D01*
X1829968Y2996692D01*
X1819249Y3005175D01*
X1807514Y3012084D01*
X1794967Y3017418D01*
X1781810Y3021025D01*
X1768297Y3022854D01*
X1754682Y3022854D01*
X1741170Y3021025D01*
X1728012Y3017418D01*
X1715465Y3012084D01*
X1703730Y3005175D01*
X1693011Y2996692D01*
X1683512Y2986887D01*
X1675434Y2975914D01*
X1668881Y2963976D01*
X1664004Y2951226D01*
X1660804Y2937967D01*
X1659483Y2924403D01*
X1659940Y2910789D01*
X1662175Y2897327D01*
X1666239Y2884322D01*
X1671980Y2871927D01*
X1679295Y2860446D01*
X1688134Y2850032D01*
X1698243Y2840888D01*
X1709470Y2833166D01*
X1721662Y2827020D01*
X1734515Y2822549D01*
X1747875Y2819806D01*
G37*
G36*
X2015489Y2945892D02*
G01*
X2029104Y2946806D01*
X2042464Y2949549D01*
X2055368Y2954020D01*
X2067560Y2960166D01*
X2078786Y2967888D01*
X2088896Y2977032D01*
X2094382Y2983484D01*
X2097836Y2986125D01*
X2102104Y2987090D01*
X2360422Y2987090D01*
X2368448Y2987598D01*
X2370531Y2987903D01*
X2378303Y2989681D01*
X2387650Y2993390D01*
X2389530Y2994355D01*
X2397963Y2999790D01*
X2404008Y3005175D01*
X2586177Y3187293D01*
X2589479Y3189528D01*
X2593340Y3190290D01*
X2597912Y3190290D01*
X2601823Y3189528D01*
X2605074Y3187293D01*
X2607310Y3184042D01*
X2608072Y3180130D01*
X2608072Y3155238D01*
X2608783Y3148939D01*
X2610713Y3143453D01*
X2613761Y3138576D01*
X2617876Y3134461D01*
X2622753Y3131413D01*
X2628239Y3129483D01*
X2634538Y3128772D01*
X2826461Y3128772D01*
X2832760Y3129483D01*
X2838246Y3131413D01*
X2843123Y3134461D01*
X2847238Y3138576D01*
X2850286Y3143453D01*
X2852216Y3148939D01*
X2852928Y3155238D01*
X2852928Y3347161D01*
X2852216Y3353460D01*
X2850286Y3358946D01*
X2847238Y3363823D01*
X2843123Y3367938D01*
X2840482Y3369614D01*
X2837535Y3372408D01*
X2835910Y3376168D01*
X2835910Y3380232D01*
X2837535Y3383991D01*
X2840482Y3386785D01*
X2843123Y3388461D01*
X2847238Y3392576D01*
X2850286Y3397453D01*
X2852064Y3402431D01*
X2854147Y3405936D01*
X2857449Y3408324D01*
X2861411Y3409238D01*
X2865424Y3408527D01*
X2868828Y3406292D01*
X3066745Y3208375D01*
X3072790Y3202990D01*
X3081223Y3197555D01*
X3083102Y3196590D01*
X3092450Y3192881D01*
X3100222Y3191103D01*
X3102305Y3190798D01*
X3110331Y3190290D01*
X3144012Y3190290D01*
X3147923Y3189528D01*
X3151174Y3187293D01*
X3153410Y3184042D01*
X3154172Y3180130D01*
X3154172Y3155238D01*
X3154883Y3148939D01*
X3156813Y3143453D01*
X3159861Y3138576D01*
X3163976Y3134461D01*
X3168853Y3131413D01*
X3174339Y3129483D01*
X3180638Y3128772D01*
X3372561Y3128772D01*
X3378860Y3129483D01*
X3384346Y3131413D01*
X3389223Y3134461D01*
X3393338Y3138576D01*
X3396386Y3143453D01*
X3398316Y3148939D01*
X3399028Y3155238D01*
X3399028Y3347161D01*
X3398316Y3353460D01*
X3396386Y3358946D01*
X3393338Y3363823D01*
X3389223Y3367938D01*
X3386582Y3369614D01*
X3383635Y3372408D01*
X3382010Y3376168D01*
X3382010Y3380232D01*
X3383635Y3383991D01*
X3386582Y3386785D01*
X3389223Y3388461D01*
X3393338Y3392576D01*
X3396386Y3397453D01*
X3398316Y3402939D01*
X3399028Y3409238D01*
X3399028Y3450590D01*
X3331210Y3450590D01*
X3331210Y3383787D01*
X3330448Y3379876D01*
X3328212Y3376625D01*
X3324961Y3374390D01*
X3321050Y3373628D01*
X3232150Y3373628D01*
X3228238Y3374390D01*
X3224987Y3376625D01*
X3222752Y3379876D01*
X3221990Y3383787D01*
X3221990Y3450590D01*
X3154172Y3450590D01*
X3154172Y3409238D01*
X3154883Y3402939D01*
X3156813Y3397453D01*
X3159861Y3392576D01*
X3163976Y3388461D01*
X3166618Y3386785D01*
X3169564Y3383991D01*
X3171190Y3380232D01*
X3171190Y3376168D01*
X3169564Y3372408D01*
X3166618Y3369614D01*
X3163976Y3367938D01*
X3159861Y3363823D01*
X3156813Y3358946D01*
X3154883Y3353460D01*
X3154172Y3347161D01*
X3154172Y3322269D01*
X3153410Y3318357D01*
X3151174Y3315106D01*
X3147923Y3312871D01*
X3144012Y3312109D01*
X3139440Y3312109D01*
X3135579Y3312871D01*
X3132277Y3315106D01*
X2960979Y3486404D01*
X2958744Y3489706D01*
X2957982Y3493566D01*
X2957982Y3504996D01*
X2957779Y3510229D01*
X2957118Y3515207D01*
X2956102Y3520135D01*
X2954680Y3524961D01*
X2952851Y3529685D01*
X2950616Y3534206D01*
X2948076Y3538524D01*
X2945130Y3542588D01*
X2941878Y3546449D01*
X2938322Y3550005D01*
X2934462Y3553256D01*
X2930398Y3556203D01*
X2926080Y3558743D01*
X2921558Y3560978D01*
X2916834Y3562807D01*
X2912008Y3564229D01*
X2907080Y3565245D01*
X2902102Y3565906D01*
X2896870Y3566109D01*
X2863088Y3566109D01*
X2859176Y3566871D01*
X2855925Y3569106D01*
X2853690Y3572357D01*
X2852928Y3576269D01*
X2852928Y3601161D01*
X2852216Y3607460D01*
X2850286Y3612946D01*
X2847238Y3617823D01*
X2843123Y3621938D01*
X2838246Y3624986D01*
X2832760Y3626916D01*
X2826461Y3627628D01*
X2801569Y3627628D01*
X2797657Y3628390D01*
X2794406Y3630625D01*
X2792171Y3633876D01*
X2791409Y3637787D01*
X2791409Y3671468D01*
X2790901Y3679494D01*
X2790596Y3681577D01*
X2788818Y3689350D01*
X2785110Y3698697D01*
X2784144Y3700576D01*
X2778709Y3709009D01*
X2773324Y3715054D01*
X2555392Y3933037D01*
X2553208Y3936288D01*
X2552395Y3940200D01*
X2552395Y4253077D01*
X2553360Y4257344D01*
X2556002Y4260799D01*
X2559913Y4262831D01*
X2564282Y4263085D01*
X2568346Y4261408D01*
X2576880Y4255566D01*
X2589022Y4249420D01*
X2601925Y4244949D01*
X2615285Y4242206D01*
X2628900Y4241292D01*
X2642514Y4242206D01*
X2655874Y4244949D01*
X2668778Y4249420D01*
X2680919Y4255566D01*
X2692146Y4263288D01*
X2702306Y4272432D01*
X2707741Y4278884D01*
X2711246Y4281525D01*
X2715514Y4282490D01*
X2796286Y4282490D01*
X2800553Y4281525D01*
X2804058Y4278884D01*
X2809494Y4272432D01*
X2819654Y4263288D01*
X2830880Y4255566D01*
X2843022Y4249420D01*
X2855925Y4244949D01*
X2869285Y4242206D01*
X2882900Y4241292D01*
X2896514Y4242206D01*
X2909874Y4244949D01*
X2922778Y4249420D01*
X2934919Y4255566D01*
X2946146Y4263288D01*
X2956306Y4272432D01*
X2965094Y4282846D01*
X2972409Y4294327D01*
X2978150Y4306722D01*
X2982214Y4319727D01*
X2984449Y4333189D01*
X2984906Y4346803D01*
X2983585Y4360367D01*
X2980385Y4373626D01*
X2975508Y4386376D01*
X2968955Y4398314D01*
X2960878Y4409287D01*
X2951378Y4419092D01*
X2940659Y4427575D01*
X2928924Y4434535D01*
X2916377Y4439818D01*
X2903220Y4443425D01*
X2889707Y4445254D01*
X2876092Y4445254D01*
X2862580Y4443425D01*
X2849422Y4439818D01*
X2836875Y4434535D01*
X2825140Y4427575D01*
X2814421Y4419092D01*
X2802077Y4406239D01*
X2799232Y4404817D01*
X2796133Y4404309D01*
X2715666Y4404309D01*
X2712567Y4404817D01*
X2709722Y4406239D01*
X2697378Y4419092D01*
X2686659Y4427575D01*
X2674924Y4434535D01*
X2662377Y4439818D01*
X2649220Y4443425D01*
X2635707Y4445254D01*
X2622092Y4445254D01*
X2608580Y4443425D01*
X2595422Y4439818D01*
X2582875Y4434535D01*
X2571140Y4427575D01*
X2560421Y4419092D01*
X2550922Y4409287D01*
X2542844Y4398314D01*
X2536240Y4386173D01*
X2534056Y4382820D01*
X2530754Y4380534D01*
X2526842Y4379671D01*
X2522931Y4380433D01*
X2519578Y4382668D01*
X2120036Y4782210D01*
X2117750Y4785664D01*
X2117039Y4789728D01*
X2117547Y4804003D01*
X2116175Y4817567D01*
X2113026Y4830826D01*
X2108098Y4843576D01*
X2101545Y4855514D01*
X2093468Y4866487D01*
X2083968Y4876292D01*
X2073300Y4884775D01*
X2061565Y4891684D01*
X2049018Y4897018D01*
X2035860Y4900625D01*
X2022348Y4902454D01*
X2008682Y4902454D01*
X1995170Y4900625D01*
X1982012Y4897018D01*
X1969465Y4891684D01*
X1957730Y4884775D01*
X1947011Y4876292D01*
X1937562Y4866487D01*
X1929485Y4855514D01*
X1922932Y4843576D01*
X1918004Y4830826D01*
X1914855Y4817567D01*
X1913483Y4804003D01*
X1913940Y4790389D01*
X1916226Y4776927D01*
X1920239Y4763922D01*
X1925980Y4751527D01*
X1933346Y4740046D01*
X1942134Y4729632D01*
X1952243Y4720488D01*
X1963470Y4712766D01*
X1975662Y4706620D01*
X1988515Y4702149D01*
X2001926Y4699406D01*
X2015489Y4698492D01*
X2025853Y4699203D01*
X2030120Y4698593D01*
X2033727Y4696256D01*
X2079802Y4650181D01*
X2082088Y4646676D01*
X2082749Y4642561D01*
X2081733Y4638497D01*
X2079193Y4635246D01*
X2075535Y4633264D01*
X2071370Y4632909D01*
X2067458Y4634230D01*
X2061565Y4637735D01*
X2049018Y4643018D01*
X2035860Y4646625D01*
X2022348Y4648454D01*
X2008682Y4648454D01*
X1995170Y4646625D01*
X1982012Y4643018D01*
X1969465Y4637735D01*
X1957730Y4630775D01*
X1947011Y4622292D01*
X1937562Y4612487D01*
X1929485Y4601514D01*
X1922932Y4589576D01*
X1918004Y4576826D01*
X1914855Y4563567D01*
X1913483Y4550003D01*
X1913940Y4536389D01*
X1916226Y4522927D01*
X1920239Y4509922D01*
X1925980Y4497527D01*
X1933346Y4486046D01*
X1942134Y4475632D01*
X1952243Y4466488D01*
X1963470Y4458766D01*
X1975662Y4452620D01*
X1988515Y4448149D01*
X2001926Y4445406D01*
X2015489Y4444492D01*
X2029104Y4445406D01*
X2042464Y4448149D01*
X2055368Y4452620D01*
X2067560Y4458766D01*
X2078786Y4466488D01*
X2088896Y4475632D01*
X2097684Y4486046D01*
X2105050Y4497527D01*
X2110790Y4509922D01*
X2114804Y4522927D01*
X2117090Y4536389D01*
X2117547Y4550003D01*
X2116175Y4563567D01*
X2113026Y4576826D01*
X2108098Y4589576D01*
X2103120Y4598670D01*
X2101900Y4602581D01*
X2102358Y4606696D01*
X2104440Y4610252D01*
X2107742Y4612741D01*
X2111705Y4613706D01*
X2115769Y4612995D01*
X2119223Y4610709D01*
X2427630Y4302302D01*
X2429814Y4299051D01*
X2430627Y4295140D01*
X2430627Y3911092D01*
X2431084Y3903014D01*
X2431389Y3900932D01*
X2433828Y3891178D01*
X2436876Y3883812D01*
X2442057Y3875227D01*
X2443327Y3873500D01*
X2448661Y3867454D01*
X2666593Y3649522D01*
X2668828Y3646220D01*
X2669590Y3642360D01*
X2669590Y3637787D01*
X2668828Y3633876D01*
X2666593Y3630625D01*
X2663342Y3628390D01*
X2659430Y3627628D01*
X2634538Y3627628D01*
X2628239Y3626916D01*
X2622753Y3624986D01*
X2617876Y3621938D01*
X2613761Y3617823D01*
X2610713Y3612946D01*
X2608783Y3607460D01*
X2608072Y3601161D01*
X2608072Y3409238D01*
X2608783Y3402939D01*
X2610713Y3397453D01*
X2613761Y3392576D01*
X2617876Y3388461D01*
X2620518Y3386785D01*
X2623464Y3383991D01*
X2625090Y3380232D01*
X2625090Y3376168D01*
X2623464Y3372408D01*
X2620518Y3369614D01*
X2617876Y3367938D01*
X2613761Y3363823D01*
X2610713Y3358946D01*
X2608783Y3353460D01*
X2608072Y3347161D01*
X2608072Y3322269D01*
X2607310Y3318357D01*
X2605074Y3315106D01*
X2601823Y3312871D01*
X2597912Y3312109D01*
X2564231Y3312109D01*
X2556205Y3311601D01*
X2554122Y3311296D01*
X2546350Y3309518D01*
X2537002Y3305810D01*
X2535123Y3304844D01*
X2526690Y3299409D01*
X2520645Y3294024D01*
X2338476Y3111906D01*
X2335174Y3109671D01*
X2331313Y3108909D01*
X2102256Y3108909D01*
X2099157Y3109417D01*
X2096363Y3110839D01*
X2083968Y3123692D01*
X2073300Y3132175D01*
X2061565Y3139084D01*
X2049018Y3144418D01*
X2035860Y3148025D01*
X2022348Y3149854D01*
X2008682Y3149854D01*
X1995170Y3148025D01*
X1982012Y3144418D01*
X1969465Y3139084D01*
X1957730Y3132175D01*
X1947011Y3123692D01*
X1937562Y3113887D01*
X1929485Y3102914D01*
X1922932Y3090976D01*
X1918004Y3078226D01*
X1914855Y3064967D01*
X1913483Y3051403D01*
X1913940Y3037789D01*
X1916226Y3024327D01*
X1920239Y3011322D01*
X1925980Y2998927D01*
X1933346Y2987446D01*
X1942134Y2977032D01*
X1952243Y2967888D01*
X1963470Y2960166D01*
X1975662Y2954020D01*
X1988515Y2949549D01*
X2001926Y2946806D01*
G37*
G36*
X1761489Y3072942D02*
G01*
X1775104Y3073857D01*
X1788464Y3076549D01*
X1801368Y3081020D01*
X1813509Y3087166D01*
X1824736Y3094888D01*
X1834896Y3104032D01*
X1843684Y3114446D01*
X1850999Y3125927D01*
X1856739Y3138322D01*
X1860804Y3151327D01*
X1863089Y3164789D01*
X1863496Y3178403D01*
X1862175Y3191967D01*
X1858975Y3205276D01*
X1854098Y3217976D01*
X1847545Y3229914D01*
X1839468Y3240938D01*
X1829968Y3250742D01*
X1819249Y3259175D01*
X1807514Y3266135D01*
X1794967Y3271469D01*
X1781810Y3275025D01*
X1768297Y3276854D01*
X1754682Y3276854D01*
X1741170Y3275025D01*
X1728012Y3271469D01*
X1715465Y3266135D01*
X1703730Y3259175D01*
X1693011Y3250742D01*
X1683512Y3240938D01*
X1675434Y3229914D01*
X1668881Y3217976D01*
X1664004Y3205276D01*
X1660804Y3191967D01*
X1659483Y3178403D01*
X1659940Y3164789D01*
X1662175Y3151327D01*
X1666239Y3138322D01*
X1671980Y3125927D01*
X1679295Y3114446D01*
X1688134Y3104032D01*
X1698243Y3094888D01*
X1709470Y3087166D01*
X1721662Y3081020D01*
X1734515Y3076549D01*
X1747875Y3073857D01*
G37*
G36*
X2015489Y3199892D02*
G01*
X2029104Y3200806D01*
X2042464Y3203549D01*
X2055368Y3208020D01*
X2067560Y3214166D01*
X2078786Y3221888D01*
X2088896Y3231032D01*
X2097684Y3241446D01*
X2105050Y3252927D01*
X2110790Y3265322D01*
X2114804Y3278327D01*
X2117090Y3291789D01*
X2117547Y3305403D01*
X2116886Y3311956D01*
X2117394Y3316427D01*
X2119782Y3320186D01*
X2154428Y3354781D01*
X2157679Y3356965D01*
X2161590Y3357778D01*
X2403906Y3357778D01*
X2414371Y3358642D01*
X2424125Y3361080D01*
X2433320Y3365144D01*
X2441752Y3370630D01*
X2449118Y3377437D01*
X2455316Y3385362D01*
X2460091Y3394201D01*
X2463342Y3403701D01*
X2465019Y3413658D01*
X2465019Y3423665D01*
X2463342Y3433622D01*
X2460091Y3443122D01*
X2455316Y3451961D01*
X2449118Y3459886D01*
X2441752Y3466693D01*
X2433320Y3472179D01*
X2424125Y3476244D01*
X2414371Y3478682D01*
X2403906Y3479546D01*
X2132482Y3479546D01*
X2124405Y3479088D01*
X2122322Y3478784D01*
X2112619Y3476345D01*
X2103374Y3472383D01*
X2098954Y3471570D01*
X2094636Y3472738D01*
X2091182Y3475634D01*
X2089404Y3479749D01*
X2089556Y3484270D01*
X2091588Y3488283D01*
X2097684Y3495446D01*
X2104999Y3506927D01*
X2110740Y3519322D01*
X2114804Y3532327D01*
X2117039Y3545789D01*
X2117496Y3559403D01*
X2116175Y3572967D01*
X2112975Y3586226D01*
X2108098Y3598976D01*
X2101545Y3610914D01*
X2093468Y3621887D01*
X2083968Y3631692D01*
X2073249Y3640175D01*
X2061514Y3647084D01*
X2048967Y3652418D01*
X2035810Y3656025D01*
X2022297Y3657854D01*
X2008682Y3657854D01*
X1995170Y3656025D01*
X1982012Y3652418D01*
X1969465Y3647084D01*
X1957730Y3640175D01*
X1947011Y3631692D01*
X1937512Y3621887D01*
X1929434Y3610914D01*
X1922881Y3598976D01*
X1918004Y3586226D01*
X1914804Y3572967D01*
X1913483Y3559403D01*
X1913940Y3545789D01*
X1916175Y3532327D01*
X1920239Y3519322D01*
X1925980Y3506927D01*
X1933295Y3495446D01*
X1942084Y3485032D01*
X1952243Y3475888D01*
X1963470Y3468166D01*
X1975612Y3462020D01*
X1988515Y3457549D01*
X2001875Y3454806D01*
X2015489Y3453892D01*
X2029104Y3454806D01*
X2042464Y3457549D01*
X2055368Y3462020D01*
X2067458Y3468115D01*
X2071370Y3469182D01*
X2075434Y3468624D01*
X2078939Y3466541D01*
X2081326Y3463239D01*
X2082190Y3459276D01*
X2081479Y3455263D01*
X2079243Y3451860D01*
X2033727Y3406343D01*
X2031238Y3404514D01*
X2028291Y3403549D01*
X2025192Y3403498D01*
X2022348Y3403854D01*
X2008682Y3403854D01*
X1995170Y3402025D01*
X1982012Y3398418D01*
X1969465Y3393135D01*
X1957730Y3386175D01*
X1947011Y3377692D01*
X1937562Y3367887D01*
X1929485Y3356914D01*
X1922932Y3344976D01*
X1918004Y3332226D01*
X1914855Y3318967D01*
X1913483Y3305403D01*
X1913940Y3291789D01*
X1916226Y3278327D01*
X1920239Y3265322D01*
X1925980Y3252927D01*
X1933346Y3241446D01*
X1942134Y3231032D01*
X1952243Y3221888D01*
X1963470Y3214166D01*
X1975662Y3208020D01*
X1988515Y3203549D01*
X2001926Y3200806D01*
G37*
G36*
X1761489Y3326892D02*
G01*
X1775104Y3327806D01*
X1788464Y3330549D01*
X1801368Y3335020D01*
X1813509Y3341166D01*
X1824736Y3348888D01*
X1834896Y3358032D01*
X1843684Y3368446D01*
X1850999Y3379927D01*
X1856739Y3392322D01*
X1860804Y3405327D01*
X1863089Y3418789D01*
X1863496Y3432403D01*
X1862175Y3445967D01*
X1858975Y3459226D01*
X1854098Y3471976D01*
X1847545Y3483914D01*
X1839468Y3494887D01*
X1829968Y3504692D01*
X1819249Y3513175D01*
X1807514Y3520084D01*
X1794967Y3525418D01*
X1781810Y3529025D01*
X1768297Y3530854D01*
X1754682Y3530854D01*
X1741170Y3529025D01*
X1728012Y3525418D01*
X1715465Y3520084D01*
X1703730Y3513175D01*
X1693011Y3504692D01*
X1683512Y3494887D01*
X1675434Y3483914D01*
X1668881Y3471976D01*
X1664004Y3459226D01*
X1660804Y3445967D01*
X1659483Y3432403D01*
X1659940Y3418789D01*
X1662175Y3405327D01*
X1666239Y3392322D01*
X1671980Y3379927D01*
X1679295Y3368446D01*
X1688134Y3358032D01*
X1698243Y3348888D01*
X1709470Y3341166D01*
X1721662Y3335020D01*
X1734515Y3330549D01*
X1747875Y3327806D01*
G37*
G36*
X3331210Y3559810D02*
G01*
X3399028Y3559810D01*
X3399028Y3601161D01*
X3398316Y3607460D01*
X3396386Y3612946D01*
X3393338Y3617823D01*
X3389223Y3621938D01*
X3384346Y3624986D01*
X3378860Y3626916D01*
X3372561Y3627628D01*
X3331210Y3627628D01*
G37*
G36*
X3154172Y3559810D02*
G01*
X3221990Y3559810D01*
X3221990Y3627628D01*
X3180638Y3627628D01*
X3174339Y3626916D01*
X3168853Y3624986D01*
X3163976Y3621938D01*
X3159861Y3617823D01*
X3156813Y3612946D01*
X3154883Y3607460D01*
X3154172Y3601161D01*
G37*
G36*
X1685848Y3580892D02*
G01*
X1837131Y3580892D01*
X1843430Y3581603D01*
X1848916Y3583533D01*
X1853793Y3586581D01*
X1857908Y3590696D01*
X1860956Y3595573D01*
X1862886Y3601059D01*
X1863598Y3607358D01*
X1863598Y3758641D01*
X1862886Y3764940D01*
X1860956Y3770426D01*
X1857908Y3775303D01*
X1853793Y3779418D01*
X1848916Y3782517D01*
X1843430Y3784396D01*
X1837131Y3785108D01*
X1685848Y3785108D01*
X1679549Y3784396D01*
X1674063Y3782517D01*
X1669186Y3779418D01*
X1665071Y3775303D01*
X1662023Y3770426D01*
X1660093Y3764940D01*
X1659382Y3758641D01*
X1659382Y3607358D01*
X1660093Y3601059D01*
X1662023Y3595573D01*
X1665071Y3590696D01*
X1669186Y3586581D01*
X1674063Y3583533D01*
X1679549Y3581603D01*
G37*
G36*
X1077112Y3622852D02*
G01*
X1095908Y3622852D01*
X1114653Y3624732D01*
X1133094Y3628542D01*
X1151077Y3634181D01*
X1168400Y3641598D01*
X1184859Y3650742D01*
X1200302Y3661511D01*
X1214577Y3673754D01*
X1227582Y3687419D01*
X1239062Y3702304D01*
X1249070Y3718306D01*
X1257350Y3735171D01*
X1263904Y3752850D01*
X1268577Y3771087D01*
X1271473Y3789679D01*
X1272387Y3808476D01*
X1271473Y3827322D01*
X1268577Y3845915D01*
X1263904Y3864152D01*
X1257350Y3881831D01*
X1249070Y3898696D01*
X1239062Y3914698D01*
X1227582Y3929583D01*
X1214577Y3943248D01*
X1200302Y3955491D01*
X1184859Y3966260D01*
X1168400Y3975404D01*
X1151077Y3982821D01*
X1133094Y3988460D01*
X1114653Y3992270D01*
X1095908Y3994150D01*
X1077112Y3994150D01*
X1058367Y3992270D01*
X1039926Y3988460D01*
X1021943Y3982821D01*
X1004620Y3975404D01*
X988161Y3966260D01*
X972718Y3955491D01*
X958443Y3943248D01*
X945438Y3929583D01*
X933958Y3914698D01*
X923950Y3898696D01*
X915669Y3881831D01*
X909116Y3864152D01*
X904443Y3845915D01*
X901547Y3827322D01*
X900633Y3808476D01*
X901547Y3789679D01*
X904443Y3771087D01*
X909116Y3752850D01*
X915669Y3735171D01*
X923950Y3718306D01*
X933958Y3702304D01*
X945438Y3687419D01*
X958443Y3673754D01*
X972718Y3661511D01*
X988161Y3650742D01*
X1004620Y3641598D01*
X1021943Y3634181D01*
X1039926Y3628542D01*
X1058367Y3624732D01*
G37*
G36*
X611886Y3942587D02*
G01*
X691134Y3942587D01*
X703732Y3943502D01*
X715721Y3946093D01*
X727202Y3950411D01*
X737920Y3956253D01*
X747725Y3963619D01*
X756412Y3972255D01*
X763778Y3982059D01*
X769620Y3992829D01*
X773887Y4004310D01*
X776528Y4016298D01*
X777392Y4028490D01*
X776528Y4040733D01*
X773887Y4052722D01*
X769620Y4064203D01*
X763778Y4074922D01*
X756412Y4084726D01*
X747725Y4093413D01*
X737920Y4100779D01*
X728522Y4105910D01*
X725271Y4108704D01*
X723493Y4112666D01*
X723493Y4116984D01*
X725271Y4120896D01*
X728522Y4123740D01*
X737920Y4128871D01*
X747776Y4136186D01*
X756412Y4144873D01*
X763778Y4154678D01*
X769620Y4165447D01*
X773938Y4176928D01*
X776528Y4188866D01*
X777392Y4201109D01*
X776528Y4213301D01*
X773938Y4225290D01*
X769620Y4236770D01*
X763778Y4247540D01*
X756412Y4257344D01*
X747776Y4266031D01*
X737920Y4273346D01*
X727202Y4279239D01*
X715721Y4283506D01*
X703732Y4286097D01*
X691134Y4287012D01*
X611886Y4287012D01*
X599287Y4286097D01*
X587298Y4283506D01*
X575818Y4279239D01*
X565099Y4273346D01*
X555294Y4266031D01*
X546608Y4257344D01*
X539242Y4247540D01*
X533400Y4236770D01*
X529082Y4225290D01*
X526491Y4213301D01*
X525627Y4201109D01*
X526491Y4188866D01*
X529082Y4176928D01*
X533400Y4165447D01*
X539242Y4154678D01*
X546608Y4144873D01*
X555294Y4136186D01*
X565099Y4128871D01*
X574497Y4123740D01*
X577748Y4120896D01*
X579526Y4116984D01*
X579526Y4112666D01*
X577748Y4108704D01*
X574497Y4105910D01*
X565099Y4100779D01*
X555244Y4093413D01*
X546608Y4084726D01*
X539242Y4074922D01*
X533400Y4064203D01*
X529082Y4052722D01*
X526491Y4040733D01*
X525627Y4028490D01*
X526491Y4016298D01*
X529082Y4004310D01*
X533400Y3992829D01*
X539242Y3982059D01*
X546608Y3972255D01*
X555244Y3963619D01*
X565099Y3956253D01*
X575818Y3950411D01*
X587298Y3946093D01*
X599287Y3943502D01*
G37*
G36*
X1077112Y4235450D02*
G01*
X1095908Y4235450D01*
X1114653Y4237329D01*
X1133094Y4241139D01*
X1151077Y4246778D01*
X1168400Y4254195D01*
X1184859Y4263339D01*
X1200302Y4274108D01*
X1214577Y4286351D01*
X1227582Y4300016D01*
X1239062Y4314901D01*
X1249070Y4330903D01*
X1257350Y4347768D01*
X1263904Y4365447D01*
X1268577Y4383684D01*
X1271473Y4402277D01*
X1272387Y4421073D01*
X1271473Y4439920D01*
X1268577Y4458512D01*
X1263904Y4476750D01*
X1257350Y4494428D01*
X1249070Y4511294D01*
X1239062Y4527296D01*
X1227582Y4542180D01*
X1214577Y4555845D01*
X1200302Y4568088D01*
X1184859Y4578858D01*
X1168400Y4588002D01*
X1151077Y4595418D01*
X1133094Y4601057D01*
X1114653Y4604867D01*
X1095908Y4606747D01*
X1077112Y4606747D01*
X1058367Y4604867D01*
X1039926Y4601057D01*
X1021943Y4595418D01*
X1004620Y4588002D01*
X988161Y4578858D01*
X972718Y4568088D01*
X958443Y4555845D01*
X945438Y4542180D01*
X933958Y4527296D01*
X923950Y4511294D01*
X915669Y4494428D01*
X909116Y4476750D01*
X904443Y4458512D01*
X901547Y4439920D01*
X900633Y4421073D01*
X901547Y4402277D01*
X904443Y4383684D01*
X909116Y4365447D01*
X915669Y4347768D01*
X923950Y4330903D01*
X933958Y4314901D01*
X945438Y4300016D01*
X958443Y4286351D01*
X972718Y4274108D01*
X988161Y4263339D01*
X1004620Y4254195D01*
X1021943Y4246778D01*
X1039926Y4241139D01*
X1058367Y4237329D01*
G37*
G36*
X1761489Y4571492D02*
G01*
X1775104Y4572406D01*
X1788464Y4575149D01*
X1801368Y4579620D01*
X1813509Y4585766D01*
X1824736Y4593488D01*
X1834896Y4602632D01*
X1843684Y4613046D01*
X1850999Y4624527D01*
X1856739Y4636922D01*
X1860804Y4649927D01*
X1863089Y4663389D01*
X1863496Y4677003D01*
X1862175Y4690567D01*
X1858975Y4703826D01*
X1854098Y4716576D01*
X1847545Y4728514D01*
X1839468Y4739487D01*
X1829968Y4749292D01*
X1819249Y4757775D01*
X1807514Y4764684D01*
X1794967Y4770018D01*
X1781810Y4773625D01*
X1768297Y4775454D01*
X1754682Y4775454D01*
X1741170Y4773625D01*
X1728012Y4770018D01*
X1715465Y4764684D01*
X1703730Y4757775D01*
X1693011Y4749292D01*
X1683512Y4739487D01*
X1675434Y4728514D01*
X1668881Y4716576D01*
X1664004Y4703826D01*
X1660804Y4690567D01*
X1659483Y4677003D01*
X1659940Y4663389D01*
X1662175Y4649927D01*
X1666239Y4636922D01*
X1671980Y4624527D01*
X1679295Y4613046D01*
X1688134Y4602632D01*
X1698243Y4593488D01*
X1709470Y4585766D01*
X1721662Y4579620D01*
X1734515Y4575149D01*
X1747875Y4572406D01*
G37*
G36*
X1761489Y4825542D02*
G01*
X1775104Y4826457D01*
X1788464Y4829149D01*
X1801368Y4833620D01*
X1813509Y4839766D01*
X1824736Y4847488D01*
X1834896Y4856632D01*
X1843684Y4867046D01*
X1850999Y4878527D01*
X1856739Y4890922D01*
X1860804Y4903927D01*
X1863089Y4917389D01*
X1863496Y4931003D01*
X1862175Y4944567D01*
X1858975Y4957876D01*
X1854098Y4970576D01*
X1847545Y4982514D01*
X1839468Y4993538D01*
X1829968Y5003342D01*
X1819249Y5011775D01*
X1807514Y5018735D01*
X1794967Y5024069D01*
X1781810Y5027625D01*
X1768297Y5029454D01*
X1754682Y5029454D01*
X1741170Y5027625D01*
X1728012Y5024069D01*
X1715465Y5018735D01*
X1703730Y5011775D01*
X1693011Y5003342D01*
X1683512Y4993538D01*
X1675434Y4982514D01*
X1668881Y4970576D01*
X1664004Y4957876D01*
X1660804Y4944567D01*
X1659483Y4931003D01*
X1659940Y4917389D01*
X1662175Y4903927D01*
X1666239Y4890922D01*
X1671980Y4878527D01*
X1679295Y4867046D01*
X1688134Y4856632D01*
X1698243Y4847488D01*
X1709470Y4839766D01*
X1721662Y4833620D01*
X1734515Y4829149D01*
X1747875Y4826457D01*
G37*
G36*
X2015489Y4952492D02*
G01*
X2029104Y4953406D01*
X2042464Y4956149D01*
X2055368Y4960620D01*
X2067560Y4966766D01*
X2078786Y4974488D01*
X2088896Y4983632D01*
X2097684Y4994046D01*
X2105050Y5005527D01*
X2110790Y5017922D01*
X2114804Y5030927D01*
X2117090Y5044389D01*
X2117547Y5058003D01*
X2116175Y5071567D01*
X2113026Y5084826D01*
X2108098Y5097576D01*
X2101545Y5109514D01*
X2093468Y5120487D01*
X2083968Y5130292D01*
X2073300Y5138775D01*
X2061565Y5145735D01*
X2049018Y5151018D01*
X2035860Y5154625D01*
X2022348Y5156454D01*
X2008682Y5156454D01*
X1995170Y5154625D01*
X1982012Y5151018D01*
X1969465Y5145735D01*
X1957730Y5138775D01*
X1947011Y5130292D01*
X1937562Y5120487D01*
X1929485Y5109514D01*
X1922932Y5097576D01*
X1918004Y5084826D01*
X1914855Y5071567D01*
X1913483Y5058003D01*
X1913940Y5044389D01*
X1916226Y5030927D01*
X1920239Y5017922D01*
X1925980Y5005527D01*
X1933346Y4994046D01*
X1942134Y4983632D01*
X1952243Y4974488D01*
X1963470Y4966766D01*
X1975662Y4960620D01*
X1988515Y4956149D01*
X2001926Y4953406D01*
G37*
G36*
X1761489Y5079492D02*
G01*
X1775104Y5080406D01*
X1788464Y5083149D01*
X1801368Y5087620D01*
X1813509Y5093766D01*
X1824736Y5101488D01*
X1834896Y5110632D01*
X1843684Y5121046D01*
X1850999Y5132527D01*
X1856739Y5144922D01*
X1860804Y5157927D01*
X1863089Y5171389D01*
X1863496Y5185003D01*
X1862175Y5198567D01*
X1858975Y5211826D01*
X1854098Y5224576D01*
X1847545Y5236514D01*
X1839468Y5247487D01*
X1829968Y5257292D01*
X1819249Y5265775D01*
X1807514Y5272684D01*
X1794967Y5278018D01*
X1781810Y5281625D01*
X1768297Y5283454D01*
X1754682Y5283454D01*
X1741170Y5281625D01*
X1728012Y5278018D01*
X1715465Y5272684D01*
X1703730Y5265775D01*
X1693011Y5257292D01*
X1683512Y5247487D01*
X1675434Y5236514D01*
X1668881Y5224576D01*
X1664004Y5211826D01*
X1660804Y5198567D01*
X1659483Y5185003D01*
X1659940Y5171389D01*
X1662175Y5157927D01*
X1666239Y5144922D01*
X1671980Y5132527D01*
X1679295Y5121046D01*
X1688134Y5110632D01*
X1698243Y5101488D01*
X1709470Y5093766D01*
X1721662Y5087620D01*
X1734515Y5083149D01*
X1747875Y5080406D01*
G37*
G36*
X1077112Y5375452D02*
G01*
X1095908Y5375452D01*
X1114653Y5377332D01*
X1133094Y5381142D01*
X1151077Y5386781D01*
X1168400Y5394198D01*
X1184859Y5403342D01*
X1200302Y5414111D01*
X1214577Y5426354D01*
X1227582Y5440019D01*
X1239062Y5454904D01*
X1249070Y5470906D01*
X1257350Y5487771D01*
X1263904Y5505450D01*
X1268577Y5523687D01*
X1271473Y5542280D01*
X1272387Y5561076D01*
X1271473Y5579922D01*
X1268577Y5598515D01*
X1263904Y5616752D01*
X1257350Y5634431D01*
X1249070Y5651296D01*
X1239062Y5667298D01*
X1227582Y5682183D01*
X1214577Y5695848D01*
X1200302Y5708091D01*
X1184859Y5718860D01*
X1168400Y5728004D01*
X1151077Y5735421D01*
X1133094Y5741060D01*
X1114653Y5744870D01*
X1095908Y5746750D01*
X1077112Y5746750D01*
X1058367Y5744870D01*
X1039926Y5741060D01*
X1021943Y5735421D01*
X1004620Y5728004D01*
X988161Y5718860D01*
X972718Y5708091D01*
X958443Y5695848D01*
X945438Y5682183D01*
X933958Y5667298D01*
X923950Y5651296D01*
X915669Y5634431D01*
X909116Y5616752D01*
X904443Y5598515D01*
X901547Y5579922D01*
X900633Y5561076D01*
X901547Y5542280D01*
X904443Y5523687D01*
X909116Y5505450D01*
X915669Y5487771D01*
X923950Y5470906D01*
X933958Y5454904D01*
X945438Y5440019D01*
X958443Y5426354D01*
X972718Y5414111D01*
X988161Y5403342D01*
X1004620Y5394198D01*
X1021943Y5386781D01*
X1039926Y5381142D01*
X1058367Y5377332D01*
G37*
G36*
X611886Y5695188D02*
G01*
X691134Y5695188D01*
X703732Y5696102D01*
X715721Y5698693D01*
X727202Y5703011D01*
X737920Y5708853D01*
X747725Y5716219D01*
X756412Y5724855D01*
X763778Y5734659D01*
X769620Y5745429D01*
X773887Y5756910D01*
X776528Y5768898D01*
X777392Y5781090D01*
X776528Y5793333D01*
X773887Y5805322D01*
X769620Y5816803D01*
X763778Y5827522D01*
X756412Y5837326D01*
X747725Y5846013D01*
X737920Y5853379D01*
X727202Y5859221D01*
X715721Y5863488D01*
X703732Y5866130D01*
X691134Y5866993D01*
X611886Y5866993D01*
X599287Y5866130D01*
X587298Y5863488D01*
X575818Y5859221D01*
X565099Y5853379D01*
X555244Y5846013D01*
X546608Y5837326D01*
X539242Y5827522D01*
X533400Y5816803D01*
X529082Y5805322D01*
X526491Y5793333D01*
X525627Y5781090D01*
X526491Y5768898D01*
X529082Y5756910D01*
X533400Y5745429D01*
X539242Y5734659D01*
X546608Y5724855D01*
X555244Y5716219D01*
X565099Y5708853D01*
X575818Y5703011D01*
X587298Y5698693D01*
X599287Y5696102D01*
G37*
G36*
X103174Y6171946D02*
G01*
X316179Y6171946D01*
X322478Y6172657D01*
X327964Y6174587D01*
X332841Y6177635D01*
X336956Y6181750D01*
X340004Y6186627D01*
X341934Y6192113D01*
X342646Y6198412D01*
X342646Y7159701D01*
X341934Y7166000D01*
X340004Y7171486D01*
X336956Y7176363D01*
X332841Y7180478D01*
X327964Y7183526D01*
X322478Y7185456D01*
X316179Y7186168D01*
X103174Y7186168D01*
X96875Y7185456D01*
X91389Y7183526D01*
X86512Y7180478D01*
X82397Y7176363D01*
X79349Y7171486D01*
X77419Y7166000D01*
X76708Y7159701D01*
X76708Y6198412D01*
X77419Y6192113D01*
X79349Y6186627D01*
X82397Y6181750D01*
X86512Y6177635D01*
X91389Y6174587D01*
X96875Y6172657D01*
G37*
G36*
X2791104Y6292850D02*
G01*
X2838450Y6292850D01*
X2838450Y6340195D01*
X2836875Y6339535D01*
X2825140Y6332575D01*
X2814421Y6324092D01*
X2804922Y6314287D01*
X2796844Y6303314D01*
G37*
G36*
X2673350Y6292850D02*
G01*
X2720695Y6292850D01*
X2714955Y6303314D01*
X2706878Y6314287D01*
X2697378Y6324092D01*
X2686659Y6332575D01*
X2674924Y6339535D01*
X2673350Y6340195D01*
G37*
G36*
X2927350Y6292850D02*
G01*
X2974695Y6292850D01*
X2968955Y6303314D01*
X2960878Y6314287D01*
X2951378Y6324092D01*
X2940659Y6332575D01*
X2928924Y6339535D01*
X2927350Y6340195D01*
G37*
G36*
X2537104Y6292850D02*
G01*
X2584450Y6292850D01*
X2584450Y6340195D01*
X2582875Y6339535D01*
X2571140Y6332575D01*
X2560421Y6324092D01*
X2550922Y6314287D01*
X2542844Y6303314D01*
G37*
G36*
X811631Y6300368D02*
G01*
X886002Y6300368D01*
X881075Y6309563D01*
X870966Y6324549D01*
X859383Y6338468D01*
X846429Y6351117D01*
X832205Y6362344D01*
X816914Y6372098D01*
X811631Y6374739D01*
G37*
G36*
X1692910Y6976872D02*
G01*
X1734261Y6976872D01*
X1740560Y6977583D01*
X1746046Y6979513D01*
X1750923Y6982561D01*
X1755038Y6986676D01*
X1758086Y6991553D01*
X1760016Y6997039D01*
X1760728Y7003338D01*
X1760728Y7044690D01*
X1692910Y7044690D01*
G37*
G36*
X1542338Y6976872D02*
G01*
X1583690Y6976872D01*
X1583690Y7044690D01*
X1515872Y7044690D01*
X1515872Y7003338D01*
X1516583Y6997039D01*
X1518513Y6991553D01*
X1521561Y6986676D01*
X1525676Y6982561D01*
X1530553Y6979513D01*
X1536039Y6977583D01*
G37*
G36*
X721258Y7043318D02*
G01*
X739343Y7043318D01*
X757377Y7045198D01*
X775106Y7048906D01*
X792327Y7054392D01*
X808939Y7061657D01*
X824687Y7070598D01*
X839469Y7081062D01*
X853084Y7093051D01*
X865378Y7106310D01*
X876249Y7120788D01*
X885545Y7136333D01*
X893216Y7152741D01*
X899210Y7169861D01*
X903325Y7187488D01*
X905662Y7205421D01*
X906119Y7223506D01*
X904748Y7241590D01*
X901496Y7259421D01*
X896416Y7276795D01*
X889609Y7293559D01*
X881075Y7309561D01*
X870966Y7324598D01*
X859383Y7338466D01*
X846429Y7351115D01*
X832205Y7362342D01*
X816914Y7372096D01*
X800760Y7380173D01*
X783793Y7386574D01*
X766267Y7391196D01*
X748385Y7393940D01*
X730300Y7394905D01*
X712216Y7393940D01*
X694334Y7391196D01*
X676808Y7386574D01*
X659841Y7380173D01*
X643686Y7372096D01*
X628396Y7362342D01*
X614172Y7351115D01*
X601218Y7338466D01*
X589635Y7324598D01*
X579526Y7309561D01*
X570992Y7293559D01*
X564184Y7276795D01*
X559104Y7259421D01*
X555853Y7241590D01*
X554482Y7223506D01*
X554939Y7205421D01*
X557276Y7187488D01*
X561390Y7169861D01*
X567385Y7152741D01*
X575056Y7136333D01*
X584352Y7120788D01*
X595223Y7106310D01*
X607517Y7093051D01*
X621131Y7081062D01*
X635914Y7070598D01*
X651662Y7061657D01*
X668274Y7054392D01*
X685495Y7048906D01*
X703224Y7045198D01*
G37*
G36*
X1515872Y7153909D02*
G01*
X1583690Y7153909D01*
X1583690Y7220712D01*
X1584452Y7224623D01*
X1586687Y7227874D01*
X1589938Y7230109D01*
X1593850Y7230872D01*
X1682750Y7230872D01*
X1686661Y7230109D01*
X1689912Y7227874D01*
X1692148Y7224623D01*
X1692910Y7220712D01*
X1692910Y7153909D01*
X1760728Y7153909D01*
X1760728Y7195261D01*
X1760016Y7201560D01*
X1758086Y7207046D01*
X1755038Y7211923D01*
X1750923Y7216038D01*
X1748282Y7217714D01*
X1745335Y7220508D01*
X1743710Y7224268D01*
X1743710Y7228331D01*
X1745335Y7232091D01*
X1748282Y7234885D01*
X1750923Y7236561D01*
X1755038Y7240676D01*
X1758086Y7245553D01*
X1760016Y7251039D01*
X1760728Y7257338D01*
X1760728Y7449261D01*
X1760016Y7455560D01*
X1758086Y7461046D01*
X1755038Y7465923D01*
X1750923Y7470038D01*
X1746046Y7473086D01*
X1740560Y7475016D01*
X1734261Y7475728D01*
X1542338Y7475728D01*
X1537614Y7475220D01*
X1533448Y7475626D01*
X1529740Y7477709D01*
X1527251Y7481062D01*
X1525270Y7485481D01*
X1519936Y7493711D01*
X1514551Y7499756D01*
X1239570Y7774736D01*
X1237284Y7778292D01*
X1236624Y7782559D01*
X1237792Y7786674D01*
X1240536Y7789925D01*
X1244396Y7791805D01*
X1249426Y7792974D01*
X1262176Y7797901D01*
X1274114Y7804454D01*
X1285087Y7812531D01*
X1294892Y7822031D01*
X1303375Y7832699D01*
X1310335Y7844434D01*
X1315618Y7856981D01*
X1319225Y7870139D01*
X1321054Y7883652D01*
X1321054Y7897317D01*
X1319225Y7910830D01*
X1315618Y7923987D01*
X1310335Y7936534D01*
X1303375Y7948269D01*
X1294892Y7958988D01*
X1285087Y7968437D01*
X1274114Y7976514D01*
X1262176Y7983067D01*
X1249426Y7987995D01*
X1237183Y7990941D01*
X1233322Y7992770D01*
X1230528Y7996021D01*
X1229360Y8000136D01*
X1230020Y8004403D01*
X1232357Y8008010D01*
X1280515Y8056168D01*
X1283309Y8058150D01*
X1286560Y8059064D01*
X1290015Y8058861D01*
X1293164Y8057540D01*
X1297127Y8055000D01*
X1309522Y8049259D01*
X1322527Y8045196D01*
X1335989Y8042909D01*
X1349603Y8042503D01*
X1363167Y8043824D01*
X1376426Y8047024D01*
X1389176Y8051901D01*
X1401114Y8058454D01*
X1412087Y8066531D01*
X1421892Y8076031D01*
X1430375Y8086750D01*
X1437284Y8098485D01*
X1442618Y8111032D01*
X1446225Y8124190D01*
X1448054Y8137702D01*
X1448054Y8151317D01*
X1446225Y8164830D01*
X1442618Y8177987D01*
X1437284Y8190534D01*
X1430375Y8202269D01*
X1421892Y8212988D01*
X1412087Y8222488D01*
X1401114Y8230565D01*
X1389176Y8237118D01*
X1376426Y8241995D01*
X1363167Y8245195D01*
X1349603Y8246516D01*
X1335989Y8246059D01*
X1322527Y8243824D01*
X1309522Y8239759D01*
X1297127Y8234019D01*
X1285646Y8226704D01*
X1275232Y8217865D01*
X1266088Y8207756D01*
X1263497Y8203996D01*
X1261618Y8201914D01*
X1259230Y8200440D01*
X1253642Y8198002D01*
X1247140Y8193938D01*
X1239418Y8187334D01*
X1209700Y8157616D01*
X1205890Y8155228D01*
X1201470Y8154670D01*
X1197203Y8156143D01*
X1194003Y8159242D01*
X1192428Y8163458D01*
X1192225Y8164830D01*
X1188669Y8177987D01*
X1183335Y8190534D01*
X1176375Y8202269D01*
X1167942Y8212988D01*
X1158138Y8222488D01*
X1147114Y8230565D01*
X1135176Y8237118D01*
X1122476Y8241995D01*
X1109167Y8245195D01*
X1095603Y8246516D01*
X1081989Y8246059D01*
X1068527Y8243824D01*
X1055522Y8239759D01*
X1043127Y8234019D01*
X1031646Y8226704D01*
X1021232Y8217865D01*
X1012088Y8207756D01*
X1004366Y8196529D01*
X998219Y8184337D01*
X993749Y8171484D01*
X991057Y8158124D01*
X990142Y8144509D01*
X991057Y8130895D01*
X993749Y8117535D01*
X998219Y8104631D01*
X1004366Y8092490D01*
X1012088Y8081264D01*
X1021232Y8071103D01*
X1031646Y8062315D01*
X1043127Y8055000D01*
X1055522Y8049259D01*
X1068527Y8045196D01*
X1073708Y8044332D01*
X1077823Y8042656D01*
X1080820Y8039455D01*
X1082141Y8035239D01*
X1081582Y8030870D01*
X1079195Y8027111D01*
X1030986Y7978902D01*
X1027379Y7976565D01*
X1023061Y7975955D01*
X1018946Y7977174D01*
X1008176Y7983067D01*
X995426Y7987995D01*
X982167Y7991144D01*
X968603Y7992516D01*
X954989Y7992059D01*
X941527Y7989773D01*
X928522Y7985759D01*
X916127Y7980019D01*
X904646Y7972653D01*
X894232Y7963865D01*
X885088Y7953756D01*
X877366Y7942529D01*
X871219Y7930337D01*
X866749Y7917484D01*
X864006Y7904073D01*
X863092Y7890509D01*
X864006Y7876895D01*
X866749Y7863535D01*
X871219Y7850631D01*
X877366Y7838440D01*
X885088Y7827213D01*
X894232Y7817103D01*
X904646Y7808315D01*
X916127Y7800949D01*
X928522Y7795209D01*
X941527Y7791196D01*
X954989Y7788909D01*
X968603Y7788452D01*
X982167Y7789824D01*
X995426Y7792974D01*
X1008176Y7797901D01*
X1020114Y7804454D01*
X1023162Y7806690D01*
X1026363Y7808264D01*
X1029919Y7808620D01*
X1033424Y7807706D01*
X1036370Y7805674D01*
X1407820Y7434173D01*
X1410055Y7430922D01*
X1410817Y7427010D01*
X1410817Y7353503D01*
X1411020Y7348270D01*
X1411681Y7343292D01*
X1412697Y7338364D01*
X1414119Y7333538D01*
X1415948Y7328814D01*
X1418183Y7324293D01*
X1420723Y7319975D01*
X1423670Y7315911D01*
X1426921Y7312050D01*
X1430477Y7308494D01*
X1434338Y7305243D01*
X1438402Y7302296D01*
X1442720Y7299756D01*
X1447241Y7297521D01*
X1451965Y7295692D01*
X1456791Y7294270D01*
X1461719Y7293254D01*
X1466697Y7292594D01*
X1471930Y7292390D01*
X1505712Y7292390D01*
X1509623Y7291628D01*
X1512874Y7289393D01*
X1515110Y7286142D01*
X1515872Y7282230D01*
X1515872Y7257338D01*
X1516583Y7251039D01*
X1518513Y7245553D01*
X1521561Y7240676D01*
X1525676Y7236561D01*
X1528318Y7234885D01*
X1531264Y7232091D01*
X1532890Y7228331D01*
X1532890Y7224268D01*
X1531264Y7220508D01*
X1528318Y7217714D01*
X1525676Y7216038D01*
X1521561Y7211923D01*
X1518513Y7207046D01*
X1516583Y7201560D01*
X1515872Y7195261D01*
G37*
G36*
X714603Y7788452D02*
G01*
X728167Y7789824D01*
X741426Y7792974D01*
X754176Y7797901D01*
X766114Y7804454D01*
X777087Y7812531D01*
X786892Y7822031D01*
X795375Y7832699D01*
X802335Y7844434D01*
X807618Y7856981D01*
X811225Y7870139D01*
X813053Y7883652D01*
X813053Y7897317D01*
X811225Y7910830D01*
X807618Y7923987D01*
X802335Y7936534D01*
X795375Y7948269D01*
X786892Y7958988D01*
X777087Y7968437D01*
X766114Y7976514D01*
X754176Y7983067D01*
X741426Y7987995D01*
X728167Y7991144D01*
X714603Y7992516D01*
X700989Y7992059D01*
X687527Y7989773D01*
X674522Y7985759D01*
X662127Y7980019D01*
X650646Y7972653D01*
X640232Y7963865D01*
X631088Y7953756D01*
X623366Y7942529D01*
X617220Y7930337D01*
X612749Y7917484D01*
X610006Y7904073D01*
X609142Y7890509D01*
X610006Y7876895D01*
X612749Y7863535D01*
X617220Y7850631D01*
X623366Y7838440D01*
X631088Y7827213D01*
X640232Y7817103D01*
X650646Y7808315D01*
X662127Y7800949D01*
X674522Y7795209D01*
X687527Y7791196D01*
X700989Y7788909D01*
G37*
G36*
X841603Y8042503D02*
G01*
X855167Y8043824D01*
X868426Y8047024D01*
X881176Y8051901D01*
X893114Y8058454D01*
X904087Y8066531D01*
X913892Y8076031D01*
X922375Y8086750D01*
X929284Y8098485D01*
X934618Y8111032D01*
X938225Y8124190D01*
X940053Y8137702D01*
X940053Y8151317D01*
X938225Y8164830D01*
X934618Y8177987D01*
X929284Y8190534D01*
X922375Y8202269D01*
X913892Y8212988D01*
X904087Y8222488D01*
X893114Y8230565D01*
X881176Y8237118D01*
X868426Y8241995D01*
X855167Y8245195D01*
X841603Y8246516D01*
X827989Y8246059D01*
X814527Y8243824D01*
X801522Y8239759D01*
X789127Y8234019D01*
X777646Y8226704D01*
X767232Y8217865D01*
X758088Y8207756D01*
X750366Y8196529D01*
X744220Y8184337D01*
X739749Y8171484D01*
X737006Y8158124D01*
X736092Y8144509D01*
X737006Y8130895D01*
X739749Y8117535D01*
X744220Y8104631D01*
X750366Y8092490D01*
X758088Y8081264D01*
X767232Y8071103D01*
X777646Y8062315D01*
X789127Y8055000D01*
X801522Y8049259D01*
X814527Y8045196D01*
X827989Y8042909D01*
G37*
G36*
X1716278Y8633815D02*
G01*
X1735124Y8633815D01*
X1753870Y8635746D01*
X1772310Y8639505D01*
X1790242Y8645144D01*
X1807565Y8652611D01*
X1824024Y8661755D01*
X1839468Y8672474D01*
X1853793Y8684768D01*
X1866747Y8698382D01*
X1878279Y8713317D01*
X1888236Y8729268D01*
X1896516Y8746185D01*
X1903069Y8763863D01*
X1907793Y8782050D01*
X1910638Y8800693D01*
X1911604Y8819489D01*
X1910638Y8838285D01*
X1907793Y8856929D01*
X1903069Y8875115D01*
X1896516Y8892794D01*
X1888236Y8909710D01*
X1878279Y8925661D01*
X1866747Y8940596D01*
X1853793Y8954211D01*
X1839468Y8966504D01*
X1824024Y8977223D01*
X1807565Y8986367D01*
X1790242Y8993835D01*
X1772310Y8999474D01*
X1753870Y9003233D01*
X1735124Y9005163D01*
X1716278Y9005163D01*
X1697532Y9003233D01*
X1679092Y8999474D01*
X1661160Y8993835D01*
X1643837Y8986367D01*
X1627378Y8977223D01*
X1611934Y8966504D01*
X1597609Y8954211D01*
X1584655Y8940596D01*
X1573123Y8925661D01*
X1563166Y8909710D01*
X1554886Y8892794D01*
X1548333Y8875115D01*
X1543608Y8856929D01*
X1540764Y8838285D01*
X1539798Y8819489D01*
X1540764Y8800693D01*
X1543608Y8782050D01*
X1548333Y8763863D01*
X1554886Y8746185D01*
X1563166Y8729268D01*
X1573123Y8713317D01*
X1584655Y8698382D01*
X1597609Y8684768D01*
X1611934Y8672474D01*
X1627378Y8661755D01*
X1643837Y8652611D01*
X1661160Y8645144D01*
X1679092Y8639505D01*
X1697532Y8635746D01*
G37*
G36*
X576275Y8633815D02*
G01*
X595122Y8633815D01*
X613867Y8635746D01*
X632307Y8639505D01*
X650240Y8645144D01*
X667562Y8652611D01*
X684022Y8661755D01*
X699465Y8672474D01*
X713790Y8684768D01*
X726744Y8698382D01*
X738276Y8713317D01*
X748233Y8729268D01*
X756513Y8746185D01*
X763066Y8763863D01*
X767791Y8782050D01*
X770636Y8800693D01*
X771601Y8819489D01*
X770636Y8838285D01*
X767791Y8856929D01*
X763066Y8875115D01*
X756513Y8892794D01*
X748233Y8909710D01*
X738276Y8925661D01*
X726744Y8940596D01*
X713790Y8954211D01*
X699465Y8966504D01*
X684022Y8977223D01*
X667562Y8986367D01*
X650240Y8993835D01*
X632307Y8999474D01*
X613867Y9003233D01*
X595122Y9005163D01*
X576275Y9005163D01*
X557530Y9003233D01*
X539089Y8999474D01*
X521157Y8993835D01*
X503834Y8986367D01*
X487375Y8977223D01*
X471932Y8966504D01*
X457606Y8954211D01*
X444652Y8940596D01*
X433120Y8925661D01*
X423164Y8909710D01*
X414883Y8892794D01*
X408330Y8875115D01*
X403606Y8856929D01*
X400761Y8838285D01*
X399796Y8819489D01*
X400761Y8800693D01*
X403606Y8782050D01*
X408330Y8763863D01*
X414883Y8746185D01*
X423164Y8729268D01*
X433120Y8713317D01*
X444652Y8698382D01*
X457606Y8684768D01*
X471932Y8672474D01*
X487375Y8661755D01*
X503834Y8652611D01*
X521157Y8645144D01*
X539089Y8639505D01*
X557530Y8635746D01*
G37*
G36*
X365709Y9128607D02*
G01*
X377901Y9129471D01*
X389890Y9132062D01*
X401370Y9136380D01*
X412140Y9142222D01*
X421944Y9149588D01*
X430631Y9158224D01*
X437946Y9168079D01*
X443839Y9178798D01*
X448106Y9190278D01*
X450697Y9202267D01*
X451612Y9214866D01*
X451612Y9294114D01*
X450697Y9306712D01*
X448106Y9318701D01*
X443839Y9330182D01*
X437946Y9340900D01*
X430631Y9350705D01*
X421944Y9359392D01*
X412140Y9366758D01*
X401370Y9372600D01*
X389890Y9376918D01*
X377901Y9379508D01*
X365709Y9380372D01*
X353466Y9379508D01*
X341528Y9376918D01*
X330047Y9372600D01*
X319278Y9366758D01*
X309473Y9359392D01*
X300786Y9350705D01*
X293471Y9340900D01*
X287578Y9330182D01*
X283311Y9318701D01*
X280720Y9306712D01*
X279806Y9294114D01*
X279806Y9214866D01*
X280720Y9202267D01*
X283311Y9190278D01*
X287578Y9178798D01*
X293471Y9168079D01*
X300786Y9158224D01*
X309473Y9149588D01*
X319278Y9142222D01*
X330047Y9136380D01*
X341528Y9132062D01*
X353466Y9129471D01*
G37*
G36*
X1945690Y9128607D02*
G01*
X1957933Y9129471D01*
X1969922Y9132112D01*
X1981403Y9136380D01*
X1992122Y9142222D01*
X2001926Y9149588D01*
X2010613Y9158274D01*
X2017979Y9168079D01*
X2023821Y9178798D01*
X2028088Y9190278D01*
X2030730Y9202267D01*
X2031593Y9214866D01*
X2031593Y9294114D01*
X2030730Y9306712D01*
X2028088Y9318701D01*
X2023821Y9330182D01*
X2017979Y9340900D01*
X2010613Y9350756D01*
X2001926Y9359392D01*
X1992122Y9366758D01*
X1981403Y9372600D01*
X1969922Y9376918D01*
X1957933Y9379508D01*
X1945690Y9380372D01*
X1933498Y9379508D01*
X1921510Y9376918D01*
X1910029Y9372600D01*
X1899259Y9366758D01*
X1889455Y9359392D01*
X1880819Y9350756D01*
X1873453Y9340900D01*
X1867611Y9330182D01*
X1863293Y9318701D01*
X1860702Y9306712D01*
X1859788Y9294114D01*
X1859788Y9214866D01*
X1860702Y9202267D01*
X1863293Y9190278D01*
X1867611Y9178798D01*
X1873453Y9168079D01*
X1880819Y9158274D01*
X1889455Y9149588D01*
X1899259Y9142222D01*
X1910029Y9136380D01*
X1921510Y9132112D01*
X1933498Y9129471D01*
G37*

%LPD*%
D10*
X2800858Y1980692D02*
G01*
X2800858Y1814576D01*
X2717800Y1897634D02*
G01*
X2884170Y1897634D01*
X3225800Y1897634D02*
G01*
X3392170Y1897634D01*
X76200Y6085078D02*
G01*
X76200Y5891276D01*
X137160Y6085078D02*
G01*
X137160Y5891276D01*
X137160Y6085078D02*
G01*
X266445Y5891276D01*
X266445Y6085078D02*
G01*
X266445Y5891276D01*
X214629Y2254250D02*
G01*
X205486Y2272792D01*
X186944Y2291334D01*
X168655Y2300478D01*
X131571Y2300478D01*
X113029Y2291334D01*
X94742Y2272792D01*
X85344Y2254250D01*
X76200Y2226563D01*
X76200Y2180589D01*
X85344Y2152650D01*
X94742Y2134362D01*
X113029Y2115820D01*
X131571Y2106676D01*
X168655Y2106676D01*
X186944Y2115820D01*
X205486Y2134362D01*
X214629Y2152650D01*
X349504Y2300478D02*
G01*
X275589Y2106676D01*
X349504Y2300478D02*
G01*
X423418Y2106676D01*
X303529Y2171192D02*
G01*
X395731Y2171192D01*
X484378Y2300478D02*
G01*
X484378Y2106676D01*
X484378Y2300478D02*
G01*
X613663Y2106676D01*
X613663Y2300478D02*
G01*
X613663Y2106676D01*
X872489Y2300478D02*
G01*
X853947Y2291334D01*
X835405Y2272792D01*
X826262Y2254250D01*
X816863Y2226563D01*
X816863Y2180589D01*
X826262Y2152650D01*
X835405Y2134362D01*
X853947Y2115820D01*
X872489Y2106676D01*
X909320Y2106676D01*
X927862Y2115820D01*
X946150Y2134362D01*
X955547Y2152650D01*
X964692Y2180589D01*
X964692Y2226563D01*
X955547Y2254250D01*
X946150Y2272792D01*
X927862Y2291334D01*
X909320Y2300478D01*
X872489Y2300478D01*
X1025652Y2300478D02*
G01*
X1025652Y2162047D01*
X1035050Y2134362D01*
X1053337Y2115820D01*
X1081023Y2106676D01*
X1099565Y2106676D01*
X1127252Y2115820D01*
X1145794Y2134362D01*
X1154937Y2162047D01*
X1154937Y2300478D01*
X1280668Y2300478D02*
G01*
X1280668Y2106676D01*
X1215897Y2300478D02*
G01*
X1345184Y2300478D01*
X4421377Y5448300D02*
G01*
X4227575Y5448300D01*
X4421377Y5448300D02*
G01*
X4421377Y5383529D01*
X4412234Y5355844D01*
X4393691Y5337555D01*
X4375150Y5328157D01*
X4347463Y5319013D01*
X4301490Y5319013D01*
X4273550Y5328157D01*
X4255261Y5337555D01*
X4236720Y5355844D01*
X4227575Y5383529D01*
X4227575Y5448300D01*
X4301490Y5258054D02*
G01*
X4301490Y5147310D01*
X4319777Y5147310D01*
X4338320Y5156454D01*
X4347463Y5165597D01*
X4356861Y5184139D01*
X4356861Y5211826D01*
X4347463Y5230368D01*
X4329175Y5248910D01*
X4301490Y5258054D01*
X4282947Y5258054D01*
X4255261Y5248910D01*
X4236720Y5230368D01*
X4227575Y5211826D01*
X4227575Y5184139D01*
X4236720Y5165597D01*
X4255261Y5147310D01*
X4356861Y5076952D02*
G01*
X4227575Y5021579D01*
X4356861Y4966207D02*
G01*
X4227575Y5021579D01*
X4190491Y5040121D01*
X4171950Y5058410D01*
X4162806Y5076952D01*
X4162806Y5086350D01*
X4301490Y4905247D02*
G01*
X4301490Y4794250D01*
X4319777Y4794250D01*
X4338320Y4803647D01*
X4347463Y4812792D01*
X4356861Y4831334D01*
X4356861Y4859020D01*
X4347463Y4877562D01*
X4329175Y4895850D01*
X4301490Y4905247D01*
X4282947Y4905247D01*
X4255261Y4895850D01*
X4236720Y4877562D01*
X4227575Y4859020D01*
X4227575Y4831334D01*
X4236720Y4812792D01*
X4255261Y4794250D01*
X4421377Y4591050D02*
G01*
X4227575Y4591050D01*
X4421377Y4591050D02*
G01*
X4421377Y4471162D01*
X4329175Y4591050D02*
G01*
X4329175Y4517389D01*
X4227575Y4591050D02*
G01*
X4227575Y4471162D01*
X4393691Y4280915D02*
G01*
X4412234Y4299204D01*
X4421377Y4326889D01*
X4421377Y4363973D01*
X4412234Y4391660D01*
X4393691Y4410202D01*
X4375150Y4410202D01*
X4356861Y4400804D01*
X4347463Y4391660D01*
X4338320Y4373118D01*
X4319777Y4317745D01*
X4310634Y4299204D01*
X4301490Y4290060D01*
X4282947Y4280915D01*
X4255261Y4280915D01*
X4236720Y4299204D01*
X4227575Y4326889D01*
X4227575Y4363973D01*
X4236720Y4391660D01*
X4255261Y4410202D01*
X4421377Y4219955D02*
G01*
X4227575Y4219955D01*
X4421377Y4219955D02*
G01*
X4421377Y4136644D01*
X4412234Y4108957D01*
X4403090Y4099813D01*
X4384547Y4090670D01*
X4356861Y4090670D01*
X4338320Y4099813D01*
X4329175Y4108957D01*
X4319777Y4136644D01*
X4319777Y4219955D01*
X4421377Y4011168D02*
G01*
X4421377Y3909568D01*
X4347463Y3964939D01*
X4347463Y3937254D01*
X4338320Y3918712D01*
X4329175Y3909568D01*
X4301490Y3900170D01*
X4282947Y3900170D01*
X4255261Y3909568D01*
X4236720Y3928110D01*
X4227575Y3955795D01*
X4227575Y3983481D01*
X4236720Y4011168D01*
X4245863Y4020312D01*
X4264406Y4029710D01*
X4375150Y3830065D02*
G01*
X4384547Y3830065D01*
X4403090Y3820921D01*
X4412234Y3811523D01*
X4421377Y3793236D01*
X4421377Y3756152D01*
X4412234Y3737610D01*
X4403090Y3728465D01*
X4384547Y3719321D01*
X4366006Y3719321D01*
X4347463Y3728465D01*
X4319777Y3747007D01*
X4227575Y3839210D01*
X4227575Y3709923D01*
X4421377Y3506723D02*
G01*
X4227575Y3506723D01*
X4421377Y3506723D02*
G01*
X4421377Y3423665D01*
X4412234Y3395979D01*
X4403090Y3386836D01*
X4384547Y3377437D01*
X4366006Y3377437D01*
X4347463Y3386836D01*
X4338320Y3395979D01*
X4329175Y3423665D01*
X4329175Y3506723D02*
G01*
X4329175Y3423665D01*
X4319777Y3395979D01*
X4310634Y3386836D01*
X4292091Y3377437D01*
X4264406Y3377437D01*
X4245863Y3386836D01*
X4236720Y3395979D01*
X4227575Y3423665D01*
X4227575Y3506723D01*
X4356861Y3316478D02*
G01*
X4227575Y3316478D01*
X4301490Y3316478D02*
G01*
X4329175Y3307334D01*
X4347463Y3288792D01*
X4356861Y3270250D01*
X4356861Y3242563D01*
X4421377Y3181604D02*
G01*
X4412234Y3172460D01*
X4421377Y3163315D01*
X4430775Y3172460D01*
X4421377Y3181604D01*
X4356861Y3172460D02*
G01*
X4227575Y3172460D01*
X4421377Y2991357D02*
G01*
X4227575Y2991357D01*
X4329175Y2991357D02*
G01*
X4347463Y3009900D01*
X4356861Y3028442D01*
X4356861Y3056128D01*
X4347463Y3074670D01*
X4329175Y3092957D01*
X4301490Y3102355D01*
X4282947Y3102355D01*
X4255261Y3092957D01*
X4236720Y3074670D01*
X4227575Y3056128D01*
X4227575Y3028442D01*
X4236720Y3009900D01*
X4255261Y2991357D01*
X4356861Y2819654D02*
G01*
X4209034Y2819654D01*
X4181347Y2828797D01*
X4171950Y2838195D01*
X4162806Y2856484D01*
X4162806Y2884170D01*
X4171950Y2902712D01*
X4329175Y2819654D02*
G01*
X4347463Y2838195D01*
X4356861Y2856484D01*
X4356861Y2884170D01*
X4347463Y2902712D01*
X4329175Y2921254D01*
X4301490Y2930397D01*
X4282947Y2930397D01*
X4255261Y2921254D01*
X4236720Y2902712D01*
X4227575Y2884170D01*
X4227575Y2856484D01*
X4236720Y2838195D01*
X4255261Y2819654D01*
X4301490Y2758694D02*
G01*
X4301490Y2647950D01*
X4319777Y2647950D01*
X4338320Y2657094D01*
X4347463Y2666237D01*
X4356861Y2684779D01*
X4356861Y2712465D01*
X4347463Y2731007D01*
X4329175Y2749550D01*
X4301490Y2758694D01*
X4282947Y2758694D01*
X4255261Y2749550D01*
X4236720Y2731007D01*
X4227575Y2712465D01*
X4227575Y2684779D01*
X4236720Y2666237D01*
X4255261Y2647950D01*
X4356861Y2444750D02*
G01*
X4227575Y2389123D01*
X4356861Y2333752D02*
G01*
X4227575Y2389123D01*
X4421377Y2217420D02*
G01*
X4412234Y2245105D01*
X4384547Y2263647D01*
X4338320Y2272792D01*
X4310634Y2272792D01*
X4264406Y2263647D01*
X4236720Y2245105D01*
X4227575Y2217420D01*
X4227575Y2198878D01*
X4236720Y2171192D01*
X4264406Y2152650D01*
X4310634Y2143505D01*
X4338320Y2143505D01*
X4384547Y2152650D01*
X4412234Y2171192D01*
X4421377Y2198878D01*
X4421377Y2217420D01*
X4273550Y2073402D02*
G01*
X4264406Y2082545D01*
X4255261Y2073402D01*
X4264406Y2064004D01*
X4273550Y2073402D01*
X4421377Y1910842D02*
G01*
X4292091Y2003044D01*
X4292091Y1864613D01*
X4421377Y1910842D02*
G01*
X4227575Y1910842D01*
X278892Y7020813D02*
G01*
X297434Y7039355D01*
X306578Y7067042D01*
X306578Y7103871D01*
X297434Y7131558D01*
X278892Y7150100D01*
X260350Y7150100D01*
X242062Y7140955D01*
X232663Y7131558D01*
X223520Y7113270D01*
X204978Y7057644D01*
X195834Y7039355D01*
X186689Y7029958D01*
X168147Y7020813D01*
X140462Y7020813D01*
X121920Y7039355D01*
X112776Y7067042D01*
X112776Y7103871D01*
X121920Y7131558D01*
X140462Y7150100D01*
X186689Y6959854D02*
G01*
X186689Y6849110D01*
X204978Y6849110D01*
X223520Y6858254D01*
X232663Y6867397D01*
X242062Y6885939D01*
X242062Y6913626D01*
X232663Y6932168D01*
X214376Y6950710D01*
X186689Y6959854D01*
X168147Y6959854D01*
X140462Y6950710D01*
X121920Y6932168D01*
X112776Y6913626D01*
X112776Y6885939D01*
X121920Y6867397D01*
X140462Y6849110D01*
X242062Y6788150D02*
G01*
X112776Y6788150D01*
X204978Y6788150D02*
G01*
X232663Y6760210D01*
X242062Y6741921D01*
X242062Y6714236D01*
X232663Y6695694D01*
X204978Y6686550D01*
X112776Y6686550D01*
X214376Y6523989D02*
G01*
X232663Y6533134D01*
X242062Y6560820D01*
X242062Y6588505D01*
X232663Y6616192D01*
X214376Y6625589D01*
X195834Y6616192D01*
X186689Y6597650D01*
X177292Y6551676D01*
X168147Y6533134D01*
X149605Y6523989D01*
X140462Y6523989D01*
X121920Y6533134D01*
X112776Y6560820D01*
X112776Y6588505D01*
X121920Y6616192D01*
X140462Y6625589D01*
X242062Y6416802D02*
G01*
X232663Y6435089D01*
X214376Y6453631D01*
X186689Y6463029D01*
X168147Y6463029D01*
X140462Y6453631D01*
X121920Y6435089D01*
X112776Y6416802D01*
X112776Y6389115D01*
X121920Y6370573D01*
X140462Y6352031D01*
X168147Y6342887D01*
X186689Y6342887D01*
X214376Y6352031D01*
X232663Y6370573D01*
X242062Y6389115D01*
X242062Y6416802D01*
X242062Y6281928D02*
G01*
X112776Y6281928D01*
X186689Y6281928D02*
G01*
X214376Y6272529D01*
X232663Y6254242D01*
X242062Y6235700D01*
X242062Y6208013D01*
D11*
X7543800Y7086600D02*
G01*
X7370114Y6912914D01*
X6581673Y6912914D01*
X5504256Y5835497D01*
X1804873Y5835497D01*
X5448300Y2108200D02*
G01*
X5448300Y2162403D01*
X6401638Y3115741D01*
X7684211Y3115741D01*
X6959600Y2108200D02*
G01*
X6826250Y2108200D01*
X2882900Y6248400D02*
G01*
X2628900Y6248400D01*
X1471726Y6960438D02*
G01*
X730300Y6219012D01*
X1471726Y7099300D02*
G01*
X1471726Y6960438D01*
X1471726Y6960438D02*
G01*
X2183765Y6248400D01*
X2628900Y6248400D01*
X1638300Y7099300D02*
G01*
X1471726Y7099300D01*
X5702300Y1846783D02*
G01*
X5248783Y1846783D01*
X7467600Y2108200D02*
G01*
X7467600Y2057323D01*
X7257059Y1846783D01*
X5702300Y1846783D01*
X5702300Y1846783D02*
G01*
X5702300Y2108200D01*
X4927600Y2108200D02*
G01*
X4927600Y2329154D01*
X4972786Y2374341D01*
X6692900Y2108200D02*
G01*
X6594119Y2206980D01*
X5829452Y2206980D01*
X7213600Y2108200D02*
G01*
X7213600Y2173859D01*
X6993153Y2394305D01*
X6826250Y2394305D01*
X6515100Y6502400D02*
G01*
X5690590Y5677890D01*
X2246502Y5677890D01*
X2015490Y3302000D02*
G01*
X2132152Y3418662D01*
X2404338Y3418662D01*
X2628900Y4343400D02*
G01*
X2882900Y4343400D01*
X4025900Y6248400D02*
G01*
X3771900Y6248400D01*
X1638300Y6235700D02*
G01*
X1804873Y6235700D01*
X1804873Y6235700D02*
G01*
X1921332Y6119240D01*
X3642740Y6119240D01*
X3771900Y6248400D01*
X5194300Y2108200D02*
G01*
X5194300Y3905935D01*
X7416495Y6128130D01*
X7416495Y6754545D01*
X7675854Y7013905D01*
X7675854Y7462545D01*
X5511800Y9626600D01*
X1907743Y5435600D02*
G01*
X2038705Y5566562D01*
X6125362Y5566562D01*
X7061200Y6502400D01*
X1761489Y5435600D02*
G01*
X1907743Y5435600D01*
X4749800Y6502400D02*
G01*
X2861284Y6502400D01*
X1473200Y7890484D01*
X1600200Y8144510D02*
G01*
X1746453Y8144510D01*
X5295900Y6502400D02*
G01*
X4882261Y6916038D01*
X2956636Y6916038D01*
X1746453Y8126221D01*
X1746453Y8144510D01*
X651510Y4028490D02*
G01*
X651510Y4201109D01*
X730300Y6719011D02*
G01*
X522300Y6511010D01*
X522300Y6129350D01*
X636219Y6015431D01*
X5124094Y6015431D01*
X5615279Y6506616D01*
X5615279Y6682079D01*
X6019800Y7086600D01*
X3771900Y4343400D02*
G01*
X3771900Y3390900D01*
X2794000Y2413000D01*
X4025900Y4343400D02*
G01*
X3771900Y4343400D01*
X2730500Y3251200D02*
G01*
X2563926Y3251200D01*
X2015490Y3048000D02*
G01*
X2360726Y3048000D01*
X2563926Y3251200D01*
X1638300Y7353300D02*
G01*
X1471726Y7353300D01*
X1033195Y7894980D02*
G01*
X1471726Y7456449D01*
X1471726Y7353300D01*
X1033195Y7894980D02*
G01*
X1028700Y7890484D01*
X965200Y7890484D01*
X1346200Y8144484D02*
G01*
X1282700Y8144484D01*
X1033195Y7894980D01*
X2730500Y3505200D02*
G01*
X2730500Y3671773D01*
X2015490Y4800600D02*
G01*
X2491511Y4324578D01*
X2491511Y3910761D01*
X2730500Y3671773D01*
X2730500Y3505200D02*
G01*
X2897073Y3505200D01*
X3276600Y3251200D02*
G01*
X3110026Y3251200D01*
X3110026Y3251200D02*
G01*
X2897073Y3464153D01*
X2897073Y3505200D01*
D12*
G01*
X4749800Y6502400D03*
G01*
X5295900Y6502400D03*
G01*
X5842000Y6502400D03*
D13*
G01*
X4927600Y2108200D03*
G01*
X5194300Y2108200D03*
G01*
X5448300Y2108200D03*
G01*
X5702300Y2108200D03*
D12*
G01*
X6515100Y6502400D03*
G01*
X7061200Y6502400D03*
G01*
X7607300Y6502400D03*
D13*
G01*
X6692900Y2108200D03*
G01*
X6959600Y2108200D03*
G01*
X7213600Y2108200D03*
G01*
X7467600Y2108200D03*
D14*
G01*
X2971800Y7086600D03*
G01*
X3225800Y7086600D03*
G01*
X3479800Y7086600D03*
G01*
X3733800Y7086600D03*
G01*
X3987800Y7086600D03*
G01*
X4241800Y7086600D03*
G01*
X4495800Y7086600D03*
G01*
X4749800Y7086600D03*
G01*
X5003800Y7086600D03*
G01*
X5257800Y7086600D03*
G01*
X5511800Y7086600D03*
G01*
X5765800Y7086600D03*
G01*
X6019800Y7086600D03*
G01*
X6273800Y7086600D03*
G01*
X6527800Y7086600D03*
G01*
X6781800Y7086600D03*
G01*
X7035800Y7086600D03*
G01*
X7289800Y7086600D03*
G01*
X7543800Y7086600D03*
G01*
X7543800Y9626600D03*
G01*
X7289800Y9626600D03*
G01*
X7035800Y9626600D03*
G01*
X6781800Y9626600D03*
G01*
X6527800Y9626600D03*
G01*
X6273800Y9626600D03*
G01*
X6019800Y9626600D03*
G01*
X5765800Y9626600D03*
G01*
X5511800Y9626600D03*
G01*
X5257800Y9626600D03*
G01*
X5003800Y9626600D03*
G01*
X4749800Y9626600D03*
G01*
X4495800Y9626600D03*
G01*
X4241800Y9626600D03*
G01*
X3987800Y9626600D03*
G01*
X3733800Y9626600D03*
G01*
X3479800Y9626600D03*
G01*
X3225800Y9626600D03*
G01*
X2971800Y9626600D03*
D15*
G01*
X2794000Y2413000D03*
G01*
X3302000Y2413000D03*
D16*
G01*
X2730500Y3505200D03*
G01*
X2730500Y3251200D03*
D14*
G01*
X2015490Y4546600D03*
G01*
X1761489Y4673600D03*
G01*
X2015490Y4800600D03*
G01*
X1761489Y4927600D03*
G01*
X2015490Y5054600D03*
G01*
X1761489Y5181600D03*
G01*
X2015490Y5308600D03*
D17*
G01*
X1761489Y5435600D03*
D18*
G01*
X651510Y4201109D03*
G01*
X651510Y5781090D03*
D14*
G01*
X2015490Y2794000D03*
G01*
X1761489Y2921000D03*
G01*
X2015490Y3048000D03*
G01*
X1761489Y3175000D03*
G01*
X2015490Y3302000D03*
G01*
X1761489Y3429000D03*
G01*
X2015490Y3556000D03*
D17*
G01*
X1761489Y3683000D03*
D18*
G01*
X651510Y2448509D03*
G01*
X651510Y4028490D03*
D14*
G01*
X2882900Y4343400D03*
G01*
X2628900Y4343400D03*
G01*
X3771900Y4343400D03*
G01*
X4025900Y4343400D03*
G01*
X2628900Y6248400D03*
G01*
X2882900Y6248400D03*
G01*
X3771900Y6248400D03*
G01*
X4025900Y6248400D03*
D16*
G01*
X1638300Y6489700D03*
G01*
X1638300Y6235700D03*
G01*
X3276600Y3505200D03*
G01*
X3276600Y3251200D03*
D19*
G01*
X730300Y6219012D03*
G01*
X730300Y6719011D03*
G01*
X730300Y7219010D03*
D16*
G01*
X1638300Y7353300D03*
G01*
X1638300Y7099300D03*
D14*
G01*
X711200Y7890484D03*
G01*
X838200Y8144484D03*
G01*
X965200Y7890484D03*
G01*
X1092200Y8144484D03*
G01*
X1219200Y7890484D03*
G01*
X1346200Y8144484D03*
G01*
X1473200Y7890484D03*
D17*
G01*
X1600200Y8144510D03*
D20*
G01*
X365709Y9254489D03*
G01*
X1945690Y9254489D03*
D21*
G01*
X1804873Y5835497D03*
G01*
X7684211Y3115741D03*
G01*
X6826250Y2108200D03*
G01*
X5248783Y1846783D03*
G01*
X5829452Y2206980D03*
G01*
X4972786Y2374341D03*
G01*
X6826250Y2394305D03*
G01*
X2246502Y5677890D03*
G01*
X2404338Y3418662D03*
M02*
