G04 Layer: TopLayer*
G04 EasyEDA v6.5.22, 2023-01-11 09:16:23*
G04 b7ba764f11704334a16948ce3b62396a,f9ecfe7abe46434aadffdc01d2bfd918,10*
G04 Gerber Generator version 0.2*
G04 Scale: 100 percent, Rotated: No, Reflected: No *
G04 Dimensions in millimeters *
G04 leading zeros omitted , absolute positions ,4 integer and 5 decimal *
%FSLAX45Y45*%
%MOMM*%

%ADD10C,0.2032*%
%ADD11C,0.4000*%
%ADD12C,0.2540*%
%ADD13C,1.8000*%
%ADD14C,1.5240*%
%ADD15C,2.5400*%
%ADD16R,1.9304X1.9304*%
%ADD17C,1.8796*%
%ADD18R,1.5240X1.5240*%
%ADD19O,1.9999959999999999X1.1999976*%
%ADD20C,0.6100*%
%ADD21C,0.0123*%

%LPD*%
D10*
X235457Y8965692D02*
G01*
X235457Y8799576D01*
X152400Y8882634D02*
G01*
X318770Y8882634D01*
X233934Y8470900D02*
G01*
X233934Y8304529D01*
X293878Y7622286D02*
G01*
X100076Y7696200D01*
X293878Y7622286D02*
G01*
X100076Y7548371D01*
X164592Y7668513D02*
G01*
X164592Y7576058D01*
X281178Y7137400D02*
G01*
X87376Y7137400D01*
X281178Y7137400D02*
G01*
X281178Y7054342D01*
X272034Y7026655D01*
X262889Y7017258D01*
X244347Y7008113D01*
X225805Y7008113D01*
X207263Y7017258D01*
X198120Y7026655D01*
X188976Y7054342D01*
X188976Y7137400D02*
G01*
X188976Y7054342D01*
X179578Y7026655D01*
X170434Y7017258D01*
X151892Y7008113D01*
X124205Y7008113D01*
X105663Y7017258D01*
X96520Y7026655D01*
X87376Y7054342D01*
X87376Y7137400D01*
X344678Y5194300D02*
G01*
X150876Y5194300D01*
X344678Y5133339D02*
G01*
X150876Y5133339D01*
X344678Y5133339D02*
G01*
X150876Y5004054D01*
X344678Y5004054D02*
G01*
X150876Y5004054D01*
X285750Y3608070D02*
G01*
X304292Y3617213D01*
X322834Y3635755D01*
X331978Y3654044D01*
X331978Y3691128D01*
X322834Y3709670D01*
X304292Y3727957D01*
X285750Y3737355D01*
X258063Y3746500D01*
X212089Y3746500D01*
X184150Y3737355D01*
X165862Y3727957D01*
X147320Y3709670D01*
X138176Y3691128D01*
X138176Y3654044D01*
X147320Y3635755D01*
X165862Y3617213D01*
X184150Y3608070D01*
X331978Y3473195D02*
G01*
X138176Y3547110D01*
X331978Y3473195D02*
G01*
X138176Y3399281D01*
X202692Y3519170D02*
G01*
X202692Y3426968D01*
X331978Y3338321D02*
G01*
X138176Y3338321D01*
X331978Y3338321D02*
G01*
X138176Y3209036D01*
X331978Y3209036D02*
G01*
X138176Y3209036D01*
X331978Y2950210D02*
G01*
X322834Y2968752D01*
X304292Y2987294D01*
X285750Y2996437D01*
X258063Y3005836D01*
X212089Y3005836D01*
X184150Y2996437D01*
X165862Y2987294D01*
X147320Y2968752D01*
X138176Y2950210D01*
X138176Y2913379D01*
X147320Y2894837D01*
X165862Y2876550D01*
X184150Y2867152D01*
X212089Y2858007D01*
X258063Y2858007D01*
X285750Y2867152D01*
X304292Y2876550D01*
X322834Y2894837D01*
X331978Y2913379D01*
X331978Y2950210D01*
X331978Y2797047D02*
G01*
X193547Y2797047D01*
X165862Y2787650D01*
X147320Y2769362D01*
X138176Y2741676D01*
X138176Y2723134D01*
X147320Y2695447D01*
X165862Y2676905D01*
X193547Y2667762D01*
X331978Y2667762D01*
X331978Y2542031D02*
G01*
X138176Y2542031D01*
X331978Y2606802D02*
G01*
X331978Y2477515D01*
X3873500Y2135378D02*
G01*
X3873500Y1941576D01*
X3873500Y2135378D02*
G01*
X3938270Y2135378D01*
X3965956Y2126234D01*
X3984243Y2107692D01*
X3993641Y2089150D01*
X4002786Y2061463D01*
X4002786Y2015489D01*
X3993641Y1987550D01*
X3984243Y1969262D01*
X3965956Y1950720D01*
X3938270Y1941576D01*
X3873500Y1941576D01*
X4063745Y2015489D02*
G01*
X4174490Y2015489D01*
X4174490Y2033778D01*
X4165345Y2052320D01*
X4156202Y2061463D01*
X4137659Y2070862D01*
X4109974Y2070862D01*
X4091431Y2061463D01*
X4072890Y2043176D01*
X4063745Y2015489D01*
X4063745Y1996947D01*
X4072890Y1969262D01*
X4091431Y1950720D01*
X4109974Y1941576D01*
X4137659Y1941576D01*
X4156202Y1950720D01*
X4174490Y1969262D01*
X4244847Y2070862D02*
G01*
X4300220Y1941576D01*
X4355591Y2070862D02*
G01*
X4300220Y1941576D01*
X4281677Y1904492D01*
X4263390Y1885950D01*
X4244847Y1876805D01*
X4235450Y1876805D01*
X4416552Y2015489D02*
G01*
X4527550Y2015489D01*
X4527550Y2033778D01*
X4518152Y2052320D01*
X4509008Y2061463D01*
X4490465Y2070862D01*
X4462779Y2070862D01*
X4444238Y2061463D01*
X4425950Y2043176D01*
X4416552Y2015489D01*
X4416552Y1996947D01*
X4425950Y1969262D01*
X4444238Y1950720D01*
X4462779Y1941576D01*
X4490465Y1941576D01*
X4509008Y1950720D01*
X4527550Y1969262D01*
X4730750Y2135378D02*
G01*
X4730750Y1941576D01*
X4730750Y2135378D02*
G01*
X4850638Y2135378D01*
X4730750Y2043176D02*
G01*
X4804409Y2043176D01*
X4730750Y1941576D02*
G01*
X4850638Y1941576D01*
X5040884Y2107692D02*
G01*
X5022595Y2126234D01*
X4994909Y2135378D01*
X4957825Y2135378D01*
X4930140Y2126234D01*
X4911597Y2107692D01*
X4911597Y2089150D01*
X4920995Y2070862D01*
X4930140Y2061463D01*
X4948681Y2052320D01*
X5004054Y2033778D01*
X5022595Y2024634D01*
X5031740Y2015489D01*
X5040884Y1996947D01*
X5040884Y1969262D01*
X5022595Y1950720D01*
X4994909Y1941576D01*
X4957825Y1941576D01*
X4930140Y1950720D01*
X4911597Y1969262D01*
X5101843Y2135378D02*
G01*
X5101843Y1941576D01*
X5101843Y2135378D02*
G01*
X5185156Y2135378D01*
X5212841Y2126234D01*
X5221986Y2117089D01*
X5231129Y2098547D01*
X5231129Y2070862D01*
X5221986Y2052320D01*
X5212841Y2043176D01*
X5185156Y2033778D01*
X5101843Y2033778D01*
X5310631Y2135378D02*
G01*
X5412231Y2135378D01*
X5356859Y2061463D01*
X5384545Y2061463D01*
X5403088Y2052320D01*
X5412231Y2043176D01*
X5421629Y2015489D01*
X5421629Y1996947D01*
X5412231Y1969262D01*
X5393690Y1950720D01*
X5366004Y1941576D01*
X5338318Y1941576D01*
X5310631Y1950720D01*
X5301488Y1959863D01*
X5292090Y1978405D01*
X5491734Y2089150D02*
G01*
X5491734Y2098547D01*
X5500877Y2117089D01*
X5510275Y2126234D01*
X5528563Y2135378D01*
X5565647Y2135378D01*
X5584190Y2126234D01*
X5593334Y2117089D01*
X5602477Y2098547D01*
X5602477Y2080005D01*
X5593334Y2061463D01*
X5574791Y2033778D01*
X5482590Y1941576D01*
X5611875Y1941576D01*
X5815075Y2135378D02*
G01*
X5815075Y1941576D01*
X5815075Y2135378D02*
G01*
X5898134Y2135378D01*
X5925820Y2126234D01*
X5934963Y2117089D01*
X5944361Y2098547D01*
X5944361Y2080005D01*
X5934963Y2061463D01*
X5925820Y2052320D01*
X5898134Y2043176D01*
X5815075Y2043176D02*
G01*
X5898134Y2043176D01*
X5925820Y2033778D01*
X5934963Y2024634D01*
X5944361Y2006092D01*
X5944361Y1978405D01*
X5934963Y1959863D01*
X5925820Y1950720D01*
X5898134Y1941576D01*
X5815075Y1941576D01*
X6005322Y2070862D02*
G01*
X6005322Y1941576D01*
X6005322Y2015489D02*
G01*
X6014465Y2043176D01*
X6033008Y2061463D01*
X6051550Y2070862D01*
X6079236Y2070862D01*
X6140195Y2135378D02*
G01*
X6149340Y2126234D01*
X6158484Y2135378D01*
X6149340Y2144776D01*
X6140195Y2135378D01*
X6149340Y2070862D02*
G01*
X6149340Y1941576D01*
X6330441Y2135378D02*
G01*
X6330441Y1941576D01*
X6330441Y2043176D02*
G01*
X6311900Y2061463D01*
X6293358Y2070862D01*
X6265672Y2070862D01*
X6247129Y2061463D01*
X6228841Y2043176D01*
X6219443Y2015489D01*
X6219443Y1996947D01*
X6228841Y1969262D01*
X6247129Y1950720D01*
X6265672Y1941576D01*
X6293358Y1941576D01*
X6311900Y1950720D01*
X6330441Y1969262D01*
X6502145Y2070862D02*
G01*
X6502145Y1923034D01*
X6493002Y1895347D01*
X6483604Y1885950D01*
X6465315Y1876805D01*
X6437629Y1876805D01*
X6419088Y1885950D01*
X6502145Y2043176D02*
G01*
X6483604Y2061463D01*
X6465315Y2070862D01*
X6437629Y2070862D01*
X6419088Y2061463D01*
X6400545Y2043176D01*
X6391402Y2015489D01*
X6391402Y1996947D01*
X6400545Y1969262D01*
X6419088Y1950720D01*
X6437629Y1941576D01*
X6465315Y1941576D01*
X6483604Y1950720D01*
X6502145Y1969262D01*
X6563106Y2015489D02*
G01*
X6673850Y2015489D01*
X6673850Y2033778D01*
X6664706Y2052320D01*
X6655561Y2061463D01*
X6637020Y2070862D01*
X6609334Y2070862D01*
X6590791Y2061463D01*
X6572250Y2043176D01*
X6563106Y2015489D01*
X6563106Y1996947D01*
X6572250Y1969262D01*
X6590791Y1950720D01*
X6609334Y1941576D01*
X6637020Y1941576D01*
X6655561Y1950720D01*
X6673850Y1969262D01*
X6877050Y2070862D02*
G01*
X6932675Y1941576D01*
X6988047Y2070862D02*
G01*
X6932675Y1941576D01*
X7104379Y2135378D02*
G01*
X7076693Y2126234D01*
X7058152Y2098547D01*
X7049008Y2052320D01*
X7049008Y2024634D01*
X7058152Y1978405D01*
X7076693Y1950720D01*
X7104379Y1941576D01*
X7122922Y1941576D01*
X7150608Y1950720D01*
X7169150Y1978405D01*
X7178293Y2024634D01*
X7178293Y2052320D01*
X7169150Y2098547D01*
X7150608Y2126234D01*
X7122922Y2135378D01*
X7104379Y2135378D01*
X7248397Y1987550D02*
G01*
X7239254Y1978405D01*
X7248397Y1969262D01*
X7257795Y1978405D01*
X7248397Y1987550D01*
X7318756Y2098547D02*
G01*
X7337043Y2107692D01*
X7364729Y2135378D01*
X7364729Y1941576D01*
D11*
X2510790Y2908300D02*
G01*
X3098800Y2908300D01*
X1146810Y3888790D02*
G01*
X1146810Y4251909D01*
D12*
X7835900Y4368800D02*
G01*
X7150100Y4368800D01*
D11*
X7150100Y5257800D02*
G01*
X5269001Y3376701D01*
X3667099Y3376701D01*
X5245100Y5511800D02*
G01*
X3280765Y5511800D01*
X838200Y7954365D01*
X838200Y8382000D01*
X5245100Y4368800D02*
G01*
X4338853Y4368800D01*
X667715Y8039938D01*
X667715Y8719515D01*
X838200Y8890000D01*
X7835900Y4759350D02*
G01*
X7366000Y5229250D01*
X7366000Y6197600D01*
X7835900Y4622800D02*
G01*
X7835900Y4759350D01*
X3810000Y9144000D02*
G01*
X5294452Y7659547D01*
X8032597Y7659547D01*
D13*
G01*
X3667099Y3376701D03*
G01*
X3667099Y3122701D03*
G01*
X3667099Y2868701D03*
G01*
X3667099Y2614701D03*
G01*
X7667091Y3376701D03*
G01*
X7667091Y3122701D03*
G01*
X7667091Y2868701D03*
G01*
X7667091Y2614701D03*
D14*
G01*
X2794000Y6604000D03*
G01*
X3048000Y6604000D03*
G01*
X3302000Y6604000D03*
G01*
X3556000Y6604000D03*
G01*
X3810000Y6604000D03*
G01*
X4064000Y6604000D03*
G01*
X4318000Y6604000D03*
G01*
X4572000Y6604000D03*
G01*
X4826000Y6604000D03*
G01*
X5080000Y6604000D03*
G01*
X5334000Y6604000D03*
G01*
X5588000Y6604000D03*
G01*
X5842000Y6604000D03*
G01*
X6096000Y6604000D03*
G01*
X6350000Y6604000D03*
G01*
X6604000Y6604000D03*
G01*
X6858000Y6604000D03*
G01*
X7112000Y6604000D03*
G01*
X7366000Y6604000D03*
G01*
X7366000Y9144000D03*
G01*
X7112000Y9144000D03*
G01*
X6858000Y9144000D03*
G01*
X6604000Y9144000D03*
G01*
X6350000Y9144000D03*
G01*
X6096000Y9144000D03*
G01*
X5842000Y9144000D03*
G01*
X5588000Y9144000D03*
G01*
X5334000Y9144000D03*
G01*
X5080000Y9144000D03*
G01*
X4826000Y9144000D03*
G01*
X4572000Y9144000D03*
G01*
X4318000Y9144000D03*
G01*
X4064000Y9144000D03*
G01*
X3810000Y9144000D03*
G01*
X3556000Y9144000D03*
G01*
X3302000Y9144000D03*
G01*
X3048000Y9144000D03*
G01*
X2794000Y9144000D03*
D15*
G01*
X838200Y7607300D03*
G01*
X838200Y7099300D03*
G01*
X838200Y8890000D03*
G01*
X838200Y8382000D03*
D16*
G01*
X3098800Y3162300D03*
G01*
X3098800Y2908300D03*
D17*
G01*
X3048000Y9537700D03*
G01*
X3302000Y9537700D03*
G01*
X3556000Y9537700D03*
G01*
X2794000Y9537700D03*
G01*
X3810000Y9537700D03*
G01*
X4064000Y9537700D03*
G01*
X4318000Y9537700D03*
G01*
X4572000Y9537700D03*
G01*
X4826000Y9537700D03*
G01*
X5080000Y9537700D03*
G01*
X5334000Y9537700D03*
G01*
X5588000Y9537700D03*
G01*
X5842000Y9537700D03*
G01*
X6096000Y9537700D03*
G01*
X6350000Y9537700D03*
G01*
X6604000Y9537700D03*
G01*
X6858000Y9537700D03*
G01*
X7112000Y9537700D03*
G01*
X7366000Y9537700D03*
G01*
X3048000Y6197600D03*
G01*
X3302000Y6197600D03*
G01*
X3556000Y6197600D03*
G01*
X2794000Y6197600D03*
G01*
X3810000Y6197600D03*
G01*
X4064000Y6197600D03*
G01*
X4318000Y6197600D03*
G01*
X4572000Y6197600D03*
G01*
X4826000Y6197600D03*
G01*
X5080000Y6197600D03*
G01*
X5334000Y6197600D03*
G01*
X5588000Y6197600D03*
G01*
X5842000Y6197600D03*
G01*
X6096000Y6197600D03*
G01*
X6350000Y6197600D03*
G01*
X6604000Y6197600D03*
G01*
X6858000Y6197600D03*
G01*
X7112000Y6197600D03*
G01*
X7366000Y6197600D03*
D14*
G01*
X2510790Y4597400D03*
G01*
X2256790Y4724400D03*
G01*
X2510790Y4851400D03*
G01*
X2256790Y4978400D03*
G01*
X2510790Y5105400D03*
G01*
X2256790Y5232400D03*
G01*
X2510790Y5359400D03*
D18*
G01*
X2256790Y5486400D03*
D19*
G01*
X1146810Y4251909D03*
G01*
X1146810Y5831890D03*
D14*
G01*
X2510790Y2654300D03*
G01*
X2256790Y2781300D03*
G01*
X2510790Y2908300D03*
G01*
X2256790Y3035300D03*
G01*
X2510790Y3162300D03*
G01*
X2256790Y3289300D03*
G01*
X2510790Y3416300D03*
D18*
G01*
X2256790Y3543300D03*
D19*
G01*
X1146810Y2308809D03*
G01*
X1146810Y3888790D03*
D14*
G01*
X5245100Y5257800D03*
G01*
X5245100Y5511800D03*
G01*
X5245100Y4368800D03*
G01*
X5245100Y4114800D03*
G01*
X7150100Y5511800D03*
G01*
X7150100Y5257800D03*
G01*
X7150100Y4368800D03*
G01*
X7150100Y4114800D03*
D16*
G01*
X7835900Y4622800D03*
G01*
X7835900Y4368800D03*
D20*
G01*
X8032597Y7659547D03*
M02*
