G04 Layer: TopSolderMaskLayer*
G04 EasyEDA v6.5.22, 2023-04-24 20:58:47*
G04 13ecd297d484426e822b8d46814ac5cb,f9ecfe7abe46434aadffdc01d2bfd918,10*
G04 Gerber Generator version 0.2*
G04 Scale: 100 percent, Rotated: No, Reflected: No *
G04 Dimensions in millimeters *
G04 leading zeros omitted , absolute positions ,4 integer and 5 decimal *
%FSLAX45Y45*%
%MOMM*%

%AMMACRO1*1,1,$1,$2,$3*1,1,$1,$4,$5*1,1,$1,0-$2,0-$3*1,1,$1,0-$4,0-$5*20,1,$1,$2,$3,$4,$5,0*20,1,$1,$4,$5,0-$2,0-$3,0*20,1,$1,0-$2,0-$3,0-$4,0-$5,0*20,1,$1,0-$4,0-$5,$2,$3,0*4,1,4,$2,$3,$4,$5,0-$2,0-$3,0-$4,0-$5,$2,$3,0*%
%ADD10C,1.7272*%
%ADD11C,2.6416*%
%ADD12MACRO1,0.1016X0.9652X-0.9652X-0.9652X-0.9652*%
%ADD13C,1.6240*%
%ADD14MACRO1,0.1X0.762X0.762X0.762X-0.762*%
%ADD15O,2.1000212X1.3000228*%
%ADD16C,1.6256*%
%ADD17C,3.2032*%
%ADD18MACRO1,0.1X0.762X-0.762X-0.762X-0.762*%
%ADD19O,1.3000228X2.1000212*%
%ADD20O,2.2031959999999997X4.203192*%
%ADD21O,1.703197X4.203192*%

%LPD*%
D10*
G01*
X2971800Y7086600D03*
G01*
X3225800Y7086600D03*
G01*
X3479800Y7086600D03*
G01*
X3733800Y7086600D03*
G01*
X3987800Y7086600D03*
G01*
X4241800Y7086600D03*
G01*
X4495800Y7086600D03*
G01*
X4749800Y7086600D03*
G01*
X5003800Y7086600D03*
G01*
X5257800Y7086600D03*
G01*
X5511800Y7086600D03*
G01*
X5765800Y7086600D03*
G01*
X6019800Y7086600D03*
G01*
X6273800Y7086600D03*
G01*
X6527800Y7086600D03*
G01*
X6781800Y7086600D03*
G01*
X7035800Y7086600D03*
G01*
X7289800Y7086600D03*
G01*
X7543800Y7086600D03*
G01*
X7543800Y9626600D03*
G01*
X7289800Y9626600D03*
G01*
X7035800Y9626600D03*
G01*
X6781800Y9626600D03*
G01*
X6527800Y9626600D03*
G01*
X6273800Y9626600D03*
G01*
X6019800Y9626600D03*
G01*
X5765800Y9626600D03*
G01*
X5511800Y9626600D03*
G01*
X5257800Y9626600D03*
G01*
X5003800Y9626600D03*
G01*
X4749800Y9626600D03*
G01*
X4495800Y9626600D03*
G01*
X4241800Y9626600D03*
G01*
X3987800Y9626600D03*
G01*
X3733800Y9626600D03*
G01*
X3479800Y9626600D03*
G01*
X3225800Y9626600D03*
G01*
X2971800Y9626600D03*
D11*
G01*
X2794000Y2413000D03*
G01*
X3302000Y2413000D03*
D12*
G01*
X2730500Y3505200D03*
G01*
X2730500Y3251200D03*
D13*
G01*
X2015490Y4546600D03*
G01*
X1761489Y4673600D03*
G01*
X2015490Y4800600D03*
G01*
X1761489Y4927600D03*
G01*
X2015490Y5054600D03*
G01*
X1761489Y5181600D03*
G01*
X2015490Y5308600D03*
D14*
G01*
X1761492Y5435607D03*
D15*
G01*
X651510Y4201109D03*
G01*
X651510Y5781090D03*
D13*
G01*
X2015490Y2794000D03*
G01*
X1761489Y2921000D03*
G01*
X2015490Y3048000D03*
G01*
X1761489Y3175000D03*
G01*
X2015490Y3302000D03*
G01*
X1761489Y3429000D03*
G01*
X2015490Y3556000D03*
D14*
G01*
X1761492Y3683007D03*
D15*
G01*
X651510Y2448509D03*
G01*
X651510Y4028490D03*
D16*
G01*
X2882900Y4343400D03*
G01*
X2628900Y4343400D03*
G01*
X3771900Y4343400D03*
G01*
X4025900Y4343400D03*
G01*
X2628900Y6248400D03*
G01*
X2882900Y6248400D03*
G01*
X3771900Y6248400D03*
G01*
X4025900Y6248400D03*
D12*
G01*
X1638300Y6489700D03*
G01*
X1638300Y6235700D03*
G01*
X3276600Y3505200D03*
G01*
X3276600Y3251200D03*
D17*
G01*
X730300Y6219012D03*
G01*
X730300Y6719011D03*
G01*
X730300Y7219010D03*
D12*
G01*
X1638300Y7353300D03*
G01*
X1638300Y7099300D03*
D13*
G01*
X711200Y7890484D03*
G01*
X838200Y8144484D03*
G01*
X965200Y7890484D03*
G01*
X1092200Y8144484D03*
G01*
X1219200Y7890484D03*
G01*
X1346200Y8144484D03*
G01*
X1473200Y7890484D03*
D18*
G01*
X1600207Y8144507D03*
D19*
G01*
X365709Y9254489D03*
G01*
X1945690Y9254489D03*
D20*
G01*
X4749800Y6502400D03*
G01*
X5295900Y6502400D03*
G01*
X5842000Y6502400D03*
D21*
G01*
X4927600Y2108200D03*
G01*
X5194300Y2108200D03*
G01*
X5448300Y2108200D03*
G01*
X5702300Y2108200D03*
D20*
G01*
X6515100Y6502400D03*
G01*
X7061200Y6502400D03*
G01*
X7607300Y6502400D03*
D21*
G01*
X6692900Y2108200D03*
G01*
X6959600Y2108200D03*
G01*
X7213600Y2108200D03*
G01*
X7467600Y2108200D03*
M02*
